<?xml version="1.0" encoding="UTF-8" standalone="no"?>
<svg xmlns="http://www.w3.org/2000/svg" xml:space="preserve" id="svg2924" width="948.78802" height="535.03937" fill-rule="evenodd" version="1.1" viewBox="0 0 267.76908 151">
  <defs id="defs2926">
    <clipPath id="id0">
      <path id="path2931" d="M14.2307.0178h267.849v150.96H14.2307V.0178z"/>
    </clipPath>
    <style id="style2928" type="text/css">
      .str3{stroke-width:.5;stroke-linecap:round}.str0,.str1,.str2,.str3{stroke:#0a0b0c}.str2{stroke-width:.8}.str0{stroke-width:1.1}.str1{stroke-width:1.4}.fil3{fill:none}.fil4{fill:#0a0b0c}.fil2{fill:#dfc68e}
    </style>
  </defs>
  <g id="Layer_x0020_1" transform="translate(-14.076272 8e-8)">
    <path id="path2935" fill="#fb630c" d="M14.2307.0178h267.849v150.96H14.2307V.0178z"/>
    <g id="g2937" clip-path="url(#id0)">
      <g id="_67385088">
        <path id="_673859521" fill="#251f45" d="M11.101-2.9794h275.467v159.283H11.101V-2.9794z"/>
        <g id="g2941">
          <path id="_67385880" fill="#dfc68e" stroke="#0a0b0c" stroke-width="1.10000002" d="M206.393 107.652c-.9842 1.0484-2.0342 1.4919-2.6943 1.5822-2.1557.2948-3.362-2.0171-5.6979-2.0292-.8048-.004-2.6316.8957-2.6639 2.655.6714-.8661 1.2482-.6996 1.7373-.6753-.1255.3795.1348 1.1992 1.4699 1.3769 1.2815.1705 1.9334.5629 2.4453.5798-.4642.2778-2.3115-.2802-3.2128-.0327-1.0979.3014-1.9805 1.4481-1.9644 2.5363.24-.3145.6268-.8421 1.525-.9403.1578.9016 1.3549 1.3865 2.778 1.2121 1.1794-.1446 2.4178-.4059 3.6835-.5942 1.344-.1998 2.5651-.361 3.8823.0453 1.2626.3891 2.0914.4732 3.1967 1.2502 1.2288.8639 2.8616 1.9113 4.3217.3705.4505-.0343.6276.4023.7836 1.4604.9087-1.4666.1745-2.5921-1.0595-3.0454-1.6182-.5942-4.6047-1.0147-5.0687-2.8319-.0702-.9781 1.1989-1.7292 1.7342-2.2166.5348-.4874 1.9282-1.3145 2.9115-2.3358 1.2907-1.3408 1.1434-4.3812 1.0999-5.2894.583 1.0142.1053 4.5528-1.5281 5.771.1667.1831.9658 1.0964 1.1419 1.2631 1.9305 1.8285 4.4169 2.7163 6.9802 3.2472 2.1602.4474 5.0944 1.2211 9.4917.6339 1.8016-.2406 3.5385-1.2064 4.343-2.8857.7136-1.4896.694-3.5837-.3601-4.9091-7.2327-9.0934-30.2883-31.8551-34.164-34.6435-.7411 1.6591-3.3824 3.4652-3.091 10.3621.2233 5.2905 4.8461 9.6701 7.9599 13.5679 1.4352 1.7967 2.7162 3.7049 2.8048 5.1876.1628 2.1831-.2956 3.6386-.5738 4.9113-.3153 1.4423-.5541 2.6503-2.2119 4.4163z" class="fil2 str0"/>
          <path id="_67385808" fill="#dfc68e" stroke="#0a0b0c" stroke-width="1.39999998" d="M229 107.378s-.1853 5.4854.1483 6.7781 1.3761 4.6287 3.7947 4.8789c2.4186.2502 8.2566.2085 9.2991.1251 1.0425-.0834 3.2943-.9174 3.3777-2.1684.0834-1.251.0526-7.5644-.3907-8.9113-.2667-2.7167-22.0687-17.4814-21.8415-15.8187.7869 5.7584 5.7211 10.5213 5.6124 15.1163z" class="fil2 str1"/>
          <path id="_67385736" fill="#dfc68e" stroke="#0a0b0c" stroke-width="1.39999998" d="M183.684 52.9588c.5726-4.1123 3.8888-5.6009 7.7047-5.6009.1304-.4913 2.237-1.9566 4.4834-1.9566 2.2464 0 3.2334-.1653 4.8142.2299 1.5808.3952 4.9013 2.1383 7.9871 6.2249s3.3777 5.1708 5.4627 6.9639 11.7595 8.4235 16.0962 12.51c1.935 1.8234 4.1157 3.8333 6.2191 6.5443.9444 1.2173 1.7861 2.6639 2.7344 4.1466 1.6728 2.6154 3.2353 5.788 4.9743 9.3251 2.3064 4.691 3.3854 6.6617 3.8461 8.1734 1.0423 3.4198-.4362 11.2196-2.7773 13.5608 0 0-2.4738-3.1834-7.2536-7.1334-2.4708-2.0419-5.6179-4.0954-8.7334-6.2684-3.5339-2.4647-7.4517-4.6654-10.937-6.5616-3.7103-2.0186-6.9311-3.6925-8.6778-4.9735-4.4349-3.2522-8.6794-6.3465-11.553-9.4995-1.9926-2.1864-3.3725-4.3553-3.5091-6.8156-.3337-6.0083-.153-6.8366.0138-8.2544.1668-1.4178.4338-1.3972.3294-2.0869-.1044-.6897-2.164-5.2096-4.4157-7.4196-1.1643-.1698-1.9304-.1613-2.9482-.3094-1.488-.2164-2.5481-.5515-3.8603-.7991z" class="fil2 str1"/>
          <path id="_67385712" fill="none" stroke="#0a0b0c" stroke-width=".80000001" d="M191.232 47.5146s.7181.6542.7181 1.1534c0 .4109.0255 1.4944.2036 1.8258.1455.2702 1.0655 1.0862 1.9807 1.2526.4576.0832.926.2182 1.1963.4444.227.1898.8065 1.1886.0933 1.2196-.4784.0207-.7554-.3745-1.9765-.3536-1.2211.0209-2.2959.8628-3.6109.7374" class="fil3 str2"/>
          <path id="_67385640" fill="#0a0b0c" d="M192.897 49.5578s1.3534-.9794 2.2336-.9134c.8801.066 2.1783 1.3202 2.4864 1.3202.308 0-1.5623.8142-2.5084.5941-.9462-.22-1.5623-.7921-2.2116-1.0009z" class="fil4"/>
          <path id="_67385616" fill="none" stroke="#0a0b0c" stroke-linecap="round" stroke-width=".5" d="M183.88 53.1192s1.5184-1.2688 2.8912-1.248c1.3728.0208 2.0176.208 2.4544.2704.4368.0624 1.2688.2704 2.0176.2704.7488 0 2.0267.034 2.7259.2744" class="fil3 str3"/>
        </g>
        <path id="_67385520" fill="#dfc68e" stroke="#0a0b0c" stroke-width="1.39999998" d="m158.751 56.7227 6.27-3.3701-3.325 6.1921 7.042-1.3045-5.128 4.8716 7.125.8888-6.429 3.0741 6.511 2.9949-7.1.9757 5.259 4.8081-7.076-1.2182 3.493 6.1505-6.36-3.2927 1.384 6.8908-5.021-5.0452-.86 6.9568-3.191-6.3037-3.019 6.3416-1.048-6.9451-4.884 5.1058 1.197-6.9067-6.269 3.3701 3.325-6.1922-7.042 1.3045 5.127-4.8716-7.125-.8887 6.429-3.0741-6.511-2.995 7.1-.9757-5.259-4.808 7.076 1.2181-3.492-6.1505 6.36 3.2928-1.385-6.8908 5.021 5.0452.86-6.9568 3.191 6.3037 3.019-6.3416 1.049 6.945 4.883-5.1057z" class="fil2 str1"/>
        <g id="g2950">
          <path id="_67385448" fill="#dfc68e" stroke="#0a0b0c" stroke-width="1.10000002" d="M93.5276 107.652c.9842 1.0484 2.0342 1.4919 2.6943 1.5822 2.1557.2948 3.362-2.0171 5.6979-2.0292.8048-.004 2.6316.8957 2.6639 2.655-.6714-.8661-1.2482-.6996-1.7373-.6753.1255.3795-.1348 1.1992-1.4699 1.3769-1.2815.1705-1.9334.5629-2.4453.5798.4642.2778 2.3115-.2802 3.2128-.0327 1.0979.3014 1.9805 1.4481 1.9644 2.5363-.24-.3145-.6268-.8421-1.525-.9403-.1578.9016-1.3549 1.3865-2.778 1.2121-1.1794-.1446-2.4178-.4059-3.6835-.5942-1.344-.1998-2.5651-.361-3.8823.0453-1.2626.3891-2.0914.4732-3.1967 1.2502-1.2288.8639-2.8616 1.9113-4.3217.3705-.4505-.0343-.6276.4023-.7836 1.4604-.9087-1.4666-.1745-2.5921 1.0595-3.0454 1.6182-.5942 4.6047-1.0147 5.0687-2.8319.0702-.9781-1.1989-1.7292-1.7342-2.2166-.5348-.4874-1.9282-1.3145-2.9115-2.3358-1.2907-1.3408-1.1434-4.3812-1.0999-5.2894-.583 1.0142-.1053 4.5528 1.5281 5.771-.1667.1831-.9658 1.0964-1.1419 1.2631-1.9305 1.8285-4.4169 2.7163-6.9802 3.2472-2.1602.4474-5.0944 1.2211-9.4917.6339-1.8016-.2406-3.5385-1.2064-4.343-2.8857-.7136-1.4896-.694-3.5837.3601-4.9091 7.2327-9.0934 30.2883-31.8551 34.164-34.6435.7411 1.6591 3.3824 3.4652 3.091 10.3621-.2233 5.2905-4.8461 9.6701-7.9599 13.5679-1.4352 1.7967-2.7162 3.7049-2.8048 5.1876-.1628 2.1831.2956 3.6386.5738 4.9113.3153 1.4423.5541 2.6503 2.2119 4.4163z" class="fil2 str0"/>
          <path id="_67385376" fill="#dfc68e" stroke="#0a0b0c" stroke-width="1.39999998" d="M70.9205 107.378s.1853 5.4854-.1483 6.7781-1.3761 4.6287-3.7947 4.8789c-2.4186.2502-8.2566.2085-9.2991.1251-1.0425-.0834-3.2943-.9174-3.3777-2.1684-.0834-1.251-.0526-7.5644.3907-8.9113.2667-2.7167 22.0687-17.4814 21.8415-15.8187-.7869 5.7584-5.7211 10.5213-5.6124 15.1163z" class="fil2 str1"/>
          <path id="_67385304" fill="#dfc68e" stroke="#0a0b0c" stroke-width="1.39999998" d="M116.236 52.9588c-.5726-4.1123-3.8888-5.6009-7.7047-5.6009-.1304-.4913-2.237-1.9566-4.4834-1.9566-2.2464 0-3.2334-.1653-4.8142.2299-1.5808.3952-4.9013 2.1383-7.9871 6.2249s-3.3777 5.1708-5.4627 6.9639-11.7595 8.4235-16.0962 12.51c-1.935 1.8234-4.1157 3.8333-6.2191 6.5443-.9444 1.2173-1.7861 2.6639-2.7344 4.1466-1.6728 2.6154-3.2353 5.788-4.9743 9.3251-2.3064 4.691-3.3854 6.6617-3.8461 8.1734-1.0423 3.4198.4362 11.2196 2.7773 13.5608 0 0 2.4738-3.1834 7.2536-7.1334 2.4708-2.0419 5.6179-4.0954 8.7334-6.2684 3.5339-2.4647 7.4517-4.6654 10.937-6.5616 3.7103-2.0186 6.9311-3.6925 8.6778-4.9735 4.4349-3.2522 8.6794-6.3465 11.553-9.4995 1.9926-2.1864 3.3725-4.3553 3.5091-6.8156.3337-6.0083.153-6.8366-.0138-8.2544-.1668-1.4178-.4338-1.3972-.3294-2.0869.1044-.6897 2.164-5.2096 4.4157-7.4196 1.1643-.1698 1.9304-.1613 2.9482-.3094 1.488-.2164 2.5481-.5515 3.8603-.7991z" class="fil2 str1"/>
          <path id="_67385280" fill="none" stroke="#0a0b0c" stroke-width=".80000001" d="M108.688 47.5146s-.7181.6542-.7181 1.1534c0 .4109-.0255 1.4944-.2036 1.8258-.1455.2702-1.0655 1.0862-1.9807 1.2526-.4576.0832-.926.2182-1.1963.4444-.227.1898-.8065 1.1886-.0933 1.2196.4784.0207.7554-.3745 1.9765-.3536 1.2211.0209 2.2959.8628 3.6109.7374" class="fil3 str2"/>
          <path id="_67385208" fill="#0a0b0c" d="M107.024 49.5578s-1.3534-.9794-2.2336-.9134c-.8801.066-2.1783 1.3202-2.4864 1.3202-.308 0 1.5623.8142 2.5084.5941.9462-.22 1.5623-.7921 2.2116-1.0009z" class="fil4"/>
          <path id="_67385184" fill="none" stroke="#0a0b0c" stroke-linecap="round" stroke-width=".5" d="M116.04 53.1192s-1.5184-1.2688-2.8912-1.248c-1.3728.0208-2.0176.208-2.4544.2704-.4368.0624-1.2688.2704-2.0176.2704-.7488 0-2.0267.034-2.7259.2744" class="fil3 str3"/>
        </g>
      </g>
    </g>
    <path id="path2958" fill="none" d="M14.2307.0178h267.849v150.96H14.2307V.0178z" class="fil3"/>
  </g>
</svg>