<?xml version="1.0" encoding="UTF-8"?>
<svg version="1.0" xmlns="http://www.w3.org/2000/svg" xmlns:xlink="http://www.w3.org/1999/xlink" width="360" height="360">
	<g id="q1">
		<rect width="180" height="180" fill="#fff"/>
		<rect x="72" width="36" height="180" fill="#c32726"/>
		<rect y="72" width="180" height="36" fill="#c32726"/>
	</g>
	<g id="q2" transform="translate(180)">
		<rect width="180" height="180" fill="#c32726"/>
		<rect x="72" width="36" height="180" fill="#189a2e"/>
		<rect y="72" width="180" height="36" fill="#189a2e"/>
		<rect x="75" width="30" height="180" fill="#f9c82d"/>
		<rect y="75" width="180" height="30" fill="#f9c82d"/>
		<path id="b" d="M 36.938,12.694 c 1.904,.797 5.774,.797 7.681,0 c 2.293,-.135 4.529,-.465 6.721,-.959 c .453,.091 1.412,-.283 1.439,.479 V 58.23 c -.027,.763 -.986,.388 -1.439,.479 c -3.594,-.619 -7.201,-1.195 -11.041,-.958 c -2.612,-.019 -5.251,-.14 -7.681,.479 c -7.732,5.339 -17.419,-1.755 -16.8,-10.546 c 1.879,-6.38 9.682,-10.915 15.96,-8.268 c 4.021,1.454 5.251,3.961 0,4.074 c -6.581,4.361 .874,13.214 6.96,9.347 c 6.717,-4.049 6.332,-14.864 -1.32,-17.616 c 11.967,-3.341 4.029,-24.694 -6.839,-16.417 c -1.591,1.258 -1.473,3.446 -1.2,5.273 c 1.014,2.954 4.376,3.32 6.6,3.954 c -4.787,6.715 -15.956,3.965 -19.08,-2.996 C 12.421,12.463 27.607,7.555 36.938,12.694 z" fill="#f9c82d"/>
		<use xlink:href="#b" x="-180" transform="scale(-1,1)"/>
		<use xlink:href="#b" y="-180" transform="scale(1,-1)"/>
		<use xlink:href="#b" x="-180" y="-180" transform="scale(-1,-1)"/>
	</g>
	<use xlink:href="#q2" x="-180" y="180"/>
	<use xlink:href="#q1" x="180" y="180"/>
</svg>