<?xml version="1.0" encoding="UTF-8" standalone="no"?>
<!-- Created with Inkscape (http://www.inkscape.org/) -->
<svg
   xmlns:dc="http://purl.org/dc/elements/1.1/"
   xmlns:cc="http://web.resource.org/cc/"
   xmlns:rdf="http://www.w3.org/1999/02/22-rdf-syntax-ns#"
   xmlns:svg="http://www.w3.org/2000/svg"
   xmlns="http://www.w3.org/2000/svg"
   xmlns:sodipodi="http://sodipodi.sourceforge.net/DTD/sodipodi-0.dtd"
   xmlns:inkscape="http://www.inkscape.org/namespaces/inkscape"
   version="1.0"
   width="605.78479"
   height="605.80743"
   id="svg2"
   sodipodi:version="0.32"
   inkscape:version="0.45.1"
   sodipodi:docname="Coptic_cross.svg"
   inkscape:output_extension="org.inkscape.output.svg.inkscape"
   sodipodi:docbase="C:\Documents and Settings\Dan Sample\Desktop">
  <metadata
     id="metadata2178">
    <rdf:RDF>
      <cc:Work
         rdf:about="">
        <dc:format>image/svg+xml</dc:format>
        <dc:type
           rdf:resource="http://purl.org/dc/dcmitype/StillImage" />
      </cc:Work>
    </rdf:RDF>
  </metadata>
  <sodipodi:namedview
     inkscape:window-height="579"
     inkscape:window-width="815"
     inkscape:pageshadow="2"
     inkscape:pageopacity="0.0"
     guidetolerance="10.0"
     gridtolerance="10.0"
     objecttolerance="10.0"
     borderopacity="1.0"
     bordercolor="#666666"
     pagecolor="#ffffff"
     id="base"
     inkscape:zoom="0.61900858"
     inkscape:cx="302.8924"
     inkscape:cy="302.90372"
     inkscape:window-x="-5"
     inkscape:window-y="112"
     inkscape:current-layer="g2236"
     showguides="true"
     inkscape:guide-bbox="true" />
  <defs
     id="defs5" />
  <g
     id="g9238"
     transform="translate(-1.1096578,-1.1079318)">
    <g
       id="g2236">
      <path
         id="path8972"
         style="fill:#ffff00;fill-opacity:1;fill-rule:nonzero;stroke:#63ff38;stroke-width:0.69999999;stroke-linecap:round;stroke-linejoin:round;stroke-miterlimit:4;stroke-dashoffset:0;stroke-opacity:1;opacity:1"
         d="M 304.41243,125.2046 C 312.58127,105.45599 332.46449,91.961804 347.83384,106.61159 C 354.75473,113.20845 364.34535,125.71976 342.32633,140.68933 C 351.12371,158.08298 353.6966,175.38373 331.99974,192.32225 L 335.09772,221.06459 C 323.0014,225.82895 312.88736,232.82337 304.41243,241.72291 C 295.9375,232.83367 285.82346,225.83925 273.72714,221.07489 L 276.82512,192.33255 C 255.12826,175.39403 257.70115,158.09328 266.49853,140.69963 C 244.47951,125.73006 254.07013,113.21875 260.99102,106.62189 C 276.36037,91.972102 296.24359,105.45599 304.41243,125.2046 z "
         sodipodi:nodetypes="cscccccccsc" />
      <path
         id="path5264"
         style="opacity:1;fill:#150d7c;fill-opacity:1;fill-rule:nonzero;stroke:none;stroke-width:0.30000001;stroke-linecap:round;stroke-linejoin:round;stroke-miterlimit:4;stroke-dashoffset:0;stroke-opacity:1"
         d="M 374.00795,374.00358 L 460.27869,374.01863 L 527.98213,430.75958 L 527.98182,350.20709 C 529.2305,347.35422 580.47489,319.45809 606.89444,304.03708 C 580.50723,288.61606 529.2004,260.77837 527.95173,257.9255 L 527.9911,177.37301 L 460.4426,234.00017 L 374.00332,234.00072 L 374.00777,147.72369 L 430.74872,80.020244 L 350.19623,80.059614 C 347.34336,78.810935 319.44723,27.527489 304.02622,1.1079318 C 288.6052,27.49515 260.76751,78.801971 257.91464,80.05065 L 177.36215,80.01128 L 233.84378,147.46622 L 233.99811,233.99824 L 147.72542,234.00467 L 80.021969,177.26372 L 80.022278,257.81621 C 78.7736,260.66908 27.529208,288.56521 1.1096578,303.98622 C 27.496869,319.40724 78.803697,347.24493 80.052369,350.0978 L 80.012997,430.65029 L 147.5615,374.02313 L 234.00079,374.02258 L 233.99633,460.29961 L 177.25538,528.00306 L 257.80786,527.96369 C 260.66075,529.21237 288.55687,580.49581 303.97789,606.91537 C 319.39891,580.52815 347.23658,529.22133 350.08947,527.97265 L 430.64196,528.01202 L 374.16033,460.55708 L 374.00795,374.00358 z "
         sodipodi:nodetypes="ccccccccccccccccccccccccccccccccc" />
      <path
         id="path5245"
         style="opacity:1;fill:#eab41d;fill-opacity:1;fill-rule:nonzero;stroke:none;stroke-width:0.30000001;stroke-linecap:round;stroke-linejoin:round;stroke-miterlimit:4;stroke-dashoffset:0;stroke-opacity:1"
         d="M 359.0197,359.00618 L 464.10569,358.98135 L 513.97546,401.31278 L 513.98135,343.23565 C 527.89969,332.40612 558.78677,317.07659 581.18948,303.9811 C 558.78677,290.8856 527.89969,275.55607 513.98135,264.72654 L 513.97546,206.64941 L 464.1057,248.98084 L 359.00292,248.98795 L 359.0088,143.83562 L 401.32851,93.993191 L 343.25138,93.987302 C 332.42185,80.068962 317.09232,49.181879 303.99683,26.779166 C 290.90133,49.181879 275.5718,80.068962 264.74227,93.987302 L 206.66514,93.993192 L 248.99657,143.86295 L 248.99509,248.99616 L 143.86935,249.00508 L 93.999561,206.67365 L 93.993672,264.75078 C 80.075332,275.58031 49.188251,290.90984 26.785541,304.00533 C 49.188251,317.10083 80.075332,332.43036 93.993672,343.25989 L 93.999561,401.33702 L 143.86934,359.00559 L 248.97212,358.99848 L 248.96623,464.15081 L 206.64653,513.99324 L 264.72365,513.99913 C 275.55319,527.91747 290.88271,558.80455 303.9782,581.20727 C 317.0737,558.80455 332.40324,527.91747 343.23277,513.99913 L 401.3099,513.99324 L 358.97847,464.12348 L 359.0197,359.00618 z "
         sodipodi:nodetypes="ccccccccccccccccccccccccccccccccc" />
      <path
         sodipodi:type="arc"
         style="opacity:1;fill:#fcf91e;fill-opacity:1;fill-rule:nonzero;stroke:#0201fc;stroke-width:6.33010101;stroke-linecap:round;stroke-linejoin:round;stroke-miterlimit:4;stroke-dasharray:none;stroke-dashoffset:0;stroke-opacity:1"
         id="path5243"
         sodipodi:cx="304.46658"
         sodipodi:cy="304.0347"
         sodipodi:rx="64.583824"
         sodipodi:ry="63.087673"
         d="M 369.05041 304.0347 A 64.583824 63.087673 0 1 1  239.88276,304.0347 A 64.583824 63.087673 0 1 1  369.05041 304.0347 z"
         transform="matrix(0.9887433,0,0,0.9884763,2.9392957,3.3631512)" />
      <path
         d="M 299.2389,308.20523 C 299.34437,308.262 308.72156,308.26199 308.71828,308.31398 C 325.13748,309.88858 333.51015,317.09365 343.52476,329.03488 C 348.24263,323.77185 348.92429,317.37917 348.06473,311.80626 C 353.96354,310.88296 359.58483,308.88591 364.94412,303.94862 C 359.35201,299.01133 353.73072,297.01428 347.83191,296.09098 C 348.69147,290.51808 348.00981,284.1254 343.29194,278.86236 C 333.27733,290.80359 324.90466,298.00866 308.48546,299.58327 C 308.37998,299.85277 299.5772,299.5265 299.47171,299.47452 C 283.05252,297.89991 274.67985,290.69485 264.66524,278.75361 C 259.94737,284.01665 259.26571,290.40932 260.12527,295.98223 C 254.22645,296.90553 248.60517,298.90258 243.01306,303.83987 C 248.37235,308.77717 253.99364,310.77422 259.89245,311.69752 C 259.03289,317.27042 259.71455,323.6631 264.43242,328.92613 C 274.44703,316.98489 282.8197,309.77983 299.2389,308.20523 z M 299.6676,299.15456 C 299.61084,299.26003 299.61085,308.63722 299.55886,308.63394 C 297.98425,325.05314 290.77919,333.4258 278.83795,343.44042 C 284.10099,348.15829 290.49366,348.83995 296.06657,347.98039 C 296.98987,353.8792 298.98692,359.50049 303.92422,364.85977 C 308.86151,359.26767 310.85856,353.64637 311.78186,347.74757 C 317.35476,348.60713 323.74743,347.92547 329.01048,343.2076 C 317.06924,333.19299 309.86417,324.82032 308.28957,308.40111 C 308.02007,308.29563 308.34633,299.49286 308.39832,299.38737 C 309.97292,282.96818 317.17799,274.59551 329.11922,264.5809 C 323.85619,259.86303 317.46351,259.18137 311.8906,260.04093 C 310.96731,254.14211 308.97025,248.52083 304.03296,242.92872 C 299.09567,248.28801 297.09861,253.9093 296.17532,259.80811 C 290.60242,258.94855 284.20974,259.6302 278.9467,264.34808 C 290.88794,274.36269 298.093,282.73536 299.6676,299.15456 z "
         style="opacity:1;fill:#ffffff;fill-opacity:1;fill-rule:nonzero;stroke:#0201fc;stroke-width:3;stroke-linecap:round;stroke-linejoin:round;stroke-miterlimit:4;stroke-dasharray:none;stroke-dashoffset:0;stroke-opacity:1"
         id="path2167" />
      <path
         id="path4123"
         style="opacity:1;fill:#d70810;fill-opacity:1;fill-rule:nonzero;stroke:none;stroke-width:7.2579999;stroke-linecap:round;stroke-linejoin:round;stroke-miterlimit:4;stroke-dasharray:none;stroke-dashoffset:0;stroke-opacity:1"
         d="M 257.08507,303.981 C 258.6975,306.89081 270.32377,305.06646 276.89662,305.68654 C 268.92532,311.37006 264.06096,315.17376 264.06097,318.24315 C 265.46921,319.83911 266.32293,317.27514 269.69795,314.86614 C 275.10019,311.01016 284.07946,305.39492 292.89467,303.981 C 284.07946,302.56707 275.10019,296.95183 269.69795,293.09585 C 266.32293,290.68685 265.46921,288.12288 264.06097,289.71884 C 264.06096,292.78823 268.92532,296.59193 276.89662,302.27545 C 270.32377,302.89553 258.6975,301.07119 257.08507,303.981 z " />
      <path
         id="path4130"
         style="opacity:1;fill:#d70810;fill-opacity:1;fill-rule:nonzero;stroke:none;stroke-width:7.2579999;stroke-linecap:round;stroke-linejoin:round;stroke-miterlimit:4;stroke-dasharray:none;stroke-dashoffset:0;stroke-opacity:1"
         d="M 350.66549,303.981 C 349.05306,306.89081 337.42679,305.06646 330.85394,305.68654 C 338.82524,311.37006 343.6896,315.17376 343.68959,318.24315 C 342.28135,319.83911 341.42763,317.27514 338.05261,314.86614 C 332.65037,311.01016 323.6711,305.39492 314.85589,303.981 C 323.6711,302.56707 332.65037,296.95183 338.05261,293.09585 C 341.42763,290.68685 342.28135,288.12288 343.68959,289.71884 C 343.6896,292.78823 338.82524,296.59193 330.85394,302.27545 C 337.42679,302.89553 349.05306,301.07119 350.66549,303.981 z " />
      <path
         id="path4138"
         style="opacity:1;fill:#d70810;fill-opacity:1;fill-rule:nonzero;stroke:none;stroke-width:7.2579999;stroke-linecap:round;stroke-linejoin:round;stroke-miterlimit:4;stroke-dasharray:none;stroke-dashoffset:0;stroke-opacity:1"
         d="M 303.87526,257.19078 C 300.96545,258.80321 302.7898,270.42948 302.16972,277.00233 C 296.4862,269.03103 292.6825,264.16667 289.61311,264.16668 C 288.01715,265.57492 290.58112,266.42864 292.99012,269.80366 C 296.8461,275.2059 302.46134,284.18517 303.87526,293.00038 C 305.28919,284.18517 310.90443,275.2059 314.76041,269.80366 C 317.16941,266.42864 319.73338,265.57492 318.13742,264.16668 C 315.06803,264.16667 311.26433,269.03103 305.58081,277.00233 C 304.96073,270.42948 306.78507,258.80321 303.87526,257.19078 z " />
      <path
         id="path4140"
         style="opacity:1;fill:#d70810;fill-opacity:1;fill-rule:nonzero;stroke:none;stroke-width:7.2579999;stroke-linecap:round;stroke-linejoin:round;stroke-miterlimit:4;stroke-dasharray:none;stroke-dashoffset:0;stroke-opacity:1"
         d="M 303.87526,350.7712 C 300.96545,349.15877 302.7898,337.5325 302.16972,330.95965 C 296.4862,338.93095 292.6825,343.79531 289.61311,343.7953 C 288.01715,342.38706 290.58112,341.53334 292.99012,338.15832 C 296.8461,332.75608 302.46134,323.77681 303.87526,314.9616 C 305.28919,323.77681 310.90443,332.75608 314.76041,338.15832 C 317.16941,341.53334 319.73338,342.38706 318.13742,343.7953 C 315.06803,343.79531 311.26433,338.93095 305.58081,330.95965 C 304.96073,337.5325 306.78507,349.15877 303.87526,350.7712 z " />
      <path
         d="M 282.9258,286.98024 C 277.61105,283.39581 271.79253,276.98477 269.88013,272.6061 C 267.96774,268.22744 270.67435,267.51339 275.94861,271.00513 C 281.22289,274.49689 287.0987,280.8928 289.12274,285.34539 C 291.14679,289.79797 288.56456,290.64741 283.33313,287.24991"
         style="opacity:1;fill:#ff0000;fill-opacity:1;fill-rule:nonzero;stroke:none;stroke-width:7.61540461;stroke-linecap:round;stroke-linejoin:round;stroke-miterlimit:4;stroke-dasharray:none;stroke-dashoffset:0;stroke-opacity:1"
         id="path4144" />
      <path
         d="M 332.02644,336.30909 C 326.71169,332.72465 320.89317,326.31362 318.98077,321.93495 C 317.06838,317.55628 319.77499,316.84223 325.04925,320.33398 C 330.32353,323.82574 336.19934,330.22165 338.22338,334.67424 C 340.24743,339.12681 337.6652,339.97626 332.43377,336.57876"
         style="opacity:1;fill:#ff0000;fill-opacity:1;fill-rule:nonzero;stroke:none;stroke-width:7.61540461;stroke-linecap:round;stroke-linejoin:round;stroke-miterlimit:4;stroke-dasharray:none;stroke-dashoffset:0;stroke-opacity:1"
         id="path4146" />
      <path
         id="path4148"
         style="opacity:1;fill:#ff0000;fill-opacity:1;fill-rule:nonzero;stroke:none;stroke-width:7.61540461;stroke-linecap:round;stroke-linejoin:round;stroke-miterlimit:4;stroke-dasharray:none;stroke-dashoffset:0;stroke-opacity:1"
         d="M 320.55758,282.79666 C 324.14201,277.48191 330.55305,271.66339 334.93172,269.75099 C 339.31038,267.8386 340.02443,270.54521 336.53269,275.81947 C 333.04093,281.09375 326.64502,286.96956 322.19243,288.9936 C 317.73985,291.01765 316.89041,288.43542 320.28791,283.20399" />
      <path
         id="path4150"
         style="opacity:1;fill:#ff0000;fill-opacity:1;fill-rule:nonzero;stroke:none;stroke-width:7.61540461;stroke-linecap:round;stroke-linejoin:round;stroke-miterlimit:4;stroke-dasharray:none;stroke-dashoffset:0;stroke-opacity:1"
         d="M 271.57687,331.65049 C 275.1613,326.33574 281.57234,320.51722 285.95101,318.60482 C 290.32967,316.69243 291.04372,319.39904 287.55198,324.6733 C 284.06022,329.94758 277.66431,335.82339 273.21172,337.84743 C 268.75914,339.87148 267.9097,337.28925 271.3072,332.05782" />
      <path
         id="path8991"
         style="fill:#fcf91e;fill-opacity:1;fill-rule:nonzero;stroke:#63ff38;stroke-width:0.69421673;stroke-linecap:round;stroke-linejoin:round;stroke-miterlimit:4;stroke-dashoffset:0;stroke-opacity:1;opacity:1"
         d="M 127.146,303.46748 C 107.72345,295.29818 94.45206,275.41385 108.85997,260.04363 C 115.34791,253.12236 127.65266,243.5312 142.37507,265.55145 C 159.48155,256.75358 176.49665,254.18055 193.15551,275.87863 L 221.4233,272.78047 C 226.10899,284.87746 232.98794,294.99207 241.74054,303.46748 C 232.99806,311.94289 226.11913,322.0575 221.43343,334.15449 L 193.16564,331.05633 C 176.50678,352.75441 159.49168,350.18138 142.38521,341.38351 C 127.66279,363.40376 115.35805,353.8126 108.8701,346.89133 C 94.46219,331.52111 107.72345,311.63678 127.146,303.46748 z "
         sodipodi:nodetypes="cscccccccsc" />
      <path
         id="path4174"
         style="opacity:1;fill:#0201fc;fill-opacity:1;fill-rule:nonzero;stroke:none;stroke-width:0.5;stroke-linecap:round;stroke-linejoin:round;stroke-miterlimit:4;stroke-dashoffset:0;stroke-opacity:1"
         d="M 190.50547,277.03483 C 184.67916,273.14941 177.79413,277.15322 175.03609,279.79082 C 172.30604,282.40164 168.93019,289.13234 168.93019,289.13234 C 168.93019,289.13234 174.37208,285.27173 178.06297,285.89673 C 183.76443,286.86219 183.90794,291.27202 183.90794,291.68951 C 183.90794,292.10701 183.40522,297.25036 178.48046,296.96043 C 169.22029,296.41834 164.28917,292.37626 158.79845,287.05534 C 152.01002,280.47683 148.28182,271.03353 145.28482,267.54305 C 143.16928,265.07914 142.8662,262.63338 142.26537,261.89633 C 137.38478,255.90937 133.59941,253.2275 126.60632,250.40938 C 119.61323,247.59128 114.3945,250.82688 114.3945,250.82688 C 114.3945,250.82688 117.10823,243.7816 116.89948,237.2582 C 116.69513,230.87219 110.42658,227.25706 105.62703,226.82074 C 102.18267,226.50762 98.059879,231.25667 98.112067,235.5882 C 98.164255,239.91974 105.83578,244.14691 105.83578,244.14691 L 105.83578,237.67569 C 105.83578,237.67569 104.42673,236.73634 104.68766,235.37945 C 104.94785,234.02647 105.73733,232.53816 107.92327,232.87446 C 109.28014,233.08322 112.77669,234.12695 112.307,238.51069 C 111.77093,243.51399 110.53263,248.16534 106.25328,252.70563 C 100.37066,258.94694 100.27729,263.62908 99.990809,272.22366 C 99.886436,275.3549 100.69155,282.64569 102.9133,286.94047 C 103.24334,287.57846 106.32781,292.3456 107.19266,293.4117 C 110.90028,297.9821 120.89417,304.14806 121.28322,303.95353 L 154.89182,303.95353 C 154.89182,303.95353 148.15348,298.16186 141.74063,298.00417 C 135.37378,297.84761 129.42443,301.55291 129.42443,301.55291 C 129.42443,301.55291 124.2579,301.29197 118.98698,297.37793 C 113.71607,293.46387 111.62857,292.42014 108.34077,285.89673 C 105.05297,279.37331 103.42708,276.38444 105.83578,271.28429 C 110.73503,260.91071 124.41445,265.02182 124.41445,265.02182 L 121.07447,256.04562 C 121.07447,256.04562 130.73622,254.99191 138.37532,267.43599 C 142.82925,274.69144 143.19649,280.96553 152.38683,290.4892 C 162.36032,300.82443 167.13971,304.37102 179.31546,304.37102 C 190.53572,304.37102 197.01264,300.79893 201.02536,288.40173 C 205.98315,273.08475 221.8415,277.28026 222.08069,277.34805 C 225.91655,288.66476 233.56942,297.99233 241.53125,305.3528 C 242.32516,306.0863 243.56337,306.03733 244.29688,305.24343 C 245.03038,304.44952 244.98141,303.2113 244.1875,302.4778 C 235.83238,294.75376 227.28969,285.10929 224.5625,273.9778 C 223.91258,271.32324 223.10152,268.60522 222.9375,266.38405 C 222.77348,264.16289 223.07207,262.76104 224.59375,261.63405 C 226.34148,260.33963 227.19931,260.42172 228.40625,260.82155 C 228.804,260.95333 229.42188,261.35442 229.875,261.6028 C 230.08432,261.85265 230.787,262.30136 230.90625,262.4778 C 231.2667,263.01113 231.72544,263.87003 232.09375,264.75905 C 231.72223,264.96258 231.60935,264.99608 231.09375,265.32155 C 230.57815,265.64702 230.05776,266.02103 229.5625,266.44655 C 229.06724,266.87208 228.48864,267.21452 228.21875,268.38405 C 227.94942,269.55114 228.0679,270.31145 228.3497,270.97186 C 228.6315,271.63225 229.02045,272.28119 229.4747,272.90936 C 229.92895,273.53751 230.29907,273.94194 230.92946,274.44655 C 231.55985,274.95117 232.52917,275.64743 233.70476,275.58554 C 235.0972,275.51225 236.55226,274.71452 237.6875,273.6653 C 238.82274,272.61609 239.76277,271.01247 239.84375,269.07155 C 239.90751,267.54334 239.82627,265.84436 239.0625,264.1653 C 238.29873,262.48625 236.89391,261.07777 234.73006,259.91798 C 233.34393,259.17505 231.71626,257.7956 229.625,257.1028 C 228.57937,256.7564 227.38528,256.65429 226.125,256.8528 C 224.86472,257.05132 223.55234,257.56766 222.28125,258.50905 C 219.53219,260.54508 218.8172,263.76649 219.03125,266.6653 C 219.08457,267.38746 219.18233,268.10821 219.31032,269.09182 C 219.3122,269.36199 214.07218,266.16994 207.75752,266.16994 C 201.08959,266.16994 194.85961,272.88558 194.56004,273.1012 C 186.45017,264.28956 177.55877,257.52452 162.806,256.7338 C 144.93485,255.77596 127.37694,272.91794 127.687,273.17681 C 119.26132,279.68269 113.34786,287.337 97.643,290.2288 C 94.144569,290.87298 90.520782,287.58916 90.2335,284.03731 C 89.954375,280.5863 94.4965,276.32331 94.4965,276.32331 C 94.912499,275.21398 83.373996,276.15173 83.1285,284.03731 C 82.972779,289.03922 87.07278,297.07358 95.7145,295.9128 C 108.29959,294.22234 118.9475,289.3993 127.484,280.9923 C 127.43514,280.78058 146.23834,263.07739 157.731,262.8238 C 160.15417,262.77033 168.54065,266.06777 170.32595,268.64648 C 171.72339,270.66494 171.28342,273.3743 175.798,275.00381 L 175.8995,267.0868 C 174.38989,267.67647 174.30418,266.73929 174.783,264.6508 C 180.57745,267.50469 187.07768,270.92098 190.50547,277.03483 z "
         sodipodi:nodetypes="cscsscsssscsssccsssssssccscsssccsssscssssssscscssssssssssssssscscscsscsscsscccc" />
      <path
         sodipodi:nodetypes="cscsscsssscsssccsssssssccscsssccsssscssssssscscssssssssssssssscscscsscsscsscccc"
         d="M 190.50547,330.75365 C 184.67916,334.63907 177.79413,330.63527 175.03609,327.99768 C 172.30604,325.38684 168.93019,318.65614 168.93019,318.65614 C 168.93019,318.65614 174.37208,322.51676 178.06297,321.89176 C 183.76443,320.92631 183.90794,316.51648 183.90794,316.09898 C 183.90794,315.68147 183.40522,310.53812 178.48046,310.82806 C 169.22029,311.37014 164.28917,315.41224 158.79845,320.73316 C 152.01002,327.31165 148.28182,336.75496 145.28482,340.24544 C 143.16928,342.70934 142.8662,345.15511 142.26537,345.89216 C 137.38478,351.87912 133.59941,354.56099 126.60632,357.3791 C 119.61323,360.19721 114.3945,356.9616 114.3945,356.9616 C 114.3945,356.9616 117.10823,364.00689 116.89948,370.53029 C 116.69513,376.91629 110.42658,380.53143 105.62703,380.96774 C 102.18267,381.28087 98.059879,376.53182 98.112067,372.20029 C 98.164255,367.86874 105.83578,363.64157 105.83578,363.64157 L 105.83578,370.1128 C 105.83578,370.1128 104.42673,371.05215 104.68766,372.40904 C 104.94785,373.76202 105.73733,375.25032 107.92327,374.91402 C 109.28014,374.70527 112.77669,373.66154 112.307,369.27781 C 111.77093,364.2745 110.53263,359.62316 106.25328,355.08286 C 100.37066,348.84155 100.27729,344.1594 99.990809,335.56482 C 99.886436,332.43359 100.69155,325.14279 102.9133,320.84801 C 103.24334,320.21002 106.32781,315.44289 107.19266,314.3768 C 110.90028,309.80638 120.89417,303.64043 121.28322,303.83497 L 154.89182,303.83497 C 154.89182,303.83497 148.15348,309.62662 141.74063,309.78431 C 135.37378,309.94088 129.42443,306.23557 129.42443,306.23557 C 129.42443,306.23557 124.2579,306.49651 118.98698,310.41056 C 113.71607,314.32461 111.62857,315.36836 108.34077,321.89176 C 105.05297,328.41517 103.42708,331.40405 105.83578,336.50419 C 110.73503,346.87777 124.41445,342.76666 124.41445,342.76666 L 121.07447,351.74287 C 121.07447,351.74287 130.73622,352.79657 138.37532,340.35249 C 142.82925,333.09706 143.19649,326.82297 152.38683,317.29929 C 162.36032,306.96405 167.13971,303.41746 179.31546,303.41746 C 190.53572,303.41746 197.01264,306.98956 201.02536,319.38676 C 205.98315,334.70373 221.8415,330.50824 222.08069,330.44045 C 225.91655,319.12374 233.56942,309.79616 241.53125,302.43568 C 242.32516,301.70218 243.56337,301.75115 244.29688,302.54505 C 245.03038,303.33896 244.98141,304.57718 244.1875,305.31068 C 235.83238,313.03474 227.28969,322.6792 224.5625,333.81068 C 223.91258,336.46526 223.10152,339.18327 222.9375,341.40443 C 222.77348,343.62561 223.07207,345.02745 224.59375,346.15443 C 226.34148,347.44885 227.19931,347.36677 228.40625,346.96693 C 228.804,346.83517 229.42188,346.43406 229.875,346.18568 C 230.08432,345.93584 230.787,345.48712 230.90625,345.31068 C 231.2667,344.77736 231.72544,343.91846 232.09375,343.02943 C 231.72223,342.82592 231.60935,342.7924 231.09375,342.46693 C 230.57815,342.14146 230.05776,341.76745 229.5625,341.34193 C 229.06724,340.91641 228.48864,340.57396 228.21875,339.40443 C 227.94942,338.23735 228.0679,337.47704 228.3497,336.81663 C 228.6315,336.15623 229.02045,335.5073 229.4747,334.87913 C 229.92895,334.25097 230.29907,333.84655 230.92946,333.34193 C 231.55985,332.83731 232.52917,332.14106 233.70476,332.20295 C 235.0972,332.27623 236.55226,333.07396 237.6875,334.12318 C 238.82274,335.1724 239.76277,336.77601 239.84375,338.71693 C 239.90751,340.24516 239.82627,341.94412 239.0625,343.62318 C 238.29873,345.30224 236.89391,346.71072 234.73006,347.8705 C 233.34393,348.61345 231.71626,349.99289 229.625,350.68568 C 228.57937,351.03209 227.38528,351.13421 226.125,350.93568 C 224.86472,350.73717 223.55234,350.22083 222.28125,349.27943 C 219.53219,347.24341 218.8172,344.022 219.03125,341.12318 C 219.08457,340.40103 219.18233,339.68028 219.31032,338.69667 C 219.3122,338.4265 214.07218,341.61854 207.75752,341.61856 C 201.08959,341.61856 194.85961,334.90292 194.56004,334.68728 C 186.45017,343.49892 177.55877,350.26398 162.806,351.05469 C 144.93485,352.01252 127.37694,334.87054 127.687,334.61168 C 119.26132,328.1058 113.34786,320.45148 97.643,317.55969 C 94.144569,316.91551 90.520782,320.19933 90.2335,323.75118 C 89.954375,327.20218 94.4965,331.46518 94.4965,331.46518 C 94.912499,332.57451 83.373996,331.63676 83.1285,323.75118 C 82.972779,318.74926 87.07278,310.7149 95.7145,311.87568 C 108.29959,313.56615 118.9475,318.38919 127.484,326.79618 C 127.43514,327.0079 146.23834,344.7111 157.731,344.96468 C 160.15417,345.01815 168.54065,341.72073 170.32595,339.14202 C 171.72339,337.12356 171.28342,334.41418 175.798,332.78468 L 175.8995,340.70169 C 174.38989,340.11203 174.30418,341.0492 174.783,343.13768 C 180.57745,340.2838 187.07768,336.8675 190.50547,330.75365 z "
         style="opacity:1;fill:#0201fc;fill-opacity:1;fill-rule:nonzero;stroke:none;stroke-width:0.5;stroke-linecap:round;stroke-linejoin:round;stroke-miterlimit:4;stroke-dashoffset:0;stroke-opacity:1"
         id="path4134" />
      <path
         id="path4136"
         style="opacity:1;fill:#0000ff;fill-opacity:1;fill-rule:nonzero;stroke:none;stroke-width:0.5;stroke-linecap:round;stroke-linejoin:round;stroke-miterlimit:4;stroke-dashoffset:0;stroke-opacity:1"
         d="M 195.083,304.05354 C 196.12384,301.83416 197.5741,298.88241 200.61698,299.12122 C 202.82605,299.2946 202.7563,300.47861 203.42853,301.13966 C 203.95834,301.66066 204.56203,303.36005 207.30705,303.31338 C 209.55285,303.27518 210.87487,301.64034 211.71113,300.88183 C 212.35569,300.29721 212.81424,298.46029 217.23171,298.25178 C 221.80371,298.03596 229.39,304.03281 229.39,304.05354 C 229.39,304.07428 221.80371,310.07112 217.23171,309.85531 C 212.81424,309.6468 212.35569,307.80987 211.71113,307.22526 C 210.87487,306.46675 209.55285,304.83191 207.30705,304.79371 C 204.56203,304.74705 203.95834,306.44642 203.42853,306.96742 C 202.7563,307.62849 202.82605,308.81248 200.61698,308.98586 C 197.5741,309.22468 196.12384,306.27292 195.083,304.05354 z "
         sodipodi:nodetypes="cssssscsssssc" />
      <path
         sodipodi:nodetypes="ccc"
         id="path2234"
         d="M 60.66295,303.20335 C 67.53313,293.02576 74.05233,296.88733 80.51405,303.04827 C 75.76892,307.22562 69.7956,316.7435 60.66295,303.20335 z "
         style="opacity:1;fill:#fcf91e;fill-opacity:1;fill-rule:nonzero;stroke:#63ff38;stroke-width:0.69999999;stroke-linecap:round;stroke-linejoin:round;stroke-miterlimit:4;stroke-dasharray:none;stroke-dashoffset:0;stroke-opacity:1" />
      <path
         id="path4145"
         style="opacity:1;fill:#0201fc;fill-opacity:1;fill-rule:nonzero;stroke:none;stroke-width:0.5;stroke-linecap:round;stroke-linejoin:round;stroke-miterlimit:4;stroke-dashoffset:0;stroke-opacity:1"
         d="M 40.335492,303.79674 C 42.685773,307.7145 46.794928,310.67537 51.962449,311.61978 C 55.077639,312.1891 56.528143,309.16951 57.847699,306.59578 C 57.847699,306.59578 60.608517,314.95657 69.618198,314.92125 C 78.590192,314.88608 87.130404,303.72492 87.130404,303.79674 C 87.130404,303.86857 78.590192,292.70741 69.618198,292.67224 C 60.608517,292.63692 57.847699,300.99773 57.847699,300.99773 C 56.528143,298.42399 55.077639,295.40439 51.962449,295.97373 C 46.794928,296.91812 42.685773,299.87901 40.335492,303.79674 z M 63.95971,304.01164 C 68.833235,298.44286 73.247671,301.58704 76.989206,304.01164 C 73.175685,306.43624 68.833235,309.58042 63.95971,304.01164 z " />
      <path
         sodipodi:nodetypes="cscccccccsc"
         d="M 482.44492,303.46748 C 502.04862,295.29844 515.44379,275.41472 500.9015,260.04499 C 494.35304,253.12393 481.93354,243.53307 467.07382,265.55264 C 449.80781,256.75504 432.63401,254.18208 415.81978,275.87948 L 387.28836,272.78143 C 382.55896,284.87805 375.61586,294.99234 366.78163,303.46748 C 375.60564,311.94262 382.54873,322.05691 387.27813,334.15353 L 415.80956,331.05548 C 432.62378,352.75288 449.79758,350.17992 467.0636,341.38232 C 481.92332,363.40189 494.34282,353.81103 500.89127,346.88997 C 515.43356,331.52024 502.04862,311.63652 482.44492,303.46748 z "
         style="fill:#fcf91e;fill-opacity:1;fill-rule:nonzero;stroke:#63ff38;stroke-width:0.69743562;stroke-linecap:round;stroke-linejoin:round;stroke-miterlimit:4;stroke-dashoffset:0;stroke-opacity:1;opacity:1"
         id="path8993" />
      <path
         sodipodi:nodetypes="cscsscsssscsssccsssssssccscsssccsssscssssssscscssssssssssssssscscscsscsscsscccc"
         d="M 418.63453,277.03483 C 424.46084,273.14941 431.34587,277.15322 434.10391,279.79082 C 436.83396,282.40164 440.20981,289.13234 440.20981,289.13234 C 440.20981,289.13234 434.76792,285.27173 431.07703,285.89673 C 425.37557,286.86219 425.23206,291.27202 425.23206,291.68951 C 425.23206,292.10701 425.73478,297.25036 430.65954,296.96043 C 439.91971,296.41834 444.85083,292.37626 450.34155,287.05534 C 457.12998,280.47683 460.85818,271.03353 463.85518,267.54305 C 465.97072,265.07914 466.2738,262.63338 466.87463,261.89633 C 471.75522,255.90937 475.54059,253.2275 482.53368,250.40938 C 489.52677,247.59128 494.7455,250.82688 494.7455,250.82688 C 494.7455,250.82688 492.03177,243.7816 492.24052,237.2582 C 492.44487,230.87219 498.71342,227.25706 503.51297,226.82074 C 506.95733,226.50762 511.08012,231.25667 511.02793,235.5882 C 510.97574,239.91974 503.30422,244.14691 503.30422,244.14691 L 503.30422,237.67569 C 503.30422,237.67569 504.71327,236.73634 504.45234,235.37945 C 504.19215,234.02647 503.40267,232.53816 501.21673,232.87446 C 499.85986,233.08322 496.36331,234.12695 496.833,238.51069 C 497.36907,243.51399 498.60737,248.16534 502.88672,252.70563 C 508.76934,258.94694 508.86271,263.62908 509.14919,272.22366 C 509.25356,275.3549 508.44845,282.64569 506.2267,286.94047 C 505.89666,287.57846 502.81219,292.3456 501.94734,293.4117 C 498.23972,297.9821 488.24583,304.14806 487.85678,303.95353 L 454.24818,303.95353 C 454.24818,303.95353 460.98652,298.16186 467.39937,298.00417 C 473.76622,297.84761 479.71557,301.55291 479.71557,301.55291 C 479.71557,301.55291 484.8821,301.29197 490.15302,297.37793 C 495.42393,293.46387 497.51143,292.42014 500.79923,285.89673 C 504.08703,279.37331 505.71292,276.38444 503.30422,271.28429 C 498.40497,260.91071 484.72555,265.02182 484.72555,265.02182 L 488.06553,256.04562 C 488.06553,256.04562 478.40378,254.99191 470.76468,267.43599 C 466.31075,274.69144 465.94351,280.96553 456.75317,290.4892 C 446.77968,300.82443 442.00029,304.37102 429.82454,304.37102 C 418.60428,304.37102 412.12736,300.79893 408.11464,288.40173 C 403.15685,273.08475 387.2985,277.28026 387.05931,277.34805 C 383.22345,288.66476 375.57058,297.99233 367.60875,305.3528 C 366.81484,306.0863 365.57663,306.03733 364.84312,305.24343 C 364.10962,304.44952 364.15859,303.2113 364.9525,302.4778 C 373.30762,294.75376 381.85031,285.10929 384.5775,273.9778 C 385.22742,271.32324 386.03848,268.60522 386.2025,266.38405 C 386.36652,264.16289 386.06793,262.76104 384.54625,261.63405 C 382.79852,260.33963 381.94069,260.42172 380.73375,260.82155 C 380.336,260.95333 379.71812,261.35442 379.265,261.6028 C 379.05568,261.85265 378.353,262.30136 378.23375,262.4778 C 377.8733,263.01113 377.41456,263.87003 377.04625,264.75905 C 377.41777,264.96258 377.53065,264.99608 378.04625,265.32155 C 378.56185,265.64702 379.08224,266.02103 379.5775,266.44655 C 380.07276,266.87208 380.65136,267.21452 380.92125,268.38405 C 381.19058,269.55114 381.0721,270.31145 380.7903,270.97186 C 380.5085,271.63225 380.11955,272.28119 379.6653,272.90936 C 379.21105,273.53751 378.84093,273.94194 378.21054,274.44655 C 377.58015,274.95117 376.61083,275.64743 375.43524,275.58554 C 374.0428,275.51225 372.58774,274.71452 371.4525,273.6653 C 370.31726,272.61609 369.37723,271.01247 369.29625,269.07155 C 369.23249,267.54334 369.31373,265.84436 370.0775,264.1653 C 370.84127,262.48625 372.24609,261.07777 374.40994,259.91798 C 375.79607,259.17505 377.42374,257.7956 379.515,257.1028 C 380.56063,256.7564 381.75472,256.65429 383.015,256.8528 C 384.27528,257.05132 385.58766,257.56766 386.85875,258.50905 C 389.60781,260.54508 390.3228,263.76649 390.10875,266.6653 C 390.05543,267.38746 389.95767,268.10821 389.82968,269.09182 C 389.8278,269.36199 395.06782,266.16994 401.38248,266.16994 C 408.05041,266.16994 414.28039,272.88558 414.57996,273.1012 C 422.68983,264.28956 431.58123,257.52452 446.334,256.7338 C 464.20515,255.77596 481.76306,272.91794 481.453,273.17681 C 489.87868,279.68269 495.79214,287.337 511.497,290.2288 C 514.99543,290.87298 518.61922,287.58916 518.9065,284.03731 C 519.18562,280.5863 514.6435,276.32331 514.6435,276.32331 C 514.2275,275.21398 525.766,276.15173 526.0115,284.03731 C 526.16722,289.03922 522.06722,297.07358 513.4255,295.9128 C 500.84041,294.22234 490.1925,289.3993 481.656,280.9923 C 481.70486,280.78058 462.90166,263.07739 451.409,262.8238 C 448.98583,262.77033 440.59935,266.06777 438.81405,268.64648 C 437.41661,270.66494 437.85658,273.3743 433.342,275.00381 L 433.2405,267.0868 C 434.75011,267.67647 434.83582,266.73929 434.357,264.6508 C 428.56255,267.50469 422.06232,270.92098 418.63453,277.03483 z "
         style="opacity:1;fill:#0201fc;fill-opacity:1;fill-rule:nonzero;stroke:none;stroke-width:0.5;stroke-linecap:round;stroke-linejoin:round;stroke-miterlimit:4;stroke-dashoffset:0;stroke-opacity:1"
         id="path4210" />
      <path
         id="path4212"
         style="opacity:1;fill:#0201fc;fill-opacity:1;fill-rule:nonzero;stroke:none;stroke-width:0.5;stroke-linecap:round;stroke-linejoin:round;stroke-miterlimit:4;stroke-dashoffset:0;stroke-opacity:1"
         d="M 418.63453,330.75365 C 424.46084,334.63907 431.34587,330.63527 434.10391,327.99768 C 436.83396,325.38684 440.20981,318.65614 440.20981,318.65614 C 440.20981,318.65614 434.76792,322.51676 431.07703,321.89176 C 425.37557,320.92631 425.23206,316.51648 425.23206,316.09898 C 425.23206,315.68147 425.73478,310.53812 430.65954,310.82806 C 439.91971,311.37014 444.85083,315.41224 450.34155,320.73316 C 457.12998,327.31165 460.85818,336.75496 463.85518,340.24544 C 465.97072,342.70934 466.2738,345.15511 466.87463,345.89216 C 471.75522,351.87912 475.54059,354.56099 482.53368,357.3791 C 489.52677,360.19721 494.7455,356.9616 494.7455,356.9616 C 494.7455,356.9616 492.03177,364.00689 492.24052,370.53029 C 492.44487,376.91629 498.71342,380.53143 503.51297,380.96774 C 506.95733,381.28087 511.08012,376.53182 511.02793,372.20029 C 510.97574,367.86874 503.30422,363.64157 503.30422,363.64157 L 503.30422,370.1128 C 503.30422,370.1128 504.71327,371.05215 504.45234,372.40904 C 504.19215,373.76202 503.40267,375.25032 501.21673,374.91402 C 499.85986,374.70527 496.36331,373.66154 496.833,369.27781 C 497.36907,364.2745 498.60737,359.62316 502.88672,355.08286 C 508.76934,348.84155 508.86271,344.1594 509.14919,335.56482 C 509.25356,332.43359 508.44845,325.14279 506.2267,320.84801 C 505.89666,320.21002 502.81219,315.44289 501.94734,314.3768 C 498.23972,309.80638 488.24583,303.64043 487.85678,303.83497 L 454.24818,303.83497 C 454.24818,303.83497 460.98652,309.62662 467.39937,309.78431 C 473.76622,309.94088 479.71557,306.23557 479.71557,306.23557 C 479.71557,306.23557 484.8821,306.49651 490.15302,310.41056 C 495.42393,314.32461 497.51143,315.36836 500.79923,321.89176 C 504.08703,328.41517 505.71292,331.40405 503.30422,336.50419 C 498.40497,346.87777 484.72555,342.76666 484.72555,342.76666 L 488.06553,351.74287 C 488.06553,351.74287 478.40378,352.79657 470.76468,340.35249 C 466.31075,333.09706 465.94351,326.82297 456.75317,317.29929 C 446.77968,306.96405 442.00029,303.41746 429.82454,303.41746 C 418.60428,303.41746 412.12736,306.98956 408.11464,319.38676 C 403.15685,334.70373 387.2985,330.50824 387.05931,330.44045 C 383.22345,319.12374 375.57058,309.79616 367.60875,302.43568 C 366.81484,301.70218 365.57663,301.75115 364.84312,302.54505 C 364.10962,303.33896 364.15859,304.57718 364.9525,305.31068 C 373.30762,313.03474 381.85031,322.6792 384.5775,333.81068 C 385.22742,336.46526 386.03848,339.18327 386.2025,341.40443 C 386.36652,343.62561 386.06793,345.02745 384.54625,346.15443 C 382.79852,347.44885 381.94069,347.36677 380.73375,346.96693 C 380.336,346.83517 379.71812,346.43406 379.265,346.18568 C 379.05568,345.93584 378.353,345.48712 378.23375,345.31068 C 377.8733,344.77736 377.41456,343.91846 377.04625,343.02943 C 377.41777,342.82592 377.53065,342.7924 378.04625,342.46693 C 378.56185,342.14146 379.08224,341.76745 379.5775,341.34193 C 380.07276,340.91641 380.65136,340.57396 380.92125,339.40443 C 381.19058,338.23735 381.0721,337.47704 380.7903,336.81663 C 380.5085,336.15623 380.11955,335.5073 379.6653,334.87913 C 379.21105,334.25097 378.84093,333.84655 378.21054,333.34193 C 377.58015,332.83731 376.61083,332.14106 375.43524,332.20295 C 374.0428,332.27623 372.58774,333.07396 371.4525,334.12318 C 370.31726,335.1724 369.37723,336.77601 369.29625,338.71693 C 369.23249,340.24516 369.31373,341.94412 370.0775,343.62318 C 370.84127,345.30224 372.24609,346.71072 374.40994,347.8705 C 375.79607,348.61345 377.42374,349.99289 379.515,350.68568 C 380.56063,351.03209 381.75472,351.13421 383.015,350.93568 C 384.27528,350.73717 385.58766,350.22083 386.85875,349.27943 C 389.60781,347.24341 390.3228,344.022 390.10875,341.12318 C 390.05543,340.40103 389.95767,339.68028 389.82968,338.69667 C 389.8278,338.4265 395.06782,341.61854 401.38248,341.61856 C 408.05041,341.61856 414.28039,334.90292 414.57996,334.68728 C 422.68983,343.49892 431.58123,350.26398 446.334,351.05469 C 464.20515,352.01252 481.76306,334.87054 481.453,334.61168 C 489.87868,328.1058 495.79214,320.45148 511.497,317.55969 C 514.99543,316.91551 518.61922,320.19933 518.9065,323.75118 C 519.18562,327.20218 514.6435,331.46518 514.6435,331.46518 C 514.2275,332.57451 525.766,331.63676 526.0115,323.75118 C 526.16722,318.74926 522.06722,310.7149 513.4255,311.87568 C 500.84041,313.56615 490.1925,318.38919 481.656,326.79618 C 481.70486,327.0079 462.90166,344.7111 451.409,344.96468 C 448.98583,345.01815 440.59935,341.72073 438.81405,339.14202 C 437.41661,337.12356 437.85658,334.41418 433.342,332.78468 L 433.2405,340.70169 C 434.75011,340.11203 434.83582,341.0492 434.357,343.13768 C 428.56255,340.2838 422.06232,336.8675 418.63453,330.75365 z "
         sodipodi:nodetypes="cscsscsssscsssccsssssssccscsssccsssscssssssscscssssssssssssssscscscsscsscsscccc" />
      <path
         sodipodi:nodetypes="cssssscsssssc"
         d="M 414.057,304.05354 C 413.01616,301.83416 411.5659,298.88241 408.52302,299.12122 C 406.31395,299.2946 406.3837,300.47861 405.71147,301.13966 C 405.18166,301.66066 404.57797,303.36005 401.83295,303.31338 C 399.58715,303.27518 398.26513,301.64034 397.42887,300.88183 C 396.78431,300.29721 396.32576,298.46029 391.90829,298.25178 C 387.33629,298.03596 379.75,304.03281 379.75,304.05354 C 379.75,304.07428 387.33629,310.07112 391.90829,309.85531 C 396.32576,309.6468 396.78431,307.80987 397.42887,307.22526 C 398.26513,306.46675 399.58715,304.83191 401.83295,304.79371 C 404.57797,304.74705 405.18166,306.44642 405.71147,306.96742 C 406.3837,307.62849 406.31395,308.81248 408.52302,308.98586 C 411.5659,309.22468 413.01616,306.27292 414.057,304.05354 z "
         style="opacity:1;fill:#0000ff;fill-opacity:1;fill-rule:nonzero;stroke:none;stroke-width:0.5;stroke-linecap:round;stroke-linejoin:round;stroke-miterlimit:4;stroke-dashoffset:0;stroke-opacity:1"
         id="path4214" />
      <path
         sodipodi:nodetypes="ccc"
         id="path2232"
         d="M 529.0248,303.9282 C 535.89498,314.10579 542.41418,310.24422 548.87589,304.08328 C 544.13077,299.90593 538.15745,290.38805 529.0248,303.9282 z "
         style="opacity:1;fill:#fcf91e;fill-opacity:1;fill-rule:nonzero;stroke:#63ff38;stroke-width:0.69999999;stroke-linecap:round;stroke-linejoin:round;stroke-miterlimit:4;stroke-dasharray:none;stroke-dashoffset:0;stroke-opacity:1" />
      <path
         d="M 568.80451,303.79674 C 566.45423,307.7145 562.34507,310.67537 557.17755,311.61978 C 554.06236,312.1891 552.61186,309.16951 551.2923,306.59578 C 551.2923,306.59578 548.53148,314.95657 539.5218,314.92125 C 530.54981,314.88608 522.0096,303.72492 522.0096,303.79674 C 522.0096,303.86857 530.54981,292.70741 539.5218,292.67224 C 548.53148,292.63692 551.2923,300.99773 551.2923,300.99773 C 552.61186,298.42399 554.06236,295.40439 557.17755,295.97373 C 562.34507,296.91812 566.45423,299.87901 568.80451,303.79674 z M 545.18029,304.01164 C 540.30677,298.44286 535.89233,301.58704 532.15079,304.01164 C 535.96431,306.43624 540.30677,309.58042 545.18029,304.01164 z "
         style="opacity:1;fill:#0201fc;fill-opacity:1;fill-rule:nonzero;stroke:none;stroke-width:0.5;stroke-linecap:round;stroke-linejoin:round;stroke-miterlimit:4;stroke-dashoffset:0;stroke-opacity:1"
         id="path4216" />
      <path
         id="path8983"
         style="fill:#fcf91e;fill-opacity:1;fill-rule:nonzero;stroke:#63ff38;stroke-width:0.69743562;stroke-linecap:round;stroke-linejoin:round;stroke-miterlimit:4;stroke-dashoffset:0;stroke-opacity:1;opacity:1"
         d="M 304.90988,125.93244 C 296.74084,106.32874 276.85712,92.933574 261.48739,107.47586 C 254.56633,114.02432 244.97547,126.44382 266.99504,141.30354 C 258.19744,158.56955 255.62448,175.74335 277.32188,192.55758 L 274.22383,221.089 C 286.32045,225.8184 296.43474,232.7615 304.90988,241.59573 C 313.38502,232.77172 323.49931,225.82863 335.59593,221.09923 L 332.49788,192.5678 C 354.19528,175.75358 351.62232,158.57978 342.82472,141.31376 C 364.84429,126.45404 355.25343,114.03454 348.33237,107.48609 C 332.96264,92.943798 313.07892,106.32874 304.90988,125.93244 z "
         sodipodi:nodetypes="cscccccccsc" />
      <path
         sodipodi:nodetypes="cscsscsssscsssccsssssssccscsssccsssscssssssscscssssssssssssssscscscsscsscsscccc"
         d="M 331.42941,189.82971 C 335.31483,184.0034 331.31102,177.11837 328.67343,174.36033 C 326.0626,171.63028 319.3319,168.25444 319.3319,168.25444 C 319.3319,168.25444 323.19252,173.69633 322.56752,177.38722 C 321.60206,183.08867 317.19223,183.23218 316.77473,183.23218 C 316.35723,183.23218 311.21388,182.72947 311.50381,177.8047 C 312.0459,168.54454 316.08799,163.61342 321.40891,158.12269 C 327.98741,151.33426 337.43071,147.60607 340.9212,144.60906 C 343.3851,142.49352 345.83087,142.19044 346.56791,141.58961 C 352.55487,136.70903 355.23674,132.92366 358.05486,125.93057 C 360.87297,118.93748 357.63736,113.71875 357.63736,113.71875 C 357.63736,113.71875 364.68264,116.43248 371.20605,116.22373 C 377.59205,116.01938 381.20718,109.75083 381.6435,104.95128 C 381.95662,101.50692 377.20758,97.384124 372.87604,97.436312 C 368.5445,97.4885 364.31733,105.16003 364.31733,105.16003 L 370.78855,105.16003 C 370.78855,105.16003 371.72791,103.75098 373.08479,104.01191 C 374.43778,104.2721 375.92608,105.06158 375.58978,107.24752 C 375.38103,108.60439 374.33729,112.10094 369.95356,111.63125 C 364.95025,111.09518 360.29891,109.85688 355.75862,105.57753 C 349.5173,99.694905 344.83516,99.601535 336.24058,99.315054 C 333.10935,99.210681 325.81855,100.0158 321.52377,102.23755 C 320.88578,102.56759 316.11865,105.65206 315.05255,106.51691 C 310.48214,110.22453 304.31619,120.21842 304.51072,120.60747 L 304.51072,154.21606 C 304.51072,154.21606 310.30238,147.47772 310.46007,141.06488 C 310.61663,134.69803 306.91133,128.74867 306.91133,128.74867 C 306.91133,128.74867 307.17227,123.58215 311.08632,118.31123 C 315.00037,113.04032 316.04411,110.95282 322.56752,107.66502 C 329.09093,104.37722 332.07981,102.75133 337.17995,105.16003 C 347.55353,110.05928 343.44242,123.7387 343.44242,123.7387 L 352.41863,120.39872 C 352.41863,120.39872 353.47233,130.06046 341.02825,137.69956 C 333.77281,142.15349 327.49872,142.52074 317.97504,151.71107 C 307.63981,161.68456 304.09322,166.46396 304.09322,178.6397 C 304.09322,189.85996 307.66532,196.33689 320.06252,200.34961 C 335.37949,205.30739 331.18399,221.16574 331.1162,221.40493 C 319.79949,225.24079 310.47191,232.89367 303.11144,240.85549 C 302.37794,241.64941 302.42691,242.88761 303.22081,243.62112 C 304.01472,244.35463 305.25294,244.30566 305.98644,243.51174 C 313.71049,235.15662 323.35496,226.61394 334.48644,223.88674 C 337.14101,223.23682 339.85902,222.42576 342.08019,222.26174 C 344.30136,222.09773 345.7032,222.39631 346.83019,223.91799 C 348.12461,225.66572 348.04253,226.52355 347.64269,227.73049 C 347.51092,228.12824 347.10982,228.74612 346.86144,229.19924 C 346.6116,229.40856 346.16288,230.11125 345.98644,230.23049 C 345.45311,230.59094 344.59422,231.04968 343.70519,231.41799 C 343.50167,231.04647 343.46816,230.9336 343.14269,230.41799 C 342.81722,229.90239 342.44321,229.382 342.01769,228.88674 C 341.59217,228.39148 341.24972,227.81288 340.08019,227.54299 C 338.9131,227.27366 338.15279,227.39215 337.49239,227.67395 C 336.83199,227.95574 336.18305,228.3447 335.55489,228.79895 C 334.92673,229.25319 334.52231,229.62331 334.01769,230.25371 C 333.51307,230.8841 332.81682,231.85341 332.8787,233.029 C 332.95199,234.42144 333.74972,235.8765 334.79894,237.01174 C 335.84816,238.14699 337.45177,239.08701 339.39269,239.16799 C 340.92091,239.23175 342.61988,239.15051 344.29894,238.38674 C 345.978,237.62298 347.38648,236.21816 348.54626,234.05431 C 349.2892,232.66817 350.66864,231.04051 351.36144,228.94924 C 351.70784,227.90362 351.80996,226.70952 351.61144,225.44924 C 351.41292,224.18897 350.89659,222.87658 349.95519,221.60549 C 347.91917,218.85644 344.69775,218.14145 341.79894,218.35549 C 341.07678,218.40882 340.35604,218.50658 339.37242,218.63456 C 339.10226,218.63644 342.2943,213.39642 342.29431,207.08176 C 342.29431,200.41383 335.57867,194.18385 335.36304,193.88428 C 344.17468,185.77442 350.93973,176.88302 351.73044,162.13025 C 352.68828,144.2591 335.5463,126.70119 335.28744,127.01125 C 328.78155,118.58557 321.12724,112.67211 318.23544,96.967245 C 317.59126,93.468814 320.87509,89.845027 324.42694,89.557745 C 327.87794,89.27862 332.14094,93.820745 332.14094,93.820745 C 333.25027,94.236744 332.31252,82.698241 324.42694,82.452745 C 319.42502,82.297024 311.39066,86.397025 312.55144,95.038745 C 314.2419,107.62384 319.06494,118.27175 327.47194,126.80825 C 327.68366,126.75939 345.38685,145.56258 345.64044,157.05524 C 345.69391,159.47841 342.39648,167.86489 339.81777,169.6502 C 337.79931,171.04763 335.08994,170.60767 333.46044,175.12224 L 341.37744,175.22374 C 340.78778,173.71414 341.72496,173.62842 343.81344,174.10724 C 340.95955,179.90169 337.54326,186.40192 331.42941,189.82971 z "
         style="opacity:1;fill:#0201fc;fill-opacity:1;fill-rule:nonzero;stroke:none;stroke-width:0.5;stroke-linecap:round;stroke-linejoin:round;stroke-miterlimit:4;stroke-dashoffset:0;stroke-opacity:1"
         id="path4256" />
      <path
         id="path4258"
         style="opacity:1;fill:#0201fc;fill-opacity:1;fill-rule:nonzero;stroke:none;stroke-width:0.5;stroke-linecap:round;stroke-linejoin:round;stroke-miterlimit:4;stroke-dashoffset:0;stroke-opacity:1"
         d="M 277.71059,189.82971 C 273.82517,184.0034 277.82898,177.11837 280.46657,174.36033 C 283.0774,171.63028 289.8081,168.25444 289.8081,168.25444 C 289.8081,168.25444 285.94748,173.69633 286.57248,177.38722 C 287.53794,183.08867 291.94777,183.23218 292.36527,183.23218 C 292.78277,183.23218 297.92612,182.72947 297.63619,177.8047 C 297.0941,168.54454 293.05201,163.61342 287.73109,158.12269 C 281.15259,151.33426 271.70929,147.60607 268.2188,144.60906 C 265.7549,142.49352 263.30913,142.19044 262.57209,141.58961 C 256.58513,136.70903 253.90326,132.92366 251.08514,125.93057 C 248.26703,118.93748 251.50264,113.71875 251.50264,113.71875 C 251.50264,113.71875 244.45736,116.43248 237.93395,116.22373 C 231.54795,116.01938 227.93282,109.75083 227.4965,104.95128 C 227.18338,101.50692 231.93242,97.384124 236.26396,97.436312 C 240.5955,97.4885 244.82267,105.16003 244.82267,105.16003 L 238.35145,105.16003 C 238.35145,105.16003 237.41209,103.75098 236.05521,104.01191 C 234.70222,104.2721 233.21392,105.06158 233.55022,107.24752 C 233.75897,108.60439 234.80271,112.10094 239.18644,111.63125 C 244.18975,111.09518 248.84109,109.85688 253.38138,105.57753 C 259.6227,99.694905 264.30484,99.601535 272.89942,99.315054 C 276.03065,99.210681 283.32145,100.0158 287.61623,102.23755 C 288.25422,102.56759 293.02135,105.65206 294.08745,106.51691 C 298.65786,110.22453 304.82381,120.21842 304.62928,120.60747 L 304.62928,154.21606 C 304.62928,154.21606 298.83762,147.47772 298.67993,141.06488 C 298.52337,134.69803 302.22867,128.74867 302.22867,128.74867 C 302.22867,128.74867 301.96773,123.58215 298.05368,118.31123 C 294.13963,113.04032 293.09589,110.95282 286.57248,107.66502 C 280.04907,104.37722 277.06019,102.75133 271.96005,105.16003 C 261.58647,110.05928 265.69758,123.7387 265.69758,123.7387 L 256.72137,120.39872 C 256.72137,120.39872 255.66767,130.06046 268.11175,137.69956 C 275.36719,142.15349 281.64128,142.52074 291.16496,151.71107 C 301.50019,161.68456 305.04678,166.46396 305.04678,178.6397 C 305.04678,189.85996 301.47468,196.33689 289.07748,200.34961 C 273.76051,205.30739 277.95601,221.16574 278.0238,221.40493 C 289.34051,225.24079 298.66809,232.89367 306.02856,240.85549 C 306.76206,241.64941 306.71309,242.88761 305.91919,243.62112 C 305.12528,244.35463 303.88706,244.30566 303.15356,243.51174 C 295.42951,235.15662 285.78504,226.61394 274.65356,223.88674 C 271.99899,223.23682 269.28098,222.42576 267.05981,222.26174 C 264.83864,222.09773 263.4368,222.39631 262.30981,223.91799 C 261.01539,225.66572 261.09747,226.52355 261.49731,227.73049 C 261.62908,228.12824 262.03018,228.74612 262.27856,229.19924 C 262.5284,229.40856 262.97712,230.11125 263.15356,230.23049 C 263.68689,230.59094 264.54578,231.04968 265.43481,231.41799 C 265.63833,231.04647 265.67184,230.9336 265.99731,230.41799 C 266.32278,229.90239 266.69679,229.382 267.12231,228.88674 C 267.54783,228.39148 267.89028,227.81288 269.05981,227.54299 C 270.2269,227.27366 270.98721,227.39215 271.64761,227.67395 C 272.30801,227.95574 272.95695,228.3447 273.58511,228.79895 C 274.21327,229.25319 274.61769,229.62331 275.12231,230.25371 C 275.62693,230.8841 276.32318,231.85341 276.2613,233.029 C 276.18801,234.42144 275.39028,235.8765 274.34106,237.01174 C 273.29184,238.14699 271.68823,239.08701 269.74731,239.16799 C 268.21909,239.23175 266.52012,239.15051 264.84106,238.38674 C 263.162,237.62298 261.75352,236.21816 260.59374,234.05431 C 259.8508,232.66817 258.47136,231.04051 257.77856,228.94924 C 257.43216,227.90362 257.33004,226.70952 257.52856,225.44924 C 257.72708,224.18897 258.24341,222.87658 259.18481,221.60549 C 261.22083,218.85644 264.44225,218.14145 267.34106,218.35549 C 268.06322,218.40882 268.78396,218.50658 269.76758,218.63456 C 270.03774,218.63644 266.8457,213.39642 266.84569,207.08176 C 266.84569,200.41383 273.56133,194.18385 273.77696,193.88428 C 264.96532,185.77442 258.20027,176.88302 257.40956,162.13025 C 256.45172,144.2591 273.5937,126.70119 273.85256,127.01125 C 280.35845,118.58557 288.01276,112.67211 290.90456,96.967245 C 291.54874,93.468814 288.26491,89.845027 284.71306,89.557745 C 281.26206,89.27862 276.99906,93.820745 276.99906,93.820745 C 275.88973,94.236744 276.82748,82.698241 284.71306,82.452745 C 289.71498,82.297024 297.74934,86.397025 296.58856,95.038745 C 294.8981,107.62384 290.07506,118.27175 281.66806,126.80825 C 281.45634,126.75939 263.75315,145.56258 263.49956,157.05524 C 263.44609,159.47841 266.74352,167.86489 269.32223,169.6502 C 271.34069,171.04763 274.05006,170.60767 275.67956,175.12224 L 267.76256,175.22374 C 268.35222,173.71414 267.41504,173.62842 265.32656,174.10724 C 268.18045,179.90169 271.59674,186.40192 277.71059,189.82971 z "
         sodipodi:nodetypes="cscsscsssscsssccsssssssccscsssccsssscssssssscscssssssssssssssscscscsscsscsscccc" />
      <path
         sodipodi:nodetypes="cssssscsssssc"
         d="M 304.4107,194.40724 C 306.63008,195.44808 309.58184,196.89834 309.34302,199.94123 C 309.16964,202.1503 307.98564,202.08055 307.32458,202.75277 C 306.80358,203.28258 305.1042,203.88627 305.15087,206.63129 C 305.18906,208.8771 306.8239,210.19911 307.58241,211.03537 C 308.16703,211.67994 310.00395,212.13849 310.21247,216.55595 C 310.42828,221.12795 304.43144,228.71424 304.4107,228.71424 C 304.38996,228.71424 298.39312,221.12795 298.60893,216.55595 C 298.81745,212.13849 300.65437,211.67994 301.23899,211.03537 C 301.9975,210.19911 303.63234,208.8771 303.67053,206.63129 C 303.7172,203.88627 302.01782,203.28258 301.49682,202.75277 C 300.83576,202.08055 299.65176,202.1503 299.47838,199.94123 C 299.23956,196.89834 302.19132,195.44808 304.4107,194.40724 z "
         style="opacity:1;fill:#0000ff;fill-opacity:1;fill-rule:nonzero;stroke:none;stroke-width:0.5;stroke-linecap:round;stroke-linejoin:round;stroke-miterlimit:4;stroke-dashoffset:0;stroke-opacity:1"
         id="path4260" />
      <path
         sodipodi:nodetypes="ccc"
         transform="translate(1.1096578,1.1079318)"
         id="path2228"
         d="M 303.1945,58.661545 C 293.01691,65.531725 296.87848,72.050926 303.03942,78.512643 C 307.21677,73.76752 316.73465,67.7942 303.1945,58.661545 z "
         style="opacity:1;fill:#fcf91e;fill-opacity:1;fill-rule:nonzero;stroke:#63ff38;stroke-width:0.69999999;stroke-linecap:round;stroke-linejoin:round;stroke-miterlimit:4;stroke-dasharray:none;stroke-dashoffset:0;stroke-opacity:1" />
      <path
         d="M 304.6675,39.659737 C 300.74974,42.010018 297.78887,46.119173 296.84447,51.286694 C 296.27514,54.401884 299.29473,55.852388 301.86847,57.171944 C 301.86847,57.171944 293.50767,59.932762 293.54299,68.942443 C 293.57816,77.914437 304.73932,86.454649 304.6675,86.454649 C 304.59567,86.454649 315.75683,77.914437 315.792,68.942443 C 315.82732,59.932762 307.46652,57.171944 307.46652,57.171944 C 310.04026,55.852388 313.05985,54.401884 312.49052,51.286694 C 311.54612,46.119173 308.58524,42.010018 304.6675,39.659737 z M 304.4526,63.283955 C 310.02138,68.15748 306.8772,72.571916 304.4526,76.313451 C 302.02801,72.49993 298.88382,68.15748 304.4526,63.283955 z "
         style="opacity:1;fill:#0201fc;fill-opacity:1;fill-rule:nonzero;stroke:none;stroke-width:0.5;stroke-linecap:round;stroke-linejoin:round;stroke-miterlimit:4;stroke-dashoffset:0;stroke-opacity:1"
         id="path4262" />
      <path
         sodipodi:nodetypes="cscccccccsc"
         d="M 304.90988,481.23136 C 296.74058,500.65391 276.85625,513.9253 261.48603,499.51739 C 254.56476,493.02945 244.9736,480.7247 266.99385,466.00229 C 258.19598,448.89581 255.62295,431.88071 277.32103,415.22185 L 274.22287,386.95406 C 286.31986,382.26837 296.43447,375.38942 304.90988,366.63682 C 313.38529,375.3793 323.4999,382.25823 335.59689,386.94393 L 332.49873,415.21172 C 354.19681,431.87058 351.62378,448.88568 342.82591,465.99215 C 364.84616,480.71457 355.255,493.01931 348.33373,499.50726 C 332.96351,513.91517 313.07918,500.65391 304.90988,481.23136 z "
         style="fill:#fcf91e;fill-opacity:1;fill-rule:nonzero;stroke:#63ff38;stroke-width:0.69421673;stroke-linecap:round;stroke-linejoin:round;stroke-miterlimit:4;stroke-dashoffset:0;stroke-opacity:1;opacity:1"
         id="path8979" />
      <path
         id="path4266"
         style="opacity:1;fill:#0201fc;fill-opacity:1;fill-rule:nonzero;stroke:none;stroke-width:0.5;stroke-linecap:round;stroke-linejoin:round;stroke-miterlimit:4;stroke-dashoffset:0;stroke-opacity:1"
         d="M 331.42941,417.95877 C 335.31483,423.78508 331.31102,430.67011 328.67343,433.42815 C 326.0626,436.1582 319.3319,439.53405 319.3319,439.53405 C 319.3319,439.53405 323.19252,434.09216 322.56752,430.40127 C 321.60206,424.69981 317.19223,424.5563 316.77473,424.5563 C 316.35723,424.5563 311.21388,425.05902 311.50381,429.98378 C 312.0459,439.24395 316.08799,444.17507 321.40891,449.66579 C 327.98741,456.45422 337.43071,460.18242 340.9212,463.17942 C 343.3851,465.29496 345.83087,465.59804 346.56791,466.19887 C 352.55487,471.07946 355.23674,474.86483 358.05486,481.85792 C 360.87297,488.85101 357.63736,494.06974 357.63736,494.06974 C 357.63736,494.06974 364.68264,491.35601 371.20605,491.56476 C 377.59205,491.76911 381.20718,498.03766 381.6435,502.83721 C 381.95662,506.28157 377.20758,510.40436 372.87604,510.35217 C 368.5445,510.29998 364.31733,502.62846 364.31733,502.62846 L 370.78855,502.62846 C 370.78855,502.62846 371.72791,504.03751 373.08479,503.77658 C 374.43778,503.51639 375.92608,502.72691 375.58978,500.54097 C 375.38103,499.1841 374.33729,495.68755 369.95356,496.15724 C 364.95025,496.69331 360.29891,497.93161 355.75862,502.21096 C 349.5173,508.09358 344.83516,508.18695 336.24058,508.47343 C 333.10935,508.5778 325.81855,507.77269 321.52377,505.55094 C 320.88578,505.2209 316.11865,502.13643 315.05255,501.27158 C 310.48214,497.56396 304.31619,487.57007 304.51072,487.18102 L 304.51072,453.57242 C 304.51072,453.57242 310.30238,460.31076 310.46007,466.72361 C 310.61663,473.09046 306.91133,479.03981 306.91133,479.03981 C 306.91133,479.03981 307.17227,484.20634 311.08632,489.47726 C 315.00037,494.74817 316.04411,496.83567 322.56752,500.12347 C 329.09093,503.41127 332.07981,505.03716 337.17995,502.62846 C 347.55353,497.72921 343.44242,484.04979 343.44242,484.04979 L 352.41863,487.38977 C 352.41863,487.38977 353.47233,477.72802 341.02825,470.08892 C 333.77281,465.63499 327.49872,465.26775 317.97504,456.07741 C 307.63981,446.10392 304.09322,441.32453 304.09322,429.14878 C 304.09322,417.92852 307.66532,411.4516 320.06252,407.43888 C 335.37949,402.48109 331.18399,386.62274 331.1162,386.38355 C 319.79949,382.54769 310.47191,374.89482 303.11144,366.93299 C 302.37794,366.13908 302.42691,364.90087 303.22081,364.16736 C 304.01472,363.43386 305.25294,363.48283 305.98644,364.27674 C 313.71049,372.63186 323.35496,381.17455 334.48644,383.90174 C 337.14101,384.55166 339.85902,385.36272 342.08019,385.52674 C 344.30136,385.69076 345.7032,385.39217 346.83019,383.87049 C 348.12461,382.12276 348.04253,381.26493 347.64269,380.05799 C 347.51092,379.66024 347.10982,379.04236 346.86144,378.58924 C 346.6116,378.37992 346.16288,377.67724 345.98644,377.55799 C 345.45311,377.19754 344.59422,376.7388 343.70519,376.37049 C 343.50167,376.74201 343.46816,376.85489 343.14269,377.37049 C 342.81722,377.88609 342.44321,378.40648 342.01769,378.90174 C 341.59217,379.397 341.24972,379.9756 340.08019,380.24549 C 338.9131,380.51482 338.15279,380.39634 337.49239,380.11454 C 336.83199,379.83274 336.18305,379.44379 335.55489,378.98954 C 334.92673,378.53529 334.52231,378.16517 334.01769,377.53478 C 333.51307,376.90439 332.81682,375.93507 332.8787,374.75948 C 332.95199,373.36704 333.74972,371.91198 334.79894,370.77674 C 335.84816,369.6415 337.45177,368.70147 339.39269,368.62049 C 340.92091,368.55673 342.61988,368.63797 344.29894,369.40174 C 345.978,370.16551 347.38648,371.57033 348.54626,373.73418 C 349.2892,375.12031 350.66864,376.74798 351.36144,378.83924 C 351.70784,379.88487 351.80996,381.07896 351.61144,382.33924 C 351.41292,383.59952 350.89659,384.9119 349.95519,386.18299 C 347.91917,388.93205 344.69775,389.64704 341.79894,389.43299 C 341.07678,389.37967 340.35604,389.28191 339.37242,389.15392 C 339.10226,389.15204 342.2943,394.39206 342.29431,400.70672 C 342.29431,407.37465 335.57867,413.60463 335.36304,413.9042 C 344.17468,422.01407 350.93973,430.90547 351.73044,445.65824 C 352.68828,463.52939 335.5463,481.0873 335.28744,480.77724 C 328.78155,489.20292 321.12724,495.11638 318.23544,510.82124 C 317.59126,514.31967 320.87509,517.94346 324.42694,518.23074 C 327.87794,518.50986 332.14094,513.96774 332.14094,513.96774 C 333.25027,513.55174 332.31252,525.09024 324.42694,525.33574 C 319.42502,525.49146 311.39066,521.39146 312.55144,512.74974 C 314.2419,500.16465 319.06494,489.51674 327.47194,480.98024 C 327.68366,481.0291 345.38685,462.2259 345.64044,450.73324 C 345.69391,448.31007 342.39648,439.92359 339.81777,438.13829 C 337.79931,436.74085 335.08994,437.18082 333.46044,432.66624 L 341.37744,432.56474 C 340.78778,434.07435 341.72496,434.16006 343.81344,433.68124 C 340.95955,427.88679 337.54326,421.38656 331.42941,417.95877 z "
         sodipodi:nodetypes="cscsscsssscsssccsssssssccscsssccsssscssssssscscssssssssssssssscscscsscsscsscccc" />
      <path
         sodipodi:nodetypes="cscsscsssscsssccsssssssccscsssccsssscssssssscscssssssssssssssscscscsscsscsscccc"
         d="M 277.71059,417.95877 C 273.82517,423.78508 277.82898,430.67011 280.46657,433.42815 C 283.0774,436.1582 289.8081,439.53405 289.8081,439.53405 C 289.8081,439.53405 285.94748,434.09216 286.57248,430.40127 C 287.53794,424.69981 291.94777,424.5563 292.36527,424.5563 C 292.78277,424.5563 297.92612,425.05902 297.63619,429.98378 C 297.0941,439.24395 293.05201,444.17507 287.73109,449.66579 C 281.15259,456.45422 271.70929,460.18242 268.2188,463.17942 C 265.7549,465.29496 263.30913,465.59804 262.57209,466.19887 C 256.58513,471.07946 253.90326,474.86483 251.08514,481.85792 C 248.26703,488.85101 251.50264,494.06974 251.50264,494.06974 C 251.50264,494.06974 244.45736,491.35601 237.93395,491.56476 C 231.54795,491.76911 227.93282,498.03766 227.4965,502.83721 C 227.18338,506.28157 231.93242,510.40436 236.26396,510.35217 C 240.5955,510.29998 244.82267,502.62846 244.82267,502.62846 L 238.35145,502.62846 C 238.35145,502.62846 237.41209,504.03751 236.05521,503.77658 C 234.70222,503.51639 233.21392,502.72691 233.55022,500.54097 C 233.75897,499.1841 234.80271,495.68755 239.18644,496.15724 C 244.18975,496.69331 248.84109,497.93161 253.38138,502.21096 C 259.6227,508.09358 264.30484,508.18695 272.89942,508.47343 C 276.03065,508.5778 283.32145,507.77269 287.61623,505.55094 C 288.25422,505.2209 293.02135,502.13643 294.08745,501.27158 C 298.65786,497.56396 304.82381,487.57007 304.62928,487.18102 L 304.62928,453.57242 C 304.62928,453.57242 298.83762,460.31076 298.67993,466.72361 C 298.52337,473.09046 302.22867,479.03981 302.22867,479.03981 C 302.22867,479.03981 301.96773,484.20634 298.05368,489.47726 C 294.13963,494.74817 293.09589,496.83567 286.57248,500.12347 C 280.04907,503.41127 277.06019,505.03716 271.96005,502.62846 C 261.58647,497.72921 265.69758,484.04979 265.69758,484.04979 L 256.72137,487.38977 C 256.72137,487.38977 255.66767,477.72802 268.11175,470.08892 C 275.36719,465.63499 281.64128,465.26775 291.16496,456.07741 C 301.50019,446.10392 305.04678,441.32453 305.04678,429.14878 C 305.04678,417.92852 301.47468,411.4516 289.07748,407.43888 C 273.76051,402.48109 277.95601,386.62274 278.0238,386.38355 C 289.34051,382.54769 298.66809,374.89482 306.02856,366.93299 C 306.76206,366.13908 306.71309,364.90087 305.91919,364.16736 C 305.12528,363.43386 303.88706,363.48283 303.15356,364.27674 C 295.42951,372.63186 285.78504,381.17455 274.65356,383.90174 C 271.99899,384.55166 269.28098,385.36272 267.05981,385.52674 C 264.83864,385.69076 263.4368,385.39217 262.30981,383.87049 C 261.01539,382.12276 261.09747,381.26493 261.49731,380.05799 C 261.62908,379.66024 262.03018,379.04236 262.27856,378.58924 C 262.5284,378.37992 262.97712,377.67724 263.15356,377.55799 C 263.68689,377.19754 264.54578,376.7388 265.43481,376.37049 C 265.63833,376.74201 265.67184,376.85489 265.99731,377.37049 C 266.32278,377.88609 266.69679,378.40648 267.12231,378.90174 C 267.54783,379.397 267.89028,379.9756 269.05981,380.24549 C 270.2269,380.51482 270.98721,380.39634 271.64761,380.11454 C 272.30801,379.83274 272.95695,379.44379 273.58511,378.98954 C 274.21327,378.53529 274.61769,378.16517 275.12231,377.53478 C 275.62693,376.90439 276.32318,375.93507 276.2613,374.75948 C 276.18801,373.36704 275.39028,371.91198 274.34106,370.77674 C 273.29184,369.6415 271.68823,368.70147 269.74731,368.62049 C 268.21909,368.55673 266.52012,368.63797 264.84106,369.40174 C 263.162,370.16551 261.75352,371.57033 260.59374,373.73418 C 259.8508,375.12031 258.47136,376.74798 257.77856,378.83924 C 257.43216,379.88487 257.33004,381.07896 257.52856,382.33924 C 257.72708,383.59952 258.24341,384.9119 259.18481,386.18299 C 261.22083,388.93205 264.44225,389.64704 267.34106,389.43299 C 268.06322,389.37967 268.78396,389.28191 269.76758,389.15392 C 270.03774,389.15204 266.8457,394.39206 266.84569,400.70672 C 266.84569,407.37465 273.56133,413.60463 273.77696,413.9042 C 264.96532,422.01407 258.20027,430.90547 257.40956,445.65824 C 256.45172,463.52939 273.5937,481.0873 273.85256,480.77724 C 280.35845,489.20292 288.01276,495.11638 290.90456,510.82124 C 291.54874,514.31967 288.26491,517.94346 284.71306,518.23074 C 281.26206,518.50986 276.99906,513.96774 276.99906,513.96774 C 275.88973,513.55174 276.82748,525.09024 284.71306,525.33574 C 289.71498,525.49146 297.74934,521.39146 296.58856,512.74974 C 294.8981,500.16465 290.07506,489.51674 281.66806,480.98024 C 281.45634,481.0291 263.75315,462.2259 263.49956,450.73324 C 263.44609,448.31007 266.74352,439.92359 269.32223,438.13829 C 271.34069,436.74085 274.05006,437.18082 275.67956,432.66624 L 267.76256,432.56474 C 268.35222,434.07435 267.41504,434.16006 265.32656,433.68124 C 268.18045,427.88679 271.59674,421.38656 277.71059,417.95877 z "
         style="opacity:1;fill:#0201fc;fill-opacity:1;fill-rule:nonzero;stroke:none;stroke-width:0.5;stroke-linecap:round;stroke-linejoin:round;stroke-miterlimit:4;stroke-dashoffset:0;stroke-opacity:1"
         id="path4268" />
      <path
         id="path4270"
         style="opacity:1;fill:#0000ff;fill-opacity:1;fill-rule:nonzero;stroke:none;stroke-width:0.5;stroke-linecap:round;stroke-linejoin:round;stroke-miterlimit:4;stroke-dashoffset:0;stroke-opacity:1"
         d="M 304.4107,413.38124 C 306.63008,412.3404 309.58184,410.89014 309.34302,407.84726 C 309.16964,405.63819 307.98564,405.70794 307.32458,405.03571 C 306.80358,404.5059 305.1042,403.90221 305.15087,401.15719 C 305.18906,398.91139 306.8239,397.58937 307.58241,396.75311 C 308.16703,396.10855 310.00395,395.65 310.21247,391.23253 C 310.42828,386.66053 304.43144,379.07424 304.4107,379.07424 C 304.38996,379.07424 298.39312,386.66053 298.60893,391.23253 C 298.81745,395.65 300.65437,396.10855 301.23899,396.75311 C 301.9975,397.58937 303.63234,398.91139 303.67053,401.15719 C 303.7172,403.90221 302.01782,404.5059 301.49682,405.03571 C 300.83576,405.70794 299.65176,405.63819 299.47838,407.84726 C 299.23956,410.89014 302.19132,412.3404 304.4107,413.38124 z "
         sodipodi:nodetypes="cssssscsssssc" />
      <path
         sodipodi:nodetypes="ccc"
         id="path2230"
         d="M 303.78665,547.82733 C 293.60906,540.95715 297.47063,534.43794 303.63157,527.97623 C 307.80892,532.72135 317.3268,538.69467 303.78665,547.82733 z "
         style="opacity:1;fill:#fcf91e;fill-opacity:1;fill-rule:nonzero;stroke:#63ff38;stroke-width:0.69999999;stroke-linecap:round;stroke-linejoin:round;stroke-miterlimit:4;stroke-dasharray:none;stroke-dashoffset:0;stroke-opacity:1" />
      <path
         id="path4272"
         style="opacity:1;fill:#0201fc;fill-opacity:1;fill-rule:nonzero;stroke:none;stroke-width:0.5;stroke-linecap:round;stroke-linejoin:round;stroke-miterlimit:4;stroke-dashoffset:0;stroke-opacity:1"
         d="M 304.6675,568.12875 C 300.74974,565.77847 297.78887,561.66931 296.84447,556.50179 C 296.27514,553.3866 299.29473,551.9361 301.86847,550.61654 C 301.86847,550.61654 293.50767,547.85572 293.54299,538.84604 C 293.57816,529.87405 304.73932,521.33384 304.6675,521.33384 C 304.59567,521.33384 315.75683,529.87405 315.792,538.84604 C 315.82732,547.85572 307.46652,550.61654 307.46652,550.61654 C 310.04026,551.9361 313.05985,553.3866 312.49052,556.50179 C 311.54612,561.66931 308.58524,565.77847 304.6675,568.12875 z M 304.4526,544.50453 C 310.02138,539.631 306.8772,535.21657 304.4526,531.47503 C 302.02801,535.28855 298.88382,539.631 304.4526,544.50453 z " />
      <path
         style="opacity:1;fill:#000000;fill-opacity:1;fill-rule:evenodd;stroke:none;stroke-width:1px;stroke-linecap:butt;stroke-linejoin:miter;stroke-opacity:1"
         d="M 117.16467,125.92055 L 105.93916,125.92055 L 105.93916,129.21906 L 108.83207,129.21906 L 108.83207,167.62295 L 104.65341,167.62295 L 104.65341,170.86255 L 121.41751,170.86255 L 121.41751,167.50515 L 117.18941,167.50515 L 117.16467,125.92055 z "
         id="path24889" />
      <path
         style="opacity:1;fill:#000000;fill-opacity:1;fill-rule:evenodd;stroke:none;stroke-width:1px;stroke-linecap:butt;stroke-linejoin:miter;stroke-opacity:1"
         d="M 128.04401,146.56974 C 128.04401,142.35906 136.72419,143.75822 136.72419,149.34464 L 134.05337,149.34464 L 134.05337,156.57921 L 144.73667,156.57921 L 144.73667,146.5202 C 144.73667,142.65702 153.68394,143.79985 153.68394,149.3942 L 151.0131,149.3942 L 151.0131,170.86255 L 144.73667,170.86255 L 144.73667,160.09121 L 136.72419,160.09121 L 134.05337,160.09121 L 134.05337,168.43892 C 134.05337,170.93938 124.83902,171.70106 124.83902,165.47888 L 128.04401,165.47888 L 128.04401,146.56974 z "
         id="path3186"
         sodipodi:nodetypes="ccccccccccccccccc" />
      <path
         id="path24887"
         style="opacity:1;fill:#000000;fill-opacity:1;fill-rule:evenodd;stroke:none;stroke-width:1px;stroke-linecap:butt;stroke-linejoin:miter;stroke-opacity:1"
         d="M 165.8948,164.67811 C 167.20731,167.00676 168.19103,168.46749 170.53549,168.46749 C 172.87004,168.46749 173.9935,166.99396 175.3036,164.65832 C 177.35636,164.38514 179.42554,164.06031 180.79065,165.94836 C 178.46242,168.95143 174.82938,170.86255 170.53313,170.86255 C 162.96412,170.86255 157.47113,165.03196 157.47113,157.65862 C 157.47264,157.53604 157.47113,157.41349 157.47113,157.29091 C 157.47113,149.91757 162.96412,144.087 170.53313,144.087 C 174.82938,144.087 178.46242,145.99809 180.79065,149.00119 C 179.42554,150.88924 177.35636,150.56439 175.3036,150.29122 C 173.9935,147.95558 172.87004,146.48204 170.53549,146.48204 C 168.19103,146.48204 167.20731,147.94277 165.8948,150.27142 L 165.8948,164.67811 z "
         sodipodi:nodetypes="csccsccsccscc" />
      <rect
         style="opacity:1;fill:#000000;fill-opacity:1;fill-rule:nonzero;stroke:none;stroke-width:3;stroke-linecap:round;stroke-linejoin:round;stroke-miterlimit:4;stroke-dasharray:none;stroke-dashoffset:0;stroke-opacity:1"
         id="rect5544"
         width="53.826031"
         height="3.0378008"
         x="124.54983"
         y="126.55928" />
      <path
         id="path6238"
         style="opacity:1;fill:#000000;fill-opacity:1;fill-rule:evenodd;stroke:none;stroke-width:1px;stroke-linecap:butt;stroke-linejoin:miter;stroke-opacity:1"
         d="M 417.09852,135.50268 L 423.11876,135.50268 L 423.11876,173.12153 L 420.0115,173.12153 L 420.0115,176.33607 L 437.9558,176.33607 L 437.9558,173.12153 L 433.4503,173.12153 L 433.4503,135.50268 L 437.9558,135.50268 L 437.9558,131.67999 L 417.09852,131.67999 L 396.24125,131.67999 L 396.24125,135.50268 L 400.74675,135.50268 L 400.74675,173.12153 L 396.24125,173.12153 L 396.24125,176.33607 L 414.18557,176.33607 L 414.18557,173.12153 L 411.07831,173.12153 L 411.07831,135.50268 L 417.09852,135.50268 z "
         sodipodi:nodetypes="ccccccccccccccccccccccc" />
      <path
         sodipodi:nodetypes="csccsccsccscc"
         d="M 492.90858,170.70521 C 494.22109,172.98023 495.20481,174.40731 497.54927,174.40731 C 499.88382,174.40731 501.00728,172.96772 502.31738,170.68588 C 504.37014,170.41899 506.43932,170.10164 507.80443,171.94621 C 505.4762,174.88011 501.84316,176.74721 497.54691,176.74721 C 489.9779,176.74721 484.48491,171.05091 484.48491,163.8474 C 484.48642,163.72764 484.48491,163.60791 484.48491,163.48816 C 484.48491,156.28464 489.9779,150.58837 497.54691,150.58837 C 501.84316,150.58837 505.4762,152.45544 507.80443,155.38937 C 506.43932,157.23393 504.37014,156.91657 502.31738,156.64969 C 501.00728,154.36784 499.88382,152.92824 497.54927,152.92824 C 495.20481,152.92824 494.22109,154.35533 492.90858,156.63034 L 492.90858,170.70521 z "
         style="opacity:1;fill:#000000;fill-opacity:1;fill-rule:evenodd;stroke:none;stroke-width:1px;stroke-linecap:butt;stroke-linejoin:miter;stroke-opacity:1"
         id="path5556" />
      <path
         id="path6126"
         style="opacity:1;fill:#000000;fill-opacity:1;fill-rule:evenodd;stroke:none;stroke-width:1px;stroke-linecap:butt;stroke-linejoin:miter;stroke-opacity:1"
         d="M 461.96681,169.47868 C 464.83098,171.373 466.34338,180.99299 472.7425,180.85715 C 476.09782,180.21964 479.0827,177.82319 479.68349,174.52838 C 480.14473,171.99887 478.14025,170.08272 475.93609,169.07684 C 473.19329,167.82513 470.86638,170.26742 471.16611,172.98013 C 471.93512,174.86914 469.6289,172.70355 467.4202,170.57671 C 464.9478,168.15533 464.78873,166.86662 464.90019,164.67495 C 464.95961,163.50605 471.80893,154.67395 473.05228,154.02701 C 475.44152,152.78385 475.11939,157.65061 476.00815,156.21189 C 477.23044,154.23316 480.00225,154.15862 478.48125,151.8732 C 477.47109,150.35534 475.86965,150.03945 474.05394,149.75745 C 470.51411,149.20765 466.6683,149.86397 464.73017,153.38187 C 462.42334,157.569 462.27328,160.11792 461.04836,160.15121 C 458.1741,158.25611 456.6617,148.63611 450.2626,148.77195 C 446.90726,149.40947 443.92241,151.80591 443.3216,155.10072 C 442.86034,157.63023 444.86485,159.54639 447.069,160.55227 C 449.81179,161.80399 452.13871,159.36168 451.83897,156.64899 C 451.06996,154.75996 453.37619,156.92556 455.58489,159.05239 C 458.05727,161.47378 458.21635,162.76248 458.10492,164.95416 C 458.04549,166.12306 452.14577,173.79487 450.90244,174.4418 C 448.51319,175.68495 448.83533,170.81819 447.94658,172.25695 C 446.72428,174.23565 443.00284,175.47049 444.52382,177.75591 C 445.534,179.27376 447.13544,179.58966 448.95113,179.87165 C 452.49099,180.42146 456.33681,179.76513 458.27491,176.24724 C 460.58175,172.06012 460.7318,169.51118 461.94667,169.47709"
         sodipodi:nodetypes="ccssccssssssccssccssssssc" />
      <rect
         style="opacity:1;fill:#000000;fill-opacity:1;fill-rule:nonzero;stroke:none;stroke-width:3;stroke-linecap:round;stroke-linejoin:round;stroke-miterlimit:4;stroke-dasharray:none;stroke-dashoffset:0;stroke-opacity:1"
         id="rect5561"
         width="58.023869"
         height="2.8763969"
         x="445.54395"
         y="133.60104" />
      <path
         style="opacity:1;fill:#000000;fill-opacity:1;fill-rule:evenodd;stroke:none;stroke-width:1px;stroke-linecap:butt;stroke-linejoin:miter;stroke-opacity:1"
         d="M 453.52079,441.82196 L 463.28966,441.82196 L 463.28966,461.8354 L 467.26343,461.8354 L 467.26343,465.37225 L 463.28966,465.37225 L 463.28966,483.57413 L 458.07407,483.57413 L 458.07407,465.37225 L 454.6798,465.37225 L 454.6798,461.8354 L 458.07407,461.8354 L 458.07407,444.63842 L 453.52079,444.63842 L 453.52079,441.82196 z "
         id="path8133" />
      <path
         style="opacity:1;fill:#000000;fill-opacity:1;fill-rule:evenodd;stroke:none;stroke-width:1px;stroke-linecap:butt;stroke-linejoin:miter;stroke-opacity:1"
         d="M 463.28966,449.5858 C 465.98109,449.08936 468.92409,448.39848 472.89295,449.5858 C 497.07104,464.67284 442.67901,500.0382 442.02587,454.37656 C 445.34499,448.18249 452.01722,449.7399 453.02406,456.05566 C 452.8171,457.86722 450.55709,459.18712 449.34004,458.38481 C 448.3259,457.71625 447.80522,456.08145 447.31176,455.27927 C 446.83832,454.50964 445.08414,453.32015 445.07651,457.09083 C 445.04566,472.32765 462.02119,479.35364 471.23721,463.81949 C 475.29828,456.97432 468.1926,451.25143 462.95851,453.46771 C 460.55785,454.48422 460.71965,450.05984 463.28966,449.5858 z "
         id="path9106"
         sodipodi:nodetypes="ccccssssss" />
      <path
         id="path18940"
         style="opacity:1;fill:#000000;fill-opacity:1;fill-rule:evenodd;stroke:none;stroke-width:1px;stroke-linecap:butt;stroke-linejoin:miter;stroke-opacity:1"
         d="M 414.1322,471.07715 C 412.81996,467.04881 416.22278,463.11817 416.84703,459.06095 C 417.69023,453.58076 413.88382,450.66176 411.60603,450.66176 C 409.32823,450.66176 405.52182,453.58076 406.36502,459.06095 C 406.98927,463.11817 409.14853,467.04881 408.07938,471.07715 L 414.1322,471.07715 z "
         sodipodi:nodetypes="cssscc" />
      <path
         sodipodi:nodetypes="cssscc"
         d="M 432.45403,471.07715 C 431.14179,467.04881 434.5446,463.11817 435.16886,459.06095 C 436.01206,453.58076 432.20565,450.66176 429.92785,450.66176 C 427.65006,450.66176 423.84365,453.58076 424.68685,459.06095 C 425.3111,463.11817 427.47036,467.04881 426.40121,471.07715 L 432.45403,471.07715 z "
         style="opacity:1;fill:#000000;fill-opacity:1;fill-rule:evenodd;stroke:none;stroke-width:1px;stroke-linecap:butt;stroke-linejoin:miter;stroke-opacity:1"
         id="path18952" />
      <path
         style="opacity:1;fill:#000000;fill-opacity:1;fill-rule:evenodd;stroke:none;stroke-width:1.79999995;stroke-linecap:round;stroke-linejoin:miter;stroke-miterlimit:4;stroke-dasharray:none;stroke-opacity:1"
         d="M 429.58025,465.579 L 428.28487,467.22102 C 425.56689,470.60945 422.91184,472.00298 420.40898,471.99781 C 417.90611,471.99263 415.13191,470.55519 412.17037,467.17126 L 410.87499,465.67851 L 409.78688,467.32053 C 408.01695,469.99809 405.82497,471.34194 403.30999,472.64467 C 402.74974,472.82908 402.35604,473.3142 402.30668,473.88098 C 402.25734,474.44775 402.56164,474.98891 403.08222,475.26014 C 403.6028,475.53136 404.24113,475.4813 404.70899,475.13258 C 406.91779,473.98846 409.22407,472.43861 411.18588,470.107 C 414.10938,473.01759 417.17744,474.8771 420.40898,474.88379 C 423.60725,474.8904 426.59245,473.04431 429.32118,470.15675 C 430.95248,472.16836 432.92544,473.90897 435.33173,475.33161 C 436.03283,475.75756 436.96078,475.55706 437.40433,474.88379 C 437.84789,474.21052 437.6391,473.3194 436.938,472.89346 C 434.26361,471.31231 432.11936,469.48425 430.72018,467.32053 L 429.58025,465.579 z "
         id="path18956" />
      <path
         id="path848"
         d="M 498.95315,434.91893 C 501.06255,434.90243 503.17975,434.89149 505.30464,434.88611 C 505.32211,437.46129 505.31376,440.04155 505.27959,442.62682 C 505.236,444.61931 505.20137,446.61734 505.17567,448.62088 C 507.7016,448.54907 510.24222,448.47401 512.78618,448.43767 L 516.41414,448.47769 C 517.28811,448.48732 517.25066,450.5028 517.09472,452.03162 C 513.16147,451.89963 509.23346,452.01005 505.31167,452.06102 C 505.16278,461.11537 505.36076,470.1861 504.98622,479.23514 C 504.8506,482.51172 500.64525,483.97018 498.76145,483.82861 C 497.1129,483.7047 495.27517,480.74006 494.42758,479.04731 C 494.14518,478.48331 495.11727,476.5103 495.60477,476.42516 C 496.27697,476.30778 498.20106,477.78422 499.06651,478.23725 C 499.34441,469.64891 499.21233,461.05573 498.91129,452.47398 L 492.40091,452.29465 L 494.08684,459.78624 L 483.07993,448.96922 C 488.35592,448.45984 493.66201,448.53474 498.96273,448.56037 C 498.96086,444.0094 498.96097,439.46271 498.95315,434.91893 z "
         style="opacity:1;fill:#000000;fill-opacity:1;fill-rule:nonzero;stroke:none"
         sodipodi:nodetypes="cccccsccssssccccccc" />
      <path
         style="opacity:1;fill:#000000;fill-opacity:1;fill-rule:nonzero;stroke:none;stroke-width:0.1;stroke-linecap:round;stroke-linejoin:round;stroke-miterlimit:4;stroke-dasharray:none;stroke-dashoffset:0;stroke-opacity:1"
         d="M 411.17206,438.43086 C 404.2455,439.50685 396.88546,437.41735 398.05661,433.59667 C 399.04358,430.37686 404.92924,430.10421 411.17206,438.43086 z "
         id="path5587"
         sodipodi:nodetypes="csc" />
      <path
         sodipodi:nodetypes="csc"
         id="path5590"
         d="M 451.11162,438.62569 C 444.18506,439.70168 436.82502,437.61218 437.99617,433.7915 C 438.98314,430.57169 444.8688,430.29904 451.11162,438.62569 z "
         style="opacity:1;fill:#000000;fill-opacity:1;fill-rule:nonzero;stroke:none;stroke-width:0.1;stroke-linecap:round;stroke-linejoin:round;stroke-miterlimit:4;stroke-dasharray:none;stroke-dashoffset:0;stroke-opacity:1" />
      <path
         sodipodi:nodetypes="ccccccccccccccccccccccc"
         d="M 102.70818,446.87541 L 106.54335,446.87541 L 106.54335,477.86235 L 104.56388,477.86235 L 104.56388,480.51019 L 115.99524,480.51019 L 115.99524,477.86235 L 113.12503,477.86235 L 113.12503,446.87541 L 115.99524,446.87541 L 115.99524,443.72662 L 102.70818,443.72662 L 89.421115,443.72662 L 89.421115,446.87541 L 92.291331,446.87541 L 92.291331,477.86235 L 89.421115,477.86235 L 89.421115,480.51019 L 100.85248,480.51019 L 100.85248,477.86235 L 98.873016,477.86235 L 98.873016,446.87541 L 102.70818,446.87541 z "
         style="opacity:1;fill:#000000;fill-opacity:1;fill-rule:evenodd;stroke:none;stroke-width:1px;stroke-linecap:butt;stroke-linejoin:miter;stroke-opacity:1"
         id="path5633" />
      <path
         sodipodi:nodetypes="cssscccsssc"
         d="M 134.06463,477.30584 C 139.77123,486.17348 155.21815,475.00742 145.57063,457.00127 C 144.36817,454.75699 140.38551,456.71756 142.61927,460.1562 C 148.29956,468.90039 142.10574,482.67564 136.41204,475.59413 C 136.01052,475.09473 135.38125,473.74999 135.75813,472.87727 C 138.21829,466.74575 139.41088,460.78869 134.06463,455.7479 C 128.71838,460.78869 129.91097,466.74575 132.37113,472.87727 C 132.74802,473.74999 132.11874,475.09473 131.71722,475.59413 C 126.02352,482.67564 119.82971,468.90039 125.51,460.1562 C 127.74376,456.71756 123.7611,454.75699 122.55863,457.00127 C 112.91112,475.00742 128.35803,486.17348 134.06463,477.30584 z "
         style="opacity:1;fill:#000000;fill-opacity:1;fill-rule:evenodd;stroke:none;stroke-width:1px;stroke-linecap:butt;stroke-linejoin:miter;stroke-opacity:1"
         id="path24954" />
      <path
         sodipodi:nodetypes="ccccssscc"
         id="path24961"
         d="M 147.61834,468.00716 C 151.97742,483.00282 142.53301,498.09152 130.0845,488.9035 C 128.06338,486.72714 124.55122,487.50461 124.13741,490.46455 C 126.18808,490.06429 127.58117,490.63055 128.13937,492.1455 C 128.59987,499.95813 118.83333,498.40939 121.05582,489.94829 C 122.74572,483.5148 128.65588,480.15946 134.98597,483.00879 C 138.73555,484.69657 141.22646,486.28325 144.37057,482.72297 C 145.80692,481.09649 146.94641,478.40999 145.40377,473.34998 L 147.61834,468.00716 z "
         style="opacity:1;fill:#000000;fill-opacity:1;fill-rule:evenodd;stroke:none;stroke-width:1px;stroke-linecap:butt;stroke-linejoin:miter;stroke-opacity:1" />
      <path
         style="opacity:1;fill:#000000;fill-opacity:1;fill-rule:nonzero;stroke:none;stroke-width:0.1;stroke-linecap:round;stroke-linejoin:round;stroke-miterlimit:4;stroke-dasharray:none;stroke-dashoffset:0;stroke-opacity:1"
         d="M 106.76069,438.53423 C 99.834137,439.61022 92.474097,437.52072 93.645247,433.70004 C 94.632217,430.48023 100.51787,430.20758 106.76069,438.53423 z "
         id="path5606"
         sodipodi:nodetypes="csc" />
      <path
         sodipodi:nodetypes="ccccccccccccccccc"
         id="path5642"
         d="M 153.02295,457.81934 C 153.02295,453.85837 159.35799,455.17456 159.35799,460.42967 L 157.40875,460.42967 L 157.40875,467.23519 L 165.20573,467.23519 L 165.20573,457.77273 C 165.20573,454.13866 171.73571,455.21372 171.73571,460.47629 L 169.78645,460.47629 L 169.78645,480.67144 L 165.20573,480.67144 L 165.20573,470.5389 L 159.35799,470.5389 L 157.40875,470.5389 L 157.40875,478.39155 C 157.40875,480.74371 150.68385,481.46022 150.68385,475.60705 L 153.02295,475.60705 L 153.02295,457.81934 z "
         style="opacity:1;fill:#000000;fill-opacity:1;fill-rule:evenodd;stroke:none;stroke-width:1px;stroke-linecap:butt;stroke-linejoin:miter;stroke-opacity:1" />
      <path
         style="opacity:1;fill:#000000;fill-opacity:1;fill-rule:evenodd;stroke:none;stroke-width:1px;stroke-linecap:butt;stroke-linejoin:miter;stroke-opacity:1"
         d="M 184.28468,453.6466 C 182.85573,453.68524 181.05374,454.04111 179.33201,456.72802 C 177.70541,455.47719 176.09613,454.10587 174.12621,455.24381 L 176.56593,459.93915 L 176.59718,487.87109 L 173.72218,487.87109 C 173.72218,491.75851 180.40968,495.88728 180.40968,489.52361 L 180.40968,474.30306 C 184.88984,479.03908 187.68013,475.96775 190.09718,471.17198 C 191.56704,465.9535 191.45061,460.73503 188.34718,455.51656 C 187.03471,454.5016 185.71363,453.60799 184.28468,453.6466 z M 183.25343,457.77534 C 185.26264,457.77534 186.09051,460.23303 186.09051,465.12725 C 186.09051,470.02146 185.26263,472.97117 183.25343,472.97117 C 181.23396,472.97117 180.4476,470.04902 180.44759,465.12725 C 180.44759,460.20549 181.23395,457.77534 183.25343,457.77534 z "
         id="path24940"
         sodipodi:nodetypes="ccccccccccccsssc" />
      <path
         style="opacity:1;fill:#000000;fill-opacity:1;fill-rule:evenodd;stroke:none;stroke-width:1px;stroke-linecap:butt;stroke-linejoin:miter;stroke-opacity:1"
         d="M 195.77016,456.80664 C 195.77016,452.58799 201.70137,453.9898 201.70137,459.58678 L 199.87638,459.58678 L 199.87638,478.71707 C 199.87638,481.22225 193.58018,481.98536 193.58018,475.75144 L 195.77016,475.75144 L 195.77016,456.80664 z "
         id="path24891"
         sodipodi:nodetypes="ccccccc" />
      <path
         id="path7696"
         style="opacity:1;fill:#000000;fill-opacity:1;fill-rule:evenodd;stroke:none;stroke-width:1px;stroke-linecap:butt;stroke-linejoin:miter;stroke-opacity:1"
         d="M 102.70818,446.87541 L 106.54335,446.87541 L 106.54335,477.86235 L 104.56388,477.86235 L 104.56388,480.51019 L 115.99524,480.51019 L 115.99524,477.86235 L 113.12503,477.86235 L 113.12503,446.87541 L 115.99524,446.87541 L 115.99524,443.72662 L 102.70818,443.72662 L 89.421115,443.72662 L 89.421115,446.87541 L 92.291331,446.87541 L 92.291331,477.86235 L 89.421115,477.86235 L 89.421115,480.51019 L 100.85248,480.51019 L 100.85248,477.86235 L 98.873016,477.86235 L 98.873016,446.87541 L 102.70818,446.87541 z "
         sodipodi:nodetypes="ccccccccccccccccccccccc" />
      <path
         id="path7700"
         style="opacity:1;fill:#000000;fill-opacity:1;fill-rule:evenodd;stroke:none;stroke-width:1px;stroke-linecap:butt;stroke-linejoin:miter;stroke-opacity:1"
         d="M 134.06463,477.30584 C 139.77123,486.17348 155.21815,475.00742 145.57063,457.00127 C 144.36817,454.75699 140.38551,456.71756 142.61927,460.1562 C 148.29956,468.90039 142.10574,482.67564 136.41204,475.59413 C 136.01052,475.09473 135.38125,473.74999 135.75813,472.87727 C 138.21829,466.74575 139.41088,460.78869 134.06463,455.7479 C 128.71838,460.78869 129.91097,466.74575 132.37113,472.87727 C 132.74802,473.74999 132.11874,475.09473 131.71722,475.59413 C 126.02352,482.67564 119.82971,468.90039 125.51,460.1562 C 127.74376,456.71756 123.7611,454.75699 122.55863,457.00127 C 112.91112,475.00742 128.35803,486.17348 134.06463,477.30584 z "
         sodipodi:nodetypes="cssscccsssc" />
      <path
         style="opacity:1;fill:#000000;fill-opacity:1;fill-rule:evenodd;stroke:none;stroke-width:1px;stroke-linecap:butt;stroke-linejoin:miter;stroke-opacity:1"
         d="M 147.61834,468.00716 C 151.97742,483.00282 142.53301,498.09152 130.0845,488.9035 C 128.06338,486.72714 124.55122,487.50461 124.13741,490.46455 C 126.18808,490.06429 127.58117,490.63055 128.13937,492.1455 C 128.59987,499.95813 118.83333,498.40939 121.05582,489.94829 C 122.74572,483.5148 128.65588,480.15946 134.98597,483.00879 C 138.73555,484.69657 141.22646,486.28325 144.37057,482.72297 C 145.80692,481.09649 146.94641,478.40999 145.40377,473.34998 L 147.61834,468.00716 z "
         id="path7702"
         sodipodi:nodetypes="ccccssscc" />
      <path
         sodipodi:nodetypes="csc"
         id="path7704"
         d="M 106.76069,438.53423 C 99.834137,439.61022 92.474097,437.52072 93.645247,433.70004 C 94.632217,430.48023 100.51787,430.20758 106.76069,438.53423 z "
         style="opacity:1;fill:#000000;fill-opacity:1;fill-rule:nonzero;stroke:none;stroke-width:0.1;stroke-linecap:round;stroke-linejoin:round;stroke-miterlimit:4;stroke-dasharray:none;stroke-dashoffset:0;stroke-opacity:1" />
      <path
         style="opacity:1;fill:#000000;fill-opacity:1;fill-rule:evenodd;stroke:none;stroke-width:1px;stroke-linecap:butt;stroke-linejoin:miter;stroke-opacity:1"
         d="M 153.02295,457.81934 C 153.02295,453.85837 159.35799,455.17456 159.35799,460.42967 L 157.40875,460.42967 L 157.40875,467.23519 L 165.20573,467.23519 L 165.20573,457.77273 C 165.20573,454.13866 171.73571,455.21372 171.73571,460.47629 L 169.78645,460.47629 L 169.78645,480.67144 L 165.20573,480.67144 L 165.20573,470.5389 L 159.35799,470.5389 L 157.40875,470.5389 L 157.40875,478.39155 C 157.40875,480.74371 150.68385,481.46022 150.68385,475.60705 L 153.02295,475.60705 L 153.02295,457.81934 z "
         id="path7706"
         sodipodi:nodetypes="ccccccccccccccccc" />
      <path
         sodipodi:nodetypes="ccccccccccccsssc"
         id="path7708"
         d="M 184.28468,453.6466 C 182.85573,453.68524 181.05374,454.04111 179.33201,456.72802 C 177.70541,455.47719 176.09613,454.10587 174.12621,455.24381 L 176.56593,459.93915 L 176.59718,487.87109 L 173.72218,487.87109 C 173.72218,491.75851 180.40968,495.88728 180.40968,489.52361 L 180.40968,474.30306 C 184.88984,479.03908 187.68013,475.96775 190.09718,471.17198 C 191.56704,465.9535 191.45061,460.73503 188.34718,455.51656 C 187.03471,454.5016 185.71363,453.60799 184.28468,453.6466 z M 183.25343,457.77534 C 185.26264,457.77534 186.09051,460.23303 186.09051,465.12725 C 186.09051,470.02146 185.26263,472.97117 183.25343,472.97117 C 181.23396,472.97117 180.4476,470.04902 180.44759,465.12725 C 180.44759,460.20549 181.23395,457.77534 183.25343,457.77534 z "
         style="opacity:1;fill:#000000;fill-opacity:1;fill-rule:evenodd;stroke:none;stroke-width:1px;stroke-linecap:butt;stroke-linejoin:miter;stroke-opacity:1" />
      <path
         sodipodi:nodetypes="ccccccc"
         id="path7710"
         d="M 195.77016,456.80664 C 195.77016,452.58799 201.70137,453.9898 201.70137,459.58678 L 199.87638,459.58678 L 199.87638,478.71707 C 199.87638,481.22225 193.58018,481.98536 193.58018,475.75144 L 195.77016,475.75144 L 195.77016,456.80664 z "
         style="opacity:1;fill:#000000;fill-opacity:1;fill-rule:evenodd;stroke:none;stroke-width:1px;stroke-linecap:butt;stroke-linejoin:miter;stroke-opacity:1" />
      <path
         id="path7716"
         d="M 453.52079,441.82196 L 463.28966,441.82196 L 463.28966,461.8354 L 467.26343,461.8354 L 467.26343,465.37225 L 463.28966,465.37225 L 463.28966,483.57413 L 458.07407,483.57413 L 458.07407,465.37225 L 454.6798,465.37225 L 454.6798,461.8354 L 458.07407,461.8354 L 458.07407,444.63842 L 453.52079,444.63842 L 453.52079,441.82196 z "
         style="opacity:1;fill:#000000;fill-opacity:1;fill-rule:evenodd;stroke:none;stroke-width:1px;stroke-linecap:butt;stroke-linejoin:miter;stroke-opacity:1" />
      <path
         sodipodi:nodetypes="ccccssssss"
         id="path7718"
         d="M 463.28966,449.5858 C 465.98109,449.08936 468.92409,448.39848 472.89295,449.5858 C 497.07104,464.67284 442.67901,500.0382 442.02587,454.37656 C 445.34499,448.18249 452.01722,449.7399 453.02406,456.05566 C 452.8171,457.86722 450.55709,459.18712 449.34004,458.38481 C 448.3259,457.71625 447.80522,456.08145 447.31176,455.27927 C 446.83832,454.50964 445.08414,453.32015 445.07651,457.09083 C 445.04566,472.32765 462.02119,479.35364 471.23721,463.81949 C 475.29828,456.97432 468.1926,451.25143 462.95851,453.46771 C 460.55785,454.48422 460.71965,450.05984 463.28966,449.5858 z "
         style="opacity:1;fill:#000000;fill-opacity:1;fill-rule:evenodd;stroke:none;stroke-width:1px;stroke-linecap:butt;stroke-linejoin:miter;stroke-opacity:1" />
      <path
         sodipodi:nodetypes="cssscc"
         d="M 414.1322,471.07715 C 412.81996,467.04881 416.22278,463.11817 416.84703,459.06095 C 417.69023,453.58076 413.88382,450.66176 411.60603,450.66176 C 409.32823,450.66176 405.52182,453.58076 406.36502,459.06095 C 406.98927,463.11817 409.14853,467.04881 408.07938,471.07715 L 414.1322,471.07715 z "
         style="opacity:1;fill:#000000;fill-opacity:1;fill-rule:evenodd;stroke:none;stroke-width:1px;stroke-linecap:butt;stroke-linejoin:miter;stroke-opacity:1"
         id="path7722" />
      <path
         id="path7724"
         style="opacity:1;fill:#000000;fill-opacity:1;fill-rule:evenodd;stroke:none;stroke-width:1px;stroke-linecap:butt;stroke-linejoin:miter;stroke-opacity:1"
         d="M 432.45403,471.07715 C 431.14179,467.04881 434.5446,463.11817 435.16886,459.06095 C 436.01206,453.58076 432.20565,450.66176 429.92785,450.66176 C 427.65006,450.66176 423.84365,453.58076 424.68685,459.06095 C 425.3111,463.11817 427.47036,467.04881 426.40121,471.07715 L 432.45403,471.07715 z "
         sodipodi:nodetypes="cssscc" />
      <path
         id="path7726"
         d="M 429.58025,465.579 L 428.28487,467.22102 C 425.56689,470.60945 422.91184,472.00298 420.40898,471.99781 C 417.90611,471.99263 415.13191,470.55519 412.17037,467.17126 L 410.87499,465.67851 L 409.78688,467.32053 C 408.01695,469.99809 405.82497,471.34194 403.30999,472.64467 C 402.74974,472.82908 402.35604,473.3142 402.30668,473.88098 C 402.25734,474.44775 402.56164,474.98891 403.08222,475.26014 C 403.6028,475.53136 404.24113,475.4813 404.70899,475.13258 C 406.91779,473.98846 409.22407,472.43861 411.18588,470.107 C 414.10938,473.01759 417.17744,474.8771 420.40898,474.88379 C 423.60725,474.8904 426.59245,473.04431 429.32118,470.15675 C 430.95248,472.16836 432.92544,473.90897 435.33173,475.33161 C 436.03283,475.75756 436.96078,475.55706 437.40433,474.88379 C 437.84789,474.21052 437.6391,473.3194 436.938,472.89346 C 434.26361,471.31231 432.11936,469.48425 430.72018,467.32053 L 429.58025,465.579 z "
         style="opacity:1;fill:#000000;fill-opacity:1;fill-rule:evenodd;stroke:none;stroke-width:1.79999995;stroke-linecap:round;stroke-linejoin:miter;stroke-miterlimit:4;stroke-dasharray:none;stroke-opacity:1" />
      <path
         sodipodi:nodetypes="cccccsccssssccccccc"
         style="opacity:1;fill:#000000;fill-opacity:1;fill-rule:nonzero;stroke:none"
         d="M 498.95315,434.91893 C 501.06255,434.90243 503.17975,434.89149 505.30464,434.88611 C 505.32211,437.46129 505.31376,440.04155 505.27959,442.62682 C 505.236,444.61931 505.20137,446.61734 505.17567,448.62088 C 507.7016,448.54907 510.24222,448.47401 512.78618,448.43767 L 516.41414,448.47769 C 517.28811,448.48732 517.25066,450.5028 517.09472,452.03162 C 513.16147,451.89963 509.23346,452.01005 505.31167,452.06102 C 505.16278,461.11537 505.36076,470.1861 504.98622,479.23514 C 504.8506,482.51172 500.64525,483.97018 498.76145,483.82861 C 497.1129,483.7047 495.27517,480.74006 494.42758,479.04731 C 494.14518,478.48331 495.11727,476.5103 495.60477,476.42516 C 496.27697,476.30778 498.20106,477.78422 499.06651,478.23725 C 499.34441,469.64891 499.21233,461.05573 498.91129,452.47398 L 492.40091,452.29465 L 494.08684,459.78624 L 483.07993,448.96922 C 488.35592,448.45984 493.66201,448.53474 498.96273,448.56037 C 498.96086,444.0094 498.96097,439.46271 498.95315,434.91893 z "
         id="path7728" />
      <path
         sodipodi:nodetypes="csc"
         id="path7730"
         d="M 411.17206,438.43086 C 404.2455,439.50685 396.88546,437.41735 398.05661,433.59667 C 399.04358,430.37686 404.92924,430.10421 411.17206,438.43086 z "
         style="opacity:1;fill:#000000;fill-opacity:1;fill-rule:nonzero;stroke:none;stroke-width:0.1;stroke-linecap:round;stroke-linejoin:round;stroke-miterlimit:4;stroke-dasharray:none;stroke-dashoffset:0;stroke-opacity:1" />
      <path
         style="opacity:1;fill:#000000;fill-opacity:1;fill-rule:nonzero;stroke:none;stroke-width:0.1;stroke-linecap:round;stroke-linejoin:round;stroke-miterlimit:4;stroke-dasharray:none;stroke-dashoffset:0;stroke-opacity:1"
         d="M 451.11162,438.62569 C 444.18506,439.70168 436.82502,437.61218 437.99617,433.7915 C 438.98314,430.57169 444.8688,430.29904 451.11162,438.62569 z "
         id="path7732"
         sodipodi:nodetypes="csc" />
    </g>
  </g>
</svg>
