<?xml version="1.0" encoding="UTF-8" standalone="no"?>
<!-- Created with Inkscape (http://www.inkscape.org/) -->

<svg
   xmlns:dc="http://purl.org/dc/elements/1.1/"
   xmlns:cc="http://creativecommons.org/ns#"
   xmlns:rdf="http://www.w3.org/1999/02/22-rdf-syntax-ns#"
   xmlns:svg="http://www.w3.org/2000/svg"
   xmlns="http://www.w3.org/2000/svg"
   version="1.1"
   width="275"
   height="180"
   id="svg3036">
  <metadata
     id="metadata3042">
    <rdf:RDF>
      <cc:Work
         rdf:about="">
        <dc:format>image/svg+xml</dc:format>
        <dc:type
           rdf:resource="http://purl.org/dc/dcmitype/StillImage" />
        <dc:title></dc:title>
      </cc:Work>
    </rdf:RDF>
  </metadata>
  <defs
     id="defs3040" />
  <g
     id="layer1"
     style="display:inline">
    <rect
       width="273.1608"
       height="179.16998"
       x="0"
       y="-0.14904994"
       id="rect3220"
       style="fill:#ffffff;fill-opacity:1;stroke:#ffffff;stroke-width:4;stroke-miterlimit:4;stroke-opacity:1;stroke-dasharray:none" />
  </g>
  <g
     id="layer3">
    <path
       d="m 80.306904,109.07402 c 0,0 -0.46154,3.92308 1.15385,5.76923 1.61538,1.84616 5.53846,3.92308 6.92308,4.15385 1.38461,0.23077 -1.61539,-5.07693 -1.61539,-5.07693 0,0 -4.38461,-5.53846 -6.46154,-4.84615 z"
       id="path3048"
       style="fill:#435024;fill-opacity:1;stroke:#435024;stroke-width:1px;stroke-linecap:butt;stroke-linejoin:miter;stroke-opacity:1" />
    <path
       d="m 80.999214,118.9971 c 0,0 0.46154,3.69231 3,4.15384 2.53846,0.46154 4.84615,0.23077 4.84615,0.23077 0,0 0,-4.15384 -7.84615,-4.38461 z"
       id="path3050"
       style="fill:#435024;fill-opacity:1;stroke:#435024;stroke-width:1px;stroke-linecap:butt;stroke-linejoin:miter;stroke-opacity:1" />
    <path
       d="m 89.306904,111.38171 c 0,0 2.53846,0.92308 2.53846,3.23077 0,2.30769 -0.23076,4.61539 -0.23076,4.61539 0,0 -1.84616,-2.3077 -1.84616,-3.46154 0,-1.15385 -0.46154,-4.38462 -0.46154,-4.38462 z"
       id="path3052"
       style="fill:#435024;fill-opacity:1;stroke:#435024;stroke-width:1px;stroke-linecap:butt;stroke-linejoin:miter;stroke-opacity:1" />
    <path
       d="m 88.367574,125.27178 c 0,0 -0.32636,2.2845 2.2845,2.2845 2.61085,0 0.32635,-2.93721 -2.2845,-2.2845 z"
       id="path3054"
       style="fill:#435024;fill-opacity:1;stroke:#435024;stroke-width:1px;stroke-linecap:butt;stroke-linejoin:miter;stroke-opacity:1" />
    <path
       d="m 88.204394,128.86171 c 0,0 2.77403,-0.81589 6.0376,-0.16318 3.26357,0.65271 4.89535,3.10039 4.89535,3.10039 0,0 -3.42674,0.97907 -7.34302,0 -3.91629,-0.97907 -3.58993,-2.93721 -3.58993,-2.93721 z"
       id="path3056"
       style="fill:#435024;fill-opacity:1;stroke:#435024;stroke-width:1px;stroke-linecap:butt;stroke-linejoin:miter;stroke-opacity:1" />
    <path
       d="m 89.999354,120.70278 c 0,0 3.91629,-1.14225 7.66939,7.34304 0,0 -7.17985,-1.79498 -7.66939,-7.34304 z"
       id="path3060"
       style="fill:#435024;fill-opacity:1;stroke:#435024;stroke-width:1px;stroke-linecap:butt;stroke-linejoin:miter;stroke-opacity:1" />
    <path
       d="m 94.078814,118.90782 c 0,0 4.40582,-2.44768 7.995746,8.97482 0,0 -5.058536,-1.95815 -7.995746,-8.97482 z"
       id="path3062"
       style="fill:#435024;fill-opacity:1;stroke:#435024;stroke-width:1px;stroke-linecap:butt;stroke-linejoin:miter;stroke-opacity:1" />
    <path
       d="m 99.953244,129.51442 c 0,0 4.405806,-1.63178 10.117056,5.05854 -9.30118,-0.32635 -10.117056,-5.05854 -10.117056,-5.05854 z"
       id="path3064"
       style="fill:#435024;fill-opacity:1;stroke:#435024;stroke-width:1px;stroke-linecap:butt;stroke-linejoin:miter;stroke-opacity:1" />
    <path
       d="m 102.90032,126.4048 c 0,0 -0.21584,2.57272 1.51088,2.57272 1.72674,0 0.21585,-3.30777 -1.51088,-2.57272 z"
       id="path3054-9"
       style="fill:#435024;fill-opacity:1;stroke:#435024;stroke-width:0.8630209px;stroke-linecap:butt;stroke-linejoin:miter;stroke-opacity:1" />
    <path
       d="m 99.722704,133.0879 c 0,0 -0.16835,2.24732 1.178476,2.24732 1.34685,0 0.16836,-2.8894 -1.178476,-2.24732 z"
       id="path3054-9-4"
       style="fill:#435024;fill-opacity:1;stroke:#435024;stroke-width:0.71236598px;stroke-linecap:butt;stroke-linejoin:miter;stroke-opacity:1" />
    <path
       d="m 113.18056,140.0302 c 0,0 -0.21584,2.57273 1.51088,2.57273 1.72674,0 0.21585,-3.30778 -1.51088,-2.57273 z"
       id="path3054-9-7"
       style="fill:#435024;fill-opacity:1;stroke:#435024;stroke-width:0.8630209px;stroke-linecap:butt;stroke-linejoin:miter;stroke-opacity:1" />
    <path
       d="m 117.26003,132.36081 c 0,0 -0.21584,2.57272 1.51088,2.57272 1.72674,0 0.21585,-3.30777 -1.51088,-2.57272 z"
       id="path3054-9-71"
       style="fill:#435024;fill-opacity:1;stroke:#435024;stroke-width:0.8630209px;stroke-linecap:butt;stroke-linejoin:miter;stroke-opacity:1" />
    <path
       d="m 106.48037,127.88264 c 0,0 6.20079,-1.63179 8.81164,6.20078 -7.50621,-1.14225 -8.81164,-6.20078 -8.81164,-6.20078 z"
       id="path3127"
       style="fill:#435024;fill-opacity:1;stroke:#435024;stroke-width:1px;stroke-linecap:butt;stroke-linejoin:miter;stroke-opacity:1" />
    <path
       d="m 100.93231,136.5311 c 0,0 7.01667,-1.79497 10.28024,0.65271 3.26357,2.44768 -6.20078,3.42675 -10.28024,-0.65271 z"
       id="path3129"
       style="fill:#435024;fill-opacity:1;stroke:#435024;stroke-width:1px;stroke-linecap:butt;stroke-linejoin:miter;stroke-opacity:1" />
    <path
       d="m 113.17069,136.69428 c 0,0 4.73218,-2.2845 9.95389,2.77403 -9.79071,1.30543 -9.95389,-2.77403 -9.95389,-2.77403 z"
       id="path3131"
       style="fill:#435024;fill-opacity:1;stroke:#435024;stroke-width:1px;stroke-linecap:butt;stroke-linejoin:miter;stroke-opacity:1" />
    <path
       d="m 121.16644,133.59388 c 0,0 4.73217,-1.4686 9.30117,7.17986 -10.28025,-1.4686 -9.30117,-7.17986 -9.30117,-7.17986 z"
       id="path3133"
       style="fill:#435024;fill-opacity:1;stroke:#435024;stroke-width:1px;stroke-linecap:butt;stroke-linejoin:miter;stroke-opacity:1" />
    <path
       d="m 129.32536,143.05825 c 0,0 -5.22171,3.58992 -11.74885,-0.16318 0,0 2.12132,-4.40582 11.74885,0.16318 z"
       id="path3135"
       style="fill:#435024;fill-opacity:1;stroke:#435024;stroke-width:1px;stroke-linecap:butt;stroke-linejoin:miter;stroke-opacity:1" />
    <path
       d="m 191.8952,108.99158 c 0,0 0.46153,3.92308 -1.15385,5.76923 -1.61539,1.84616 -5.53846,3.92308 -6.92308,4.15385 -1.38461,0.23077 1.61539,-5.07693 1.61539,-5.07693 0,0 4.38461,-5.53846 6.46154,-4.84615 z"
       id="path3048-1"
       style="fill:#435024;fill-opacity:1;stroke:#435024;stroke-width:1px;stroke-linecap:butt;stroke-linejoin:miter;stroke-opacity:1" />
    <path
       d="m 191.20289,118.91466 c 0,0 -0.46154,3.69231 -3,4.15384 -2.53846,0.46154 -4.84616,0.23077 -4.84616,0.23077 0,0 0,-4.15384 7.84616,-4.38461 z"
       id="path3050-1"
       style="fill:#435024;fill-opacity:1;stroke:#435024;stroke-width:1px;stroke-linecap:butt;stroke-linejoin:miter;stroke-opacity:1" />
    <path
       d="m 182.8952,111.29927 c 0,0 -2.53847,0.92308 -2.53847,3.23077 0,2.30769 0.23077,4.61539 0.23077,4.61539 0,0 1.84616,-2.3077 1.84616,-3.46154 0,-1.15385 0.46154,-4.38462 0.46154,-4.38462 z"
       id="path3052-6"
       style="fill:#435024;fill-opacity:1;stroke:#435024;stroke-width:1px;stroke-linecap:butt;stroke-linejoin:miter;stroke-opacity:1" />
    <path
       d="m 183.83453,125.18934 c 0,0 0.32636,2.2845 -2.2845,2.2845 -2.61085,0 -0.32636,-2.93721 2.2845,-2.2845 z"
       id="path3054-3"
       style="fill:#435024;fill-opacity:1;stroke:#435024;stroke-width:1px;stroke-linecap:butt;stroke-linejoin:miter;stroke-opacity:1" />
    <path
       d="m 183.99771,128.77927 c 0,0 -2.77404,-0.81589 -6.0376,-0.16318 -3.26358,0.65271 -4.89536,3.10039 -4.89536,3.10039 0,0 3.42675,0.97907 7.34303,0 3.91629,-0.97907 3.58993,-2.93721 3.58993,-2.93721 z"
       id="path3056-5"
       style="fill:#435024;fill-opacity:1;stroke:#435024;stroke-width:1px;stroke-linecap:butt;stroke-linejoin:miter;stroke-opacity:1" />
    <path
       d="m 182.20275,120.62034 c 0,0 -3.91629,-1.14225 -7.6694,7.34304 0,0 7.17986,-1.79498 7.6694,-7.34304 z"
       id="path3060-7"
       style="fill:#435024;fill-opacity:1;stroke:#435024;stroke-width:1px;stroke-linecap:butt;stroke-linejoin:miter;stroke-opacity:1" />
    <path
       d="m 178.12328,118.82538 c 0,0 -4.40582,-2.44768 -7.99575,8.97482 0,0 5.05854,-1.95815 7.99575,-8.97482 z"
       id="path3062-6"
       style="fill:#435024;fill-opacity:1;stroke:#435024;stroke-width:1px;stroke-linecap:butt;stroke-linejoin:miter;stroke-opacity:1" />
    <path
       d="m 172.24885,129.43198 c 0,0 -4.40581,-1.63178 -10.11706,5.05854 9.30118,-0.32635 10.11706,-5.05854 10.11706,-5.05854 z"
       id="path3064-8"
       style="fill:#435024;fill-opacity:1;stroke:#435024;stroke-width:1px;stroke-linecap:butt;stroke-linejoin:miter;stroke-opacity:1" />
    <path
       d="m 169.30177,126.32236 c 0,0 0.21584,2.57272 -1.51088,2.57272 -1.72674,0 -0.21585,-3.30777 1.51088,-2.57272 z"
       id="path3054-9-2"
       style="fill:#435024;fill-opacity:1;stroke:#435024;stroke-width:0.8630209px;stroke-linecap:butt;stroke-linejoin:miter;stroke-opacity:1" />
    <path
       d="m 172.47939,133.00546 c 0,0 0.16835,2.24732 -1.17848,2.24732 -1.34685,0 -0.16836,-2.8894 1.17848,-2.24732 z"
       id="path3054-9-4-1"
       style="fill:#435024;fill-opacity:1;stroke:#435024;stroke-width:0.71236598px;stroke-linecap:butt;stroke-linejoin:miter;stroke-opacity:1" />
    <path
       d="m 159.02153,139.94776 c 0,0 0.21584,2.57273 -1.51088,2.57273 -1.72674,0 -0.21585,-3.30778 1.51088,-2.57273 z"
       id="path3054-9-7-1"
       style="fill:#435024;fill-opacity:1;stroke:#435024;stroke-width:0.8630209px;stroke-linecap:butt;stroke-linejoin:miter;stroke-opacity:1" />
    <path
       d="m 154.94206,132.27837 c 0,0 0.21584,2.57272 -1.51088,2.57272 -1.72674,0 -0.21585,-3.30777 1.51088,-2.57272 z"
       id="path3054-9-71-4"
       style="fill:#435024;fill-opacity:1;stroke:#435024;stroke-width:0.8630209px;stroke-linecap:butt;stroke-linejoin:miter;stroke-opacity:1" />
    <path
       d="m 165.72172,127.8002 c 0,0 -6.20079,-1.63179 -8.81164,6.20078 7.50621,-1.14225 8.81164,-6.20078 8.81164,-6.20078 z"
       id="path3127-3"
       style="fill:#435024;fill-opacity:1;stroke:#435024;stroke-width:1px;stroke-linecap:butt;stroke-linejoin:miter;stroke-opacity:1" />
    <path
       d="m 171.26978,136.44866 c 0,0 -7.01667,-1.79497 -10.28024,0.65271 -3.26357,2.44768 6.20078,3.42675 10.28024,-0.65271 z"
       id="path3129-0"
       style="fill:#435024;fill-opacity:1;stroke:#435024;stroke-width:1px;stroke-linecap:butt;stroke-linejoin:miter;stroke-opacity:1" />
    <path
       d="m 159.0314,136.61184 c 0,0 -4.73218,-2.2845 -9.95389,2.77403 9.79071,1.30543 9.95389,-2.77403 9.95389,-2.77403 z"
       id="path3131-7"
       style="fill:#435024;fill-opacity:1;stroke:#435024;stroke-width:1px;stroke-linecap:butt;stroke-linejoin:miter;stroke-opacity:1" />
    <path
       d="m 151.03565,133.51144 c 0,0 -4.73217,-1.4686 -9.30117,7.17986 10.28025,-1.4686 9.30117,-7.17986 9.30117,-7.17986 z"
       id="path3133-1"
       style="fill:#435024;fill-opacity:1;stroke:#435024;stroke-width:1px;stroke-linecap:butt;stroke-linejoin:miter;stroke-opacity:1" />
    <path
       d="m 142.87673,142.97581 c 0,0 5.22171,3.58992 11.74885,-0.16318 0,0 -2.12132,-4.40582 -11.74885,0.16318 z"
       id="path3135-1"
       style="fill:#435024;fill-opacity:1;stroke:#435024;stroke-width:1px;stroke-linecap:butt;stroke-linejoin:miter;stroke-opacity:1" />
    <path
       d="m 135.11459,145.07403 c 0,0 -3.57692,4.84615 -3.57692,4.38462 0,-0.46154 -2.53846,-2.53847 -2.53846,-2.53847 l 4.38461,-3.23076 -1.73077,-0.8077 0.92308,-1.03847 3.23077,1.38463"
       id="path3203"
       style="fill:#435024;fill-opacity:1;stroke:#435024;stroke-width:1px;stroke-linecap:butt;stroke-linejoin:miter;stroke-opacity:1" />
    <path
       d="m 136.09537,145.05854 c 0,0 3.57692,4.84615 3.57692,4.38462 0,-0.46154 2.53846,-2.53847 2.53846,-2.53847 l -4.38461,-3.23076 1.73077,-0.8077 -0.92308,-1.03847 -3.23077,1.38463"
       id="path3203-2"
       style="fill:#435024;fill-opacity:1;stroke:#435024;stroke-width:1px;stroke-linecap:butt;stroke-linejoin:miter;stroke-opacity:1" />
    <path
       d="m 134.88382,145.3048 1.5,0"
       id="path3223"
       style="fill:#435024;fill-opacity:1;stroke:#435024;stroke-width:1px;stroke-linecap:butt;stroke-linejoin:miter;stroke-opacity:1" />
    <path
       d="m 70.153064,68.227865 c 0,0 1.84615,4.846154 3.92307,4.846154 2.07693,0 7.61539,0.461538 7.61539,0.461538 0,0 2.76923,-0.461538 3.69231,-3 0.92307,-2.538461 3.46153,-13.153846 16.153836,-6.692307 12.69231,6.461538 13.38461,-11.076924 13.38461,-11.076924 l -2.07692,-3 0.46154,-5.76923 c 0,0 6.92308,4.846154 11.30769,4.615384 4.38462,-0.230769 7.61539,1.384616 9,1.384616 1.38462,0 5.76923,1.384615 5.76923,1.384615 l 11.30769,0.461539 c 0,0 1.84616,-1.615385 3.69231,-1.384616 1.84616,0.230769 1.84616,-1.153846 5.30769,-1.153846 3.46154,0 6.92308,-4.384615 6.92308,-4.384615 0,0 0.92308,-0.923077 6,0 0,0 3.46154,-2.769231 8.53846,-4.384616 5.07693,-1.615384 4.38462,-3.692307 4.38462,-3.692307 0,0 3.69231,-0.692308 5.30769,-0.461539 1.61538,0.230769 2.53846,-2.769231 2.53846,-2.769231 l 3.92308,-0.461538 1.61538,-2.307692 3.92308,-0.692308 c 0,0 4.61538,-3.23077 5.30769,-5.307693 0.69231,-2.076924 6,-0.461539 6,-0.461539 0,0 2.30769,-2.076923 2.53846,-3.230769 0.23077,-1.153846 2.3077,-0.230769 2.3077,-0.230769 l -0.23077,3.692307 -2.53846,1.384616 0,2.307692 -3.92308,0 -0.23077,2.307693 -3.23077,0.23077 -0.46154,2.76923 -0.69231,1.153846 -0.92307,0.461539 -2.3077,0 -0.92307,1.384615 -2.30769,1.615385 -1.61539,2.076923 -3.23077,-0.230769 -2.07692,2.769231 -1.38462,-0.23077 -2.07692,3.461539 -1.61538,2.076923 -0.92308,1.384615 -1.61539,0.461539 -0.46153,1.846154 -2.76924,0.692307 -3.6923,0.923077 -1.38462,1.615385 c 0,0 -3.92308,7.846154 0.23077,10.615384 4.15385,2.769231 4.38462,5.769231 4.38462,5.769231 l 2.07692,1.384616 1.61538,2.76923 0.69231,3.23077 c 0,0 -0.69231,0.461538 -1.61538,0.230769 -0.92308,-0.230769 -2.53846,-0.461539 -2.53846,-0.461539 l -1.84616,-1.615384 -3.46154,-0.23077 -1.84615,2.076924 c 0,0 -0.92308,1.384615 -0.92308,2.307692 0,0.923077 -0.46154,0.692308 -1.61538,0 -1.15385,-0.692308 -3,-1.846154 -3,-1.846154 l -2.53846,-0.692308 -0.23077,-1.153846 -1.61539,0.923077 c 0,0 -0.46154,1.384615 -1.38461,0.923077 -0.92308,-0.461538 -1.84616,-0.461538 -1.84616,-0.461538 l -1.61538,0 c 0,0 -3.69231,2.76923 -3.23077,11.76923 l -4.15385,0.692308 -2.07692,1.846154 -1.15385,1.153846 -3,0 -1.61538,1.384615 -3,1.153847 -1.38462,1.846158 -3.6923,0.23076 -1.61539,1.153852 -0.69231,1.61539 -2.53846,-1.61539 -3.46154,-0.923082 -3,0.69231 c 0,0 -0.92307,0.230772 -1.84615,0.923082 -0.92308,0.69231 -3.46154,1.15384 -3.46154,1.15384 0,0 -1.61538,0.46154 -1.61538,1.38462 0,0.92308 -0.46154,2.53846 -0.46154,2.53846 l 0,3.46154 c 0,0 -0.46154,2.30769 -2.30769,2.30769 -1.84616,0 -1.38462,0 -2.3077,-0.23077 -0.92307,-0.23077 -0.6923,-2.30769 -0.6923,-2.30769 l 0,-2.53846 -3.69231,-3.46154 -2.30769,-0.92308 -2.53847,0.23077 -2.30769,1.38462 -2.07692,1.38461 c 0,0 0.46154,1.61539 -1.153846,0.46154 -1.61538,-1.15384 -2.76923,-1.61538 -2.76923,-1.61538 l -2.07692,-1.15385 -2.76923,-0.69231 -2.07692,-2.538462 -5.30769,-0.23077 -4.61539,-5.307689 -1.38461,-1.384616 -0.23077,-4.153846 -3,-0.461538 0,-2.307693 -1.15385,-2.307692 0.46154,-4.153846 -2.76923,-1.153846 -1.15385,-3.923077 z"
       id="path3993"
       style="fill:#d87503;fill-opacity:1;stroke:#d87503;stroke-width:1px;stroke-linecap:butt;stroke-linejoin:miter;stroke-opacity:1" />
  </g>
</svg>
