<svg xmlns="http://www.w3.org/2000/svg" xmlns:xlink="http://www.w3.org/1999/xlink" width="900" height="600"><defs><radialGradient cx="257.412" cy="61.089" r="29.308" id="a" gradientUnits="userSpaceOnUse"><stop offset="0" stop-color="#f9ebca"/><stop offset=".489" stop-color="#f7e3b2"/><stop offset="1" stop-color="#dac69a"/></radialGradient><filter id="e" color-interpolation-filters="sRGB"><feGaussianBlur stdDeviation="1.595"/></filter><filter id="f" color-interpolation-filters="sRGB"><feGaussianBlur stdDeviation="1.595"/></filter><radialGradient xlink:href="#a" id="d" gradientUnits="userSpaceOnUse" cx="257.412" cy="61.089" r="29.308"/></defs><path d="M0 0h900v600H0z" fill="#ffcc1e"/><use transform="matrix(-1 0 0 1 900 0)" width="600" height="400" xlink:href="#b"/><use transform="matrix(-1 0 0 1 900 0)" width="600" height="400" xlink:href="#c"/><g id="c" transform="scale(1.5)" stroke="#9c7c4b" stroke-width="1.369"><circle cx="257.411" cy="61.405" r="32.861" fill="none"/><circle cx="257.412" cy="61.087" r="29.309" fill="url(#d)"/></g><g id="b"><path d="M194.632 329.047c-2.668 0-4.968-1.171-7.456-3.798-4.229-4.464-2.691-10.828-2.675-10.893-.014-.013-1.586-2.146.002-4.251 1.587-2.104 6.105-3.704 6.151-3.721.001-.034.811-4.257 2.135-5.573 1.32-1.308 4.509-8.418 4.541-8.489l-2.395.279c-1.259.138-1.772 1.421-2.269 2.661-.436 1.088-.847 2.116-1.741 2.116-1.018 0-1.812-.716-2.513-1.347-.594-.536-1.155-1.042-1.763-1.042-.221 0-.376.052-.477.156-.188.198-.169.568-.145 1.037.034.661.077 1.484-.44 2.254-.575.855-1.629 1.035-2.413 1.035-1.008 0-2.164-.301-2.945-.767-.487-.291-1.098-.438-1.817-.438-.705 0-1.281.146-1.37.171l.008-.001c.099 0 .522.132.522 1.322 0 1.398-1.597 4.008-4.649 4.008a5.48 5.48 0 0 1-.439-.018c-3.442-.263-4.013-4.215-4.019-4.255-.01.012-2.118.301-2.118 2.653 0 2.359 2.646 8.427 2.672 8.488-.103-.043-8.841-5.639-9.105-12.205-.266-6.569 7.675-10.063 7.755-10.097-.011-.019-.512-2.925 2.14-3.452.234-.047.477-.07.721-.07 2.348 0 4.346 2.177 4.366 2.198.002 0 .368.169 2.029.169 1.583 0 3.774-.147 6.514-.439 7.39-.785 8.799-2.105 8.813-2.118h-.002c-.114 0-4.017-.552-4.543-2.115-.527-1.568-1.851-2.113-1.864-2.118.002.016-1.083 2.135-3.199 3.187a2.03 2.03 0 0 1-.898.234c-1.461 0-2.049-2.077-2.055-2.098-.006-.021-.679-2.189-2.181-2.189-.156 0-.317.023-.479.069-.223.063-.399.216-.523.452-.823 1.563.781 6.389.797 6.438-.008.015-.115.084-.329.084-.404 0-1.095-.243-2.093-1.4-1.796-2.081-3.944-5.501-1.872-11.16 1.809-4.942 6.88-5.326 8.391-5.326.277 0 .438.013.438.013.002-.008 1.09-1.076 3.467-2.39a1.78 1.78 0 0 1 .856-.241c1.909 0 3.018 3.845 3.436 5.292.529 1.845 1.048 2.382 3.463 2.382 2.011 0 2.543.569 3.425 1.513.177.189.369.395.59.615.444.44 1.082.663 1.898.663 1.076 0 2.09-.397 2.1-.402l1.335-.529c.149-.059.308-.102.491-.151 1.45-.392 4.468-1.207 16.342-14.182 13.207-14.433 23.414-41.928 23.515-42.204.403 0 6.861 9.133 9.931 15.716 1.621 3.478 2.062 5.695 1.31 6.592-2.176 2.594-4.734 4.505-7.443 6.527-.627.468-1.265.943-1.912 1.438-3.285 2.511-9.553 8.396-12.29 12.473-1.419 2.115-2.898 3.541-4.202 4.8-1.138 1.097-2.12 2.044-2.746 3.164-1.287 2.305-3.177 4.784-4.284 4.784-1.039 0-2.871 3.075-2.931 3.177l.005-.001c.03 0 .158.03.388.03.42 0 1.155-.099 2.266-.57.463-.197 1.032-.298 1.691-.298 1.551 0 3.11.558 3.126.563-.011-.021.264-2.929 1.057-4.243.705-1.166 2.065-2.342 3.517-2.342.356 0 .706.072 1.04.215 1.853.789 2.669 2.641 2.678 2.659.059.055 6.152 5.919 6.681 13.009.146 1.95-.312 3.511-1.358 4.639-1.692 1.823-4.421 2.02-5.517 2.02a5.56 5.56 0 0 1-.351-.009c.011-.047 1.858-3.229 1.594-5.851-.263-2.616-2.375-3.957-2.401-3.973.011.009-.251 1.073-.251 2.38 0 1.366-1.92 3.459-4.287 3.459-1.312 0-1.908-.938-2.484-1.845-.485-.763-.943-1.483-1.793-1.604a1.673 1.673 0 0 0-.241-.019c-.213 0-.361.053-.453.16-.18.212-.116.614-.053 1.003.065.406.133.827-.065 1.06-.106.124-.277.185-.522.185-1.602 0-4.281 0-5.62-1.329-.446-.443-.91-.669-1.378-.669-.77 0-1.528.63-2.08 1.728-.821 1.631-1.635 2.128-3.484 2.128-1.633 0-1.633 0-2.5.888l-.433.438c-.792.787-.736 1.833-.671 3.044.044.819.089 1.666-.127 2.526-.135.537-.184 1.065-.231 1.577-.138 1.496-.247 2.678-2.451 2.678-.826 0-1.22.086-1.361.295-.164.244.007.659.29 1.348.345.84.867 2.108 1.081 3.919.149 1.258-.128 2.293-.825 3.077-1.374 1.546-4 1.713-5.065 1.713-.39 0-.612.068-.681.208-.121.247.229.697.672 1.267l.284.369c.656.869 1.728 3.595 1.443 5.262-.089.521-.306.9-.644 1.124-.367.242-.862.365-1.473.365-1.637 0-3.594-.889-3.614-.898l.549 2.911c.526 2.879 6.875 3.438 6.939 3.443.003.036-.562 2.411-3.474 2.939-.892.158-1.907.341-2.972.341z" fill="#780000" transform="scale(1.5)"/><path d="M195.279 327.25c-1.944 0-4.704-.483-6.813-2.786-3.739-4.086-2.471-9.529-2.458-9.583l.006-.001c.271 0 1.067.484 1.536 1.057.3.365.427.717.367 1.015-.076.378.003.791.198 1.028.11.135.25.206.406.206.227 0 .598-.15 1.079-.867.417-.62.779-.935 1.079-.935.321 0 .449.371.45.375-.001.028-.177 2.476.757 5.441.932 2.967 6.176 4.672 6.229 4.688-.013.023-1.206.362-2.836.362zM196.708 319.005c-.197 0-.425-.058-.679-.17-.78-.344-1.612-1.174-2.493-2.053-1.042-1.04-2.223-2.219-3.554-2.828-1.731-.793-3.078-.839-3.801-.864-.305-.011-.489-.017-.547-.075 0-.038.395-3.026 2.081-3.771l1.701-.75c.072.048 6.26 4.722 7.382 6.947.691 1.373.903 2.64.542 3.227-.139.223-.351.337-.632.337zM191.301 307.757c.008-.028.95-1.72 1.51-3.574.258-.855 1.278-2.418 2.459-4.227 1.392-2.131 2.969-4.547 3.587-6.287.469-1.319 1.054-2.642 1.621-3.921.794-1.794 1.481-3.344 1.591-4.333.057-.512.01-1.207-.041-1.942-.115-1.681-.258-3.771.799-4.821.299-.298 1.041-.885 2.066-1.696 4.047-3.204 13.524-10.707 20.041-19.891 7.988-11.253 18.107-32.766 18.334-33.57l.011-.01c.235.179 3.627 3.063 4.538 5.051.625 1.366-3.108 6.296-6.718 11.063-1.846 2.438-3.589 4.739-4.621 6.405-1.863 3.007-7.083 9.217-11.688 14.695-2.886 3.435-5.613 6.678-7.208 8.767-2.085 2.731-2.694 4.938-3.097 6.397-.343 1.243-.532 1.928-1.35 1.928-.141 0-.297-.021-.477-.062a1.759 1.759 0 0 0-.391-.047c-1.123 0-1.665 1.26-2.143 2.371-.399.928-.777 1.805-1.431 1.805-1.017 0-2.553 1.106-3.393 2.132-.422.515-.624.954-.567 1.235.029.144.08.335.14.559.324 1.215.926 3.478-.524 3.957-1.716.569-2.825 2.066-2.638 3.558l.018.142c.185 1.455.319 2.506-.969 2.871-.922.261-2.188 1.207-2.533 2.147-.143.389-.116.735.082 1.028-.45 2.774-1.472 3.77-2.375 4.647-.687.669-1.28 1.246-1.404 2.492l-2.087 2.454zM165.981 306.82c-.045-.04-4.538-3.998-4.538-8.641 0-4.646 6.366-8.047 6.43-8.081 2.817 2.231 1.726 7.28 1.715 7.331-.027.008-1.73.027-3.783 1.695-2.049 1.664.169 7.624.192 7.684z" fill="#a8121c" transform="scale(1.5)"/><path d="M173.643 301.77c-1.301 0-2.976-1.132-3.129-1.898l-.19-.939c.013-.024 1.129-1.731.756-4.882-.374-3.152-1.686-5.604-1.699-5.629 0-.026.192-2.089 1.868-2.089.071 0 .144.004.22.012 1.796.176 3.58 3.212 3.978 6.767.384 3.433.366 7.707-.95 8.455-.24.134-.527.203-.854.203zM182.443 297.86c-.201 0-.399-.08-.589-.237-.433-.359-1.189-.541-2.248-.541-.99 0-1.892.166-1.901.168-.012-.009-.201-1.322-.579-3.576-.358-2.131-1.065-4.464-1.128-4.67l-.003-.012.019-.001c.036 0 .115.007.325.007 2.039 0 13.614-.765 16.666-2.278 3.36-1.669 7.14-6.89 7.177-6.942l-.36.947c-.234.581-.032 1.521.202 2.608.145.674.294 1.371.366 2.082.187 1.859-1.498 3.741-1.515 3.76h-.002c-.044 0-.629-.046-1.42-.046-1.549 0-3.543.171-4.246.985-.815.944-1.536 2.868-2.013 4.142-.187.498-.337.899-.443 1.11-.043.087-.124.131-.237.131-.931 0-3.914-2.92-4.502-3.506-.248-.246-.481-.371-.694-.371-.859 0-1.179 1.95-1.179 3.179-.001 1.387-.757 3.061-1.696 3.061zM237.217 289.553v-.01c-.002-.056-.241-5.652-4.719-8.062-.016-.037-1.129-3.217-.191-4.707l.943-1.502c.08.065 6.439 6.802 6.065 10.52-.375 3.718-2.071 3.761-2.088 3.761zM175.555 284.639c-.04-.017-3.994-1.68-2.01-8.642 1.552-5.448 5.458-6.037 7.065-6.037.506 0 .826.057.829.058-2.897 2.899-1.607 9.104-1.594 9.166-.026 0-.982-.928-2.85-.928-.118 0-.24.004-.366.012a.99.99 0 0 0-.732.4c-1.096 1.385-.335 5.914-.328 5.959l.003.018z" fill="#a8121c" transform="scale(1.5)"/><path d="M194.266 283.311c-.036 0-3.63-.022-5.085-1.996-.919-1.244-1.824-1.855-2.364-2.222-.32-.217-.497-.336-.442-.443.012-.022 1.209-2.273 1.871-3.847l.668-1.594c.031.02 1.375 2.117 3.483 2.117 1.857 0 2.517.608 3.431 1.452.142.131.291.268.451.409 1.185 1.048 3.973 1.061 4.001 1.061 0 .021-.541.43-1.595 1.74-1.058 1.313-4.379 3.301-4.412 3.321l-.002.001h-.005zM182.574 281.53c-.901 0-1.842-.805-1.946-1.014-.004-.048-.263-4.41.267-6.642.52-2.2 2.095-4.491 3.746-5.448a.941.941 0 0 1 .479-.131c1.509 0 3.259 3.551 3.276 3.586-.036.085-3.619 7.591-4.676 9.036-.3.407-.684.613-1.146.613z" fill="#a8121c" transform="scale(1.5)"/><path d="M199.792 309.91c-1.517 0-2.795-.894-3.39-1.779-.75-1.115-.008-2.436 0-2.448.08.062.15.093.229.093.332 0 .8-.562 1.448-1.339l.214-.258c.346-.412.564-1.178.817-2.063.428-1.501.961-3.369 2.398-4.321 1.153-.764 1.277-2.068 1.396-3.331.117-1.236.228-2.403 1.25-3.05 1.319-.834 1.727-2.749 2.085-4.439.207-.97.401-1.887.745-2.502.483-.866 1.474-.999 2.348-1.116.835-.111 1.625-.218 1.808-.947.374-1.487 1.497-3.375 2.841-3.946 1.168-.499 2.04-2.613 2.883-4.658l.324-.78c.958-2.288 6.071-8.285 10.395-12.767 4.476-4.642 10.65-12.879 12.47-15.955 1.868-3.156 9.188-11.925 9.261-12.014.039.104 2.036 10.004-3.199 13.905-5.466 4.069-17.652 15.703-19.461 18.579-1.882 2.991-7.345 8.987-10.206 11.452-.755.65-1.058 1.255-.875 1.748.284.767 1.66 1.115 2.819 1.115.605 0 1.187-.09 1.636-.252a4.058 4.058 0 0 1 1.395-.259c.563 0 1.068.122 1.653.264.714.174 1.523.37 2.624.37 2.122 0 2.293-1.719 2.474-3.537.044-.444.089-.897.163-1.336.186-1.107 1.029-1.604 1.782-1.604.442 0 .82.165 1.011.441.152.22.173.493.061.791-.545 1.442-.737 5.078-.922 8.594l-.022.415c-.078 1.479-.605 2.197-1.612 2.197-.842 0-1.836-.504-2.634-.909l-.305-.153a25.529 25.529 0 0 1-.886-.473c-1.05-.578-2.24-1.234-3.292-1.234a2.04 2.04 0 0 0-.915.203c-.607.302-.937.844-1.255 1.368-.408.671-.793 1.304-1.712 1.304-.134 0-.28-.013-.439-.042-.628-.113-1.119-.166-1.546-.166-1.19 0-1.998.428-2.79 1.475-.75.994-1.764 1.337-3.047 1.771-.663.224-1.414.479-2.248.86-2.2 1.01-3.373 3.34-3.585 7.125-.191 3.438-2.354 3.972-3.786 4.325-.317.079-.506.195-.578.355-.119.266.079.637.328 1.106.25.471.561 1.056.635 1.721.048.424.181.997.321 1.604.332 1.435.745 3.219.245 4.013a.877.877 0 0 1-.574.399 3.584 3.584 0 0 1-.78.085z" fill="#850e17" transform="scale(1.5)"/></g><path d="M391.547 73.266c-6.73 0-15.538 1.596-18.328 2.906-2.712 1.273-8.672 5.847-8.672 7.875l15.797 18.984c40.796 8.539 13.498 9.586 14.25 13.969 4.392.146 10.388 2.69 14.297 5.766 1.845 1.64 2.738 8.04 1.078 14.578-.467 1.839-1.605 2.765-3.328 2.765-3.49 0-8.366-3.813-8.438-3.843-.003.018-.172 1.797 2.625 5.296 1.12 1.398 3.016 2.11 5.672 2.11 2.281 0 4.303-.537 4.313-.563-.02.086-1.74 7.744-4.313 11.016-.567.72-1.31 1.078-2.156 1.078-2.44 0-5.2-3.017-5.25-3.047-.005.01-.647.903 0 3.75.35 1.54 1.947 1.875 3.234 1.875 1.245 0 2.374-.302 2.39-.328-.006.033-.248 1.134-2.156 2.86-1.333 1.203-4.186 1.359-7.078 1.359-.76 0-1.516.012-2.296 0-.78-.012-1.582-.047-2.344-.047-4.5 0-4.754-7.599-4.781-7.687-.035.03-3.477 3.106-.891 7.265 2.424 3.902 5.854 4.219 6.281 4.219.029 0 .046.001.047 0l-.656.844c-.282.382-1.337.61-2.813.61-1.548 0-4.933-.235-10.219-1.923-7.891-2.52-7.303-10.615-6.937-13.031.174-1.146 1.263-1.688 3.234-1.688 1.57 0 3.122.375 3.235.375-.086-.027-2.18-.727-3.657-2.015-1.486-1.295-2.797-2.781-2.859-2.813l2.625.657c.299.075.605.093.938.093.55 0 1.11-.088 1.64-.187.543-.102 1.116-.188 1.688-.188 1.383 0 2.514.592 3.75 2.016.816.94 1.103 1.853.843 2.625-.594 1.766-3.806 2.451-3.843 2.484.012.01 1.306.891 3.89.891.672 0 1.177-.218 1.547-.656.893-1.058.983-3.401.235-7.781-.522-3.047-3.74-3.422-6.47-3.422-.917 0-1.834.048-2.718.093-.793.04-1.578.094-2.25.094-.447 0-.86-.049-1.219-.094-3.08-.39-5.317-3.938-5.765-4.64.162.363.593 1.538 1.64 5.344 1.368 4.96.811 12.792.703 14.296-.378-.115-1.344-.187-2.859-.187-1.735 0-3.921-.782-6.422-1.688-3.36-1.216-7.512-2.718-12.047-2.718-2.95 0-5.352.925-7.125 2.765-2.127 2.208-3.289 5.71-3.14 9.61.205 5.503 5.888 5.953 6.328 5.953-.065-.029-6.483-2.947-4.125-9.047 1.308-3.38 5.477-4.078 8.719-4.078 2.836 0 5.278.515 5.39.515-.064.038-4.136 2.493-4.781 5.766-.647 3.287 3.037 5.531 3.094 5.531-.017-.022-1.749-2.348-1.032-4.547.464-1.422 1.818-2.505 4.032-3.187 1.302-.4 2.543-.563 3.656-.563 3.568 0 5.485 2.048 6.89 3.563.344.37.679.708.985.984 1.887 1.706 7.882 2.203 8.25 2.203-.299.02-4.589.342-9.797 3.094-1.329.7-2.009 1.612-2.11 2.719-.262 2.863 3.735 6.245 4.97 7.219.347.274.706.422 1.078.422 1.467 0 2.613-2.134 2.625-2.157l-.141-.047c-.725 0-3.192-.09-4.078-1.453-.447-.687-.398-1.609.094-2.719 1.614-3.64 8.894-3.676 15.328-3.703 1.326-.006 2.628-.007 3.797-.047 4.827-.157 6.315-1.318 6.75-2.015-.273.658-.783 2.004-.938 3.562-.214 2.192 2.155 3.979 2.203 3.985 0-.026.017-2.715 1.735-5.766 1.716-3.054 9.921-5.914 9.984-5.953.005.018.458 1.807-.187 4.64-.386 1.702-2.503 2.153-4.735 2.626-1.471.31-3.015.594-3.984 1.312-2.373 1.752-.889 5.731-.844 5.766 0-.018.047-.463 1.969-3.281.63-.926 1.473-1.407 2.484-1.407 1.42 0 2.711.936 2.719.938.005.015.344 1.653-3.516 8.625-1.092 1.97-2.266 2.953-3.562 2.953-2.448 0-4.405-3.578-4.453-3.61l-.422 3.282c-.074.556.052 1.039.375 1.406.73.834 2.325 1.031 3.562 1.031 1.223 0 2.298-.203 2.344-.234-.055.07-1.468 1.843-8.016 3.562a7.996 7.996 0 0 1-2.015.282c-1.065 0-1.871-.332-2.344-.985-1.068-1.474-.218-4.13-.234-4.172-.029.027-2.82 2.699-1.313 5.766.54 1.098 1.714 1.64 3.422 1.64 1.913 0 3.88-.729 3.984-.796l-1.968 1.781c-2.078 1.88-4.742 3.758-12.375 4.406-1.086.092-2.08.14-3 .14-5.655 0-8.346-1.731-11.344-4.968-3.051-3.294-6.444-3.562-11.297-3.562h-1.734c-3.05 0-6.39 2.261-9.61 4.453-2.832 1.927-5.515 3.765-8.015 4.172a6.08 6.08 0 0 1-.985.093c-4.55 0-7.592-5.325-8.531-8.906-.634-2.415.718-3.433 2.578-4.828.678-.509 1.444-1.069 2.203-1.781 1.971-1.847 3.064-5.894 2.344-8.625-.412-1.57-1.402-2.565-2.812-2.907-3.546-.858-6.142-3.814-7.782-8.812-.639-1.95-2.207-3.234-3.984-3.234-1.188 0-2.345.62-3.234 1.687-.803.965-1.866 1.453-3.188 1.453-1.98 0-4.224-1.108-6.14-2.156-.893-.489-1.498-1.452-1.735-2.86-.447-2.657.476-6.073 2.156-7.921.828-.914 1.665-2 2.532-3.14 1.87-2.462 3.817-5.02 6.187-6.376.666-.38 1.3-.562 1.922-.562 2.445 0 4.245 3.02 5.672 5.437.778 1.317 2.58 2.063 5.11 2.063 3.116 0 6.47-1.128 8.155-2.72 3.125-2.947 4.317-16.663 2.813-24.093-.912-4.501-8.701-10.006-14.953-14.437-4.248-3.01-7.922-5.626-8.531-7.22-1.499-3.914 2.815-6.139 2.859-6.187-.014-.007-1.384-.75-2.906-.75-1.13 0-2.046.414-2.766 1.22-2.157 2.408-.036 6.587 0 6.608-.027-.003-2.61-.247-4.969-3.515-1.68-2.328-3.52-2.84-6.047-3.516a41.25 41.25 0 0 1-3.75-1.172c-4.716-1.74-4.574-6.546-4.593-6.609-.027.013-2.626 1.367-1.547 4.219 1.024 2.709 3.647 3.255 3.89 3.281h-2.343c-2.348 0-4.746.003-8.438-2.203-3.822-2.285-5.88-4.31-6.515-9.047-.146-1.088.096-2.012.796-2.813 1.275-1.458 3.752-2.109 5.625-2.109 1.052 0 1.911.17 2.25.516.684.696-.225 1.91-.937 2.86-.437.578-.766.999-.656 1.218.043.085.148.14.328.14.054 0 .12.007.187 0 .803-.09 1.268-.659 1.735-1.218.498-.6 1.008-1.219 1.922-1.219.33 0 .67.075 1.078.234.406.16.876.235 1.359.235 1.352 0 2.84-.603 4.594-1.313 1.645-.664 3.502-1.414 5.578-1.781.77-.137 1.517-.234 2.156-.234 1.643 0 2.826.432 3.516 1.312.762.972.897 2.47.422 4.406-.3 1.224-1.03 1.828-2.11 1.828-2.058 0-4.824-2.278-4.875-2.296-.005.009-.355.942.188 1.875.592 1.017 1.982 1.665 4.172 1.921.304.036.611.047.89.047 2.033 0 3.533-.929 4.125-2.53.725-1.961-.132-4.409-2.156-6.141-1.809-1.549-3.61-2.297-5.484-2.297-2.094 0-4.017.908-5.625 1.828-1.15.658-2.11.984-3.047.984-1.718 0-3.189-1.037-5.39-2.578l-.235-.14c-.888-.62-2.021-.985-3.281-.985-3.645 0-7.684 2.597-9.797 6.281-3.014 5.249 8.588 14.28 8.718 14.344l-6.093-1.547c-2.181-.555-4.6-.594-6.938-.61-4.096-.025-7.936-.029-9.328-3.14-2.15-4.804-7.56-12.72-7.64-12.797-.041.09-4.162 9.068-6.094 11.906-.824 1.21-.927 3.167-.282 5.204.981 3.103 3.362 5.615 6.375 6.75 5.8 2.182 17.504 6.13 17.625 6.14-.117.008-11.8.704-16.312 1.36-2.117.307-5.921.468-9.656.468-5.604 0-9.773-.43-11.438-1.172-1.165-.517-2.245-1.113-3.328-1.687-2.147-1.14-4.21-2.192-6.234-2.484-3.002-.436-7.103-8.32-7.172-8.391 0 .016.056 1.849 3.281 6.656 3.192 4.758 8.728 7.207 16.078 9.469 1.386.427 3.457.656 6.14.656 9.298 0 23.262-2.618 23.391-2.672 0 0-2.164 1.355-5.859 3.563-3.543 2.12-17.535 7.647-29.766 10.36-1.08.238-2.119.374-3.14.374-9.48 0-13.298-10.387-13.36-10.5-.037.032-3.951 3.146-5.672 9.047-1.978 6.787 4.821 12.421 10.875 15.938 2.121 1.231 4.236 1.828 6.329 1.828 1.51 0 2.998-.325 4.359-.985l-2.438 1.547c.017.003 1.787.188 4.5.188 2.505 0 6.345-.159 10.5-.844 7.937-1.305 27.545-10.442 27.797-10.594-.307.19-24.11 14.867-39.984 21.844-5.327 2.341-9.689 3.515-12.984 3.515-2.402 0-3.719-.607-4.5-.984-.351-.17-.587-.281-.797-.281-.152 0-.26.048-.375.187-.182.224-.25.445-.188.703.27 1.09 2.665 2.143 2.766 2.157l-6.281.234c-.19.007-.372 0-.563 0-6.02 0-11.781-3.268-11.86-3.281.023.037 2.28 3.765 9.376 5.297 1.524.328 3.098.469 4.781.469 6.771 0 15.275-2.6 27.61-8.438 15.284-7.237 32.811-18.075 33.843-18.75-.535.363-5.553 3.747-11.062 7.688-2.976 2.128-8.116 6.207-13.594 10.546-5.186 4.109-10.543 8.372-13.969 10.875-8.568 6.257-20.489 14.578-24.797 14.578-3.138 0-4.09.405-6.234 1.313-.975.414-2.216.923-3.985 1.547-.559.196-1.08.328-1.593.328-4.265 0-5.54-6.862-5.578-6.938-.006.01-.675.94-.891 4.22-.214 3.28 4.109 5.715 4.172 5.718h-2.39c-2.143 0-5.847-3.714-5.907-3.75-.01.015-1.064 1.633.656 7.969 1.685 6.204 10.573 11.719 16.406 11.719h.375c5.592-.216 13.818-8.995 13.875-9.094 0 0-.02.26-.234 2.437-.216 2.174-8.172 6.12-8.25 6.188.014.005 1.544.375 4.36.375 1.045 0 2.142-.04 3.28-.14 5.105-.454 7.71-1.386 16.5-7.266 8.81-5.898 30.65-25.433 30.845-25.641-.002.01.006.235-.422 2.625-.267 1.503-4.203 5.64-8.391 10.031-2.49 2.609-5.11 5.31-6.844 7.406-4.552 5.51-22.153 20.774-27.14 23.86-2.77 1.713-6.414 2.348-9.329 2.86-2.347.41-4.375.756-5.25 1.546-.418.378-.564.734-.468.984.213.554 1.617.61 2.437.61.207 0 .368.015.422 0-.336.255-4.759 3.563-8.906 4.406-4.296.875-10.803 1.095-10.875 1.125.03.018 2.958 1.828 7.36 1.828 2.884 0 5.752-.782 8.53-2.297 8.865-4.833 29.766-17.184 34.125-22.5 4.295-5.24 27.401-28.716 27.61-28.968-.007.024-.942 2.445-3.516 5.062-2.583 2.622-21.645 29.644-24.562 35.578-2.95 5.99-23.97 28.088-34.313 34.219-2.34 1.389-4.538 2.11-6.515 2.11-5.436 0-7.546-5.334-7.594-5.391-.053.084-5.195 8.492-1.969 17.015 2.136 5.646 9.477 9.14 19.172 9.14 3.252 0 6.628-.392 9.75-1.17 3.482-.87 5.968-2.573 7.453-5.063 2.4-4.023 1.27-8.771 1.219-8.86.037.051 1.312 1.814 1.312 4.406 0 2.618-.672 4.604-.656 4.641l6.75-4.406c4.503-2.954 11.104-12.862 18.094-23.344 3.435-5.154 6.97-10.475 10.36-15.094 3.84-5.232 6.053-8.11 6.562-8.11.207.314-.855 2.803-2.625 6.892-.872 2.016-1.952 4.438-3.094 7.171-6.016 14.412-29.713 48.873-29.953 49.22l-7.64 11.296c-6.355 9.408-12.584 11.259-16.313 12.375-.743.222-1.387.439-1.922.656-2.102.855-2.314 2.86-2.485 4.5-.094.912-.177 1.717-.562 2.11-1.073 1.089-11.419 6.77-11.531 6.843.005.014.09.329.844.329 1.321 0 5.163-.978 15.937-7.782 13.404-8.469 28.632-28.058 48-61.64 14.608-25.325 17.81-29.574 17.813-29.625l-.235 2.671c-.216 2.648-10.901 27.704-20.39 48.563-9.005 19.796-38.46 67.618-46.735 74.438-2.158 1.777-4.176 2.671-5.953 2.671-3.602 0-5.117-3.708-5.156-3.75-.026.023-2.543 2.5.469 9.282 2.96 6.663 11.012 9.093 15.703 9.093.208 0 .411-.036.609-.046 5.038-.234 13.055-2.821 20.438-9.47 7.156-6.44 4.672-13.01 4.359-13.687.214.417 1.526 3.036 1.922 5.25.429 2.4-.671 6.37-.656 6.422.045-.057 4.59-5.735 6.093-7.265.923-.94 2.134-3.22 3.422-5.625.82-1.529 1.665-3.137 2.438-4.36 1.629-2.574 3.122-4.522 5.578-7.781l1.594-2.156c3.44-4.587 3.262-26.694 3.234-26.907.009.01.896.89 1.969 4.594 1.074 3.711.866 10.979.89 11.063.083-.089 8.31-8.87 11.531-14.11 1.554-2.529 3.335-8.448 5.204-14.718 2.004-6.717 4.04-13.677 5.859-16.22 3.414-4.77 6.24-7.65 6.281-7.734-.163.45-13.525 37.27-18.89 49.922-4.139 9.756-12.534 26.143-17.532 35.953a647.686 647.686 0 0 0-3.562 7.079c-2.08 4.228-11.892 14.094-17.766 19.968-2.757 2.756-4.759 4.731-4.828 5.016-.043.18-.036.453-.047.797-.042 1.359-.155 3.893-2.578 6.703-3.004 3.495-13.334 10.543-13.406 10.64h1.5c1.572 0 14.133-9.72 18.703-14.812 2.843-3.165 17.63-20.12 29.766-42.656 11.172-20.744 30.861-72.556 31.031-73.078.003.015.469 1.359.469 6.375 0 5.019-23.682 66.114-23.907 66.75l3.235-.047s-1.095 2.654-3.703 9.281c-2.324 5.906-17.809 38.382-29.11 53.25-4.138 5.445-8.016 8.203-11.53 8.203-2.017 0-3.468-.97-4.36-1.734 3.031 3.367 10.601 11.394 15.468 12.984 1.088.354 2.325.516 3.704.516 6.04-.001 12.894-3.293 15.843-5.625 3.81-3.01 9.077-11.021 10.688-15.469.736-2.03 1.29-2.437 1.64-2.437.452 0 .702.7.704.703l.89 7.734c.092-.078 9.19-7.841 15.422-14.39 5.138-5.402 11.688-25.966 15.188-37.032.781-2.472 1.377-4.43 1.78-5.578 2.263-6.433 5.264-17.359 6.329-24.515 1.074-7.208-5.592-17.36-5.672-17.438.029 0 2.848.038 6.281 5.484 1.712 2.717 2.738 4.172 3.047 4.172.04-.052.003-.178 0-.187l1.125-9.938c1.077-9.825 7.51-40.572 7.547-40.875.02.029 1.949 2.968 1.734 8.203-.228 5.508-3.5 30.346-6.703 49.22-3.222 18.994-12.728 45.936-12.797 46.218.054-.077 5.453-7.948 9.75-23.016 4.295-15.07 14.687-82.995 14.766-83.672.018.017 1.713 1.638 1.5 9.704-.216 8.079-3.228 26.75-3.234 26.953l2.156-1.782c-.024.06-2.39 6.062-2.39 16.547 0 10.394-1.834 17.577-3.235 22.078-1.286 4.146-5.18 7.49-5.203 7.547l3.89-2.015c0 .034-.217 3.368-1.078 6.422-.855 3.048-6.882 5.245-6.937 5.296.036 0 3.733.031 9.75-.843 6.078-.88 14.681-12.636 19.828-19.688 2.902-3.975 3.438-8.291 3.984-12.469.392-2.99.786-6.08 2.063-8.953 3.009-6.77 4.98-40.073 4.969-40.406.022.072 2.177 7.327 2.39 14.531.146 4.84-1.148 18.153-2.015 26.953-.441 4.485-.797 8.042-.797 8.86 0 2.401-6.011 21.216-6.047 21.422l1.734-1.782c1.154-1.173 2.195-5.36 3.75-11.718.504-2.06 1.05-4.36 1.688-6.844 2.581-10.05 5.201-45.777 5.203-46.125.08.057 8.032 5.752 9.75 7.5l.375.375c1.966 1.97 6.61 6.577 6.61 11.531 0 5.18-4.683 19.103-7.829 21.844-3.151 2.745-7.413 8.234-8.484 11.719-.963 3.126-7.926 17.63-13.688 20.109-.982.42-1.964.656-2.906.656-3.795 0-5.95-3.484-6-3.515-.009.058-.846 5.747 1.312 6.843.642.327 1.68.516 3.141.516 2.444 0 5.192-.47 5.297-.516-.18.114-7 4.465-9.984 6.844-3.015 2.41-2.193 6.61-2.157 6.656.01-.02 1.14-2.037 4.36-5.53 3.22-3.488 11.654-6.612 11.718-6.657 0 .005.007.508-.421 4.219-.43 3.7-5.166 5.903-5.204 5.953.006-.001.52-.094 1.36-.094 1.117 0 2.821.206 4.687 1.219 2.277 1.236 1.366 5.536.47 9.703-.377 1.749-.763 3.546-.892 5.062-.429 5.012-9.046 6.849-9.14 6.891.022.02 2.242 2.016 4.594 2.016.216 0 .437-.01.656-.047 2.584-.435 6.455-5.896 6.469-5.953.009.018.897 1.847.468 9.047-.42 7.059-5.863 12.75-10.453 13.453-.2.028-.341.046-.515.046-.732 0-1.339-.241-1.735-.75-1.278-1.644-.311-5.433-.328-5.484-.018.021-1.781 2.018-1.781 5.297 0 1.24.493 2.194 1.406 2.766.786.492 1.946.703 3.422.703.652 0 1.36-.045 2.156-.14 3.66-.436 11.248-9.596 11.297-9.657v2.578c0 1.401.706 3.207 1.781 4.547.954 1.186 2.619 2.578 5.203 2.578.209 0 .44-.027.657-.047 4.951-.435 5.83-4.586 5.812-4.64-.024.03-2.446 3.14-6 3.14-.595 0-1.19-.11-1.781-.281-4.497-1.305-.482-15.515-.469-15.656.021.04 2.189 4.236 4.125 6.422.52.586 1.155.89 1.875.89 1.505 0 2.941-1.323 2.953-1.36-.057-.038-5.626-4.068-4.125-10.827 1.502-6.768 12.246-18.853 12.328-18.985 0 .02.023 2.024-1.265 5.297-1.376 3.494-.535 7.875 1.922 9.75a6.794 6.794 0 0 0 4.172 1.407c.664 0 1.069-.113 1.078-.141-.054-.039-5.418-3.75-5.203-6.797.211-3.004 6.736-13.965 12.796-23.203 5.585-8.514 13.4-15.156 13.454-15.234 0 .005.028.444-.188 2.625-.216 2.188.852 4.39.89 4.406 0-.083.065-8.378 6.282-9.469.793-.14 1.456-.187 2.016-.187 2.275 0 2.486 1.123 2.765 2.671.17.948.354 2.015 1.078 3.047 2.108 2.997 3.46 9.82 3.235 13.688-.213 3.705-5.794 5.028-5.86 5.062.006.014.705 1.344 3.938 1.782.181.024.335.046.515.046 3.02 0 5.763-3.342 5.766-3.375.012.014 1.078 1.392 1.078 4.875 0 3.602-4.667 9.93-9.984 10.36-.09.007-.148 0-.235 0-2.431 0-3.262-2.88-4.125-5.953-.958-3.416-1.966-6.974-5.203-7.313a13.728 13.728 0 0 0-1.406-.047c-6.432 0-16.588 3.997-19.031 12.891-.846 3.08-.358 5.83 1.453 8.203 2.794 3.668 7.936 5.344 11.531 5.344.402 0 .806-.006 1.172-.047 1.628-.183 2.846-.834 3.61-1.922 1.47-2.09.739-5.171.703-5.203l-.844 2.672c-.365 1.117-1.508 1.734-3.188 1.734-2.11 0-4.796-.984-7.218-2.625-1.16-.786-1.803-1.758-1.875-2.86-.162-2.453 2.476-4.803 2.484-4.827 0 0 2.173 1.764 4.781 3.75.645.492 1.384.75 2.203.75 1.928 0 3.69-1.413 3.657-1.453h-2.579c-1.282 0-1.968-1.123-1.968-2.157 0-1.23.933-2.437 3.047-2.437 2.03 0 2.766 1.062 3.796 2.578 1.041 1.533 2.335 3.464 5.532 4.922 1.08.492 2.218.75 3.375.75 4.768-.001 8.564-4.266 8.578-4.313.007.018.218.54-.422 4.875-.615 4.176-3.736 9.333-7.594 12.563-1.584 1.326-3.482 2.11-5.203 2.11-2.03 0-3.358-1.077-3.469-2.766-.033-.498.09-.913.422-1.266.959-1.021 3.23-1.219 4.969-1.219 1.08 0 1.966.047 2.156.047-.126-.096-3.738-2.812-6.937-2.812-1.023 0-1.864.299-2.578.843-1.517 1.157-2.339 2.985-2.25 5.016.117 2.697 1.712 5.226 4.406 6.937 1.14.726 2.492 1.079 4.031 1.079 4.422 0 8.978-3.048 9-3.094-.006.033-.7 3.333-3.703 5.297-2.205 1.44-5.792 2.25-10.125 2.25-1.415 0-2.893-.118-4.406-.282a28.405 28.405 0 0 0-3.14-.187c-3.289 0-4.115 1.078-6 3.516-1.337 1.73-2.863 2.109-3.892 2.109-1.378 0-2.47-.634-3.046-1.219-1.28-1.303 1.899-5.884 1.921-5.953h-.14c-.545 0-1.995.13-3.75 1.734-2.156 1.97-1.332 5.322-1.453 5.344-.482 0-1.767-.18-3.516-1.781-.6-.55-1.58-.844-2.812-.844-2.843 0-6.525 1.581-7.453 3.938-1.293 3.286 2.565 5.531 2.625 5.531-.014-.02-1.27-2.013.656-5.063.654-1.032 1.11-1.5 1.453-1.5.322 0 .544.404.89.938.322.495.748 1.089 1.36 1.64 1.936 1.75 8.194 4.864 8.25 4.876-.007.02-.722 1.77-3.938 2.859-3.373 1.144-8.465 7.223-9.093 11.906-.261 1.944.564 4.247 2.343 6.281 2.655 3.036 6.749 4.83 10.875 4.829.375 0 .741-.016 1.125-.047 2.967-.231 5.025-1.123 6.094-2.672 1.268-1.832.641-3.957.61-3.984a27.098 27.098 0 0 0-1.922 2.906c-.753 1.34-2.042 1.828-4.875 1.828-.557 0-1.185-.06-1.875-.094-4.283-.217-4.35-3.033-4.36-3.047a17.892 17.892 0 0 1 3.703-.422c1.947 0 2.414-2.867 2.391-2.906-.007.01-.668.89-3.234.89-.626 0-1.086-.222-1.313-.609-.6-1.024.186-3.443 2.39-7.359 1.02-1.815 3.819-2.719 8.345-2.719 3.961 0 7.85.75 7.921.75l-.421 4.64c-.171 1.813-.848 2.72-2.016 2.72-1.02 0-2.06-.75-2.11-.75.01.009.236.268 3.891 2.671.797.522 1.564.797 2.203.797 1.827 0 2.379-2.177 2.39-2.343l.188 3.515c.215 3.474-4.491 3.953-4.546 3.985l1.546 1.125c.84.61 2.23.984 3.563.984 1.273 0 2.316-.335 2.953-.984 1.446-1.473 2.16-3.942 2.39-8.204.218-3.95 1.536-6.389 4.36-8.156 2.795-1.75 13.135-11.155 13.219-11.25.009.01.232.279.656 3.516a7.902 7.902 0 0 1 0 2.203c1.42-.82 4.113-1.103 4.125-1.125l-.844 2.672a26.413 26.413 0 0 0-.468 1.547c-.551 2.094-1.038 3.934-3.47 4.64a2.352 2.352 0 0 1-.655.094c-2.651 0-4.507-4.682-4.547-4.734-.02.013-1.97 1.36-1.97 5.297 0 1.404.651 2.409 1.97 3 1.08.483 2.35.562 3 .562.235 0 .416.018.468 0l-1.312 1.078c-.291.246-.967.582-1.828 1.032-3.026 1.585-8.625 4.522-10.313 9.328-1.123 3.198-.926 6.405.61 8.718 1.038 1.563 2.576 2.484 4.172 2.579.103.006.223 0 .328 0 3.607 0 8.124-3.501 8.156-3.563-.026.009-2.642.844-4.734.844-1.754 0-2.672-.542-2.672-1.688 0-3.264 4.08-3.298 4.125-3.328-.029-.009-2.864-.951-3.422-2.484-.174-.482-.122-1.008.187-1.5.88-1.404 3.446-1.688 5.438-1.688 1.43 0 2.58.173 2.578.188v1.734c0 1.75 2.34 5.037 2.39 5.063 0-.006.055-.67 1.126-3.282.373-.907.776-1.406 1.265-1.406.594 0 1.077.723 1.078.75v1.735c0 1.734-1.612 3.865-5.625 8.625-3.528 4.179-12.377 9.562-16.922 9.562a3.57 3.57 0 0 1-1.546-.328c-1.028-.494-1.781-.703-2.438-.703-.447 0-.833.126-1.219.234-.457.13-.977.281-1.734.281-.536 0-1.097-.087-1.781-.234-.831-.178-1.409-.618-1.688-1.266-.903-2.101 1.446-5.985 1.453-6.046-.033.009-3.281.932-3.281 4.218 0 2.237-1.28 3.797-3.094 3.797-.999 0-2.094-.456-3.187-1.36-1.284-1.058-1.854-2.702-1.64-4.64.323-2.944 2.362-5.867 5.109-7.265.661-.336 1.346-.516 2.015-.516 3.665 0 6.227 5.113 6.281 5.156-.01-.102-1.177-10.204-8.062-11.953a10.106 10.106 0 0 0-2.484-.328c-6.23 0-10.366 6.097-11.86 8.719-2.367 4.158 2.943 15.788 3 15.89-3.537 4.379-5.081 9.246-5.39 16.782 0 0-.851.046-2.063.046-2.664 0-7.342-.216-9-1.593-.633-.527-1.915-.797-3.656-.797-4.176 0-10.076 1.664-11.156 3.703-.807 1.524-2.483 1.828-3.75 1.828-1.205 0-2.254-.281-2.344-.281.006.009.662.922 1.734 2.015.264.269.651.375 1.125.375 1.172 0 2.583-.831 2.578-.843.01.01.21.308.422 3.328.038.53-.118.978-.515 1.406-.764.817-2.328 1.36-3.938 1.36-1.501 0-3.253-.513-3.75-1.923-.328-.934-.318-1.736.047-2.39.585-1.047 1.864-1.328 1.875-1.36h-.516c-.808 0-2.337.104-3.422.891-.532.386-.76 1.146-.656 2.11.18 1.652 1.496 4.088 4.594 5.437.927.403 2.067.61 3.375.61 4.215 0 9.007-2.133 9-2.157.012.021.115.331 1.078 4.828.321 1.5.013 2.914-.89 4.031-1.235 1.527-3.297 2.204-4.782 2.204-.768 0-1.433-.2-1.922-.516-.426-.276-.643-.6-.656-1.031-.051-1.674 3.023-3.982 3.047-4.032 0 0-.422-.046-1.125-.046-1.536 0-4.385.21-6.047 1.593-1.103.915-1.537 3.101-1.031 5.297.702 3.042 2.881 5.282 5.812 6 .578.141 1.18.235 1.781.235 6.057 0 11.373-7.035 12.375-8.438.375-.523.872-.75 1.5-.75.924 0 1.986.554 3.141 1.125 1.212.6 2.49 1.219 3.61 1.219 2.807 0 3.486-4.859 3.468-4.922-.025.02-2.546 2.11-4.734 2.11-.506 0-.967-.111-1.36-.329-.672-.372-.991-.74-.984-1.125.015-.77 1.35-1.467 2.531-2.062l.188-.094c1.711-.867 2.63-8.414 2.625-8.625.007.037.102.24 1.734.656.324.083.911.14 1.735.14 3.024 0 8.445-.58 8.484-.609-.01.023-1.093 2.25.844 5.532 1.042 1.765 2.855 2.156 4.172 2.156 1.308 0 2.377-.344 2.39-.375-.042-.026-4.31-2.49-2.812-5.531.906-1.844 10.648-6.163 19.265-9.985 5.807-2.575 11.301-4.993 13.313-6.328 4.942-3.276 15.53-21.928 15.61-22.125-.017.134-1.533 13.54-2.391 17.25-.875 3.777-4.367 9.724-8.438 10.594-.417.09-.845.094-1.219.094-3.016 0-3.53-2.917-3.562-2.953-.023.03-2.184 3.107-.89 5.953.698 1.54 2.137 1.875 3.234 1.875 1.048 0 1.94-.297 1.968-.328-.027.082-.897 2.661-3.656 4.171-.772.423-1.48.944-2.156 1.454-1.526 1.15-2.974 2.25-5.203 2.25-.495 0-1.009-.078-1.547-.188a11.22 11.22 0 0 0-2.25-.234c-1.934 0-3 .779-4.36 1.734-.438.308-.91.599-1.453.938-.424.267-.868.421-1.312.421-2.178 0-3.893-3.25-3.938-3.28-.003.023-.422 2.452.657 3.984.85 1.212 2.125 1.359 2.625 1.359-.15.025-.356.047-.938.047-.546 0-1.373-.02-2.531-.094-3.43-.219-5.809-3.725-5.86-3.75.003.036.23 3.834 1.735 8.203 1.408 4.086 6.374 4.406 7.078 4.406-.346.075-6.2 1.308-11.438 1.735-5.289.427-10.342 5.565-12.609 10.406-.672 1.431-.676 3.03 0 4.781 1.266 3.282 4.557 6.157 6.984 7.172.551.23 1.11.328 1.735.328 1.746 0 3.725-.898 5.11-2.39.988-1.067 1.48-2.242 1.405-3.235-.15-1.99-2.46-2.297-3.843-2.297-.66 0-1.163.069-1.172.094l2.156 2.203c.418.426.54.9.328 1.406-.43 1.028-2.015 1.828-3.61 1.828-.919 0-2.587-.267-3.609-2.156-.757-1.4-.694-2.927.188-4.406 1.411-2.367 4.76-4.219 7.64-4.219.209 0 .407.028.61.047.712.069 1.539.094 2.437.094 4.106 0 8.829-.728 9.094-.797-.174.061-2.283.843-3.234 3-.804 1.82-.588 4.09.61 6.75 2.003 4.455 5.235 5.39 7.593 5.39 1.747 0 3.083-.529 3.094-.562-.021-.005-2.069-.492-2.954-2.11-.516-.943-.539-2.08-.093-3.374.631-1.832 1.823-2.86 3.328-2.86 1.327 0 2.766.851 3.375 1.969.37.678.951 1.031 1.734 1.031.995 0 1.96-.578 1.969-.61-.015-.008-1.5-.903-1.5-3.515 0-1.537 2.05-2.496 4.406-3.61 1.7-.803 3.617-1.71 5.156-3 3.656-3.058 7.58-17.996 7.594-18.14.015.017 1.506 1.555 2.578 2.86.705.86-.032 3.41-.843 6.093-.425 1.401-.854 2.853-1.079 4.078-.217 1.18-.234 2.188-.234 3.282 0 2.137.003 4.35-1.734 7.734-1.59 3.098-4.556 3.75-6.75 3.75-1.206 0-2.077-.187-2.157-.187.002.016.227 1.809 1.735 3.562.576.668 1.455.984 2.625.984 1.13 0 2.141-.348 2.156-.375-.007.053-.312 2.232-5.203 3.094a5.402 5.402 0 0 1-.89.094c-4.243 0-5.63-5.987-5.673-6.047l-.421 2.438c-.422 2.36 3.864 8.586 7.406 9.937.315.119.702.188 1.125.188 1.776 0 4.983-1.292 7.969-2.766-.205.722-.329 1.61-.329 2.672 0 4.501-6.28 4.828-8.203 4.828h-.28c-.12 0-.23.029-.235.047l3.047 1.734c.738.43 1.694.656 2.765.656 2.607 0 5.288-1.296 5.297-1.312l2.578 3.094c2.573 3.05 1.975 8.105 1.969 8.156l1.781-2.016c1.722-1.97 3.476-10.748 3.469-10.828.021.02 2.16 2.031 4.312 2.25.068.007.166 0 .235 0 2.161 0 5.422-3.318 5.437-3.375-.012.007-1.093.676-2.812 1.547-.267.137-.568.234-.844.234-1.417 0-2.86-1.88-2.86-5.484 0-.438-.062-.885-.187-1.312 2.362 1.054 4.653 1.875 6.047 1.875.423 0 .81-.07 1.125-.188 3.542-1.351 7.828-7.576 7.406-9.937l-.422-2.438c-.042.06-1.43 6.047-5.671 6.047-.278 0-.588-.041-.891-.094-4.892-.862-5.196-3.041-5.203-3.094.015.027 1.025.375 2.156.375 1.17 0 2.05-.316 2.625-.984 1.508-1.753 1.733-3.546 1.734-3.562-.079 0-.95.187-2.156.187-2.194 0-5.16-.652-6.75-3.75-1.737-3.384-1.734-5.597-1.734-7.734 0-1.094-.017-2.103-.235-3.282-.225-1.225-.653-2.677-1.078-4.078-.811-2.683-1.548-5.232-.843-6.093 1.072-1.305 2.563-2.843 2.578-2.86.013.144 3.938 15.082 7.593 18.14 1.54 1.29 3.457 2.197 5.157 3 2.356 1.114 4.406 2.073 4.406 3.61 0 2.612-1.485 3.507-1.5 3.516.009.031.974.61 1.969.61.783 0 1.364-.354 1.734-1.032.61-1.118 2.048-1.969 3.375-1.969 1.505 0 2.697 1.028 3.328 2.86.446 1.294.422 2.431-.094 3.375-.885 1.617-2.932 2.104-2.953 2.109.01.033 1.347.562 3.094.562 2.358 0 5.59-.935 7.594-5.39 1.197-2.66 1.413-4.93.61-6.75-.952-2.157-3.061-2.939-3.235-3 .265.069 4.988.797 9.094.797.898 0 1.725-.025 2.437-.094.203-.02.4-.047.61-.047 2.88 0 6.229 1.852 7.64 4.219.882 1.479.945 3.005.188 4.406-1.022 1.889-2.69 2.156-3.61 2.156-1.594 0-3.179-.8-3.61-1.828-.21-.507-.09-.98.329-1.406l2.156-2.203c-.009-.026-.512-.094-1.172-.094-1.383 0-3.693.306-3.843 2.297-.075.993.417 2.168 1.406 3.234 1.384 1.493 3.363 2.39 5.11 2.39a4.38 4.38 0 0 0 1.734-.327c2.427-1.016 5.718-3.89 6.984-7.172.676-1.752.672-3.35 0-4.781-2.267-4.84-7.32-9.98-12.61-10.407-5.238-.427-11.091-1.66-11.437-1.734.704 0 5.67-.32 7.078-4.406 1.505-4.37 1.732-8.167 1.735-8.203-.051.025-2.43 3.53-5.86 3.75a40.728 40.728 0 0 1-2.531.093c-.582 0-.788-.021-.938-.046.5 0 1.775-.148 2.625-1.36 1.079-1.531.66-3.96.657-3.984-.045.03-1.76 3.281-3.938 3.281-.444 0-.888-.155-1.312-.422-.543-.339-1.015-.63-1.453-.937-1.36-.956-2.426-1.735-4.36-1.735-.657 0-1.4.062-2.25.235-.538.11-1.052.187-1.547.187-2.229 0-3.677-1.1-5.203-2.25-.676-.51-1.384-1.03-2.156-1.453-2.759-1.51-3.63-4.09-3.656-4.172.028.032.92.328 1.968.328 1.097 0 2.536-.334 3.235-1.875 1.293-2.845-.868-5.923-.89-5.953-.032.036-.547 2.953-3.563 2.953-.374 0-.802-.003-1.22-.093-4.07-.87-7.562-6.817-8.437-10.594-.858-3.71-2.374-17.117-2.39-17.25.08.196 10.667 18.849 15.61 22.125 2.01 1.335 7.505 3.752 13.312 6.328 8.617 3.822 18.36 8.14 19.265 9.984 1.499 3.042-2.77 5.506-2.812 5.532.013.031 1.082.375 2.39.375 1.317 0 3.13-.391 4.172-2.157 1.937-3.282.855-5.508.844-5.53.039.028 5.46.608 8.484.608.824 0 1.41-.058 1.735-.14 1.632-.416 1.727-.619 1.734-.656-.005.211.914 7.758 2.625 8.625l.188.093c1.18.596 2.516 1.292 2.53 2.063.009.385-.311.753-.983 1.125a2.783 2.783 0 0 1-1.36.328c-2.188 0-4.709-2.09-4.734-2.11-.018.064.66 4.923 3.469 4.923 1.119 0 2.397-.62 3.609-1.22 1.155-.57 2.217-1.124 3.14-1.124.629 0 1.126.226 1.5.75 1.003 1.402 6.319 8.437 12.376 8.437.601 0 1.203-.093 1.78-.234 2.932-.719 5.111-2.958 5.813-6 .506-2.196.071-4.382-1.031-5.297-1.662-1.383-4.51-1.594-6.047-1.594-.703 0-1.125.047-1.125.047.024.05 3.098 2.357 3.047 4.031-.013.432-.23.756-.656 1.032-.49.316-1.154.515-1.922.515-1.485 0-3.547-.676-4.781-2.203-.905-1.117-1.212-2.531-.891-4.031.963-4.497 1.066-4.807 1.078-4.828-.008.024 4.785 2.156 9 2.156 1.308 0 2.448-.206 3.375-.61 3.098-1.348 4.414-3.784 4.594-5.437.105-.963-.124-1.724-.656-2.11-1.085-.787-2.614-.89-3.422-.89h-.516c.01.032 1.29.312 1.875 1.36.365.653.376 1.456.047 2.39-.497 1.41-2.249 1.922-3.75 1.922-1.61 0-3.174-.542-3.938-1.36-.397-.427-.553-.876-.515-1.406.213-3.02.413-3.317.422-3.328-.005.012 1.406.844 2.578.844.474 0 .86-.107 1.125-.375a19.078 19.078 0 0 0 1.734-2.016c-.09 0-1.14.282-2.344.282-1.267 0-2.943-.305-3.75-1.829-1.08-2.038-6.98-3.703-11.156-3.703-1.741 0-3.023.27-3.656.797-1.658 1.377-6.336 1.594-9 1.594-1.212 0-2.063-.047-2.063-.047-.309-7.536-1.853-12.403-5.39-16.781.057-.102 5.367-11.733 3-15.89-1.494-2.623-5.63-8.72-11.86-8.72-.819 0-1.651.117-2.484.329-6.885 1.749-8.052 11.85-8.062 11.953.054-.044 2.616-5.156 6.28-5.156.67 0 1.355.18 2.016.515 2.747 1.398 4.786 4.321 5.11 7.266.213 1.938-.357 3.581-1.64 4.64-1.094.903-2.19 1.36-3.188 1.36-1.814 0-3.094-1.56-3.094-3.797 0-3.287-3.248-4.21-3.281-4.219.007.062 2.356 3.946 1.453 6.047-.28.648-.857 1.087-1.688 1.266-.684.147-1.245.234-1.78.234-.758 0-1.278-.152-1.735-.281-.386-.108-.772-.235-1.22-.235-.656 0-1.41.21-2.437.704a3.57 3.57 0 0 1-1.546.328c-4.545 0-13.394-5.384-16.922-9.563-4.013-4.76-5.625-6.89-5.625-8.625v-1.734c0-.027.484-.75 1.078-.75.489 0 .892.499 1.265 1.406 1.071 2.612 1.125 3.275 1.125 3.281.051-.025 2.391-3.312 2.391-5.062v-1.735c-.002-.015 1.147-.187 2.578-.187 1.992 0 4.557.283 5.438 1.687.309.492.361 1.019.187 1.5-.558 1.533-3.393 2.476-3.422 2.485.045.03 4.125.064 4.125 3.328 0 1.146-.918 1.687-2.672 1.687-2.092 0-4.708-.834-4.734-.843.032.061 4.549 3.562 8.156 3.562.105 0 .225.006.328 0 1.596-.094 3.134-1.015 4.172-2.578 1.536-2.313 1.733-5.52.61-8.719-1.688-4.806-7.287-7.742-10.313-9.328-.86-.45-1.537-.785-1.828-1.031l-1.312-1.078c.052.018.233 0 .468 0 .65 0 1.92-.08 3-.563 1.319-.59 1.97-1.596 1.97-3 0-3.937-1.95-5.283-1.97-5.297-.04.053-1.896 4.735-4.547 4.735-.219 0-.438-.03-.656-.094-2.431-.706-2.918-2.547-3.469-4.64a26.413 26.413 0 0 0-.468-1.547l-.844-2.672c.012.022 2.704.304 4.125 1.125a7.903 7.903 0 0 1 0-2.203c.424-3.237.647-3.506.656-3.516.084.094 10.424 9.5 13.219 11.25 2.824 1.767 4.142 4.205 4.36 8.156.23 4.262.944 6.73 2.39 8.203.637.65 1.68.985 2.953.985 1.332 0 2.723-.374 3.563-.985l1.546-1.125c-.055-.031-4.76-.51-4.546-3.984l.187-3.516c.012.167.564 2.344 2.39 2.344.64 0 1.407-.275 2.204-.797 3.655-2.403 3.881-2.663 3.89-2.672-.049 0-1.089.75-2.109.75-1.168 0-1.845-.906-2.016-2.718l-.421-4.641c.07 0 3.96-.75 7.921-.75 4.526 0 7.326.904 8.344 2.719 2.205 3.916 2.99 6.335 2.39 7.359-.226.387-.686.61-1.312.61-2.566 0-3.227-.882-3.234-.891-.023.039.444 2.906 2.39 2.906 1.933 0 3.686.417 3.704.422-.01.013-.077 2.83-4.36 3.047-.69.034-1.318.094-1.875.094-2.833 0-4.122-.488-4.875-1.829a27.097 27.097 0 0 0-1.922-2.906c-.031.027-.658 2.153.61 3.985 1.07 1.55 3.127 2.44 6.094 2.671.384.032.75.047 1.125.047 4.126.001 8.22-1.792 10.875-4.828 1.779-2.034 2.604-4.337 2.343-6.281-.628-4.683-5.72-10.762-9.093-11.906-3.216-1.09-3.93-2.84-3.938-2.86.056-.012 6.314-3.126 8.25-4.875.612-.552 1.038-1.145 1.36-1.64.346-.534.568-.938.89-.938.344 0 .8.468 1.453 1.5 1.926 3.05.67 5.043.656 5.063.06 0 3.918-2.245 2.625-5.532-.928-2.356-4.61-3.937-7.453-3.937-1.231 0-2.212.293-2.812.844-1.75 1.6-3.034 1.78-3.516 1.78-.121-.022.703-3.373-1.453-5.343-1.755-1.603-3.205-1.734-3.75-1.734h-.14c.022.069 3.2 4.65 1.921 5.953-.576.585-1.668 1.219-3.046 1.219-1.03 0-2.555-.379-3.891-2.11-1.886-2.437-2.712-3.515-6-3.515-.836 0-1.845.045-3.14.187-1.514.164-2.992.281-4.407.281-4.333 0-7.92-.81-10.125-2.25-3.003-1.963-3.697-5.264-3.703-5.297.022.047 4.578 3.094 9 3.094 1.539 0 2.891-.352 4.031-1.078 2.694-1.711 4.29-4.24 4.406-6.937.089-2.031-.733-3.86-2.25-5.016-.714-.545-1.555-.844-2.578-.844-3.199 0-6.811 2.717-6.937 2.813.19 0 1.076-.047 2.156-.047 1.739 0 4.01.197 4.969 1.219.331.352.455.767.422 1.265-.111 1.69-1.44 2.766-3.47 2.766-1.72 0-3.618-.783-5.202-2.11-3.858-3.229-6.979-8.386-7.594-12.562-.64-4.335-.43-4.857-.422-4.875.014.047 3.81 4.311 8.578 4.313a8.112 8.112 0 0 0 3.375-.75c3.197-1.458 4.49-3.39 5.532-4.922 1.03-1.517 1.767-2.578 3.796-2.578 2.114 0 3.047 1.207 3.047 2.437 0 1.034-.686 2.156-1.968 2.156h-2.579c-.033.04 1.73 1.453 3.657 1.453.819 0 1.558-.258 2.203-.75 2.608-1.986 4.781-3.75 4.781-3.75.007.024 2.646 2.375 2.484 4.829-.072 1.1-.715 2.073-1.875 2.859-2.422 1.64-5.108 2.625-7.218 2.625-1.68 0-2.823-.617-3.188-1.734l-.844-2.672c-.036.031-.766 3.113.704 5.203.763 1.087 1.981 1.739 3.609 1.922.366.04.77.046 1.172.046 3.595 0 8.737-1.676 11.531-5.343 1.81-2.373 2.3-5.124 1.453-8.203-2.443-8.894-12.599-12.891-19.031-12.891-.495 0-.96 0-1.406.047-3.237.339-4.245 3.897-5.203 7.312-.863 3.074-1.694 5.953-4.125 5.953-.087 0-.145.007-.235 0-5.317-.43-9.984-6.757-9.984-10.359 0-3.483 1.066-4.861 1.078-4.875.003.033 2.746 3.374 5.766 3.375.18 0 .334-.023.515-.047 3.233-.438 3.932-1.768 3.938-1.781-.066-.035-5.647-1.357-5.86-5.063-.225-3.867 1.127-10.69 3.235-13.687.724-1.032.908-2.099 1.078-3.047.279-1.548.49-2.672 2.765-2.672.56 0 1.223.048 2.016.188 6.218 1.09 6.281 9.386 6.281 9.469.04-.017 1.107-2.218.891-4.407-.216-2.18-.188-2.62-.188-2.625.054.078 7.87 6.72 13.454 15.235 6.06 9.238 12.585 20.198 12.796 23.203.215 3.046-5.149 6.758-5.203 6.797.01.028.414.14 1.078.14 1.031 0 2.62-.221 4.172-1.406 2.457-1.875 3.298-6.257 1.922-9.75-1.288-3.273-1.265-5.277-1.265-5.297.082.132 10.826 12.216 12.328 18.984 1.501 6.76-4.068 10.79-4.125 10.829.012.036 1.448 1.359 2.953 1.359.72 0 1.356-.304 1.875-.89 1.936-2.186 4.104-6.382 4.125-6.423.013.141 4.028 14.352-.469 15.657-.59.17-1.186.28-1.781.28-3.554 0-5.976-3.11-6-3.14-.018.054.86 4.206 5.812 4.64.218.02.448.048.657.048 2.584 0 4.249-1.392 5.203-2.578 1.075-1.34 1.781-3.146 1.781-4.547v-2.578c.05.061 7.637 9.22 11.297 9.656.796.096 1.504.14 2.156.14 1.476 0 2.636-.21 3.422-.703.913-.571 1.406-1.525 1.406-2.765 0-3.28-1.763-5.276-1.781-5.297-.017.05.95 3.84-.328 5.484-.396.509-1.003.75-1.735.75-.174 0-.316-.018-.515-.047-4.59-.702-10.033-6.394-10.453-13.453-.43-7.2.46-9.029.468-9.047.014.057 3.885 5.518 6.47 5.953.218.036.44.047.655.047 2.352 0 4.572-1.996 4.594-2.015-.094-.042-8.711-1.88-9.14-6.891-.13-1.516-.514-3.313-.891-5.062-.897-4.167-1.808-8.468.469-9.704 1.866-1.012 3.57-1.218 4.687-1.218.84 0 1.354.092 1.36.093-.038-.049-4.774-2.252-5.203-5.953-.43-3.71-.422-4.214-.422-4.218.064.045 8.498 3.168 11.718 6.656 3.22 3.493 4.35 5.51 4.36 5.531.036-.046.858-4.246-2.157-6.656-2.985-2.38-9.804-6.73-9.984-6.844.105.045 2.854.516 5.297.516 1.461 0 2.499-.189 3.14-.516 2.16-1.096 1.322-6.785 1.313-6.844-.05.032-2.205 3.516-6 3.516-.942 0-1.924-.236-2.906-.656-5.762-2.48-12.725-16.984-13.688-20.11-1.07-3.484-5.333-8.973-8.484-11.718-3.146-2.74-7.828-16.665-7.828-21.844 0-4.955 4.643-9.562 6.61-11.531l.374-.375c1.718-1.748 9.67-7.443 9.75-7.5.001.348 2.622 36.075 5.203 46.125.638 2.484 1.184 4.784 1.688 6.843 1.555 6.359 2.596 10.546 3.75 11.72l1.734 1.78c-.036-.205-6.047-19.02-6.047-21.422 0-.817-.356-4.374-.797-8.859-.867-8.8-2.16-22.114-2.015-26.953.213-7.205 2.368-14.46 2.39-14.531-.01.333 1.96 33.635 4.97 40.406 1.276 2.872 1.67 5.964 2.062 8.953.546 4.178 1.082 8.494 3.984 12.469 5.147 7.051 13.75 18.807 19.828 19.687 6.017.875 9.714.844 9.75.844-.055-.05-6.082-2.249-6.937-5.297-.861-3.054-1.077-6.387-1.078-6.422l3.89 2.016c-.022-.057-3.917-3.4-5.203-7.547-1.4-4.501-3.234-11.685-3.234-22.078 0-10.485-2.367-16.487-2.39-16.547l2.155 1.781c-.006-.202-3.018-18.874-3.234-26.953-.213-8.065 1.482-9.686 1.5-9.703.08.677 10.471 68.601 14.766 83.672 4.297 15.067 9.696 22.94 9.75 23.016-.07-.282-9.575-27.225-12.797-46.22-3.203-18.872-6.475-43.71-6.703-49.218-.215-5.235 1.715-8.175 1.734-8.203.037.303 6.47 31.05 7.547 40.875l1.125 9.937c-.003.01-.04.135 0 .188.309 0 1.335-1.455 3.047-4.172 3.433-5.446 6.252-5.484 6.281-5.484-.08.078-6.746 10.23-5.672 17.437 1.065 7.157 4.066 18.082 6.328 24.516.404 1.147 1 3.106 1.782 5.578 3.499 11.065 10.05 31.63 15.187 37.031 6.232 6.55 15.33 14.313 15.422 14.39l.89-7.734c.001-.003.252-.703.704-.703.35 0 .904.407 1.64 2.438 1.611 4.447 6.878 12.46 10.688 15.469 2.949 2.332 9.803 5.623 15.843 5.625 1.379 0 2.616-.162 3.704-.516 4.867-1.59 12.437-9.617 15.468-12.984-.892.765-2.343 1.734-4.359 1.734-3.514 0-7.393-2.758-11.531-8.203-11.301-14.868-26.786-47.345-29.11-53.25-2.608-6.627-3.703-9.281-3.703-9.281l3.235.046c-.225-.636-23.907-61.73-23.907-66.75 0-5.016.466-6.36.47-6.375.169.522 19.858 52.335 31.03 73.079 12.137 22.536 26.923 39.49 29.766 42.656 4.57 5.09 17.131 14.812 18.703 14.812h1.5c-.072-.097-10.402-7.145-13.406-10.64-2.423-2.81-2.536-5.344-2.578-6.703-.01-.344-.003-.617-.047-.797-.069-.285-2.071-2.26-4.828-5.016-5.874-5.874-15.687-15.74-17.766-19.969a647.686 647.686 0 0 0-3.562-7.078c-4.998-9.81-13.393-26.197-17.532-35.953-5.365-12.652-18.727-49.472-18.89-49.922.042.084 2.867 2.963 6.281 7.735 1.82 2.542 3.855 9.501 5.86 16.218 1.868 6.27 3.649 12.19 5.203 14.719 3.222 5.24 11.448 14.02 11.53 14.11.025-.085-.183-7.352.891-11.063 1.073-3.704 1.96-4.585 1.97-4.594-.03.213-.207 22.32 3.234 26.906l1.593 2.157c2.456 3.26 3.95 5.207 5.578 7.78.773 1.223 1.619 2.832 2.438 4.36 1.288 2.405 2.5 4.686 3.422 5.625 1.503 1.53 6.049 7.209 6.094 7.266.015-.053-1.086-4.022-.657-6.422.396-2.214 1.708-4.833 1.922-5.25-.313.677-2.797 7.247 4.36 13.688 7.383 6.648 15.399 9.234 20.437 9.468.198.01.401.047.61.047 4.69 0 12.742-2.43 15.703-9.094 3.012-6.781.494-9.258.468-9.28-.039.041-1.554 3.75-5.156 3.75-1.777 0-3.795-.895-5.953-2.673-8.276-6.819-37.73-54.642-46.734-74.437-9.49-20.86-20.175-45.915-20.391-48.563l-.234-2.672c.003.051 3.204 4.3 17.812 29.625 19.368 33.582 34.596 53.172 48 61.64 10.775 6.805 14.616 7.782 15.938 7.782.753 0 .839-.314.843-.328-.112-.073-10.458-5.755-11.53-6.844-.386-.393-.469-1.197-.563-2.11-.171-1.64-.383-3.644-2.485-4.5a21.842 21.842 0 0 0-1.922-.655c-3.729-1.116-9.958-2.967-16.312-12.375l-7.64-11.297c-.24-.347-23.937-34.807-29.954-49.219-1.141-2.733-2.222-5.156-3.094-7.172-1.77-4.089-2.832-6.577-2.625-6.89.509 0 2.723 2.877 6.563 8.109 3.39 4.618 6.924 9.94 10.36 15.094 6.99 10.482 13.59 20.39 18.093 23.343l6.75 4.407c.016-.038-.656-2.023-.656-4.641 0-2.592 1.275-4.355 1.312-4.406-.05.088-1.181 4.836 1.219 8.86 1.485 2.49 3.972 4.192 7.453 5.062 3.122.778 6.498 1.172 9.75 1.172 9.695 0 17.036-3.495 19.172-9.141 3.226-8.523-1.916-16.932-1.969-17.016-.048.057-2.158 5.39-7.594 5.39-1.977 0-4.175-.72-6.515-2.108-10.343-6.131-31.364-28.23-34.313-34.22-2.917-5.933-21.98-32.955-24.562-35.577-2.574-2.618-3.508-5.039-3.516-5.063.209.252 23.315 23.73 27.61 28.969 4.359 5.316 25.26 17.667 34.125 22.5 2.778 1.515 5.646 2.297 8.53 2.297 4.402 0 7.33-1.81 7.36-1.828-.072-.03-6.579-.25-10.875-1.125-4.147-.843-8.57-4.152-8.906-4.407.054.015.215 0 .422 0 .82 0 2.224-.056 2.437-.609.096-.25-.05-.606-.468-.984-.875-.79-2.903-1.136-5.25-1.547-2.915-.512-6.558-1.147-9.329-2.86-4.987-3.085-22.588-18.35-27.14-23.859-1.734-2.097-4.354-4.798-6.844-7.406-4.188-4.39-8.124-8.528-8.39-10.031-.428-2.39-.42-2.615-.422-2.625.195.208 22.034 19.742 30.843 25.64 8.79 5.88 11.396 6.813 16.5 7.266 1.139.1 2.236.14 3.282.14 2.815 0 4.345-.37 4.359-.375-.078-.067-8.034-4.014-8.25-6.187a297.886 297.886 0 0 1-.234-2.438c.057.1 8.283 8.878 13.875 9.094h.375c5.833 0 14.721-5.515 16.406-11.719 1.72-6.336.667-7.953.656-7.968-.06.036-3.764 3.75-5.906 3.75h-2.39c.062-.003 4.386-2.439 4.171-5.72-.216-3.278-.885-4.209-.89-4.218-.04.075-1.314 6.938-5.579 6.938-.513 0-1.034-.132-1.593-.329a65.26 65.26 0 0 1-3.985-1.546c-2.143-.908-3.096-1.313-6.234-1.313-4.308 0-16.23-8.322-24.797-14.578-3.426-2.504-8.783-6.767-13.969-10.875-5.478-4.34-10.618-8.418-13.594-10.547-5.509-3.94-10.527-7.324-11.062-7.687 1.032.675 18.559 11.512 33.844 18.75 12.334 5.838 20.838 8.437 27.61 8.437 1.682 0 3.256-.14 4.78-.469 7.095-1.531 9.353-5.26 9.375-5.297-.078.014-5.84 3.282-11.859 3.282-.19 0-.372.007-.563 0l-6.28-.235c.1-.013 2.495-1.067 2.765-2.156.063-.258-.006-.48-.188-.703-.115-.14-.223-.188-.375-.188-.21 0-.446.112-.797.282-.781.376-2.098.984-4.5.984-3.295 0-7.657-1.174-12.984-3.516-15.874-6.976-39.677-21.653-39.984-21.843.252.151 19.86 9.288 27.797 10.593 4.155.686 7.995.844 10.5.844 2.713 0 4.483-.184 4.5-.187l-2.438-1.547c1.36.66 2.849.985 4.36.985 2.092 0 4.206-.597 6.327-1.828 6.054-3.516 12.854-9.15 10.875-15.938-1.72-5.901-5.634-9.015-5.671-9.047-.062.113-3.88 10.5-13.36 10.5-1.021 0-2.06-.136-3.14-.375-12.231-2.712-26.223-8.24-29.766-10.36a373.294 373.294 0 0 1-5.86-3.562c.13.054 14.094 2.672 23.391 2.672 2.684 0 4.755-.229 6.14-.656 7.35-2.262 12.887-4.71 16.079-9.469 3.225-4.807 3.281-6.64 3.281-6.656-.069.072-4.17 7.956-7.172 8.39-2.023.293-4.088 1.345-6.234 2.485-1.083.574-2.163 1.17-3.328 1.687-1.665.743-5.834 1.172-11.438 1.172-3.735 0-7.54-.161-9.656-.468-4.512-.656-16.195-1.352-16.312-1.36.121-.01 11.824-3.958 17.625-6.14 3.013-1.134 5.394-3.647 6.375-6.75.645-2.037.542-3.993-.282-5.204-1.932-2.838-6.053-11.816-6.093-11.906-.081.077-5.491 7.993-7.641 12.797-1.392 3.111-5.232 3.115-9.328 3.14-2.337.016-4.757.055-6.938.61l-6.093 1.547c.13-.065 11.732-9.095 8.718-14.344-2.113-3.684-6.152-6.281-9.797-6.281-1.26 0-2.393.365-3.28.984l-.235.14c-2.202 1.541-3.673 2.579-5.39 2.579-.938 0-1.897-.326-3.048-.984-1.608-.92-3.53-1.828-5.625-1.828-1.873 0-3.675.748-5.484 2.296-2.023 1.733-2.88 4.18-2.156 6.141.592 1.602 2.092 2.53 4.125 2.531.279 0 .586-.01.89-.047 2.19-.256 3.58-.905 4.172-1.922.543-.933.192-1.866.188-1.875-.051.018-2.817 2.297-4.875 2.297-1.08 0-1.81-.604-2.11-1.828-.475-1.936-.34-3.434.422-4.406.69-.88 1.873-1.313 3.516-1.313.639 0 1.387.098 2.156.235 2.076.367 3.933 1.117 5.578 1.781 1.754.71 3.243 1.313 4.594 1.313.483 0 .953-.076 1.36-.235.407-.159.747-.234 1.077-.234.914 0 1.424.619 1.922 1.219.467.56.932 1.128 1.735 1.218.067.007.133 0 .187 0 .18 0 .285-.055.328-.14.11-.22-.22-.64-.656-1.219-.712-.95-1.621-2.163-.937-2.86.339-.344 1.198-.515 2.25-.515 1.873 0 4.35.651 5.625 2.11.7.8.942 1.724.797 2.812-.636 4.737-2.694 6.762-6.516 9.047-3.692 2.206-6.09 2.203-8.438 2.203h-2.343c.243-.026 2.866-.572 3.89-3.281 1.079-2.852-1.52-4.206-1.547-4.22-.02.064.123 4.87-4.593 6.61a41.25 41.25 0 0 1-3.75 1.172c-2.526.677-4.367 1.188-6.047 3.516-2.36 3.268-4.942 3.512-4.969 3.515.036-.02 2.157-4.2 0-6.609-.72-.806-1.636-1.219-2.766-1.219-1.522 0-2.892.743-2.906.75.044.048 4.358 2.273 2.86 6.188-.61 1.593-4.284 4.208-8.532 7.218-6.252 4.431-14.04 9.936-14.953 14.438-1.504 7.43-.312 21.146 2.813 24.094 1.684 1.591 5.039 2.718 8.156 2.718 2.529 0 4.33-.745 5.11-2.062 1.426-2.418 3.226-5.438 5.671-5.438.621 0 1.256.182 1.922.563 2.37 1.356 4.317 3.913 6.188 6.375.867 1.141 1.703 2.227 2.53 3.14 1.68 1.849 2.604 5.264 2.157 7.922-.237 1.407-.842 2.37-1.734 2.86-1.917 1.048-4.161 2.156-6.141 2.156-1.321 0-2.385-.489-3.188-1.453-.889-1.068-2.046-1.688-3.234-1.688-1.777 0-3.345 1.285-3.984 3.235-1.64 4.998-4.236 7.954-7.782 8.812-1.41.342-2.4 1.338-2.812 2.907-.72 2.731.373 6.778 2.344 8.625.759.712 1.525 1.272 2.203 1.78 1.86 1.396 3.212 2.414 2.578 4.829-.939 3.58-3.98 8.906-8.531 8.906-.327 0-.641-.038-.985-.094-2.5-.406-5.183-2.244-8.015-4.171-3.22-2.192-6.56-4.454-9.61-4.454h-1.734c-4.853 0-8.246.269-11.297 3.563-2.998 3.237-5.689 4.969-11.344 4.969-.92 0-1.914-.05-3-.14-7.633-.649-10.297-2.528-12.375-4.407l-1.968-1.781c.103.067 2.071.795 3.984.797 1.708 0 2.882-.543 3.422-1.641 1.507-3.068-1.284-5.739-1.313-5.766-.016.042.834 2.698-.234 4.172-.472.653-1.279.985-2.344.985-.585 0-1.26-.084-2.015-.282-6.548-1.719-7.96-3.492-8.016-3.562.046.031 1.121.234 2.344.234 1.237 0 2.832-.197 3.562-1.031.323-.368.449-.85.375-1.406l-.422-3.282c-.048.032-2.005 3.61-4.453 3.61-1.296 0-2.47-.984-3.562-2.953-3.86-6.972-3.52-8.61-3.516-8.625.007-.001 1.298-.938 2.719-.938 1.01 0 1.854.48 2.484 1.406 1.922 2.819 1.969 3.264 1.969 3.282.045-.035 1.53-4.014-.844-5.766-.969-.719-2.513-1.002-3.984-1.312-2.232-.473-4.349-.925-4.735-2.625-.645-2.834-.192-4.623-.187-4.641.063.039 8.268 2.899 9.984 5.953 1.718 3.051 1.735 5.74 1.735 5.766.048-.006 2.417-1.793 2.203-3.985-.155-1.558-.665-2.904-.938-3.562.435.697 1.923 1.858 6.75 2.015 1.169.04 2.471.041 3.797.047 6.434.027 13.714.063 15.328 3.703.492 1.11.541 2.032.094 2.719-.886 1.364-3.353 1.453-4.078 1.453l-.14.047c.012.022 1.158 2.156 2.625 2.156.372 0 .73-.147 1.078-.422 1.234-.973 5.23-4.355 4.968-7.218-.1-1.107-.78-2.019-2.109-2.72-5.208-2.752-9.498-3.073-9.797-3.093.368 0 6.363-.498 8.25-2.203.306-.276.641-.614.985-.984 1.405-1.515 3.322-3.563 6.89-3.563 1.113 0 2.354.162 3.656.563 2.214.682 3.568 1.765 4.032 3.187.717 2.2-1.015 4.524-1.032 4.547.057 0 3.74-2.245 3.094-5.531-.645-3.273-4.717-5.728-4.781-5.766.112 0 2.554-.516 5.39-.516 3.242 0 7.411.7 8.72 4.079 2.357 6.1-4.061 9.018-4.126 9.046.44 0 6.123-.45 6.328-5.953.149-3.9-1.013-7.401-3.14-9.609-1.773-1.84-4.175-2.766-7.125-2.766-4.535 0-8.687 1.503-12.047 2.72-2.5.905-4.687 1.687-6.422 1.687-1.515 0-2.481.072-2.86.187-.107-1.504-.664-9.336.704-14.297 1.047-3.805 1.478-4.98 1.64-5.344-.448.702-2.684 4.251-5.765 4.641a9.625 9.625 0 0 1-1.219.094c-.672 0-1.456-.053-2.25-.094-.883-.045-1.8-.094-2.719-.094-2.728 0-5.946.376-6.468 3.422-.749 4.38-.659 6.724.234 7.781.37.438.875.657 1.547.657 2.584 0 3.878-.882 3.89-.89-.037-.034-3.25-.72-3.843-2.485-.26-.773.027-1.685.843-2.625 1.236-1.424 2.367-2.016 3.75-2.016.572 0 1.145.086 1.688.188.53.099 1.09.187 1.64.187.333 0 .64-.019.938-.094l2.625-.656c-.061.032-1.373 1.518-2.86 2.813-1.476 1.287-3.57 1.988-3.656 2.015.113 0 1.666-.375 3.235-.375 1.97 0 3.06.542 3.234 1.688.366 2.416.954 10.51-6.937 13.03-5.286 1.688-8.671 1.923-10.22 1.923-1.475 0-2.53-.227-2.812-.61l-.656-.843h.047c.427 0 3.857-.317 6.281-4.219 2.586-4.16-.856-7.236-.89-7.266-.028.089-.282 7.688-4.782 7.688-.762 0-1.564.035-2.344.047-.78.012-1.536 0-2.296 0-2.892 0-5.745-.157-7.079-1.36-1.908-1.725-2.148-2.826-2.156-2.859.017.026 1.146.328 2.39.328 1.288 0 2.886-.334 3.235-1.875.647-2.847.004-3.74 0-3.75-.05.03-2.81 3.047-5.25 3.047-.846 0-1.59-.358-2.156-1.078-2.573-3.272-4.293-10.93-4.313-11.016.01.026 2.031.563 4.313.563 2.656 0 4.553-.712 5.672-2.11 2.797-3.5 2.628-5.278 2.625-5.296-.072.03-4.947 3.843-8.438 3.843-1.723 0-2.861-.926-3.328-2.765-1.66-6.539-.767-12.937 1.078-14.578 3.91-3.076 9.905-5.62 14.297-5.766.752-4.383-26.546-5.43 14.25-13.969l15.797-18.984c0-2.028-5.96-6.602-8.672-7.875-2.79-1.31-11.597-2.906-18.328-2.906-.426 0-.853-.014-1.266 0-3.93.121-8.564 3.298-13.078 6.375-3.823 2.607-7.448 5.066-10.593 5.765-2.885.642-5.607.985-7.875.985-3.37 0-5.617-.702-6.47-2.063-1.502-2.397-1.315-6.334-1.312-6.375-.046.042-1.723 4.86-1.078 7.266.675 2.517 4.42 4.9 6.516 5.11 2.173.221 6.75.655 6.75.655-.07.023-6.355 4.848-8.719 7.688-.676.813-1.36 1.783-2.062 2.812-1.769 2.586-3.59 5.263-5.766 5.578-.696.1-1.41.141-2.156.141-1.99 0-3.454-.325-3.47-.328.013.052 2.608 2.657 4.548 3.094.364.082.784.14 1.219.14 1.597 0 3.125-.556 3.14-.562-.069.093-5.038 11.306-6.328 17.203-1.437 6.565-2.75 10.082-4.36 11.719-1.717 1.744-3.452 2.847-3.468 2.86.02.034 1.902.937 3.422.937.48 0 .858-.1 1.172-.282 1.504-.876 1.725-1.069 1.734-1.078-.05.125-2.39 13.706-2.39 16.547 0 2.834-4.55 7.036-4.594 7.078h.28c1.057 0 4.5.194 4.5 2.438-1.106 6.82-3.563 12.703-6.75 18.515-3.185-5.812-5.642-11.696-6.75-18.515 0-2.244 3.445-2.438 4.5-2.438h.282c-.045-.042-4.594-4.244-4.594-7.078 0-2.84-2.34-16.422-2.39-16.547.009.01.23.202 1.734 1.078.314.182.692.282 1.172.282 1.52 0 3.402-.903 3.422-.938-.017-.012-1.751-1.115-3.469-2.86-1.61-1.636-2.922-5.153-4.36-11.718-1.29-5.897-6.258-17.11-6.327-17.203.015.006 1.543.562 3.14.562a5.58 5.58 0 0 0 1.219-.14c1.94-.437 4.535-3.042 4.547-3.094-.015.003-1.48.328-3.469.328-.745 0-1.46-.04-2.156-.14-2.177-.316-3.997-2.993-5.766-5.579-.702-1.029-1.386-2-2.062-2.812-2.364-2.84-8.648-7.665-8.719-7.688 0 0 4.577-.434 6.75-.656 2.096-.21 5.84-2.592 6.516-5.11.645-2.405-1.032-7.223-1.078-7.265.003.04.19 3.978-1.313 6.375-.852 1.36-3.1 2.063-6.469 2.063-2.268 0-4.99-.343-7.875-.985-3.145-.699-6.77-3.158-10.593-5.765-4.514-3.077-9.149-6.254-13.079-6.375-.412-.014-.84 0-1.265 0zm142.734 64.5l.094-.188c-.02 0-.08.053-.14.188zM677.86 399.844a7.83 7.83 0 0 0 1.078-1.172c-.037 0-.428.45-1.078 1.172zm-455.718 0c-.65-.722-1.041-1.172-1.079-1.172.003.006.39.55 1.079 1.172zm143.578-262.078h.047c-.06-.135-.122-.188-.141-.188z" fill="#070707" stroke="#000" stroke-width="1.5"/><path d="M430.812 415.024c.093-.327.375-.63.843-.901-.295 1.718-1.243 2.454-1.252 2.462l-.035.028z"/><path d="M519.212 93.777c-2.768 1.796-8.07-1.482-7.84-2.81.23-1.327.768-5.075 5.916-5.623 5.148-.546 6.072 1.64 6.072 1.64.152 2.108-1.384 4.997-4.149 6.793zm-139.553-.635c2.732 1.739 7.971-1.436 7.742-2.719-.227-1.287-.758-4.914-5.845-5.444-5.085-.527-5.995 1.589-5.995 1.589-.153 2.042 1.367 4.836 4.098 6.574z" fill="#fff" stroke="#2a2a2a" stroke-width=".75"/><path d="M521.976 89.014c0 1.172-2.537 3.515-4.074 3.749-1.534.234-1.919-1.405-.845-3.282 1.077-1.875 2.921-1.64 2.921-1.64.231-.076 1.998.003 1.998 1.174zm-145.048-.481c0 1.134 2.503 3.404 4.023 3.627 1.518.227 1.896-1.357.835-3.172-1.063-1.816-2.884-1.589-2.884-1.589-.231-.075-1.974 0-1.974 1.134z"/><path d="M295.478 264.213l-.04-.027c.033-.081 3.235-7.841 2-15.748-1.269-8.122-6.23-22.226-9.998-26.495-3.708-4.201-5.237-8.954-5.252-9.002.08.058 6.298 6.761 9.015 8.739 2.793 2.028 10.253 13.406 10.504 27.008.15 8.105-2.088 12.118-3.992 14.058-1.086 1.106-2.025 1.468-2.227 1.468h-.01zm-112.149-6.01v-.01c-.004-.084-.334-8.599 1.414-18.387 1.747-9.788 12.968-41.402 13.081-41.721.041.239 2.081 23.822-3.163 35.01-2.391 5.101-4.808 10.766-6.75 15.318-2.425 5.684-4.177 9.789-4.572 9.789h-.01zm57.427-5.821c-.026-.047-2.575-4.821.579-13.855 2.944-8.431 13.07-16.727 18.844-20.921 4.011-2.911 12.667-13.443 12.753-13.549-.131.302-14.832 29.216-20.279 32.419-5.146 3.029-10.968 8.798-11.879 15.902l-.004.03zm119.717-3.826c-.049-.015-5.252-1.869-8.119-10.611-1.084-3.305-1.481-6.177-1.866-8.955-.657-4.743-1.278-9.225-5.089-15.494-6.017-9.901-18.426-21.974-18.551-22.095.252.107 24.125 12.528 28.424 27.095 4.272 14.473 5.425 29.801 5.231 30.06l-.016.008zm-50.285-11.116c-5.689-11.12-7.677-18.118-2.75-25.511 3.817-5.724 10.816-6.342 13.647-6.342 2.426 0 4.806.408 6.366 1.091 2.232.975 4.977 8.181 5.005 8.253-.033-.013-1.582-2.258-7.263-3.986-1.322-.402-2.626-.606-3.874-.606-4.437 0-7.85 2.588-9.363 7.1-2.111 6.293-1.754 19.86-1.75 19.997zm-69.108-13.538l-.036-.104c0-1.645 2.717-12.762 7.54-16.799 1.134-.948 2.207-1.819 3.232-2.652 3.397-2.759 6.331-5.141 9.231-8.541 3.724-4.368 7.209-19.581 7.244-19.734.077.101 5.787 10.403 2.919 18.271-2.597 7.123-12.035 13.683-18.925 18.473-.79.549-1.542 1.071-2.239 1.564-4.719 3.338-7.256 7.112-8.339 8.725-.356.53-.536.797-.616.797zm62.86-21.459c-.055-.048-5.505-4.79-5.753-8.005-.247-3.219 3.713-7.219 3.753-7.259l.563.729c1.271 1.645 4.247 5.496 4.453 7.778.248 2.723-2.97 6.715-3.002 6.755l-.007.009zm-11.492-2.746a61.57 61.57 0 0 1-5.001-.251c-2.683-.243-3.215-1.175-4.18-2.868l-.078-.137c-.991-1.733-.011-5.469-.001-5.506.103.166.864.405 1.828.707 1.873.587 4.704 1.475 5.689 2.79 1.485 1.979 1.75 5.223 1.752 5.255l.001.011h-.01zm1.993-10.754c-.04-.042-4.006-4.29-4.253-7.505-.248-3.22 3.467-5.488 3.504-5.511h.001c.73 0 4.514 2.777 4.514 6.509 0 3.713-3.715 6.48-3.753 6.508l-.007.005zm12.747-1.506c0-.065.014-6.534 1.251-9.255 1.237-2.722 3.729-4.239 3.755-4.254l1.255.248c.021.093 1.251 8.527.509 9.766-.744 1.238-6.696 3.482-6.756 3.504l-.014.005zm-22.494-.241c-.083-.025-8.261-2.522-8.757-4.257-.495-1.733.986-6.705 1-6.755.288.13.856.303 1.577.521 1.904.578 4.781 1.452 5.691 2.725 1.238 1.733.509 7.697.501 7.757l-.001.012zm37.995-13.505c-.02-.03-1.999-3.051-1.751-7.256.246-4.206 5.204-7.476 5.254-7.508a.427.427 0 0 1 .192-.042c.45 0 1.196.544 1.947 1.419 1.171 1.365 2.43 3.658 2.126 5.632-.496 3.218-7.682 7.712-7.755 7.757l-.008.005zm-18.853-1.298c-1.557 0-3.282-.972-4.504-2.536-1.599-2.049-2.129-4.774-1.453-7.478 1.749-6.997 4.224-7.779 4.249-7.787 5.267 5.5 6.25 9.605 6.15 12.082-.08 1.972-.858 3.668-2.251 4.907-.597.531-1.354.812-2.191.812.001 0 .001 0 0 0zm-26.209-.687c-.211 0-.896-.172-2.687-1.763-2.168-1.927-4.517-5.18-4.002-8.009.495-2.723 5.703-4.984 5.755-5.006 3.722 5.444 1.041 14.668 1.013 14.761zm9.914-2.792c-2.483 0-5.316-2.122-5.924-6.177-1.051-6.999 3.495-9.533 3.541-9.558h.009c.19 0 .62.39 1.164 1.011 1.911 2.183 5.385 7.371 4.852 11.375-.277 2.066-1.672 3.349-3.642 3.349zm-23.095-2.468c-2.648-.481-6.008-3.643-6.008-6.509 0-2.723 2.972-6.223 3.002-6.257.162.146.625.439 1.266.845 1.474.933 3.94 2.494 4.999 3.906 1.487 1.982-.478 8.445-.498 8.51l-.003.008zm52.996-.002c-.068-.055-6.753-5.545-6.504-9.258.246-3.708.992-6.227.999-6.251.856.273 7.023 3.763 7.771 6.249.742 2.475-2.221 9.189-2.251 9.257l-.005.012z" transform="scale(1.5)" fill="#332d2c" fill-rule="evenodd" filter="url(#e)"/><path d="M300.177 363.441c.026-.139 1.542-13.896 1.256-23.8-.145-5.077 1.068-13.643 1.213-21.867.145-8.133.281-15.814.139-20.028-.286-8.444-1.438-23.709-1.449-23.862.061.18 4.068 18.493 3.209 38.298-.46 10.601-1.458 19.782-1.308 27.16.134 6.504 1.427 11.641 1.018 14.97-.362 2.947-1.338 6.905-3.931 9.027-.061.05-.154.135-.154.135zm27.544-18.844c-.139-.07-13.944-7.14-16.238-12.968-2.292-5.825-6.337-14.348-6.377-14.434.124.122 10.807 13.264 16.534 15.008 3.453 1.054 6.392 1.275 8.249 1.275 1.187 0 1.886-.093 1.893-.094l-2.02 2.666 8.98 2.342-.025.001c-.588 0-11.162-.368-15.924-2.93-4.874-2.622-7.801-4.985-7.829-5.009.058.061 4.414 7.366 8.996 8.82 4.583 1.458 10.088 1.765 10.144 1.768l-5.797 1.787-.575 1.772zm-51.02-.017c.032-.026 3.231-2.685 6.957-5.598 1.49-1.164 3.324-3.227 5.455-6.133l-.223.255c-2.685 3.033-11.491 7.378-16.819 7.665-5.442.29-11.817 2.918-11.881 2.944.014-.053 2.672-3.864 8.98-5.321 6.3-1.455 8.381-3.512 8.401-3.532l-5.795-2.639h.001c.076 0 2.692.683 5.952.683 3.221 0 7.669-.683 10.566-3.937 5.443-6.115 12.106-24.557 12.173-24.742.028.039.882 3.904.309 10.313-.573 6.409-3.162 15.235-3.188 15.324l1.14-14.734c-.036.198-5.545 19.504-10.419 24.164-4.874 4.662-11.534 5.3-11.601 5.306zm15.644-16.476c-.101.194-1.302 2.113-2.91 4.338 2.041-2.435 2.829-4.157 2.91-4.338zm-29.56-2.372c0-.228-.044-.478-.091-.747-.191-1.099-.453-2.603 2.124-4.27 2.489-1.607 6.225-1.781 7.715-1.781.438 0 .696.015.696.015-.09.052-9.281 3.298-10.425 6.786zm-22.606-.596c4.578-2.615 4.06-4.683 4.054-4.703.063 0 3.306.791 3.563 1.871.063.267-.057.53-.359.786-1.722 1.458-7.198 2.059-7.253 2.064zm103.88-5.357c-5.868-.001-11.755-.868-17.497-2.578-16.371-4.879-19.858-23.617-19.999-24.412.254.992 3.482 9.671 9.863 16.44 7.288 7.729 27.043 7.952 29.271 7.952 5.444 0 10.387 1.164 10.436 1.176-.046.033-4.749 1.422-12.072 1.422h-.002zm-71.994-2.008c.104-.048 10.464-4.736 13.042-6.776 2.528-1.997 8.4-11.033 8.684-11.47-.148.198-1.903 2.203-5.193 4.712-3.439 2.621-13.525 5.276-13.627 5.303.106-.08 11.35-6.257 15.934-10.917 4.583-4.658 9.227-15.501 9.273-15.61l-1.429 22.983-.31-11.489c-.011.044-2.923 3.93-6.647 12.082-3.728 8.16-19.56 11.172-19.719 11.201zm-6.355-1.234c-2.085 0-3.46-.864-3.678-2.312-.211-1.41.849-3.305 3.23-4.036 2.44.563 4.92.848 7.375.848 8.649 0 14.442-3.543 14.5-3.579-.099.103-11.103 8.565-19.415 8.858-.72.147-1.397.221-2.012.221.001 0 .001 0 0 0zm65.531-4.281c-1.247 0-2.236-.121-2.94-.359l-.236-.08c-4.375-1.479-13.479-4.556-18.32-16.422.081.082 6.461 9.139 12.477 10.887a12.18 12.18 0 0 0 3.444.484c1.697 0 3.125-.321 4.271-.58.705-.159 1.262-.284 1.673-.284.296 0 .491.064.616.203.139.155.187.409.146.775-.071.655-.504 1.169-1.285 1.527 2.474-.339 5.728-.928 7.357-1.832.477-.264.871-.397 1.174-.397.252 0 .444.093.572.276.552.792-.274 3.056-.282 3.079l6.078.283c-.089.044-9.193 2.44-14.745 2.44zm-5.194-3.309c.168.003.668.04 1.318.04 1.05 0 2.514-.096 3.585-.542a81.037 81.037 0 0 1-4.903.502zm-33.116-17.384c-.008-.029-.857-2.991.29-6.488 1.147-3.499 3.745-6.746 3.771-6.778l-4.05 13.299zm22.034.006c-.069-.042-6.968-4.174-7.54-7.962-.574-3.787-.581-13.165-.581-13.26.594 6.697 8.06 21.063 8.135 21.208l.017.031zm24.139-15.947c-3.788 0-9.191-.505-13.413-2.908-7.164-4.079-12.703-9.669-12.758-9.725.171.1 15.913 11.479 21.818 11.477.074 0 .148-.001.22-.005 2.155-.109 3.398-.552 3.696-1.316.301-.771-.507-1.604-.515-1.612l3.931-.281c.553-1.18 1.567-2.081 1.577-2.091l-1.144 2.077-.437.034c-.532 1.188-.689 2.838 1.592 4.075-.022.021-1.898.275-4.567.275zm-77.724-3.161l-.044-.051c.011-.013.659-.48 1.818-1.054 1.291-.864 2.703-1.778 4.287-2.602.793-.651 1.761-1.077 2.876-1.266 1.157-.404 2.234-.636 3.202-.687 4.224-.227 8.316-1.508 9.879-2.048-3.095 2.459-5.949 2.647-9.643 2.647l-2.028-.006c-.49 0-.963.038-1.406.112l-.005-.019a25.88 25.88 0 0 0-2.865 1.282l-.011-.017a6.485 6.485 0 0 0-1.184 1.371 22.036 22.036 0 0 1 5.523-.969c6.066-.279 11.941-4.343 12.428-4.687a9.93 9.93 0 0 1-.803.302 21.415 21.415 0 0 0 2.103-1.989c4.541-4.89 4.943-9.143 4.947-9.186.02.107-.053 10.672-6.347 15.917-2.146 1.788-3.267 2.154-4.291 2.154-.594 0-1.179-.138-1.856-.297-.979-.231-2.199-.519-3.999-.519-2.355 0-5.167.487-8.595 1.491l-.015.004.002-.015c.001-.011.158-1.061.861-2.179a21.322 21.322 0 0 0-3.051 1.218l-.01-.017-.275.208c-.803.54-1.333.896-1.488.896h-.01zm181.694-6.613c-1.877.894-11.147-11.354-23.47-32.614-12.322-21.264-19.353-71.968-19.422-72.478.166-.051.33-.281.505-.523.25-.349.533-.743.898-.743 1.086 0 3.115 3.215 8.181 31.02 7.165 39.315 32.544 75.224 32.822 75.575zm-273.315-8.567c.019-.017 1.904-1.786 6.965-12.075 3.113-6.327 5.646-15.248 8.854-26.542 2.023-7.122 4.315-15.195 7.129-23.855 7.09-21.826 10.217-24.76 10.248-24.787.243.155.059.666-.825 3.12-1.552 4.309-5.186 14.4-12.478 38.751-11.345 37.883-19.795 45.332-19.879 45.403zm153.455-11.513c-.607 0-.996-.155-1-.157 1.295-1.072 1.784-2.738 2.257-4.351.601-2.051 1.169-3.987 3.251-4.803a5.735 5.735 0 0 1 2.098-.384c3.005 0 5.711 2.134 5.737 2.155-.058.021-5.247.357-7.822 4.433-1.626 2.568-3.355 3.107-4.521 3.107zm128.569-18.13c-.202-.133-20.438-13.673-32.76-49.497-8.974-26.09-9.424-32.635-8.891-34.213l-.096-.255c.166.09.166.109.117.253l-.01.026-.003-.006c2.206 5.863 21.242 56.522 30.061 66.884 9.169 10.777 11.573 16.735 11.597 16.794l.011.029zm11.89-2.945c.647-.3-1.503-.014-6.09-1.178-4.062-1.033-14.21-19.385-23.164-35.575-1.294-2.34-2.567-4.643-3.8-6.853-9.743-17.474-14.734-42.177-14.783-42.425 22.081 53.58 47.631 85.755 47.886 86.073l-1.125.457zm-75.954-3.54c-.081-.159-8.134-16.075-9.567-30.347-1.433-14.272.273-26.104.291-26.222.043.407 2.418 40.836 9.294 56.561zm-242.615-1.028c-.079-.001-.128-.039-.142-.111.178-.268 17.702-26.208 24.589-40.824 7.766-16.482 12.424-25.202 15.575-29.158 2.935-3.684 7.493-3.97 8.82-3.97.262 0 .409.011.409.011-.058.069-6.547 5.587-23.965 36.876-17.014 30.561-24.375 37.176-25.286 37.176zm73.753-4.962c-.042-.051-.006-.223.034-.422.043-.214.093-.457.044-.557.695-1.186 4.716-11.177 4.917-16.874.092-2.62-.149-6.366-.382-9.989-.294-4.559-.571-8.865-.231-11.045.607-3.912 2.643-8.496 2.663-8.542.007.125-1.208 12.124-1.006 15.624.262 4.511.471 22.503-3.279 28.12-2.172 3.252-2.593 3.7-2.724 3.7zm154.667-43.498c-.081 0-8.163-.071-11.604-6.191-2.641-4.697-1.246-11.671-.486-14.562-1.167 2.426-3.52 6.692-6.48 8.783-2.197 1.551-4.598 1.877-6.224 1.877-1.763 0-3.022-.372-3.035-.375.004-.039 1.015-2.532 2.746-4.018.949-.813 4.929-2.992 8.439-4.915 2.255-1.235 4.202-2.301 4.973-2.801l.066-.201.02.149c.118-.084.194-.142.229-.18v.002c-.02.097-.099.287-.218.559l-.019-.003c.076 1.577.433 6.972 2.614 10.667 2.578 4.367 8.058 6.75 8.112 6.773-.003-.002.587-.356 2.015-4.708 1.432-4.364-1.993-14.33-2.028-14.43h.008c.227 0 .965.544 1.799 1.416 1.277 1.336 4.226 4.963 4.01 9.777-.288 6.412-4.883 12.32-4.93 12.379l-.003.003h-.004zm-11.669-22.2c-.062.246-.192.672-.347 1.246.173-.365.314-.679.423-.925l-.01-.35zm-167.099 15.354c.033-.087 3.352-8.828 9.633-15.83 5.697-6.35 8.772-6.672 9.331-6.672.069 0 .104.005.104.005-4.374 2.489-6.181 6.258-8.273 10.623-.55 1.148-1.12 2.336-1.761 3.552-3.04 5.769-8.961 8.31-9.021 8.334l-.021.009zm54.279-.283c-.071-.015-7.126-1.545-7.867-7.387-.74-5.838.734-12.24.749-12.304 4.828 8.267 7.107 19.566 7.13 19.679l.003.015zm122.161-.241c-.111-.151-.271-.345-.463-.581-1.355-1.658-4.177-5.109-4.177-9.736 0-5.242 1.148-12.304 1.16-12.375.071.112 5.217 11.617 3.497 22.687l-.004.024zm99.601-.476c-1.534 0-5.667-.856-16.115-6.59-14.329-7.866-27.41-35.959-27.54-36.242h.012c.548 0 2.795 2.76 14.787 18.551 12.606 16.599 29.395 24.081 29.563 24.155-.007.021-.177.126-.707.126zm-331.57-.249c1.721-3.28 5.18-6.949 8.843-10.834 3.321-3.523 6.756-7.166 9.189-10.825 5.064-7.619 17.7-24.407 17.828-24.576-.057.167-7.429 15.723-13.303 23.753-5.876 8.029-22.375 22.35-22.542 22.494zm252.841-3.691c-.052-.047-5.238-4.738-6.957-6.777-1.723-2.041-1.742-8.485-1.742-8.55.02.31.238.36.673.459.779.178 2.229.509 4.272 2.775 3.155 3.499 3.765 12 3.771 12.085l.002.024zm-166.985-1.089c-.033-.046-3.242-4.643.205-9.382 3.444-4.736 8.758-12.419 8.811-12.496.016.066-.217 6.1-2.851 10.631-1.236 2.125-2.583 4.743-3.665 6.846-1.315 2.558-2.266 4.405-2.492 4.405zm49.462-2.421c.003-.071.329-7.084-1.764-8.83-.167-.139-.326-.21-.471-.21-.728 0-1.104 1.768-1.468 3.478-.375 1.765-.764 3.59-1.549 3.59a.723.723 0 0 1-.4-.141c-1.518-1.011-1.771-3.631-1.921-5.197-.06-.62-.103-1.068-.201-1.166.019-.078 2.131-6.75 3.18-8.5.151-.251.368-.379.645-.379 1.176 0 3.296 2.302 4.999 4.151a56.814 56.814 0 0 0 1.443 1.53c2.102 2.102-2.426 11.582-2.473 11.678zm112.884-14.464c.099 0 7.846 1.233 7.846 6.772 0 5.538-2.301 7.063-2.323 7.078l-.011.007zm-58.08 13.764c-.07-.081-7.051-8.192-4.951-13.091.007-.023.808-2.344 3.235-2.344.43 0 .892.073 1.371.217 1.655.497 2.629 1.899 3.153 2.988 1.079 2.238 1.235 5.164.39 7.28-1.399 3.496-3.167 4.938-3.185 4.952l-.007.006zm-74.245-5.654c-.016-.013-1.581-1.312-1.613-3.747-.038-2.843 1.932-5.99 5.854-9.352l-4.23 13.108zm45.144-.644a.431.431 0 0 1-.243-.062c.018-.055 2.12-4.298 2.471-8.142.351-3.843-.348-7.386-.354-7.421.065.025 4.974 3.568 5.323 7.068.185 1.848-1.521 4.04-2.556 5.181-1.657 1.83-3.782 3.376-4.641 3.376.001 0 .001 0 0 0zm-8.73-1.479c-.06-.089-6.009-8.889-5.658-12.735.349-3.852 3.51-4.947 3.542-4.958.145.205.33.418.549.671.933 1.078 2.494 2.881 3.353 7.466 1.05 5.598-1.74 9.517-1.769 9.556l-.009.012zm-28.994-13.799a.844.844 0 0 1 .2-.011c.562 0 2.463.1 3.355 1.387.635.917.635 2.24 0 3.934-2.099 5.599-7.727 8.114-7.784 8.139l-.02.009zm52.325 13.003c-2.277 0-4.022-2.001-4.242-4.866-.35-4.55 4.199-9.505 4.246-9.555-1.03 4.2 1.057 10.197 1.078 10.257l2.809-7.426c.054.055 3.518 5.707.018 9.558-1.209 1.33-2.561 2.032-3.909 2.032zm-16.97-1.328c-.011-.042-1.062-4.281-1.062-7.429 0-3.151 2.807-4.241 2.835-4.251 1.411 4.203-1.723 11.608-1.755 11.682l-.012.027zm-91.325-.619c-.055-.047-5.509-4.795-5.222-11.499.288-6.707 8.621-7.076 8.705-7.079.031 0 .074.02.107.112.169.462-.042 2.164-1.549 3.44-1.088.921-1.851 3.165-2.188 4.173.79-.919 2.679-2.208 4.133-2.208.738 0 1.254.326 1.536.969 1.146 2.619 2.88 4.105 2.897 4.12-.003.026-.615 1.507-3.771 2.964-3.148 1.454-4.618 4.968-4.633 5.003l-.005.013zm-.198-10.761c-.24.297-.366.551-.366.738 0 .175.021.177.021.177.04 0 .158-.355.295-.766zm196.149-1.024c.022-.034 2.344-1.779 5-1.779 1.271 0 2.421.396 3.417 1.176 3.732 2.915 2.339 8.205 2.324 8.257l-.004.014zm-124.771 7.461c-.024-.008-2.426-.779-3.011-2.665-.368-1.187.048-2.557 1.238-4.07 3.839-4.887 2.138-8.789 2.12-8.828 4.564 6.986-.287 15.473-.336 15.558l-.004.007zm61.164-.355c-.12-.039-12.028-3.923-12.028-6.726 0-2.799 2.102-5.635 2.123-5.663 10.505 3.495 9.925 12.292 9.918 12.381l-.001.012zm61.285-9.468c-.859-4.66-7.183-17.544-7.246-17.674h.211c3.189 0 4.865.323 5.131.972.201.491-.413 1.094-.955 1.626-.235.232-.458.45-.602.646-.107.145-.132.277-.074.391.182.361 1.185.568 2.75.568 1.301 0 2.789-.145 3.98-.387.086-.018.17-.026.252-.026 1.446 0 2.418 2.744 2.418 5.307 0 1.6-.407 3.309-1.551 3.309-.08 0-.162-.008-.248-.026a1.123 1.123 0 0 0-.228-.023c-2.645 0-2.948 9.929-2.951 10.03l-.02.001zm-93.465 3.805c-.01-.028-1.072-2.881-2.121-7.425-1.049-4.552 3.495-6.709 3.541-6.73a.42.42 0 0 1 .186-.039c.922 0 3.42 2.182 4.072 6.412.7 4.551-5.6 7.756-5.663 7.788l-.011.005zm14.623-2.02l-.004-.018c-.046-.093-4.619-9.763-2.896-13.262.561-1.14 1.493-1.768 2.627-1.768 1.951 0 3.983 1.791 4.348 3.833.556 3.104-3.624 10.707-4.028 11.187l-.036.028zm-51.703-1.056c-.094 0-.19-.003-.288-.009l-1.46-.087c-2.417-.139-3.876-.222-3.876-.758.049-.059 4.73-5.256 6.147-9.165 1.415-3.906.827-5.188.821-5.2.056.04 3.907 5.031 3.502 8.537-.289 2.496-1.303 6.682-4.846 6.682zm30.034-.636c-.082-.048-8.205-4.818-8.611-7.088-.406-2.267 2.026-6.42 2.051-6.462.159.143.808.957 1.63 1.987 1.604 2.011 3.802 4.766 4.737 5.716 1.422 1.446.22 5.797.208 5.841l-.003.012zm-14.756-.837c-.043-.073-4.306-7.331-4.509-10.833-.202-3.503 2.84-7.67 2.871-7.711.626.413 5.552 9.364 5.346 11.876-.204 2.475-3.656 6.629-3.691 6.67l-.009.011zm-8.813-5.21c.002-.031.186-3.157-1.433-6.036a34.813 34.813 0 0 0-.951-1.58c-1.005-1.6-1.509-2.403-1.509-5.506 0-1.996.618-4.176 1.114-5.928.357-1.26.639-2.255.555-2.729a8.286 8.286 0 0 0-.233-.291c.141.011.221.109.252.285l-.017.007c.832 1.037 3.47 4.687 3.47 8.033 0 3.911-1.217 13.648-1.229 13.747zm-101.018-1.254s2.048-3.958 3.278-6.249c.441-.822.825-1.979 1.231-3.204.527-1.588 1.072-3.23 1.79-4.266-1.667 1.177-2.677 1.941-3.005 2.274-.812.826-1.636 1.043-1.644 1.045-.024-.044-1.225-3.785.399-5.847 1.622-2.061 6.511-4.971 6.56-5-.001-.001.248-.517.013-.895-.167-.268-.533-.403-1.088-.403-.215 0-.468.021-.763.066-2.63.412-9.15 6.393-9.215 6.454-.021-.046-.404-3.998 1.624-6.676 2.026-2.679 7.121-7.863 7.172-7.915.087-.031.215-.092.208-.137-.007-.042-.131-.113-.886-.113-.367 0-.874.017-1.567.058-1.483.089-3.926 2.554-7.306 5.966-4.405 4.445-10.438 10.534-17.484 14.233-12.154 6.384-15.135 7.283-15.164 7.291.207-.146 21.578-12.798 27.856-19.384 4.296-4.506 8.479-8.417 11.248-11.005 1.359-1.271 2.433-2.275 3.096-2.949 2.026-2.06 6.717-4.971 6.764-5-.095.045-10.313 2.754-16.794 5.223-5.603 2.137-10.774 2.828-12.401 2.828-.303 0-.675-.022-.725-.125.117-.047 11.168-3.384 19.676-6.678 7.444-2.882 12.134-4.444 15.599-4.444.417 0 .824.023 1.208.069l3.483.418c.003.019-5.53 2.309-9.013 3.768-3.44 1.438-7.131 6.608-7.167 6.661.012.002 1.271 1.457 4.913 2.691 3.644 1.235 6.729 1.25 6.759 1.25-.033.049-3.913 3.145-5.941 3.352-2.026.206-2.659.208-2.665.208.012.003.224 1.462 1.033 2.9.809 1.439 2.64 2.072 2.659 2.079-.006.041-1.23 2.74-1.838 4.387-.607 1.647-3.657 7.646-3.688 7.706.028 0 2.409.953 5.134.953.948 0 1.836-.115 2.64-.342 3.645-1.029 7.133-4.543 7.168-4.578.005.08-1.245 7.125-4.084 10.01-1.278 1.299-2.924 1.905-5.181 1.905-1.1 0-2.195-.145-3.162-.272-.538-.071-1.043-.138-1.5-.174a5.594 5.594 0 0 0-.401-.014c-2.832 0-8.756 1.871-8.815 1.89zm7.185-14.565c-.28.158-.543.409-.804.766a207.33 207.33 0 0 1 2.638-1.825zm232.99 12.058c-.04-.021-4.092-2.082-6.956-3.831-.452-.275-.818-.415-1.087-.415a.49.49 0 0 0-.432.211c-.468.687.365 2.824.373 2.845-2.085-3.248-2.834-5.595-2.184-6.777.299-.543.898-.831 1.734-.831 1.278 0 3.003.656 4.503 1.711 3.729 2.624 4.06 7.033 4.063 7.077l.001.018zm52.76-.588c-.153-.032-15.485-3.36-25.804-13.554-10.314-10.192-19.613-13.226-19.706-13.255 10.582.52 14.795 5.59 20.251 11.228.52.536 1.542.879 2.077 1.423 6.017 6.116 23.017 14.06 23.188 14.139zM278.972 116.3c.008-.102.805-10.241-.41-13.532-.297-.803-.762-1.376-1.254-1.982-1.52-1.871-3.092-3.805.641-12.813.041.002 2.921.86 6.367 3.538 3.447 2.678 2.878 8.489 2.872 8.547-.035.046-3.272 4.167-4.69 6.577.688-2.337 1.435-5.475.982-7.199-.81-3.088-3.658-8.483-3.687-8.538.015.036-.384 3.983.223 6.657.218.958.753 1.826 1.27 2.665.94 1.524 1.912 3.101.983 5.256-1.417 3.294-3.259 10.753-3.277 10.829zm44.978-.023c-.073-.077-7.228-7.707-4.931-11.208.531-.81 1.076-1.22 1.621-1.22 1.457 0 2.445 2.96 2.455 2.991.006-.093.61-2.28 1.203-2.28.372 0 .65.867.827 2.576.512 4.941-.546 8.558-1.034 9.098-.037.041-.07.062-.099.062zm-11.045.016c-.473 0-3.758-4.476-4.901-7.089-.358-.818-.381-1.637-.068-2.432.718-1.829 2.9-2.896 3.552-3.18a.936.936 0 0 1 .373-.081c1.854 0 3.394 5.92 3.409 5.98l-2.32 6.781zm-22.865-.194c.012-.06 1.421-5.031.612-7.292-.811-2.268-.211-8.482-.205-8.544.037 0 1.872.708 2.478 7.498.408 4.545-.893 6.712-1.705 7.599-.505.553-.952.759-1.115.759zm-1.436-.419c-.336-.614-.893-1.094-1.483-1.602-1.195-1.03-2.55-2.197-2.412-4.858.202-3.916 4.263-8.912 4.304-8.962.007.048-1 4.013-.391 8.128.613 4.158.61 7.091-.006 7.299l-.008.003zm117.087-4.423c1.716-3.489-4-11.107-4.058-11.184.007-.001.059-.002.148-.002 1.067 0 7.529.144 8.854 1.758.25.304.33.541.246.724-.208.452-1.425.479-2.714.509-1.001.023-2.036.046-2.755.256-.2.058-.304.13-.306.213-.01.334 1.522.879 3.298 1.51 2.11.75 4.738 1.684 5.996 2.678.32.253.447.511.376.768-.454 1.644-8.724 2.739-9.076 2.785l-.019.002zm-124.464-1c.002-.006.209-.643.615-2.29.071-.291.287-.743.64-1.343a45.54 45.54 0 0 1-1.236 3.639zm139.252-1.343c-.022-.009-2.351-.93-4.932-4.718-.98-1.438-2.138-3.175-2.083-3.279.112.062 4.393 3.574 6.751 3.574.092 0 .181-.005.267-.016 2.292-.291 2.895-.294 2.9-.294-.01-.007-.048-1.769-3.193-3.221-3.149-1.455-6.055-1.765-6.084-1.768-.075-.068-1.706-1.618-1.415-2.349.096-.242.396-.365.89-.365.476 0 1.141.114 1.979.337l1.459.388c4.551 1.204 7.058 1.866 8.113 3.742 1.146 2.04 1.159 5.859 1.159 5.897l-5.807 2.072zm-103.776-2.062c-6.309-4.082-4.658-15.218-4.641-15.33l2.332.877c.123 1.373.479 4.915.72 4.915.028 0 .083-.063.136-.489.287-2.332 4.311-7.028 4.351-7.075.029.1 1.157 9.453-.565 10.915-1.716 1.453-2.311 6.133-2.316 6.18l-.002.016zm87.11-7.636c-.56 0-1.088-.008-1.547-.015-.352-.005-.662-.01-.914-.01-2.012 0-6.056-9.046-6.096-9.138l6.671-3.842c-.004.041-1.713 2.691-.856 5.308.458 1.394 2.995 2.702 5.233 3.855 2.007 1.035 3.74 1.928 3.463 2.633-.426 1.084-3.603 1.209-5.954 1.209zm27.966-4.152c-.029-.035-2.956-3.557-8.111-5.593-5.164-2.042-5.511-7.03-5.514-7.08l10.447 2.345-.012-3.23 7.261 4.116a.539.539 0 0 1-.149.008c-.188 0-.544-.008-1.007-.008-1.886 0-6.365.145-7.245 1.487-.739 1.124 1.725 3.596 3.223 5.496.817 1.037 1.209 2.185 1.16 2.405zM313.511 80.33c.035.004 1.993 1.387 3.317 1.387.305 0 .556-.073.746-.218 1.144-.873 3.164-4.963 3.185-5.004a.033.033 0 0 1 .012-.002c.021 0 .06.012.102.063.143.173.32.779-.095 2.89-.573 2.915-5.46 11.409-5.509 11.494l-.014.024zm-23.319 8.228c-.068 0-.328-.328-.357-.365h-.005c-.084 0-1.307-.076-7.162-1.663-1.552-.421-2.664-1.266-3.305-2.514-1.455-2.831.005-6.832.021-6.872l.171.003c.054-.01.118-.021.192-.021.84 0 1.733 1.641 2.729 5.017 1.004 3.402 2.068 4.116 2.783 4.116.453 0 .806-.282.978-.453a.618.618 0 0 1-.37.126c-.317 0-.811-.259-1.362-1.491-1.013-2.266-2.038-6.622-2.048-6.666.036 0 1.704.899 5.345 6.656 1.659 2.622 2.47 4.006 2.41 4.114zm156.904-.841c-.175 0-.35-.004-.525-.013-2.33-.119-5.978-1.953-10.596-4.276-6.811-3.425-15.285-7.687-23.608-8.393a49.386 49.386 0 0 0-4.145-.179c-8.811 0-13.817 2.528-15.561 3.615.089-.145.202-.303.333-.485 1.093-1.522 3.366-4.69 9.804-6.799 1.747-.574 3.734-.864 5.907-.864 7.344 0 16.388 3.872 28.675 10.401 5.197 2.76 10.548 3.462 14.918 3.462 3.432 0 5.266-.912 5.283-.921-.037.061-4.962 4.452-10.485 4.452zm-298.16-1.216c-2.035 0-2.897-.489-3.263-.899-.338-.38-.301-.744-.3-.748.131.226 1.313.471 2.893.471.919 0 2.302-.083 3.67-.479 2.796-.813 16.773-6.441 20.695-8.539 3.635-1.944 11.112-3.728 12.004-3.937a7.105 7.105 0 0 1-.774.034c-1.315 0-3.566-.222-3.859-1.708a.936.936 0 0 1 .203-.792c1.043-1.311 5.486-1.501 5.739-1.511h-.001c-.371 0-8.951-.467-14.131-2.896-5.275-2.476-3.507-7.05-3.489-7.096.019.021.041 1.693 1.862 3.956 1.59 1.976 2.408 2.241 4.592 2.952.344.112.721.235 1.14.377.918.311 2.535.461 4.945.461 2.262 0 4.852-.129 7.357-.253 2.157-.107 4.194-.208 5.728-.208 4.864 0 12.022 3.917 12.094 3.957.005.026-.014.436-1.644.436-.706 0-1.467-.262-2.52-.625-1.348-.464-3.194-1.101-5.883-1.458a11.7 11.7 0 0 0-1.528-.093c-4.535 0-10.294 2.154-10.352 2.176l2.457.606c.726.184 1.461.27 2.314.27.952 0 1.953-.111 3.013-.229a54.62 54.62 0 0 1 2.662-.249c.13-.008.266-.012.405-.012 3.36 0 9.254 2.333 10.259 3.764.211.3.274.479.211.6-.067.13-.285.188-.706.188-.709 0-1.974-.165-4.068-.437a353.544 353.544 0 0 0-7.946-.96 19.909 19.909 0 0 0-2.13-.114c-6.472 0-12.902 2.984-19.709 6.144-4.42 2.051-8.991 4.172-13.606 5.423-3.5.947-6.304 1.428-8.334 1.428zm243.711-1.749c-.933-1.263-1.242-2.228-.975-3.036.461-1.393 2.546-2.258 6.486-3.46 1.23-.375 2.677-.565 4.299-.565 4.88 0 9.862 1.726 9.912 1.743-.048.04-4.93 2.107-9.322 2.107-.278 0-.555-.008-.828-.025a6.477 6.477 0 0 0-.434-.014c-2.285 0-3.272 1.242-3.992 2.148-.45.565-.805 1.012-1.316 1.012-.196 0-.405-.066-.639-.202-.521-.303-1.03-.456-1.516-.456a2.23 2.23 0 0 0-1.66.748l-.008.01zm-75.993-5.57c-.14 0-.675-.193-1.693-2.68-1.436-3.5 2.855-9.087 2.899-9.143.018.021.015 1.508-.271 3.838-.042.344.014.605.166.777.151.172.403.259.747.259 1.186 0 3.109-1.036 3.129-1.046l-4.914 7.673a.221.221 0 0 1 .06.24.124.124 0 0 1-.123.082zm75.418-.317c-.003-.017.188-.168.578-.411-.214.305-.363.424-.501.424zm-111.007-3.622c-.971 0-2.513-.391-4.345-2.253-2.621-2.663-6.782-7.071-6.771-7.098.071.005 5.379.456 8.016 3.753 2.634 3.294 4.084 5.395 4.098 5.416-.007.016-.373.182-.998.182zm120.858-4.935c2.779-6.784 12.181-6.784 16.698-6.784l1.282.002c5.155 0 15.257-5.54 15.358-5.596l-.857 2.074c-.819 1.947-7.599 5.292-15.949 5.898-8.022.581-16.436 4.38-16.52 4.418l-.022.01z" transform="scale(1.5)" fill="#343434" fill-rule="evenodd" filter="url(#f)"/><g id="g"><path d="M228.728 66.319s-5.839.209-6.096 3.748c-.255 3.542 2.254 7.811 5.226 9.111 2.971 1.303 7.531 1.667 12.909.21 5.377-1.459 13.523-5.312 17.314-5.155 3.791.157 9.169.313 10.04.261l.871-.052s-.666-1.25-6.608-1.511c-5.943-.261-10.092-1.042-13.473.574-3.381 1.612-7.53 3.747-12.96 3.487-5.43-.261-7.837.207-9.886-2.396-2.05-2.601-1.23-6.557 2.663-8.277z" fill="#a8121c" stroke="#780000" transform="scale(1.5)"/><path d="M243.532 56.011s-.769 3.384-2.048 4.165c-1.281.781-2.847 2.457-2.847 5.789 0 3.331 1.515 8.528 1.515 8.528s2.715-5.155 7.02-5.05c4.302.104 8.195 1.666 11.014 1.77 2.817.104 9.989 1.718 10.962 2.551.973.833 1.024 1.25 1.024 1.25s-4.866.157-6.403.104c-1.537-.052-3.687.104-5.378 1.354-1.691 1.251-5.276 3.386-6.762 3.541-1.485.157-3.278.052-3.278.052s1.587 2.24 5.021 2.134c3.431-.104 5.174-1.456 6.301-2.603 1.127-1.146 1.946-2.03 3.534-1.927 1.589.105 6.813-1.822 8.094-1.666 1.281.157.154-2.862-1.691-3.801-1.844-.937-2.304-1.716-5.02-2.81-2.715-1.095-4.099-1.72-7.633-2.345-3.536-.623-4.252-.155-5.584-1.77-1.332-1.613-.666-2.447-1.537-3.8-.87-1.354-2.356-2.656-3.022-3.541-.669-.885-3.23-1.977-3.282-1.925z" fill="#a8121c" stroke="#780000" transform="scale(1.5)"/><path d="M248.698 62.937c1.5 1.874 1.124 3.374-1.25 3.374-2.376 0-4.626 3.375-5.375 3.375-.749 0-1-4 .875-6.125s3.75-2.374 3.75-2.374c.375 0 .499-.126 2 1.75z" fill="#500" transform="scale(1.5)"/></g><use transform="matrix(-1 0 0 1 900 0)" width="600" height="400" xlink:href="#g"/></svg>