<?xml version="1.0" encoding="utf-8"?>
<!DOCTYPE svg PUBLIC "-//W3C//DTD SVG 1.1//EN" "http://www.w3.org/Graphics/SVG/1.1/DTD/svg11.dtd">
<svg version="1.1" xmlns="http://www.w3.org/2000/svg" width="797.96" height="530.973" viewBox="0 0 797.96 530.973">
<rect fill="#D4001C" width="797.96" height="530.973"/>
<g fill="#FDDD00"><path d="M184.195,267L193.321,274.138
C207.953,285.581,231.822,310.047,238.336,351.438
L240.057,362.362L248.418,355.05
C262.456,342.773,304.172,310.616,365.175,301.826
C356.383,362.829,324.227,404.544,311.951,418.582
L304.638,426.943L315.562,428.664
C356.954,435.179,381.419,459.047,392.863,473.679
L400,482.805L407.138,473.679
C418.581,459.047,443.046,435.179,484.438,428.664
L495.362,426.943L488.049,418.582
C475.773,404.544,443.617,362.829,434.825,301.826
C495.828,310.616,537.544,342.773,551.582,355.05
L559.943,362.362L561.663,351.438
C568.178,310.047,592.047,285.581,606.678,274.138
L615.805,267L606.678,259.862
C592.047,248.419,568.178,223.954,561.663,182.563
L559.943,171.638L551.582,178.95
C537.544,191.227,495.828,223.384,434.825,232.175
C443.617,171.172,475.773,129.456,488.049,115.419
L495.362,107.057L484.438,105.337
C443.046,98.8213,418.581,74.9531,407.138,60.3213
L400,51.1953L392.863,60.3213
C381.419,74.9531,356.954,98.8213,315.562,105.337
L304.638,107.057L311.951,115.419
C324.227,129.456,356.383,171.172,365.175,232.175
C304.172,223.384,262.456,191.227,248.418,178.95
L240.057,171.638L238.336,182.563
C231.822,223.954,207.953,248.419,193.321,259.862
L184.195,267ZM219.321,267
C247.15,241.202,253.576,212.575,253.576,212.575
C294.202,246.817,357.562,254.535,389.241,256.241
C387.534,224.562,379.817,161.202,345.575,120.575
C345.575,120.575,374.201,114.15,400,86.3203
C425.799,114.15,454.425,120.575,454.425,120.575
C420.183,161.202,412.466,224.562,410.759,256.241
C442.438,254.535,505.798,246.817,546.424,212.575
C546.424,212.575,552.85,241.202,580.679,267
C552.85,292.799,546.424,321.425,546.424,321.425
C505.798,287.183,442.438,279.465,410.759,277.759
C412.466,309.438,420.183,372.798,454.425,413.425
C454.425,413.425,425.799,419.85,400,447.68
C374.201,419.85,345.575,413.425,345.575,413.425
C379.817,372.798,387.534,309.438,389.241,277.759
C357.562,279.465,294.202,287.183,253.576,321.425
C253.576,321.425,247.15,292.799,219.321,267Z"/>
<circle cx="176.775" cy="267" r="18"/>
<circle cx="237.575" cy="164.576" r="18"/>
<circle cx="237.575" cy="369.425" r="18"/>
<circle cx="297.576" cy="104.575" r="18"/>
<circle cx="297.576" cy="429.426" r="18"/>
<circle cx="400" cy="43.7744" r="18"/>
<circle cx="400" cy="490.226" r="18"/>
<circle cx="502.424" cy="104.575" r="18"/>
<circle cx="502.424" cy="429.426" r="18"/>
<circle cx="562.425" cy="164.576" r="18"/>
<circle cx="562.425" cy="369.425" r="18"/>
<circle cx="623.226" cy="267" r="18"/>
<polygon points="695.39,124.132 669.91,150.756 674.648,113.679 638.55,111.065 670.074,91.956 650.472,61.412 
684.611,74.315 695.39,39.035 706.169,74.315 740.308,61.412 720.707,91.956 752.23,111.065 716.132,113.679 720.871,150.756"/></g></svg>
