<?xml version="1.0" encoding="UTF-8" standalone="no"?>
<svg
   xmlns:dc="http://purl.org/dc/elements/1.1/"
   xmlns:cc="http://creativecommons.org/ns#"
   xmlns:rdf="http://www.w3.org/1999/02/22-rdf-syntax-ns#"
   xmlns:svg="http://www.w3.org/2000/svg"
   xmlns="http://www.w3.org/2000/svg"
   xmlns:sodipodi="http://sodipodi.sourceforge.net/DTD/sodipodi-0.dtd"
   xmlns:inkscape="http://www.inkscape.org/namespaces/inkscape"
   width="900"
   height="600"
   id="svg2"
   version="1.1"
   inkscape:version="0.48.2 r9819"
   sodipodi:docname="Pavillon_royal_de_la_France.svg">
  <metadata
     id="metadata26">
    <rdf:RDF>
      <cc:Work
         rdf:about="">
        <dc:format>image/svg+xml</dc:format>
        <dc:type
           rdf:resource="http://purl.org/dc/dcmitype/StillImage" />
      </cc:Work>
    </rdf:RDF>
  </metadata>
  <defs
     id="defs24" />
  <sodipodi:namedview
     pagecolor="#ffffff"
     bordercolor="#666666"
     borderopacity="1"
     objecttolerance="10"
     gridtolerance="10"
     guidetolerance="10"
     inkscape:pageopacity="0"
     inkscape:pageshadow="2"
     inkscape:window-width="1366"
     inkscape:window-height="653"
     id="namedview22"
     showgrid="false"
     inkscape:zoom="0.725"
     inkscape:cx="448.62069"
     inkscape:cy="300"
     inkscape:window-x="0"
     inkscape:window-y="0"
     inkscape:window-maximized="1"
     inkscape:current-layer="svg2" />
  <rect
     width="900"
     height="600"
     fill="#009"
     id="rect4" />
  <g
     id="g8456">
    <g
       transform="translate(-1.359516,0)"
       id="g8430">
      <g
         style="fill:#ffed2a;fill-opacity:1;stroke-width:0.93055069;stroke-miterlimit:4;stroke-dasharray:none;display:inline"
         id="g42469"
         transform="matrix(2.149265,0,0,2.149265,-1220.2811,-524.93237)">
        <g
           style="fill:#ffed2a;fill-opacity:1;stroke-width:0.93055069;stroke-miterlimit:4;stroke-dasharray:none"
           id="g42471">
          <path
             sodipodi:nodetypes="ssssscssssscs"
             inkscape:connector-curvature="0"
             id="path42473"
             d="m 643.76394,389.08739 c -1.29468,-7.11568 4.67341,-8.88102 6.55436,-23.59441 1.3627,-10.65947 -2.57649,-27.12145 -7.61242,-35.04123 -5.03593,-7.91979 -10.60278,-11.20968 -10.79793,-19.26184 -0.1071,-4.41888 1.91465,-8.50949 7.70091,-11.25705 4.39972,-2.08917 11.39383,-4.94682 14.30479,-9.19326 2.91095,4.24644 9.90506,7.10409 14.30478,9.19326 5.78626,2.74756 7.80801,6.83817 7.70092,11.25705 -0.19516,8.05216 -5.762,11.34205 -10.79793,19.26184 -5.03593,7.91978 -8.97512,24.38176 -7.61242,35.04123 1.88094,14.71339 7.84903,16.47873 6.55435,23.59441 -1.06479,5.85216 -6.22914,7.20652 -10.1497,12.65518 -3.92057,-5.44866 -9.08492,-6.80302 -10.14971,-12.65518 z"
             style="fill:#ffed2a;fill-opacity:1;stroke:#b0900c;stroke-width:0.93055069;stroke-linecap:butt;stroke-linejoin:miter;stroke-miterlimit:4;stroke-opacity:1;stroke-dasharray:none" />
          <path
             sodipodi:nodetypes="cc"
             inkscape:connector-curvature="0"
             id="path42477"
             d="m 653.91365,291.04535 0,110.12363"
             style="fill:#ffed2a;fill-opacity:1;stroke:#b0900c;stroke-width:0.93055069;stroke-linecap:butt;stroke-linejoin:miter;stroke-miterlimit:4;stroke-opacity:1;stroke-dasharray:none" />
        </g>
        <g
           style="fill:#ffed2a;fill-opacity:1;stroke-width:0.93055069;stroke-miterlimit:4;stroke-dasharray:none"
           id="g42481"
           transform="matrix(-1,0,0,1,1307.8273,0)">
          <g
             style="fill:#ffed2a;fill-opacity:1;stroke-width:0.93055069;stroke-miterlimit:4;stroke-dasharray:none"
             id="g42483">
            <path
               sodipodi:nodetypes="csssscsssc"
               inkscape:connector-curvature="0"
               id="path42485"
               d="m 626.17665,360.00856 c 0,0 -17.22854,-0.84744 -18.194,-16.67783 -0.53536,-8.77803 7.98172,-17.47832 16.98106,-16.67782 17.03742,1.5155 24.09546,20.25991 22.74249,34.87182 -0.80459,8.6895 -4.62734,24.11188 -14.55519,24.56189 -6.57262,0.29793 -10.21981,-4.61881 -10.0067,-11.82609 1.24126,1.24126 3.82849,5.57642 9.62364,4.62663 3.54387,-0.58082 8.08424,-2.63958 9.48006,-15.54303 0.92707,-8.57017 -2.23825,-18.90823 -9.097,-18.49723 -11.32391,0.67857 -6.97436,15.16166 -6.97436,15.16166 z"
               style="fill:#ffed2a;fill-opacity:1;stroke:#b0900c;stroke-width:0.93055069;stroke-linecap:butt;stroke-linejoin:miter;stroke-miterlimit:4;stroke-opacity:1;stroke-dasharray:none" />
          </g>
        </g>
        <g
           style="fill:#ffed2a;fill-opacity:1;stroke-width:0.93055069;stroke-miterlimit:4;stroke-dasharray:none"
           id="g42491">
          <g
             style="fill:#ffed2a;fill-opacity:1;stroke-width:0.93055069;stroke-miterlimit:4;stroke-dasharray:none"
             id="g42493">
            <path
               style="fill:#ffed2a;fill-opacity:1;stroke:#b0900c;stroke-width:0.93055069;stroke-linecap:butt;stroke-linejoin:miter;stroke-miterlimit:4;stroke-opacity:1;stroke-dasharray:none"
               d="m 626.17665,360.00856 c 0,0 -17.22854,-0.84744 -18.194,-16.67783 -0.53536,-8.77803 7.98172,-17.47832 16.98106,-16.67782 17.03742,1.5155 24.09546,20.25991 22.74249,34.87182 -0.80459,8.6895 -4.62734,24.11188 -14.55519,24.56189 -6.57262,0.29793 -10.21981,-4.61881 -10.0067,-11.82609 1.24126,1.24126 3.82849,5.57642 9.62364,4.62663 3.54387,-0.58082 8.08424,-2.63958 9.48006,-15.54303 0.92707,-8.57017 -2.23825,-18.90823 -9.097,-18.49723 -11.32391,0.67857 -6.97436,15.16166 -6.97436,15.16166 z"
               id="path42495"
               inkscape:connector-curvature="0"
               sodipodi:nodetypes="csssscsssc" />
          </g>
        </g>
        <g
           style="fill:#ffed2a;fill-opacity:1;stroke-width:0.93055069;stroke-miterlimit:4;stroke-dasharray:none"
           id="g42501">
          <path
             sodipodi:nodetypes="ccccccc"
             inkscape:connector-curvature="0"
             id="path42503"
             d="m 636.56803,359.4021 34.69124,0 4,4.24527 -4,4.24527 -34.69124,0 -4,-4.24527 z"
             style="fill:#ffed2a;fill-opacity:1;stroke:#b0900c;stroke-width:0.93055069;stroke-linecap:round;stroke-miterlimit:4;stroke-opacity:1;stroke-dasharray:none;stroke-dashoffset:0" />
        </g>
      </g>
      <g
         transform="matrix(2.149265,0,0,2.149265,-687.86731,-522.17375)"
         id="g8358"
         style="fill:#ffed2a;fill-opacity:1;stroke-width:0.93055069;stroke-miterlimit:4;stroke-dasharray:none;display:inline">
        <g
           id="g8360"
           style="fill:#ffed2a;fill-opacity:1;stroke-width:0.93055069;stroke-miterlimit:4;stroke-dasharray:none">
          <path
             style="fill:#ffed2a;fill-opacity:1;stroke:#b0900c;stroke-width:0.93055069;stroke-linecap:butt;stroke-linejoin:miter;stroke-miterlimit:4;stroke-opacity:1;stroke-dasharray:none"
             d="m 643.76394,389.08739 c -1.29468,-7.11568 4.67341,-8.88102 6.55436,-23.59441 1.3627,-10.65947 -2.57649,-27.12145 -7.61242,-35.04123 -5.03593,-7.91979 -10.60278,-11.20968 -10.79793,-19.26184 -0.1071,-4.41888 1.91465,-8.50949 7.70091,-11.25705 4.39972,-2.08917 11.39383,-4.94682 14.30479,-9.19326 2.91095,4.24644 9.90506,7.10409 14.30478,9.19326 5.78626,2.74756 7.80801,6.83817 7.70092,11.25705 -0.19516,8.05216 -5.762,11.34205 -10.79793,19.26184 -5.03593,7.91978 -8.97512,24.38176 -7.61242,35.04123 1.88094,14.71339 7.84903,16.47873 6.55435,23.59441 -1.06479,5.85216 -6.22914,7.20652 -10.1497,12.65518 -3.92057,-5.44866 -9.08492,-6.80302 -10.14971,-12.65518 z"
             id="path8362"
             inkscape:connector-curvature="0"
             sodipodi:nodetypes="ssssscssssscs" />
          <path
             style="fill:#ffed2a;fill-opacity:1;stroke:#b0900c;stroke-width:0.93055069;stroke-linecap:butt;stroke-linejoin:miter;stroke-miterlimit:4;stroke-opacity:1;stroke-dasharray:none"
             d="m 653.91365,291.04535 0,110.12363"
             id="path8364"
             inkscape:connector-curvature="0"
             sodipodi:nodetypes="cc" />
        </g>
        <g
           transform="matrix(-1,0,0,1,1307.8273,0)"
           id="g8366"
           style="fill:#ffed2a;fill-opacity:1;stroke-width:0.93055069;stroke-miterlimit:4;stroke-dasharray:none">
          <g
             id="g8368"
             style="fill:#ffed2a;fill-opacity:1;stroke-width:0.93055069;stroke-miterlimit:4;stroke-dasharray:none">
            <path
               style="fill:#ffed2a;fill-opacity:1;stroke:#b0900c;stroke-width:0.93055069;stroke-linecap:butt;stroke-linejoin:miter;stroke-miterlimit:4;stroke-opacity:1;stroke-dasharray:none"
               d="m 626.17665,360.00856 c 0,0 -17.22854,-0.84744 -18.194,-16.67783 -0.53536,-8.77803 7.98172,-17.47832 16.98106,-16.67782 17.03742,1.5155 24.09546,20.25991 22.74249,34.87182 -0.80459,8.6895 -4.62734,24.11188 -14.55519,24.56189 -6.57262,0.29793 -10.21981,-4.61881 -10.0067,-11.82609 1.24126,1.24126 3.82849,5.57642 9.62364,4.62663 3.54387,-0.58082 8.08424,-2.63958 9.48006,-15.54303 0.92707,-8.57017 -2.23825,-18.90823 -9.097,-18.49723 -11.32391,0.67857 -6.97436,15.16166 -6.97436,15.16166 z"
               id="path8370"
               inkscape:connector-curvature="0"
               sodipodi:nodetypes="csssscsssc" />
          </g>
        </g>
        <g
           id="g8372"
           style="fill:#ffed2a;fill-opacity:1;stroke-width:0.93055069;stroke-miterlimit:4;stroke-dasharray:none">
          <g
             id="g8374"
             style="fill:#ffed2a;fill-opacity:1;stroke-width:0.93055069;stroke-miterlimit:4;stroke-dasharray:none">
            <path
               sodipodi:nodetypes="csssscsssc"
               inkscape:connector-curvature="0"
               id="path8376"
               d="m 626.17665,360.00856 c 0,0 -17.22854,-0.84744 -18.194,-16.67783 -0.53536,-8.77803 7.98172,-17.47832 16.98106,-16.67782 17.03742,1.5155 24.09546,20.25991 22.74249,34.87182 -0.80459,8.6895 -4.62734,24.11188 -14.55519,24.56189 -6.57262,0.29793 -10.21981,-4.61881 -10.0067,-11.82609 1.24126,1.24126 3.82849,5.57642 9.62364,4.62663 3.54387,-0.58082 8.08424,-2.63958 9.48006,-15.54303 0.92707,-8.57017 -2.23825,-18.90823 -9.097,-18.49723 -11.32391,0.67857 -6.97436,15.16166 -6.97436,15.16166 z"
               style="fill:#ffed2a;fill-opacity:1;stroke:#b0900c;stroke-width:0.93055069;stroke-linecap:butt;stroke-linejoin:miter;stroke-miterlimit:4;stroke-opacity:1;stroke-dasharray:none" />
          </g>
        </g>
        <g
           id="g8378"
           style="fill:#ffed2a;fill-opacity:1;stroke-width:0.93055069;stroke-miterlimit:4;stroke-dasharray:none">
          <path
             style="fill:#ffed2a;fill-opacity:1;stroke:#b0900c;stroke-width:0.93055069;stroke-linecap:round;stroke-miterlimit:4;stroke-opacity:1;stroke-dasharray:none;stroke-dashoffset:0"
             d="m 636.56803,359.4021 34.69124,0 4,4.24527 -4,4.24527 -34.69124,0 -4,-4.24527 z"
             id="path8380"
             inkscape:connector-curvature="0"
             sodipodi:nodetypes="ccccccc" />
        </g>
      </g>
    </g>
    <g
       transform="matrix(2.149265,0,0,2.149265,-955.43372,-347.00134)"
       id="g8382"
       style="fill:#ffed2a;fill-opacity:1;stroke-width:0.93055069;stroke-miterlimit:4;stroke-dasharray:none;display:inline">
      <g
         id="g8384"
         style="fill:#ffed2a;fill-opacity:1;stroke-width:0.93055069;stroke-miterlimit:4;stroke-dasharray:none">
        <path
           style="fill:#ffed2a;fill-opacity:1;stroke:#b0900c;stroke-width:0.93055069;stroke-linecap:butt;stroke-linejoin:miter;stroke-miterlimit:4;stroke-opacity:1;stroke-dasharray:none"
           d="m 643.76394,389.08739 c -1.29468,-7.11568 4.67341,-8.88102 6.55436,-23.59441 1.3627,-10.65947 -2.57649,-27.12145 -7.61242,-35.04123 -5.03593,-7.91979 -10.60278,-11.20968 -10.79793,-19.26184 -0.1071,-4.41888 1.91465,-8.50949 7.70091,-11.25705 4.39972,-2.08917 11.39383,-4.94682 14.30479,-9.19326 2.91095,4.24644 9.90506,7.10409 14.30478,9.19326 5.78626,2.74756 7.80801,6.83817 7.70092,11.25705 -0.19516,8.05216 -5.762,11.34205 -10.79793,19.26184 -5.03593,7.91978 -8.97512,24.38176 -7.61242,35.04123 1.88094,14.71339 7.84903,16.47873 6.55435,23.59441 -1.06479,5.85216 -6.22914,7.20652 -10.1497,12.65518 -3.92057,-5.44866 -9.08492,-6.80302 -10.14971,-12.65518 z"
           id="path8386"
           inkscape:connector-curvature="0"
           sodipodi:nodetypes="ssssscssssscs" />
        <path
           style="fill:#ffed2a;fill-opacity:1;stroke:#b0900c;stroke-width:0.93055069;stroke-linecap:butt;stroke-linejoin:miter;stroke-miterlimit:4;stroke-opacity:1;stroke-dasharray:none"
           d="m 653.91365,291.04535 0,110.12363"
           id="path8388"
           inkscape:connector-curvature="0"
           sodipodi:nodetypes="cc" />
      </g>
      <g
         transform="matrix(-1,0,0,1,1307.8273,0)"
         id="g8390"
         style="fill:#ffed2a;fill-opacity:1;stroke-width:0.93055069;stroke-miterlimit:4;stroke-dasharray:none">
        <g
           id="g8392"
           style="fill:#ffed2a;fill-opacity:1;stroke-width:0.93055069;stroke-miterlimit:4;stroke-dasharray:none">
          <path
             style="fill:#ffed2a;fill-opacity:1;stroke:#b0900c;stroke-width:0.93055069;stroke-linecap:butt;stroke-linejoin:miter;stroke-miterlimit:4;stroke-opacity:1;stroke-dasharray:none"
             d="m 626.17665,360.00856 c 0,0 -17.22854,-0.84744 -18.194,-16.67783 -0.53536,-8.77803 7.98172,-17.47832 16.98106,-16.67782 17.03742,1.5155 24.09546,20.25991 22.74249,34.87182 -0.80459,8.6895 -4.62734,24.11188 -14.55519,24.56189 -6.57262,0.29793 -10.21981,-4.61881 -10.0067,-11.82609 1.24126,1.24126 3.82849,5.57642 9.62364,4.62663 3.54387,-0.58082 8.08424,-2.63958 9.48006,-15.54303 0.92707,-8.57017 -2.23825,-18.90823 -9.097,-18.49723 -11.32391,0.67857 -6.97436,15.16166 -6.97436,15.16166 z"
             id="path8394"
             inkscape:connector-curvature="0"
             sodipodi:nodetypes="csssscsssc" />
        </g>
      </g>
      <g
         id="g8396"
         style="fill:#ffed2a;fill-opacity:1;stroke-width:0.93055069;stroke-miterlimit:4;stroke-dasharray:none">
        <g
           id="g8398"
           style="fill:#ffed2a;fill-opacity:1;stroke-width:0.93055069;stroke-miterlimit:4;stroke-dasharray:none">
          <path
             sodipodi:nodetypes="csssscsssc"
             inkscape:connector-curvature="0"
             id="path8400"
             d="m 626.17665,360.00856 c 0,0 -17.22854,-0.84744 -18.194,-16.67783 -0.53536,-8.77803 7.98172,-17.47832 16.98106,-16.67782 17.03742,1.5155 24.09546,20.25991 22.74249,34.87182 -0.80459,8.6895 -4.62734,24.11188 -14.55519,24.56189 -6.57262,0.29793 -10.21981,-4.61881 -10.0067,-11.82609 1.24126,1.24126 3.82849,5.57642 9.62364,4.62663 3.54387,-0.58082 8.08424,-2.63958 9.48006,-15.54303 0.92707,-8.57017 -2.23825,-18.90823 -9.097,-18.49723 -11.32391,0.67857 -6.97436,15.16166 -6.97436,15.16166 z"
             style="fill:#ffed2a;fill-opacity:1;stroke:#b0900c;stroke-width:0.93055069;stroke-linecap:butt;stroke-linejoin:miter;stroke-miterlimit:4;stroke-opacity:1;stroke-dasharray:none" />
        </g>
      </g>
      <g
         id="g8402"
         style="fill:#ffed2a;fill-opacity:1;stroke-width:0.93055069;stroke-miterlimit:4;stroke-dasharray:none">
        <path
           style="fill:#ffed2a;fill-opacity:1;stroke:#b0900c;stroke-width:0.93055069;stroke-linecap:round;stroke-miterlimit:4;stroke-opacity:1;stroke-dasharray:none;stroke-dashoffset:0"
           d="m 636.56803,359.4021 34.69124,0 4,4.24527 -4,4.24527 -34.69124,0 -4,-4.24527 z"
           id="path8404"
           inkscape:connector-curvature="0"
           sodipodi:nodetypes="ccccccc" />
      </g>
    </g>
  </g>
</svg>
