<?xml version="1.0" encoding="UTF-8" standalone="no"?>
<!-- Generator: Adobe Illustrator 12.0.0, SVG Export Plug-In  -->
<svg
   xmlns:dc="http://purl.org/dc/elements/1.1/"
   xmlns:cc="http://web.resource.org/cc/"
   xmlns:rdf="http://www.w3.org/1999/02/22-rdf-syntax-ns#"
   xmlns:svg="http://www.w3.org/2000/svg"
   xmlns="http://www.w3.org/2000/svg"
   xmlns:sodipodi="http://sodipodi.sourceforge.net/DTD/sodipodi-0.dtd"
   xmlns:inkscape="http://www.inkscape.org/namespaces/inkscape"
   version="1.0"
   width="900"
   height="600"
   viewBox="0 0 325 217"
   enable-background="new 0 0 325 217"
   xml:space="preserve"
   id="svg2"
   sodipodi:version="0.32"
   inkscape:version="0.44+devel"
   sodipodi:docname="Flag_of_Liguria_(regione).svg"
   inkscape:output_extension="org.inkscape.output.svg.inkscape"
   sodipodi:docbase="C:\Documents and Settings\Flanker\Desktop"
   sodipodi:modified="true"><metadata
   id="metadata9"><rdf:RDF><cc:Work
       rdf:about=""><dc:format>image/svg+xml</dc:format><dc:type
         rdf:resource="http://purl.org/dc/dcmitype/StillImage" /></cc:Work></rdf:RDF></metadata><sodipodi:namedview
   inkscape:window-height="1003"
   inkscape:window-width="1280"
   inkscape:pageshadow="2"
   inkscape:pageopacity="0.0"
   guidetolerance="10.0"
   gridtolerance="10.0"
   objecttolerance="10.0"
   borderopacity="1.0"
   bordercolor="#666666"
   pagecolor="#ffffff"
   id="base"
   inkscape:zoom="0.66388889"
   inkscape:cx="305.73314"
   inkscape:cy="327.35195"
   inkscape:window-x="-4"
   inkscape:window-y="-4"
   inkscape:current-layer="svg2" />
<defs
   id="defs4" />

<g
   id="g1897"
   transform="translate(-0.25,-383)"><rect
     y="383"
     x="1.9054853e-017"
     height="217"
     width="325.5"
     id="rect8128"
     style="fill:red;fill-opacity:1;fill-rule:evenodd;stroke:none;stroke-width:2;stroke-linecap:round;stroke-linejoin:miter;stroke-miterlimit:4;stroke-dasharray:none;stroke-opacity:1" /><rect
     style="fill:#009c31;fill-opacity:1;fill-rule:evenodd;stroke:none;stroke-width:2;stroke-linecap:round;stroke-linejoin:miter;stroke-miterlimit:4;stroke-dasharray:none;stroke-opacity:1"
     id="rect8130"
     width="108.5"
     height="217"
     x="1.9054853e-017"
     y="383" /><rect
     style="fill:#009cce;fill-opacity:1;fill-rule:evenodd;stroke:none;stroke-width:2;stroke-linecap:round;stroke-linejoin:miter;stroke-miterlimit:4;stroke-dasharray:none;stroke-opacity:1"
     id="rect8132"
     width="108.5"
     height="217"
     x="217"
     y="383" /><g
     transform="matrix(0.998433,0,0,0.998433,1.440747,383.1678)"
     id="g8145"><rect
       style="fill:#b5cece;fill-opacity:1;fill-rule:evenodd;stroke:none;stroke-width:2;stroke-linecap:round;stroke-linejoin:miter;stroke-miterlimit:4;stroke-dasharray:none;stroke-opacity:1"
       id="rect3657"
       width="2"
       height="48.350132"
       x="161.09517"
       y="114.83156" /><path
       style="fill:#bdbdbd;fill-opacity:1;fill-rule:evenodd;stroke:#6b6b6b;stroke-width:2;stroke-linecap:butt;stroke-linejoin:miter;stroke-miterlimit:4;stroke-dasharray:none;stroke-opacity:1"
       d="M 106.34375,123.46875 C 106.26712,124.6603 106.1875,125.8517 106.1875,127.0625 C 106.1875,157.64397 131.01228,182.46875 161.59375,182.46875 C 191.36651,182.46875 215.67249,158.93186 216.9375,129.46875 L 202,128.65625 C 202.02044,129.12915 202.03125,129.61584 202.03125,130.09375 C 202.03126,148.04546 187.45171,162.59375 169.5,162.59375 C 151.54828,162.59376 137,148.04546 137,130.09375 C 137,128.42137 137.13116,126.76088 137.375,125.15625 L 106.34375,123.46875 z "
       id="path1873" /><path
       style="fill:white;fill-opacity:1;fill-rule:evenodd;stroke:none;stroke-width:2;stroke-linecap:butt;stroke-linejoin:miter;stroke-miterlimit:4;stroke-dasharray:none;stroke-opacity:1"
       d="M 107.49271,120.29973 L 216.5683,120.29973 L 216.5683,55.257294 C 216.5683,41.855341 197.21657,34.535809 162.6061,34.535809 C 122.95769,34.535809 107.49271,44.852566 107.49271,55.257294 L 107.49271,120.29973 z "
       id="path4544"
       sodipodi:nodetypes="cccscc" /><path
       style="fill:red;fill-opacity:1;fill-rule:evenodd;stroke:none;stroke-width:2;stroke-linecap:round;stroke-linejoin:miter;stroke-miterlimit:4;stroke-dasharray:none;stroke-opacity:1"
       d="M 107.5,77 L 107.5,82.875 L 216.5625,82.875 L 216.5625,77 L 107.5,77 z "
       id="rect4548" /><path
       sodipodi:type="star"
       style="fill:#bdbdbd;fill-opacity:1;fill-rule:evenodd;stroke:none;stroke-width:2;stroke-linecap:round;stroke-linejoin:miter;stroke-miterlimit:4;stroke-dasharray:none;stroke-opacity:1"
       id="path4552"
       sodipodi:sides="6"
       sodipodi:cx="125.9118"
       sodipodi:cy="53.9622"
       sodipodi:r1="11.136162"
       sodipodi:r2="5.5680809"
       sodipodi:arg1="0.52359878"
       sodipodi:arg2="1.068656"
       inkscape:flatsided="false"
       inkscape:rounded="0.05"
       inkscape:randomized="0"
       d="M 135.556,59.530281 C 135.37458,59.829484 128.89476,58.667973 128.59173,58.842926 C 128.29705,59.01306 126.25198,65.105664 125.9118,65.098362 C 125.56197,65.090853 123.32796,58.898405 123.02493,58.723453 C 122.73025,58.55332 116.43137,59.828544 116.2676,59.530281 C 116.09919,59.22357 120.345,54.192632 120.345,53.842727 C 120.345,53.50246 116.09118,48.68508 116.2676,48.394119 C 116.44901,48.094917 122.92884,49.256427 123.23186,49.081474 C 123.52654,48.911341 125.57161,42.818737 125.9118,42.826038 C 126.26162,42.833547 128.49564,49.025995 128.79866,49.200947 C 129.09334,49.37108 135.39223,48.095857 135.556,48.394119 C 135.72441,48.700831 131.4786,53.731768 131.4786,54.081673 C 131.4786,54.42194 135.73241,59.23932 135.556,59.530281 z "
       transform="translate(8.346154,4.748674)" /><path
       transform="translate(64.03515,4.748674)"
       d="M 135.556,59.530281 C 135.37458,59.829484 128.89476,58.667973 128.59173,58.842926 C 128.29705,59.01306 126.25198,65.105664 125.9118,65.098362 C 125.56197,65.090853 123.32796,58.898405 123.02493,58.723453 C 122.73025,58.55332 116.43137,59.828544 116.2676,59.530281 C 116.09919,59.22357 120.345,54.192632 120.345,53.842727 C 120.345,53.50246 116.09118,48.68508 116.2676,48.394119 C 116.44901,48.094917 122.92884,49.256427 123.23186,49.081474 C 123.52654,48.911341 125.57161,42.818737 125.9118,42.826038 C 126.26162,42.833547 128.49564,49.025995 128.79866,49.200947 C 129.09334,49.37108 135.39223,48.095857 135.556,48.394119 C 135.72441,48.700831 131.4786,53.731768 131.4786,54.081673 C 131.4786,54.42194 135.73241,59.23932 135.556,59.530281 z "
       inkscape:randomized="0"
       inkscape:rounded="0.05"
       inkscape:flatsided="false"
       sodipodi:arg2="1.068656"
       sodipodi:arg1="0.52359878"
       sodipodi:r2="5.5680809"
       sodipodi:r1="11.136162"
       sodipodi:cy="53.9622"
       sodipodi:cx="125.9118"
       sodipodi:sides="6"
       id="path4554"
       style="fill:#bdbdbd;fill-opacity:1;fill-rule:evenodd;stroke:none;stroke-width:2;stroke-linecap:round;stroke-linejoin:miter;stroke-miterlimit:4;stroke-dasharray:none;stroke-opacity:1"
       sodipodi:type="star" /><path
       sodipodi:type="star"
       style="fill:#bdbdbd;fill-opacity:1;fill-rule:evenodd;stroke:none;stroke-width:2;stroke-linecap:round;stroke-linejoin:miter;stroke-miterlimit:4;stroke-dasharray:none;stroke-opacity:1"
       id="path4556"
       sodipodi:sides="6"
       sodipodi:cx="125.9118"
       sodipodi:cy="53.9622"
       sodipodi:r1="11.136162"
       sodipodi:r2="5.5680809"
       sodipodi:arg1="0.52359878"
       sodipodi:arg2="1.068656"
       inkscape:flatsided="false"
       inkscape:rounded="0.05"
       inkscape:randomized="0"
       d="M 135.556,59.530281 C 135.37458,59.829484 128.89476,58.667973 128.59173,58.842926 C 128.29705,59.01306 126.25198,65.105664 125.9118,65.098362 C 125.56197,65.090853 123.32796,58.898405 123.02493,58.723453 C 122.73025,58.55332 116.43137,59.828544 116.2676,59.530281 C 116.09919,59.22357 120.345,54.192632 120.345,53.842727 C 120.345,53.50246 116.09118,48.68508 116.2676,48.394119 C 116.44901,48.094917 122.92884,49.256427 123.23186,49.081474 C 123.52654,48.911341 125.57161,42.818737 125.9118,42.826038 C 126.26162,42.833547 128.49564,49.025995 128.79866,49.200947 C 129.09334,49.37108 135.39223,48.095857 135.556,48.394119 C 135.72441,48.700831 131.4786,53.731768 131.4786,54.081673 C 131.4786,54.42194 135.73241,59.23932 135.556,59.530281 z "
       transform="translate(64.03515,47.77454)" /><path
       transform="translate(8.346154,47.77454)"
       d="M 135.556,59.530281 C 135.37458,59.829484 128.89476,58.667973 128.59173,58.842926 C 128.29705,59.01306 126.25198,65.105664 125.9118,65.098362 C 125.56197,65.090853 123.32796,58.898405 123.02493,58.723453 C 122.73025,58.55332 116.43137,59.828544 116.2676,59.530281 C 116.09919,59.22357 120.345,54.192632 120.345,53.842727 C 120.345,53.50246 116.09118,48.68508 116.2676,48.394119 C 116.44901,48.094917 122.92884,49.256427 123.23186,49.081474 C 123.52654,48.911341 125.57161,42.818737 125.9118,42.826038 C 126.26162,42.833547 128.49564,49.025995 128.79866,49.200947 C 129.09334,49.37108 135.39223,48.095857 135.556,48.394119 C 135.72441,48.700831 131.4786,53.731768 131.4786,54.081673 C 131.4786,54.42194 135.73241,59.23932 135.556,59.530281 z "
       inkscape:randomized="0"
       inkscape:rounded="0.05"
       inkscape:flatsided="false"
       sodipodi:arg2="1.068656"
       sodipodi:arg1="0.52359878"
       sodipodi:r2="5.5680809"
       sodipodi:r1="11.136162"
       sodipodi:cy="53.9622"
       sodipodi:cx="125.9118"
       sodipodi:sides="6"
       id="path4558"
       style="fill:#bdbdbd;fill-opacity:1;fill-rule:evenodd;stroke:none;stroke-width:2;stroke-linecap:round;stroke-linejoin:miter;stroke-miterlimit:4;stroke-dasharray:none;stroke-opacity:1"
       sodipodi:type="star" /><path
       style="fill:red;fill-opacity:1;fill-rule:evenodd;stroke:none;stroke-width:2;stroke-linecap:butt;stroke-linejoin:miter;stroke-miterlimit:4;stroke-dasharray:none;stroke-opacity:1"
       d="M 162.59375,34.53125 C 161.41882,34.53125 160.28893,34.544647 159.15625,34.5625 L 159.15625,120.3125 L 165.0625,120.3125 L 165.0625,34.5625 C 164.23483,34.553772 163.43971,34.53125 162.59375,34.53125 z "
       id="path5452" /><path
       sodipodi:nodetypes="cccscc"
       id="path6340"
       d="M 107.49271,120.29973 L 216.5683,120.29973 L 216.5683,55.257294 C 216.5683,41.855341 197.21657,34.535809 162.6061,34.535809 C 122.95769,34.535809 107.49271,44.852566 107.49271,55.257294 L 107.49271,120.29973 z "
       style="fill:none;fill-opacity:1;fill-rule:evenodd;stroke:#b5cece;stroke-width:2;stroke-linecap:butt;stroke-linejoin:miter;stroke-miterlimit:4;stroke-dasharray:none;stroke-opacity:1" /></g></g></svg>