<?xml version="1.0" encoding="utf-8"?>
<!-- Generator: Adobe Illustrator 23.0.1, SVG Export Plug-In . SVG Version: 6.00 Build 0)  -->
<svg version="1.1"
	 id="svg2" xmlns:cc="http://web.resource.org/cc/" xmlns:dc="http://purl.org/dc/elements/1.1/" xmlns:inkscape="http://www.inkscape.org/namespaces/inkscape" xmlns:rdf="http://www.w3.org/1999/02/22-rdf-syntax-ns#" xmlns:sodipodi="http://sodipodi.sourceforge.net/DTD/sodipodi-0.dtd" xmlns:svg="http://www.w3.org/2000/svg"
	 xmlns="http://www.w3.org/2000/svg" xmlns:xlink="http://www.w3.org/1999/xlink" x="0px" y="0px" width="600px" height="400px"
	 viewBox="0 0 600 400" enable-background="new 0 0 600 400" xml:space="preserve">
<rect id="rect2194" x="0.3" y="0.3" fill="#00943A" stroke="#395475" stroke-width="0.6" stroke-linecap="round" width="599.4" height="399.4"/>
<g>
	<polygon fill="#FFFFFF" points="219.726,79.175 219.739,320.83 380.237,320.83 380.274,79.175 	"/>
	<rect x="222.226" y="118.484" fill="#A2A4A3" width="23.71" height="52.564"/>
	<rect x="222.266" y="228.923" fill="#A2A4A3" width="23.67" height="52.591"/>
	<polygon fill="#A2A4A3" points="245.936,173.675 252.562,193.288 250.272,195.577 250.272,204.294 252.513,206.472 
		245.936,226.275 222.226,226.275 222.226,173.675 	"/>
	<polygon fill="#A2A4A3" points="250.272,81.671 250.272,93.872 252.513,96.051 245.936,115.854 222.226,115.854 222.226,81.675 	
		"/>
	<polygon fill="#A2A4A3" points="289.444,93.872 289.444,81.671 271.003,81.671 271.003,93.872 268.763,96.051 275.341,115.854 
		285.107,115.854 291.685,96.051 	"/>
	<polygon fill="#A2A4A3" points="328.96,93.872 328.96,81.671 310.519,81.671 310.519,93.872 308.279,96.051 314.857,115.854 
		324.624,115.854 331.201,96.051 	"/>
	<polygon fill="#A2A4A3" points="349.727,81.671 349.727,93.872 347.485,96.051 354.063,115.854 377.774,115.854 377.774,81.675 	
		"/>
	<polygon fill="#A2A4A3" points="245.935,284.142 222.239,284.142 222.239,318.329 253.033,318.329 253.033,305.721 	"/>
	<rect x="274.955" y="118.484" fill="#A2A4A3" width="10.528" height="52.564"/>
	<rect x="275.009" y="228.957" fill="#A2A4A3" width="10.475" height="52.558"/>
	<polygon fill="#A2A4A3" points="274.956,226.296 268.367,206.475 271.003,204.171 271.003,195.453 268.367,193.271 
		275.008,173.675 280.252,173.675 285.317,173.675 292.078,193.395 289.444,195.577 289.444,204.294 292.078,206.598 
		285.493,226.296 280.252,226.275 	"/>
	<polygon fill="#A2A4A3" points="275.008,284.142 285.484,284.142 292.078,305.721 292.078,318.329 268.369,318.329 
		268.369,305.721 	"/>
	<rect x="314.556" y="118.484" fill="#A2A4A3" width="10.452" height="52.552"/>
	<rect x="314.472" y="228.923" fill="#A2A4A3" width="10.562" height="52.591"/>
	<polygon fill="#A2A4A3" points="314.472,226.296 307.883,206.598 310.519,204.276 310.519,195.577 307.883,193.383 
		314.556,173.675 319.791,173.675 325.033,173.675 331.673,193.383 329.037,195.577 329.037,204.276 331.673,206.598 
		325.033,226.275 319.791,226.275 	"/>
	<polygon fill="#A2A4A3" points="314.556,284.142 325.033,284.142 332.132,305.709 332.132,318.329 307.885,318.329 
		307.885,305.709 	"/>
	<rect x="248.611" y="118.484" fill="#C4262E" width="23.71" height="52.564"/>
	<rect x="248.611" y="228.923" fill="#C4262E" width="23.71" height="52.591"/>
	<polygon fill="#C4262E" points="248.611,173.675 255.196,193.825 252.562,196.298 252.562,203.577 255.196,205.976 
		248.611,226.275 272.32,226.275 265.595,205.894 268.367,203.454 268.367,196.175 265.735,193.726 272.32,173.675 	"/>
	<polygon fill="#C4262E" points="272.32,284.142 265.735,305.709 265.735,318.329 255.196,318.329 255.196,305.721 248.611,284.142 
			"/>
	<rect x="288.127" y="118.484" fill="#C4262E" width="23.71" height="52.564"/>
	<rect x="288.127" y="228.923" fill="#C4262E" width="23.71" height="52.591"/>
	<polygon fill="#C4262E" points="288.127,173.675 294.712,193.825 292.078,196.298 292.078,203.577 294.712,205.976 
		288.127,226.275 311.836,226.275 305.251,206.017 307.883,203.577 307.883,196.298 305.251,193.849 311.836,173.675 	"/>
	<polygon fill="#C4262E" points="311.836,284.142 305.251,305.709 305.251,318.329 294.712,318.329 294.712,305.721 
		288.127,284.142 	"/>
	<rect x="327.721" y="118.484" fill="#C4262E" width="23.71" height="52.564"/>
	<rect x="327.722" y="228.923" fill="#C4262E" width="23.71" height="52.591"/>
	<polygon fill="#C4262E" points="327.721,173.675 334.308,193.825 331.673,196.298 331.673,203.577 334.308,205.976 
		327.721,226.275 351.431,226.275 344.844,206.017 347.479,203.577 347.479,196.298 344.844,193.849 351.431,173.675 	"/>
	<polygon fill="#C4262E" points="351.431,284.142 344.844,305.709 344.844,318.329 334.308,318.329 334.308,305.721 
		327.721,284.142 	"/>
	<polygon fill="#C4262E" points="252.562,81.675 252.562,92.419 255.196,94.818 248.608,115.855 272.318,115.855 265.735,94.818 
		268.507,92.378 268.507,81.675 	"/>
	<polygon fill="#C4262E" points="292.076,81.671 292.076,92.415 294.71,94.814 288.121,115.851 311.831,115.851 305.248,94.814 
		308.021,92.374 308.021,81.671 	"/>
	<polygon fill="#C4262E" points="331.673,81.675 331.673,92.419 334.308,94.818 327.72,115.855 351.43,115.855 344.844,94.818 
		347.618,92.378 347.618,81.675 	"/>
	<rect x="354.065" y="228.923" fill="#A2A4A3" width="23.7" height="52.591"/>
	<rect x="354.065" y="118.479" fill="#A2A4A3" width="23.699" height="52.561"/>
	<polygon fill="#A2A4A3" points="354.119,226.296 347.479,206.622 350.113,204.315 350.113,195.604 347.479,193.419 
		354.119,173.705 377.764,173.705 377.764,226.296 	"/>
	<polygon fill="#A2A4A3" points="354.119,284.142 377.737,284.142 377.737,318.329 347.479,318.329 347.479,305.721 	"/>
</g>
</svg>
