<?xml version="1.0" encoding="UTF-8" standalone="no"?>
<!-- Created with Inkscape (http://www.inkscape.org/) -->

<svg
   xmlns:dc="http://purl.org/dc/elements/1.1/"
   xmlns:cc="http://creativecommons.org/ns#"
   xmlns:rdf="http://www.w3.org/1999/02/22-rdf-syntax-ns#"
   xmlns:svg="http://www.w3.org/2000/svg"
   xmlns="http://www.w3.org/2000/svg"
   xmlns:sodipodi="http://sodipodi.sourceforge.net/DTD/sodipodi-0.dtd"
   xmlns:inkscape="http://www.inkscape.org/namespaces/inkscape"
   version="1.0"
   width="900"
   height="600"
   id="svg5632"
   inkscape:version="0.47 r22583"
   sodipodi:docname="Moravia.svg">
  <metadata
     id="metadata93">
    <rdf:RDF>
      <cc:Work
         rdf:about="">
        <dc:format>image/svg+xml</dc:format>
        <dc:type
           rdf:resource="http://purl.org/dc/dcmitype/StillImage" />
        <dc:title></dc:title>
      </cc:Work>
    </rdf:RDF>
  </metadata>
  <sodipodi:namedview
     pagecolor="#ffffff"
     bordercolor="#666666"
     borderopacity="1"
     objecttolerance="10"
     gridtolerance="10"
     guidetolerance="10"
     inkscape:pageopacity="0"
     inkscape:pageshadow="2"
     inkscape:window-width="1280"
     inkscape:window-height="727"
     id="namedview91"
     showgrid="false"
     inkscape:zoom="0.35355339"
     inkscape:cx="88.672021"
     inkscape:cy="482.97928"
     inkscape:window-x="0"
     inkscape:window-y="24"
     inkscape:window-maximized="1"
     inkscape:current-layer="svg5632" />
  <defs
     id="defs5635">
    <inkscape:perspective
       sodipodi:type="inkscape:persp3d"
       inkscape:vp_x="0 : 300 : 1"
       inkscape:vp_y="0 : 1000 : 0"
       inkscape:vp_z="490.58826 : 300 : 1"
       inkscape:persp3d-origin="245.29413 : 200 : 1"
       id="perspective95" />
    <style
       type="text/css"
       id="style3310" />
    <style
       type="text/css"
       id="style6" />
    <inkscape:perspective
       id="perspective3743"
       inkscape:persp3d-origin="0.5 : 0.33333333 : 1"
       inkscape:vp_z="1 : 0.5 : 1"
       inkscape:vp_y="0 : 1000 : 0"
       inkscape:vp_x="0 : 0.5 : 1"
       sodipodi:type="inkscape:persp3d" />
  </defs>
  <g
     transform="matrix(0.035922,0,0,0.035922,9.11707,209.924)"
     id="Layer 2" />
  <g
     transform="matrix(0.035922,0,0,0.035922,216.157,241.756)"
     id="g3314"
     style="fill-rule:evenodd" />
  <rect
     style="fill:#0c5391;fill-opacity:1;stroke:none"
     id="rect2901"
     width="900"
     height="600"
     x="0"
     y="0" />
  <g
     transform="matrix(1.701882,0,0,1.701882,183.81916,-5.9602732)"
     id="g2432">
    <path
       d="m 13.876407,14.419686 297.362613,0 0,210.595204 c -0.65929,13.55946 -5.22759,33.38073 -13.46935,52.02498 -9.08948,20.48041 -21.80537,39.59548 -31.55413,48.77635 -19.59187,18.40884 -48.83837,46.98728 -103.6578,52.82535 l 0,0.0471 C 107.73826,372.85059 78.4447,344.27215 58.852857,325.86331 49.104034,316.68243 36.388183,297.52028 27.345792,277.03987 19.056945,258.39562 14.48865,238.57435 13.876407,225.01489 l 0,-210.595204 z"
       id="path10"
       style="fill:none;stroke:none" />
    <g
       transform="matrix(0.0438175,0,0,0.0437708,-157.864,98.5508)"
       id="g95">
      <path
         d="m 4768,-1653 -24,-19 120,-77 299,173 221,115 368,-61 205,-45 227,100 92,148 -36,223 -227,397 -9,227 49,264 -78,-34 -95,-103 -63,-156 -108,266 31,283 93,170 186,114 216,-6 191,-46 134,88 103,113 212,-192 -93,-44 -139,-126 -87,-10 -88,36 10,-72 78,-85 164,5 214,93 90,5 124,-108 67,-160 -44,-134 -46,-44 149,-72 72,-90 36,-116 -28,-118 -147,-85 -160,-41 -87,-57 -81,-85 57,-24 39,-57 -3,-69 -72,-63 -30,0 0,-33 787,0 221,238 128,137 164,48 -56,48 -78,9 -108,-25 -101,-45 146,219 -7,207 -171,523 -38,178 109,176 144,-128 172,-16 313,52 180,-48 112,-120 60,-157 11,-223 -72,-297 -72,-95 -72,204 -94,91 -74,43 36,-127 12,-230 -36,-164 -231,-363 -36,-140 42,-125 122,-105 160,-29 354,62 180,56 132,-16 154,-89 170,-121 121,-36 125,39 -112,49 -180,203 -108,99 -102,52 276,161 239,226 183,75 125,-19 -16,154 -86,131 -127,65 -141,0 -194,-88 -193,-121 256,357 196,187 131,72 144,-23 10,134 -132,172 -121,29 -196,-74 -207,-171 41,138 269,412 131,133 92,23 127,-33 -23,196 -72,119 -130,80 -130,-11 -90,-40 -325,-321 131,281 384,517 104,64 145,-12 -48,165 -109,104 -204,48 -184,-73 -267,-310 -295,-451 196,454 340,542 243,252 162,75 181,-15 -115,213 -183,106 -132,12 -151,-48 -276,-202 -331,-475 -465,-937 -1,160 108,478 90,307 100,234 162,203 -185,59 -230,-41 -180,-162 -140,-235 -126,-388 -54,-266 -235,826 215,228 274,199 189,45 253,0 -178,144 -270,96 63,184 -9,309 -112,337 -90,-207 -159,-220 -171,-186 -28,228 -135,355 -84,292 30,192 192,159 190,-18 93,-93 21,-84 -66,-141 177,6 148,132 9,141 -96,151 78,3 180,-82 259,-174 285,-78 289,33 192,93 196,205 48,234 -27,277 -24,-69 -72,-145 -139,-96 -210,-3 -220,99 -279,244 -223,150 -207,60 -274,-3 -228,-90 -205,-156 -198,-202 6,142 90,198 111,162 -223,-25 -37,24 -55,128 -73,-91 -23,-55 -227,-4 114,-113 71,-130 53,-142 -16,-121 -182,282 -150,152 -239,82 -240,23 -141,-26 -164,-66 -278,-219 -219,-174 -226,-105 -201,-12 -120,51 -73,81 -18,100 9,174 -90,-162 -27,-169 33,-174 87,-172 163,-150 219,-102 199,-15 265,58 529,269 -44,-185 36,-149 140,-86 173,-17 -46,154 55,146 169,82 160,-14 120,-81 42,-174 -39,-295 -180,-385 -114,-272 -252,270 -87,119 -101,184 -83,-389 7,-235 62,-252 -174,-30 -176,-96 -40,-58 298,4 215,-123 c 11,-5 27,-18 37,-25 l 200,-213 49,-187 -26,-206 -213,-567 -56,334 -98,338 -128,213 -151,118 -151,65 -121,16 -141,-9 66,-105 82,-154 147,-567 56,-276 33,-311 -266,649 -236,505 -252,318 -226,134 -217,46 -177,-33 -160,-121 -57,-92 -14,-70 186,28 214,-132 274,-308 155,-254 200,-366 158,-397 -95,95 -302,428 -216,234 -203,131 -208,32 -158,-72 -40,-81 -27,-190 101,49 98,-38 187,-156 253,-342 252,-402 -245,231 -207,159 -245,42 -124,-99 -56,-152 -3,-142 79,61 122,-44 169,-155 259,-311 68,-120 -12,-21 -276,169 -160,40 -153,-68 -68,-100 -20,-109 16,-104 92,36 181,-68 164,-164 305,-425 -101,60 -256,160 -164,32 -101,-20 -112,-80 -48,-136 8,-100 160,24 193,-112 228,-217 221,-180 -89,-32 -136,-180 -40,-77 -96,-58 -88,-35 z"
         id="path97"
         style="fill:#ffffff" />
      <path
         d="m 4881,1282 265,-381 0,675 -618,0 150,-67 203,-227 z"
         id="path99"
         style="fill:#ba2b1a" />
      <path
         d="m 4563,-471 -114,-100 535,0 -138,79 -171,36 -112,-15 z"
         id="path101"
         style="fill:#ba2b1a" />
      <path
         d="m 7980,-803 0,-109 40,31 134,38 -27,38 -49,23 -98,-21 z"
         id="path103"
         style="fill:#ba2b1a" />
      <path
         d="m 7371,-571 627,0 -48,228 -135,385 -34,127 -476,0 0,-625 66,-115 z"
         id="path105"
         style="fill:#ba2b1a" />
      <path
         d="m 7305,-793 0,-478 -432,0 0,40 79,39 24,53 -10,55 -53,56 -38,15 115,107 131,55 184,58 z"
         id="path107"
         style="fill:#ba2b1a" />
      <path
         d="m 8226,-1195 0,-79 485,0 0,703 -194,0 -8,-113 -67,-153 -105,-150 -111,-208 z"
         id="path109"
         style="fill:#ba2b1a" />
      <path
         d="m 9363,-1274 -652,0 0,-232 220,48 155,45 169,-25 169,-138 0,253 -61,49 z"
         id="path111"
         style="fill:#ba2b1a" />
      <path
         d="m 9516,-1096 -92,-63 0,552 56,36 572,0 55,-141 -12,-88 -113,28 -168,-60 -298,-264 z"
         id="path113"
         style="fill:#ba2b1a" />
      <path
         d="m 8829,-345 -82,-226 643,0 34,44 0,696 -626,0 59,-211 -28,-303 z"
         id="path115"
         style="fill:#ba2b1a" />
      <path
         d="m 9683,234 -97,-65 444,0 -75,79 -108,31 -164,-45 z"
         id="path117"
         style="fill:#ba2b1a" />
      <path
         d="m 9479,169 -55,0 0,686 650,0 23,-123 -27,-32 -95,39 -124,-30 -161,-193 -180,-269 -31,-78 z"
         id="path119"
         style="fill:#ba2b1a" />
      <path
         d="m 9424,1718 0,-142 639,0 3,102 -136,169 -187,58 -178,-58 -141,-129 z"
         id="path121"
         style="fill:#ba2b1a" />
      <path
         d="m 8849,855 515,0 60,115 0,606 -110,0 -249,-379 -216,-342 z"
         id="path123"
         style="fill:#ba2b1a" />
      <path
         d="m 8841,855 -130,0 0,721 488,0 -243,-522 -115,-199 z"
         id="path125"
         style="fill:#ba2b1a" />
      <path
         d="m 9523,2073 -99,-134 0,359 315,0 -216,-225 z"
         id="path127"
         style="fill:#ba2b1a" />
      <path
         d="m 9119,2298 305,0 0,312 -188,-153 -117,-159 z"
         id="path129"
         style="fill:#ba2b1a" />
      <path
         d="m 8711,2479 0,-181 85,0 108,126 -135,55 -58,0 z"
         id="path131"
         style="fill:#ba2b1a" />
      <path
         d="m 8088,1832 -62,-256 502,0 79,328 104,257 0,137 -393,0 -126,-195 -104,-271 z"
         id="path133"
         style="fill:#ba2b1a" />
      <path
         d="m 7980,855 731,0 0,-570 -165,61 -216,-16 -232,-33 -118,61 0,497 z"
         id="path135"
         style="fill:#ba2b1a" />
      <path
         d="m 6489,43 83,-53 0,117 -58,11 -49,28 24,-103 z"
         id="path137"
         style="fill:#ba2b1a" />
      <path
         d="m 6706,169 599,0 0,686 -733,0 0,-472 89,84 59,-56 156,-119 -83,-40 -87,-83 z"
         id="path139"
         style="fill:#ba2b1a" />
      <path
         d="m 7305,1576 0,-721 675,0 0,547 -50,174 -625,0 z"
         id="path141"
         style="fill:#ba2b1a" />
      <path
         d="m 6619,1576 686,0 0,722 -564,0 36,-115 -5,-175 -153,-432 z"
         id="path143"
         style="fill:#ba2b1a" />
      <path
         d="m 5859,-385 0,-186 141,0 6,124 53,239 -49,-7 -82,-72 -69,-98 z"
         id="path145"
         style="fill:#ba2b1a" />
      <path
         d="m 5986,-1556 -127,8 0,274 416,0 -20,-105 -77,-92 -192,-85 z"
         id="path147"
         style="fill:#ba2b1a" />
      <path
         d="m 5211,-1274 648,0 0,703 -713,0 0,-656 65,-47 z"
         id="path149"
         style="fill:#ba2b1a" />
      <path
         d="m 5010,-1700 136,110 0,297 -97,-97 -84,-150 -149,-98 -79,-33 105,-71 168,42 z"
         id="path151"
         style="fill:#ba2b1a" />
      <path
         d="m 5102,-571 44,0 0,740 -57,0 33,-86 -116,86 -535,0 -38,-140 8,-112 93,36 211,-85 357,-439 z"
         id="path153"
         style="fill:#ba2b1a" />
      <path
         d="m 5146,795 0,-626 652,0 61,61 0,625 -692,0 73,-142 -94,82 z"
         id="path155"
         style="fill:#ba2b1a" />
      <path
         d="m 5859,1576 0,-721 713,0 0,626 -32,-112 -20,207 -517,0 84,-496 -136,272 -92,224 z"
         id="path157"
         style="fill:#ba2b1a" />
      <path
         d="m 7826,2298 -521,0 0,703 675,0 0,-540 -154,-163 z"
         id="path159"
         style="fill:#ba2b1a" />
      <path
         d="m 8265,3001 -285,0 0,400 129,194 61,146 12,0 99,-279 20,-261 -36,-200 z"
         id="path161"
         style="fill:#ba2b1a" />
      <path
         d="m 4456,937 -23,-82 654,0 -194,155 -155,67 -184,-29 -98,-111 z"
         id="path163"
         style="fill:#ba2b1a" />
      <path
         d="m 5384,1576 475,0 -244,546 -111,176 -358,0 0,-335 238,-387 z"
         id="path165"
         style="fill:#ba2b1a" />
      <path
         d="m 5792,2298 67,0 0,-177 -67,177 z"
         id="path167"
         style="fill:#ba2b1a" />
      <path
         d="m 6225,2298 -135,107 -171,56 -60,3 0,-166 366,0 z"
         id="path169"
         style="fill:#ba2b1a" />
      <path
         d="m 6572,2515 0,486 -238,0 31,-113 -152,-30 -188,-94 -48,-66 194,16 146,-31 255,-168 z"
         id="path171"
         style="fill:#ba2b1a" />
      <path
         d="m 7065,3741 -235,-551 -258,280 0,-469 733,0 0,740 -240,0 z"
         id="path173"
         style="fill:#ba2b1a" />
      <path
         d="m 4836,2298 310,0 0,348 -264,56 -249,-59 -98,-105 -49,-98 -7,-49 167,19 190,-112 z"
         id="path175"
         style="fill:#ba2b1a" />
      <path
         d="m 7305,4408 0,-667 280,0 -70,268 8,175 134,147 166,33 157,-60 0,104 -675,0 z"
         id="path177"
         style="fill:#ba2b1a" />
      <path
         d="m 7980,5112 0,-704 264,0 -45,55 90,3 117,-58 305,0 0,635 -95,69 -636,0 z"
         id="path179"
         style="fill:#ba2b1a" />
      <path
         d="m 9424,4408 -713,0 0,-192 224,-75 265,0 224,81 0,186 z"
         id="path181"
         style="fill:#ba2b1a" />
      <path
         d="m 9636,4408 -212,0 0,253 118,45 94,99 63,169 33,-118 -15,-240 -81,-208 z"
         id="path183"
         style="fill:#ba2b1a" />
      <path
         d="m 7806,5112 174,74 0,-74 -174,0 z"
         id="path185"
         style="fill:#ba2b1a" />
      <path
         d="m 7525,5112 -220,0 0,268 28,-1 36,-86 27,-47 157,8 76,19 -6,-34 -70,-70 -28,-57 z"
         id="path187"
         style="fill:#ba2b1a" />
      <path
         d="m 6572,5112 0,-704 733,0 0,704 -183,0 93,-187 25,-136 -33,-37 -255,360 -380,0 z"
         id="path189"
         style="fill:#ba2b1a" />
      <path
         d="m 6334,4408 238,0 0,-372 -138,27 -91,69 -39,132 30,144 z"
         id="path191"
         style="fill:#ba2b1a" />
      <path
         d="m 5859,4214 386,194 -386,0 0,-194 z"
         id="path193"
         style="fill:#ba2b1a" />
      <path
         d="m 5146,4691 0,-283 713,0 0,594 -239,-200 -183,-97 -203,-33 -88,19 z"
         id="path195"
         style="fill:#ba2b1a" />
      <path
         d="m 4985,4408 161,0 0,-150 -161,150 z"
         id="path197"
         style="fill:#ba2b1a" />
      <path
         d="m 6249,5261 -255,-149 578,0 0,153 -323,-4 z"
         id="path199"
         style="fill:#ba2b1a" />
      <path
         d="m 8238,2919 120,-35 99,77 197,101 178,72 113,17 125,-53 163,-175 122,-93 144,0 95,99 28,113 -15,33 -47,6 -56,-37 -31,70 -56,39 -58,6 -51,-45 -28,57 -110,32 -98,11 134,11 168,-36 171,-62 187,-68 141,-3 105,80 42,97 -25,150 -20,3 -64,-109 -55,-40 -3,66 -30,63 -66,50 -86,9 -69,-61 -34,-76 -66,64 -221,70 104,27 349,11 173,88 55,144 -32,134 -56,95 -13,-88 -43,-72 -46,-36 -39,59 -46,49 -111,10 -76,-69 -29,-62 3,-82 -33,36 -29,3 -161,-46 -180,-69 -92,82 -10,128 -39,43 -85,26 -59,-7 -91,-53 26,164 -65,-27 -93,-106 -22,-109 53,-78 145,-120 43,-48 1,-38 -148,-98 -171,-86 -81,-24 -83,8 -18,-154 -44,-138 z"
         id="path201"
         style="fill:#e9cc0c" />
      <path
         d="m 6214,2845 -188,136 -188,112 -157,56 -136,-4 -84,-44 -100,-148 -84,-124 -105,-28 -88,28 -56,60 -24,52 -7,141 28,-1 55,-63 15,63 49,69 111,-33 41,69 107,58 -128,-5 -241,-87 -249,-91 -128,30 -104,122 -12,195 56,68 77,-147 31,85 80,45 75,-21 47,-42 21,-50 72,41 168,25 118,-6 -133,53 -195,42 -169,9 -84,62 -37,104 21,114 72,111 22,14 10,-70 43,-57 c 0,9 2,11 4,17 l 49,70 120,-5 56,-66 8,-111 378,-131 118,-28 87,74 -19,81 27,82 77,38 61,-8 43,-32 29,62 -2,127 53,-19 87,-89 19,-159 -47,-125 -118,-100 -45,-49 16,-36 149,-105 137,-77 36,-6 152,3 51,-312 -148,-39 z"
         id="path203"
         style="fill:#e9cc0c" />
      <path
         d="m 8288,3067 -8,-64 c 14,27 44,74 75,83 34,10 80,19 117,25 21,4 -19,12 -25,13 -24,4 -155,-25 -159,-57 z"
         id="path205"
         style="fill:#000000" />
      <path
         d="m 8297,3194 4,28 c 91,-43 252,70 294,91 72,36 173,98 173,119 0,29 -59,81 -128,132 -89,67 -152,145 -89,258 27,48 173,176 233,125 -64,-13 -54,-85 -55,-132 40,35 165,47 226,-5 61,-51 33,-115 53,-171 6,-19 24,-36 41,-51 54,-49 277,141 414,88 -41,79 76,187 125,187 92,0 149,-24 184,-116 67,17 91,130 79,199 91,-54 126,-164 126,-236 0,-115 -65,-220 -176,-246 -177,-40 -360,-26 -544,-46 22,3 -42,2 -17,9 36,11 108,32 204,35 132,4 234,2 339,32 72,21 228,186 98,393 0,-72 -44,-123 -82,-159 -34,-33 -17,-114 25,-145 -78,13 -63,96 -78,139 -20,62 -62,100 -125,98 -38,-1 -106,-41 -121,-75 -20,-44 -25,-134 26,-167 -58,9 -68,75 -111,73 -56,-3 -266,-89 -322,-109 -51,-19 -67,14 -98,53 -20,26 -76,36 -94,-5 -23,48 65,39 48,135 -10,51 -28,67 -65,79 -72,22 -119,12 -163,-30 -35,-35 -5,-113 -108,-96 35,20 53,39 58,62 13,56 29,109 31,176 -57,-1 -125,-124 -140,-170 -43,-135 210,-204 231,-308 3,-14 2,-23 -8,-38 -22,-32 -199,-140 -342,-198 -49,-20 -108,-13 -146,-8 z"
         id="path207"
         style="fill:#000000" />
      <path
         d="m 9084,3229 -47,-8 c 29,0 52,-5 78,-6 191,-6 311,-58 500,-132 100,-40 240,-81 333,-10 105,80 124,283 23,349 -17,-74 -70,-151 -102,-151 3,72 -86,164 -159,168 -75,3 -130,-56 -149,-112 -45,58 -209,108 -277,108 -92,0 -153,-64 -215,-96 54,0 92,21 126,41 112,64 361,-41 374,-145 16,45 17,85 59,126 82,82 143,51 201,-26 14,-18 18,-75 14,-110 -2,-21 -10,-36 -10,-60 0,-15 4,-26 14,-32 15,23 -1,78 28,97 43,29 82,98 105,135 12,-40 12,-56 13,-79 11,-161 -142,-259 -321,-191 -149,56 -320,134 -478,138 -34,1 -82,1 -110,-4 z"
         id="path209"
         style="fill:#000000" />
      <path
         d="m 8375,2893 -38,8 c 127,91 466,291 621,268 94,-14 160,-91 224,-158 49,-51 103,-113 161,-146 96,-56 254,30 259,205 -46,9 -56,-9 -75,-30 -41,-45 -90,-63 -53,-139 -21,8 -30,10 -33,61 -2,41 51,71 48,99 -4,37 -64,102 -129,81 -32,-11 -42,-68 -84,-62 21,9 26,30 20,50 -11,37 -82,53 -103,58 -42,9 -145,-7 -162,35 248,-14 257,-30 284,-89 15,29 53,48 96,34 48,-16 84,-58 110,-103 11,30 99,43 107,-10 21,-134 -64,-256 -196,-256 -157,0 -235,130 -319,226 -151,172 -320,92 -478,-4 -113,-69 -181,-77 -260,-128 z"
         id="path211"
         style="fill:#000000" />
      <path
         d="m 6813,-1730 -66,14 80,169 56,277 777,6 39,-205 97,-278 -92,33 -83,75 -94,9 -31,50 -66,-78 -56,-6 -55,-125 -89,-8 -95,111 -25,25 -61,22 -27,39 -75,-47 -45,-6 -89,-77 z"
         id="path213"
         style="fill:#e9cc0c" />
      <path
         d="m 6335,3023 -3,-53 c -13,39 -53,83 -87,103 -21,12 -76,6 -96,-8 1,7 23,27 27,29 22,11 56,11 82,2 23,-8 76,-73 77,-73 z"
         id="path215"
         style="fill:#000000" />
      <path
         d="m 6907,-1254 -51,1 c 0,-42 -11,-83 -14,-120 -4,-41 -13,-111 -28,-160 -25,-87 -124,-202 -79,-213 76,-17 131,19 177,79 21,-1 77,-1 100,42 24,-42 59,-60 101,-61 8,-15 14,-30 19,-38 25,-39 69,-102 126,-100 57,2 80,29 105,74 12,21 21,48 25,70 31,-3 51,3 69,11 13,5 35,26 44,41 11,-18 19,-26 41,-32 20,-5 21,-8 73,1 25,-30 56,-53 91,-75 20,-13 40,-21 65,-26 30,-7 58,0 54,14 -5,21 -41,72 -58,117 -40,109 -81,245 -85,368 l -40,-2 c 12,-110 37,-234 73,-334 14,-40 29,-71 53,-110 -3,-32 -86,33 -106,57 -12,14 -20,49 -42,38 -27,-14 -40,-17 -65,1 -33,32 -37,37 -35,79 0,16 14,31 21,38 7,6 27,23 60,28 10,2 0,26 -4,27 -23,6 -55,-10 -68,-17 -12,-6 -37,-19 -53,-37 -26,13 -63,30 -86,36 -27,7 -48,-2 -32,-18 14,-14 32,-14 49,-21 18,-6 32,-18 46,-46 6,-13 15,-30 6,-63 -4,-15 -34,-34 -53,-37 -11,-2 -34,-3 -41,-10 -12,-13 -16,-19 -17,-31 -2,-15 -8,-28 -13,-39 -12,-23 -37,-61 -71,-61 -24,0 -54,26 -76,54 -16,22 -25,47 -39,67 -1,2 -8,17 -27,17 -36,-6 -70,10 -70,73 0,41 2,39 21,60 23,24 50,32 68,43 8,5 -2,21 -12,22 -17,1 -49,-8 -66,-18 -18,-11 -25,-31 -38,-37 -27,3 -45,49 -101,59 -48,9 -18,-21 -2,-39 41,-46 86,-30 68,-115 -6,-30 -52,-32 -84,-33 -37,-1 -34,-45 -79,-69 -29,-16 -35,-13 -51,-11 -16,2 5,36 13,44 12,13 15,18 22,31 10,19 17,44 24,59 2,3 9,19 18,62 9,56 14,71 27,133 7,39 19,82 27,127 z"
         id="path217"
         style="fill:#000000" />
      <path
         d="m 6547,1425 -19,-71 c -73,489 -166,1134 -805,1098 80,-89 184,-360 253,-665 86,-378 155,-802 133,-952 -81,339 -330,918 -497,1244 -135,185 -287,579 -738,594 -164,6 -362,-112 -381,-261 126,33 206,28 343,-75 260,-196 397,-450 504,-632 86,-146 374,-703 380,-961 -135,250 -286,471 -413,641 -74,99 -216,256 -257,289 -180,144 -264,170 -374,168 -163,-3 -242,-51 -247,-279 35,26 57,28 105,29 55,1 119,-49 147,-70 166,-133 354,-411 457,-578 18,-30 75,-125 132,-218 72,-120 140,-239 90,-229 -133,180 -318,438 -541,525 -221,87 -373,-29 -387,-303 20,16 26,44 92,40 118,-8 274,-182 336,-262 70,-91 325,-375 268,-442 -25,18 -171,125 -226,152 -76,39 -161,88 -254,58 -172,-54 -205,-148 -195,-327 32,34 135,30 189,3 76,-37 124,-59 231,-187 124,-148 160,-205 256,-338 17,-24 135,-178 76,-175 -150,137 -352,256 -424,274 -79,19 -150,27 -221,-15 -74,-42 -146,-108 -126,-258 0,2 38,10 42,10 40,4 103,6 139,-9 66,-28 131,-74 185,-121 90,-78 229,-219 319,-296 -2,-3 40,-30 86,-69 25,-21 72,-32 73,-36 2,-11 -91,-4 -141,-39 -57,-39 -122,-170 -157,-219 -33,-45 -114,-91 -164,-109 -46,-16 -73,-18 -24,-50 102,-68 227,44 301,101 71,54 174,157 341,157 178,0 254,-42 346,-73 113,-38 236,-21 331,21 130,59 146,174 133,297 -7,82 -114,199 -238,451 -33,67 -28,162 -25,248 4,95 44,214 60,269 -33,-18 -93,-59 -112,-84 -81,-103 -84,-171 -102,-240 -103,91 -142,315 -142,446 0,63 48,237 120,316 54,60 172,152 334,147 97,-3 181,-28 275,-42 65,-9 168,81 233,171 l 26,-29 C 6571,351 6538,318 6518,305 c -54,-36 -81,-52 -130,-42 -103,20 -222,39 -262,39 -109,0 -196,-28 -276,-105 -83,-80 -118,-287 -107,-391 8,-83 29,-157 82,-238 10,38 66,130 94,157 24,25 103,98 151,75 -21,-156 -58,-249 -47,-376 14,-170 158,-363 231,-502 177,-333 -171,-572 -455,-485 -165,51 -404,119 -552,16 -213,-149 -379,-312 -532,-124 74,37 203,80 252,162 25,41 105,230 203,242 -119,80 -249,203 -369,323 -57,57 -120,104 -190,132 -79,32 -139,20 -209,7 -56,169 61,369 243,369 115,0 140,-8 250,-53 25,-11 189,-124 225,-146 -6,33 -250,343 -283,379 -71,80 -284,264 -400,149 -34,159 -20,317 150,401 175,86 428,-110 510,-176 -65,124 -234,315 -286,371 -63,68 -149,151 -215,197 -86,61 -157,-21 -181,-39 -23,206 24,415 199,440 115,17 223,2 341,-89 8,-6 187,-169 241,-222 -64,129 -252,400 -342,504 -67,77 -146,179 -240,242 -43,29 -162,45 -212,-15 1,167 -2,266 125,352 152,102 416,2 581,-165 233,-234 420,-545 493,-650 -54,198 -353,744 -464,894 -102,139 -224,270 -355,378 -51,42 -139,111 -327,44 97,515 687,376 851,208 463,-470 540,-933 739,-1367 -23,231 -79,447 -129,659 -25,101 -71,262 -103,356 -18,54 -91,181 -163,250 559,121 842,-322 897,-1041 z"
         id="path219"
         style="fill:#000000" />
      <path
         d="m 7094,-471 c -173,-113 -404,13 -572,-18 -177,-32 -344,-128 -209,-368 98,157 226,175 453,177 165,2 329,26 441,117 -10,33 -59,80 -113,92 z"
         id="path221"
         style="fill:#000000" />
      <path
         d="m 6314,-813 c -84,145 31,246 184,290 151,42 243,-17 437,-17 77,0 158,16 181,35 44,-17 68,-53 64,-56 -50,-39 -155,-64 -207,-75 -191,-40 -232,-9 -376,-21 -191,-16 -224,-66 -283,-156 z"
         id="path223"
         style="fill:#e9cc0c" />
      <path
         d="m 7876,462 -35,-36 c 0,6 135,-118 174,-133 84,-30 163,-14 228,-4 152,24 344,83 462,-39 246,-255 88,-638 13,-793 -27,76 -51,160 -81,194 -49,55 -94,108 -185,121 33,-64 53,-178 53,-266 0,-111 3,-180 -42,-270 -58,-119 -227,-309 -252,-443 -9,-49 -1,-111 18,-152 174,-371 708,-76 888,-74 251,2 396,-412 704,-188 -103,-5 -209,117 -258,183 -67,89 -128,147 -223,193 125,63 250,181 341,273 56,56 145,132 230,158 86,27 115,19 198,-4 75,175 -109,396 -247,405 -198,12 -343,-109 -463,-184 151,193 424,661 683,505 84,191 -102,420 -257,389 -210,-43 -368,-205 -382,-233 64,146 262,496 431,624 76,56 160,14 223,-18 59,177 -44,367 -185,436 -93,46 -228,14 -316,-72 L 9361,805 c 109,202 232,429 502,720 60,65 192,39 223,30 41,309 -348,460 -523,317 -173,-141 -408,-453 -516,-663 136,335 385,765 678,1051 43,41 265,200 369,28 68,234 -169,435 -365,435 -314,0 -583,-304 -732,-546 -128,-210 -522,-953 -543,-1062 43,172 173,1178 492,1288 -47,119 -358,112 -463,62 -299,-141 -479,-748 -502,-1055 l 17,-81 c 28,235 99,485 190,704 57,136 194,325 300,373 148,66 242,62 376,12 -231,-200 -360,-807 -424,-1138 -24,-125 -36,-211 -92,-342 -8,-18 24,-38 41,-16 14,17 30,31 39,50 178,374 345,737 557,1081 121,197 388,611 703,631 145,9 314,-117 367,-281 -302,70 -488,-228 -677,-490 -84,-114 -243,-417 -295,-532 -80,-180 -167,-358 -268,-522 -10,-16 23,-40 36,-26 43,44 134,211 163,258 79,128 327,535 509,704 109,101 486,136 534,-194 -249,81 -343,-174 -488,-369 -115,-155 -243,-406 -348,-579 -13,-78 -1,-94 13,-83 34,26 105,140 136,178 92,112 195,211 301,297 116,59 180,51 288,-35 84,-67 102,-170 110,-274 -236,81 -287,-74 -418,-228 -71,-83 -243,-374 -255,-497 53,-17 247,257 463,245 132,-7 210,-202 202,-292 -44,20 -119,43 -185,10 -127,-66 -200,-150 -318,-293 -47,-56 -322,-422 -381,-494 -9,-10 20,-10 33,-7 43,8 112,136 304,251 116,77 236,150 377,100 94,-32 188,-119 192,-300 -350,127 -553,-437 -901,-456 -12,0 -12,-21 1,-22 102,-6 176,-13 286,-155 52,-68 151,-211 267,-230 -279,-64 -372,232 -607,234 -137,2 -174,-38 -289,-63 -128,-28 -303,-63 -435,-19 -44,14 -126,91 -147,137 -17,38 -20,108 -10,152 53,123 144,250 211,352 41,64 64,146 70,211 11,123 11,238 -30,353 57,-34 107,-78 141,-140 24,-45 64,-136 60,-200 167,38 265,683 62,881 -114,112 -317,121 -434,88 -78,-21 -323,-67 -452,108 z"
         id="path225"
         style="fill:#000000" />
      <path
         d="m 6860,-1284 822,0 1,30 -827,-1 4,-29 z"
         id="path227"
         style="fill:#000000" />
      <path
         d="m 7288,-1376 384,0"
         id="path229"
         style="fill:none;stroke:#000000;stroke-width:28;stroke-linecap:round" />
      <path
         d="m 7674,-1263 -59,4 c 93,31 159,158 225,229 36,39 83,97 120,139 30,34 124,59 168,63 -23,34 -96,38 -162,16 -159,-53 -133,-110 -201,-139 -28,-11 -50,0 -36,15 131,151 235,242 229,425 -4,112 -53,249 -85,342 -117,349 -222,453 -18,649 196,189 226,329 179,599 -34,189 -92,383 -131,551 -42,181 -128,426 -176,598 59,60 114,134 174,193 92,93 175,141 289,220 125,85 327,74 445,69 -72,70 -247,166 -425,205 74,158 75,298 57,485 -9,102 -72,245 -91,328 -11,-193 -340,-514 -489,-690 -49,-58 -88,-146 -110,-184 -7,-11 -25,-11 -24,-1 14,116 234,378 315,446 124,105 288,397 306,512 30,-118 140,-297 140,-470 0,-150 6,-287 -53,-404 146,-17 345,-151 456,-269 -388,13 -440,-30 -607,-140 -127,-83 -243,-228 -336,-321 88,-240 124,-397 184,-641 19,-80 111,-413 119,-451 26,-125 33,-350 -24,-473 -105,-227 -299,-249 -261,-449 19,-101 140,-403 182,-553 71,-255 6,-337 -96,-461 52,30 130,51 188,51 54,0 141,-63 155,-107 -165,27 -215,-11 -329,-169 -43,-60 -164,-202 -218,-217 z"
         id="path231"
         style="fill:#000000" />
      <path
         d="m 6920,-1007 c 16,49 94,103 164,127 71,24 165,36 238,81 132,82 64,304 -47,393 -78,63 -292,86 -446,166 -8,4 -18,-15 -20,-20 -8,-22 50,-99 67,-121 89,-108 337,-88 336,-222 -2,-100 -276,-104 -330,-156 -79,-76 -189,-166 -210,-28 -48,-90 -59,-83 -77,-123 -31,-71 -26,-131 -4,-172 28,-55 75,-65 137,-75 27,-55 83,-90 133,-97 47,-6 106,34 120,83 14,46 13,102 -61,164 z"
         id="path233"
         style="fill:#000000" />
      <path
         d="m 6833,-1038 c 172,21 161,-178 27,-178 -61,0 -83,58 -103,97 -41,1 -156,-8 -151,118 1,45 34,110 54,132 83,-101 178,50 252,87 36,18 104,33 174,49 108,24 201,90 114,210 -57,78 -270,59 -337,194 -40,81 12,36 76,17 230,-67 431,-124 422,-356 -5,-136 -298,-176 -355,-216 -38,-27 -175,-136 -173,-154 z"
         id="path235"
         style="fill:#e9cc0c" />
      <path
         d="m 7264,-1109 -150,-17 -123,-6 c -21,64 -26,175 47,208 48,22 142,26 181,-24 33,-44 41,-106 45,-161 z"
         id="path237"
         style="fill:#000000" />
      <path
         d="m 7235,-1109 -118,-17 -101,-4 c -2,54 -40,169 65,191 142,28 158,-110 154,-170 z"
         id="path239"
         style="fill:#ffffff" />
      <path
         d="m 7159,-1112 -43,-14 -30,-2 c -25,21 -39,68 -30,95 7,24 29,47 59,46 37,-2 61,-51 54,-47 -76,46 -113,-76 -10,-78 z"
         id="path241"
         style="fill:#000000" />
      <path
         d="m 6984,-1137 c 138,1 265,20 418,25 3,6 1,11 -7,12 -41,9 -180,1 -198,-2 -41,-6 -174,-12 -216,-16 -5,-1 3,-18 3,-19 z"
         id="path243"
         style="fill:#000000" />
      <path
         d="m 7144,-362 -60,23 c 215,67 38,479 -167,393 -126,-54 -461,-212 -458,107 65,-38 111,-46 142,-36 46,14 139,99 173,133 52,51 224,69 224,52 0,-3 0,-9 -4,-10 -73,-7 -107,-15 -152,-36 -69,-31 -134,-166 -264,-170 -32,-1 -54,4 -102,35 50,-255 375,-27 495,-23 148,5 236,-148 252,-278 8,-66 -27,-161 -79,-190 z"
         id="path245"
         style="fill:#000000" />
      <path
         d="m 6918,300 -60,-18 c -134,112 -291,204 -359,377 -62,158 -68,416 -6,620 67,223 181,511 249,724 85,271 -139,489 -328,604 -207,126 -275,76 -474,76 57,114 277,216 406,218 -42,87 -76,393 -63,498 11,83 77,335 104,416 69,-190 167,-309 309,-449 97,-93 186,-213 269,-312 15,-18 168,-224 100,-224 -81,153 -104,181 -229,322 -29,33 -97,117 -164,188 -56,58 -112,104 -137,129 -59,60 -128,212 -145,254 -20,-112 -72,-281 -72,-428 0,-145 40,-302 65,-421 -117,0 -285,-82 -363,-150 366,44 488,-104 705,-347 177,-200 -9,-613 -82,-765 -38,-93 -89,-249 -114,-339 -32,-116 -44,-267 -32,-396 29,-299 239,-484 421,-577 z"
         id="path247"
         style="fill:#000000" />
      <path
         d="m 6818,3209 25,-43 c 67,271 295,566 322,799 12,136 33,232 -40,356 -44,74 -176,114 -259,110 -178,-8 -286,-140 -271,-281 5,-42 35,-72 34,-103 -96,0 -233,23 -280,120 -25,51 -30,107 -19,165 11,57 35,120 56,172 -47,-28 -460,-243 -501,-259 -472,-193 -700,-13 -857,144 -81,81 -260,348 -70,628 -46,-243 109,-351 294,-358 250,-9 451,192 632,339 98,79 197,161 315,214 222,100 601,26 773,-139 93,-91 211,-326 241,-354 53,26 32,149 5,216 -31,75 -55,148 -111,224 -31,40 -105,84 -70,79 60,-8 116,-9 176,-5 30,2 38,67 108,133 15,-30 35,-65 44,-98 22,-79 197,-12 252,-10 -104,-46 -255,-430 -214,-516 7,-13 15,-11 25,0 224,253 415,443 781,455 163,6 351,-60 423,-114 146,-110 250,-192 360,-301 156,-153 606,-292 706,153 98,-582 -354,-768 -566,-774 -324,-10 -445,95 -558,168 -162,105 -234,179 -435,145 43,-20 125,-85 136,-140 12,-61 9,-143 -36,-188 -77,-77 -141,-98 -250,-94 100,106 56,265 -54,307 -176,68 -293,20 -399,-121 -118,-156 46,-527 101,-667 68,-171 99,-249 83,-463 l 46,77 c 0,333 -252,598 -229,925 9,126 183,265 322,232 58,-14 153,-63 159,-141 5,-69 -75,-162 -75,-168 150,-48 294,-9 358,120 44,90 6,213 -66,304 138,0 273,-166 393,-223 176,-83 316,-123 521,-115 212,0 527,205 568,373 64,259 20,384 -28,624 7,-114 -2,-183 -53,-277 -141,-267 -493,-151 -661,16 -44,44 -292,238 -344,272 -114,74 -266,116 -405,116 -397,0 -544,-199 -783,-437 16,141 67,295 190,435 7,8 20,48 8,45 -120,-32 -185,-32 -229,-26 -51,7 -5,39 -96,153 -87,-82 -86,-118 -95,-135 -20,-35 -111,-29 -161,-20 -42,7 -125,3 -97,-11 30,-14 82,-69 107,-94 48,-49 197,-286 135,-375 -92,155 -197,434 -547,491 -163,27 -316,35 -436,-8 -407,-146 -516,-536 -950,-567 -384,-27 -286,342 -246,475 -278,-254 -236,-674 102,-930 394,-299 908,28 1192,187 -20,-110 -60,-229 44,-333 78,-80 333,-105 314,-65 -31,65 -62,178 -28,232 31,48 156,127 235,129 324,10 263,-356 200,-533 -79,-223 -230,-458 -267,-647 z"
         id="path249"
         style="fill:#000000" />
      <path
         d="m 6224,2871 -38,-22 c -177,127 -591,445 -760,177 -75,-119 -80,-245 -251,-240 -173,6 -204,182 -185,323 28,2 69,-29 82,-63 6,35 25,98 72,117 35,13 72,-28 103,-27 11,37 68,104 152,109 45,2 101,-7 139,-35 -80,11 -156,43 -236,-38 -35,-34 -30,-39 -22,-89 -38,28 -112,56 -121,51 -28,-13 -75,-53 -55,-116 9,-27 135,-65 52,-160 38,87 -118,134 -134,211 -20,-27 -10,-119 34,-180 21,-30 57,-48 89,-56 127,-31 172,99 242,211 49,80 115,133 197,132 223,-3 479,-192 640,-305 z"
         id="path251"
         style="fill:#000000" />
      <path
         d="m 5266,3416 c 44,-10 74,-33 114,-47 -49,22 -170,35 -211,31 -74,-7 -228,-20 -222,-89 3,-39 -31,-68 -70,-68 60,31 35,112 6,159 -29,46 -102,38 -143,18 -129,-64 75,-238 -90,-246 51,36 26,102 22,120 -8,34 -55,109 -88,137 -43,-42 -43,-327 158,-344 90,-8 386,136 467,158 32,9 61,14 88,17 104,13 169,-22 208,-36 -66,13 -145,10 -227,-6 -94,-19 -188,-67 -252,-97 -171,-80 -247,-85 -262,-85 -107,-4 -213,105 -229,195 -12,64 -38,213 39,251 18,8 27,18 47,19 -8,-68 33,-115 48,-132 11,46 32,64 56,83 38,29 161,22 213,-81 21,14 109,44 190,47 39,1 106,3 138,-4 z"
         id="path253"
         style="fill:#000000" />
      <path
         d="m 4799,3939 c -21,-19 11,-105 31,-95 24,34 54,58 97,58 88,0 160,-40 156,-135 -1,-15 -7,-36 8,-50 51,-32 273,-113 311,-123 75,-19 176,-73 229,26 -21,78 0,162 66,193 64,29 120,-6 145,-18 26,21 17,167 16,181 49,-5 90,-35 113,-57 115,-110 86,-220 65,-302 -11,-45 -67,-86 -103,-121 -35,-34 -63,-46 -89,-65 -47,-35 115,-121 137,-134 133,-73 155,-125 322,-79 l 5,-85 c -27,88 -118,27 -182,52 -57,22 -325,181 -322,230 3,53 164,152 188,218 34,93 26,192 -51,264 -22,20 -48,41 -57,40 4,-54 7,-72 0,-111 -6,-33 -21,-44 -21,-68 1,-34 24,-62 42,-92 -53,20 -51,49 -72,85 -22,39 -40,43 -76,43 -58,0 -131,-86 -91,-147 22,-34 61,-79 62,-114 -11,14 -55,77 -109,23 -36,-36 -53,-53 -118,-34 -116,35 -266,90 -377,140 -90,41 -74,-70 -149,-42 38,12 67,56 74,71 18,36 5,108 -24,136 -33,34 -128,47 -156,3 -19,-31 -23,-63 -21,-108 3,-57 -26,-111 -89,-96 44,22 57,50 57,100 0,53 -29,115 -45,152 -70,-46 -82,-159 -82,-205 0,-68 62,-157 141,-153 108,5 176,-17 275,-36 53,-9 195,-63 240,-102 -63,20 -297,93 -368,99 -140,10 -241,-2 -288,90 -27,54 -44,151 -21,214 15,43 68,146 131,154 z"
         id="path255"
         style="fill:#000000" />
    </g>
  </g>
</svg>
