<svg xmlns="http://www.w3.org/2000/svg" width="900" height="600" version="1.0"><path fill="#fff" d="M0 0h900v600H0Z"/><path fill="#d9171a" d="m586.2 335.76 32.04-9.6 52.68 31.92-33.36 8.64L687 396.48l33-8.88 52.08 31.56-33.72 8.16 49.56 29.88 33.96-8.28 52.2 31.68-32.04 9.24 57.96 34.8V600h-41.28l-71.04-43.08 9.72 34.2-56.04-33.36-9.24-34.2-48.72-29.16 7.56 33.12-51.36-30.6-9-34.2-49.32-29.52 8.28 33.72L536.28 435l-8.64-33.96-77.76-46.56L372 401.04 363.36 435l-53.28 31.92 8.28-33.72-49.32 29.52-9 34.2-51.36 30.6 7.56-33.12-48.72 29.16-9.24 34.2-56.04 33.36 9.72-34.2L41.28 600H0v-75.36l57.84-34.8-32.04-9.24L78 448.92l33.96 8.28 49.56-29.88-33.72-8.16L180 387.6l33 8.88 49.44-29.76-33.36-8.64 52.68-31.92 32.04 9.6 52.32-31.44-41.88-25.08-32.04 9.6-52.8-31.8 33.24-8.76-49.56-29.64-33 8.88-52.2-31.56 33.72-8.28-49.56-29.76-33.84 8.52-52.32-31.56 32.04-9.24L0 81.12V0h28.32l94.8 57-9.6-34.2 55.92 33.48 9.24 34.2 48.6 29.28-7.44-33.12 51.24 30.6 8.88 34.2 49.32 29.64-8.28-33.72 53.16 32.04 8.64 33.96L450 253.8l67.2-40.44 8.64-33.96L579 147.36l-8.28 33.72 49.32-29.64 8.88-34.2 51.24-30.6-7.44 33.12 48.6-29.28 9.24-34.2 55.92-33.48-9.6 34.2 94.8-57H900v81.12l-67.92 44.4 32.04 9.24-52.32 31.56-33.96-8.28-49.56 29.76 33.72 8.28-52.2 31.56-33-8.88-49.56 29.64 33.24 8.76-52.8 31.8-32.04-9.6-41.88 25.08z"/></svg>