<?xml version="1.0" encoding="UTF-8"?>
<svg xmlns="http://www.w3.org/2000/svg" width="1200px" height="800px" viewBox="0 0 1200 800">
 <defs>
  <style type="text/css">
   <![CDATA[
    .fil1 {fill:white}
    .fil0 {fill:#D8241B}
   ]]>
  </style>
 </defs>
  <rect class="fil0" width="1200" height="800"/>
  <path id="path2822" class="fil1" d="M649.808 719.096c0.526772,-0.200787 1.47756,-1.80827 3.2752,-5.54173 4.75512,-9.87047 9.70748,-17.3091 16.6843,-25.0618 9.39685,-10.4409 12.7524,-14.6846 18.6319,-23.5642 2.01614,-3.04606 5.58543,-8.3563 7.92992,-11.7992 27.9791,-41.0882 50.0693,-86.0717 69.8516,-142.243 2.19213,-6.22677 3.17126,-8.37402 8.40591,-18.4429 12.7205,-24.4701 18.8138,-38.3138 18.8138,-42.7476 0,-1.15748 -0.20315,-1.58504 -1.19646,-2.52165 -3.03661,-2.86417 -8.11063,-4.30276 -15.2161,-4.3122 -5.1437,-0.00708661 -8.33976,0.389764 -13.4587,1.67126 -7.93937,1.9878 -11.7378,4.21417 -17.9114,10.5 -16.4504,16.7492 -34.0394,48.7417 -37.3724,67.9748 -0.28937,1.6748 -0.669685,3.31181 -0.844488,3.6378 -0.390945,0.731102 -2.07874,0.79252 -2.65512,0.0980315 -0.226772,-0.274016 -0.705118,-2.67283 -1.06181,-5.33031 -4.70906,-35.0457 -9.57283,-60.8717 -16.1752,-85.8815 -1.58622,-6.00945 -1.6689,-6.54567 -2.04213,-13.3677 -0.690945,-12.6295 -1.94764,-25.6594 -5.08937,-52.7917 -4.1374,-35.726 -4.95118,-45.8669 -5.4189,-67.513 -0.330709,-15.2634 -0.754724,-20.4591 -2.25118,-27.5799 -2.85,-13.5555 -8.3622,-23.3327 -15.9543,-28.298 -5.4685,-3.57638 -12.437,-4.97953 -15.9012,-3.20079 -3.21496,1.64882 -7.22953,6.68504 -9.07087,11.3787 -0.507874,1.29449 -1.04646,2.35394 -1.19528,2.35394 -0.15,0 -0.444094,-0.647244 -0.654331,-1.43858 -6.46181,-24.3177 -11.1472,-33.7488 -18.5823,-37.4043 -1.7185,-0.844488 -2.19567,-0.918898 -5.76614,-0.903543 -4.5378,0.0200787 -6.9685,0.577559 -11.0327,2.52874 -4.47874,2.15079 -8.84528,6.64134 -11.4319,11.7567 -1.3252,2.61969 -2.80276,7.31575 -3.27165,10.4008 -0.226772,1.48937 -0.529134,2.83819 -0.673228,2.99764 -0.145276,0.16063 -1.24724,-0.624803 -2.45079,-1.74449 -4.6122,-4.29094 -7.89213,-5.80866 -13.1398,-6.07795 -3.37559,-0.173622 -6.71457,0.231496 -9.58701,1.16457 -3.19961,1.03937 -6.17008,5.09764 -8.13425,11.1142 -1.41496,4.33465 -2.38937,9.09921 -4.22126,20.6504 -1.84252,11.6138 -2.93386,16.3866 -4.26732,18.6614 -1.53189,2.61614 -2.73071,2.97283 -5.90197,1.7622 -2.68346,-1.02638 -6.58465,-0.801969 -9.34252,0.537402 -5.21811,2.53346 -10.7563,10.4091 -15.1146,21.4937 -7.5378,19.1728 -14.8028,56.0646 -16.9949,86.2949 -5.97283,82.3748 -5.53819,132.519 1.52717,176.215 4.40906,27.2669 10.9488,48.4512 21.0283,68.1165 3.81496,7.44213 6.35906,13.7646 9.74646,24.2173 3.34843,10.3335 4.47874,15.2764 8.12126,35.5122 1.71378,9.52205 2.52402,13.3063 2.90669,13.5886 0.146457,0.10748 0.496063,0.244488 0.941339,0.377953 0.445276,0.134646 0.98622,0.265748 1.51535,0.362598 17.5323,3.1878 34.8756,6.03661 52.6878,7.29449 16.0736,1.13504 45.9154,0.959055 61.3146,-4.89567z"/>
  <polygon class="fil1" points="600,74.7472 608.649,101.539 636.801,101.485 613.993,117.989 622.744,144.748 600,128.156 577.256,144.748 586.007,117.989 563.199,101.485 591.351,101.539 "/>
  <polygon class="fil1" points="824.335,173.4 838.368,197.809 865.893,191.901 847.013,212.786 861.137,237.139 835.441,225.643 816.64,246.596 819.643,218.604 793.9,207.202 821.451,201.404 "/>
  <polygon class="fil1" points="375.663,173.399 361.632,197.806 334.107,191.901 352.985,212.786 338.863,237.141 364.559,225.64 383.356,246.599 380.36,218.604 406.1,207.203 378.552,201.403 "/>
  <polygon class="fil1" points="921.749,373.397 940.541,394.361 966.235,382.859 952.115,407.206 970.995,428.096 943.467,422.189 929.441,446.6 926.552,418.596 899.004,412.795 924.741,401.394 "/>
  <polygon class="fil1" points="278.252,373.398 259.454,394.357 233.758,382.857 247.881,407.211 229.003,428.096 256.53,422.19 270.559,446.598 273.448,418.593 300.997,412.793 275.256,401.392 "/>
</svg>