<svg xmlns="http://www.w3.org/2000/svg" width="1200px" height="800px" viewBox="0 0 900 600">
 <defs>
  <style type="text/css">
   <![CDATA[
    .str0 {stroke:white;stroke-width:24}
    .fil4 {fill:none}
    .fil1 {fill:white}
    .fil0 {fill:#0065aa}
    .fil2 {fill:#ae2822}
   ]]>
  </style>
 </defs>
  <rect class="fil0" width="900" height="600"/>
  <rect class="fil1" width="900" height="400"/>
  <rect class="fil2" width="900" height="200"/>
  <g>
   <path class="fil2" d="M371.524 361.671c-1.53189,-1.17047 -1.3878,-2.70827 0.637795,-6.80787l1.93937 -3.92362 0.127559 -7.24488 0.127559 -7.24488 3.82913 -9.04843c2.31732,-5.47795 4.3311,-9.56339 5.10118,-10.3512 0.700394,-0.715748 2.67756,-2.03976 4.3937,-2.94094 1.71732,-0.902362 3.6378,-2.19094 4.26969,-2.86299 1.27087,-1.35236 1.38189,-2.77323 0.700394,-8.88307 -0.205512,-1.84016 -0.23622,-3.34606 -0.0673228,-3.34606 0.167717,0 2.01496,1.07008 4.10551,2.37756 12.189,7.62874 12.7217,7.94646 17.4945,10.415l3.08031 1.59331 1.95709 4.86732c1.4563,3.6248 1.8378,5.05748 1.49291,5.61496 -0.762992,1.23071 -3.72756,2.63858 -10.2531,4.87087 -7.27441,2.4874 -8.28898,3.06142 -11.6705,6.60591 -3.11811,3.26929 -3.60591,4.18819 -6.14882,11.5831 -2.78622,8.1 -3.2185,9.01535 -4.94409,10.4752 -4.1752,3.53031 -13.8024,6.06024 -16.1728,4.25079l0 0z"/>
   <path class="fil2" d="M561.007 366.086c-0.285827,-0.742913 1.99961,-4.55906 3.38386,-5.64803 0.616535,-0.484252 2.2063,-1.2248 3.53268,-1.64409 1.3252,-0.419291 2.7626,-1.02283 3.19252,-1.34055 0.766535,-0.566929 3.14055,-9.72402 3.14055,-12.1146 0,-1.05472 -0.121654,-1.09134 -3.62362,-1.09134 -1.99252,0 -4.32992,-0.224409 -5.19213,-0.499606 -2.86417,-0.911811 -17.9043,-8.49094 -17.9291,-9.03543 -0.0649606,-1.41378 2.89724,-9.12165 4.84843,-12.6189 6.38858,-11.4461 7.34764,-13.8661 8.95866,-22.6157 1.01929,-5.53937 1.6937,-7.9689 2.59724,-9.3685 0.490157,-0.758268 0.68622,-0.657874 2.25118,1.15394 3.31654,3.83622 6.24331,10.2933 6.24331,13.7728 0,0.71811 0.630709,2.92913 1.40197,4.9122 0.77126,1.98425 1.70315,5.00551 2.06929,6.71693 0.96378,4.49409 3.10157,8.51339 7.24961,13.6264 7.9252,9.77008 8.66339,10.911 8.66339,13.3937 0,3.18661 -2.83228,11.7815 -4.87677,14.8004 -0.920079,1.35827 -2.30315,2.8122 -3.07441,3.2315 -0.77126,0.41811 -2.32087,1.53898 -3.44291,2.48858 -1.12205,0.949606 -2.41181,1.92638 -2.86654,2.16969 -1.23071,0.659055 -16.2626,0.395669 -16.5272,-0.28937l0 0z"/>
   <path class="fil2" d="M515.144 370.094c-7.90748,-0.224409 -8.16142,-0.263386 -10.0382,-1.50591 -1.05945,-0.701575 -1.92638,-1.58031 -1.92638,-1.95118 0,-1.36417 3.76417,-2.92441 10.05,-4.16693 1.96063,-0.388583 4.01929,-0.805512 4.57323,-0.925984 2.42953,-0.532677 1.28622,-4.15984 -2.62205,-8.32205 -1.56496,-1.66654 -2.40472,-3.06969 -2.94213,-4.91693 -0.413386,-1.42087 -0.751181,-2.79567 -0.751181,-3.05433 0,-1.23189 -2.4815,-3.29528 -4.76102,-3.95787 -4.22126,-1.22717 -5.67283,-3.3874 -7.94291,-11.8146 -0.922441,-3.42638 -1.83071,-6.38858 -2.01614,-6.58228 -0.500787,-0.522047 -23.139,-1.43504 -23.622,-0.951969 -0.682677,0.682677 -2.18031,7.49173 -2.72362,12.3803 -0.282283,2.53937 -0.935433,7.51181 -1.45157,11.0516 -0.818504,5.61732 -0.864567,6.82087 -0.359055,9.46181 0.317717,1.66417 0.592913,4.6878 0.61063,6.71811 0.0283465,3.1063 -0.13937,3.9685 -1.05,5.43543 -1.94646,3.13465 -2.21102,3.17008 -22.2224,3.00591 -16.415,-0.134646 -19.3843,-0.329528 -19.3843,-1.27087 0,-0.190157 0.729921,-1.30157 1.62283,-2.47087 1.7563,-2.30079 2.89134,-2.94685 7.84134,-4.46102 1.77874,-0.544488 3.74291,-1.37244 4.36299,-1.84016 1.04409,-0.787795 1.08189,-0.949606 0.506693,-2.16378 -0.34252,-0.721654 -1.59331,-3.49252 -2.7815,-6.15827 -1.18701,-2.66575 -4.21063,-8.37638 -6.71811,-12.6921 -5.87362,-10.1043 -5.49921,-9.34252 -8.99173,-18.3201l-2.99646 -7.70551 -2.07756 -1.05945c-4.26969,-2.17677 -13.7315,-7.80945 -18.4606,-10.989 -4.19528,-2.81929 -10.7917,-6.28346 -13.0547,-6.85276 -1.16811,-0.294094 -2.92913,-0.535039 -3.91417,-0.535039 -1.85197,0 -2.58898,-0.519685 -11.2665,-7.96063 -1.40669,-1.20591 -2.74252,-2.19213 -2.96929,-2.18976 -0.225591,0.0011811 -3.52677,-1.56378 -7.33465,-3.47835 -5.02559,-2.52638 -7.74449,-3.61535 -9.92244,-3.97205 -3.11929,-0.511417 -11.1886,-0.259843 -15.7382,0.488976 -1.42205,0.233858 -4.74449,0.559843 -7.38425,0.722835 -4.37717,0.269291 -4.93701,0.210236 -6.34252,-0.675591 -1.8874,-1.19055 -1.42913,-2.05866 1.31929,-2.49803 1.01102,-0.161811 2.77087,-0.61063 3.91181,-0.998031 2.31378,-0.785433 6.69567,-3.37205 6.69567,-3.95079 0,-0.206693 -0.467717,-0.812598 -1.03937,-1.34882 -0.985039,-0.922441 -1.44094,-0.966142 -8.89488,-0.837402 -7.37362,0.126378 -7.95472,0.0732283 -9.46063,-0.862205 -1.84606,-1.14567 -4.80945,-4.1563 -5.20039,-5.28071 -0.584646,-1.67953 2.30197,-3.06614 9.87638,-4.74213 9.8622,-2.18268 10.715,-2.62323 10.2839,-5.31732 -0.219685,-1.3748 -0.0519685,-1.95118 0.898819,-3.0815 1.4622,-1.7374 7.89449,-5.06102 13.8035,-7.13268l4.49882 -1.57795 -0.34252 -1.61457c-0.898819,-4.24252 0.248031,-7.38425 2.69409,-7.38425 1.67953,0 2.77795,0.543307 5.36811,2.65394l1.94764 1.5874 10.2827 -0.512598c10.0961,-0.504331 15.8622,-0.951969 24.1299,-1.87323 10.9949,-1.2248 15.7843,-1.48819 22.8461,-1.25787 10.2319,0.334252 14.2665,1.47165 20.7697,5.85945 4.23071,2.85472 5.10236,3.01417 15.9224,2.91142 9.44291,-0.0897638 17.1319,-0.543307 27,-1.59213 5.57835,-0.592913 33.7004,-0.244488 37.9795,0.47126 4.6122,0.77126 7.67244,1.95945 17.1744,6.66732 14.6846,7.27795 17.987,10.2094 29.2016,25.9311 4.28504,6.00591 7.02874,11.9858 7.02874,15.3165l0 1.9878 -2.95984 -0.113386c-2.62913,-0.101575 -3.06732,0.00944882 -3.92717,1.00039 -1.17165,1.34882 -2.42835,5.29488 -3.46535,10.885 -1.48701,8.01378 -2.66693,10.9441 -8.82402,21.9236 -2.49449,4.44803 -4.2378,9.53031 -6.40748,18.678 -1.82126,7.6748 -1.83189,7.95354 -0.464173,11.5559 3.24449,8.54764 3.94724,10.8343 4.18465,13.6122 0.401575,4.70787 1.00512,4.48583 -12.7524,4.68071 -6.47244,0.0909449 -15.4193,0.0614173 -19.8815,-0.0661417l0 0z"/>
  </g>
  <path transform="rotate(45, 450, 100)" class="fil4 str0" d="M426 40l0 120m-36 -36l120 0m-120 -48l120 0m-36 -36l0 120"/>
</svg>