<?xml version="1.0" encoding="UTF-8" standalone="no"?>
<!-- Created with Inkscape (http://www.inkscape.org/) -->

<svg
   xmlns:dc="http://purl.org/dc/elements/1.1/"
   xmlns:cc="http://creativecommons.org/ns#"
   xmlns:rdf="http://www.w3.org/1999/02/22-rdf-syntax-ns#"
   xmlns:svg="http://www.w3.org/2000/svg"
   xmlns="http://www.w3.org/2000/svg"
   xmlns:sodipodi="http://sodipodi.sourceforge.net/DTD/sodipodi-0.dtd"
   xmlns:inkscape="http://www.inkscape.org/namespaces/inkscape"
   version="1.1"
   id="svg379"
   width="600"
   height="400"
   viewBox="0 0 600 400"
   sodipodi:docname="PonticGreeks.svg"
   inkscape:version="0.92.4 (5da689c313, 2019-01-14)">
  <metadata
     id="metadata385">
    <rdf:RDF>
      <cc:Work
         rdf:about="">
        <dc:format>image/svg+xml</dc:format>
        <dc:type
           rdf:resource="http://purl.org/dc/dcmitype/StillImage" />
        <dc:title></dc:title>
      </cc:Work>
    </rdf:RDF>
  </metadata>
  <defs
     id="defs383" />
  <sodipodi:namedview
     pagecolor="#ffffff"
     bordercolor="#666666"
     borderopacity="1"
     objecttolerance="10"
     gridtolerance="10"
     guidetolerance="10"
     inkscape:pageopacity="0"
     inkscape:pageshadow="2"
     inkscape:window-width="1366"
     inkscape:window-height="705"
     id="namedview381"
     showgrid="false"
     inkscape:zoom="0.77808219"
     inkscape:cx="119.31699"
     inkscape:cy="148.45824"
     inkscape:window-x="-8"
     inkscape:window-y="-8"
     inkscape:window-maximized="1"
     inkscape:current-layer="svg379"
     fit-margin-top="0"
     fit-margin-left="0"
     fit-margin-right="0"
     fit-margin-bottom="0" />
  <g
     id="g2840"
     transform="translate(-45.72185,-16.373242)">
    <path
       inkscape:connector-curvature="0"
       id="path2836"
       d="M 45.72185,216.37324 V 16.373242 h 300 300 v 199.999998 200 h -300 -300 z"
       style="fill:#f8c400" />
    <path
       style="fill:#000000"
       d="m 328.22185,334.96695 c -27.52044,-4.62015 -48.35731,-15.28575 -67.54207,-34.5722 -22.89079,-23.01215 -34.4209,-51.15717 -34.4209,-84.02151 0,-33.14279 11.58799,-61.18068 34.93514,-84.52783 23.34715,-23.34715 51.38504,-34.935136 84.52783,-34.935136 33.14279,0 61.18068,11.587986 84.52783,34.935136 23.34715,23.34715 34.93514,51.38504 34.93514,84.52783 0,15.68848 -1.54692,25.4773 -6.16313,39 -11.58759,33.94457 -40.38903,62.7438 -74.29984,74.29415 -17.19908,5.85817 -40.27801,8.02292 -56.5,5.29956 z m 18.77371,-47.84371 c 0.39262,-36.33409 0.76704,-45.3699 2.09301,-50.51027 3.395,-13.16129 11.32996,-24.71874 20.57576,-29.96905 2.50664,-1.42342 5.00752,-3.11174 5.55752,-3.75184 0.55,-0.64009 3.7,-2.87868 7,-4.97464 17.315,-10.99743 26.5,-24.69797 26.5,-39.52796 0,-11.89764 -7.57095,-25.57873 -19,-34.33395 -7.84372,-6.00868 -8.33554,-8.05145 -2.04639,-8.49974 10.37741,-0.73968 19.14979,3.81555 25.11168,13.03977 10.4989,16.24384 11.37394,35.63658 2.41594,53.54257 -5.84481,11.68308 -12.6735,18.02558 -28.36802,26.34825 -3.51273,1.86277 -7.44729,3.97251 -8.74347,4.68829 -1.29617,0.71579 -3.95567,3.39559 -5.91001,5.9551 -7.68689,10.06722 -12.95189,25.35658 -13.97921,40.59508 -0.30214,4.48161 -0.96572,11.29839 -1.47464,15.14839 -0.50892,3.85 -1.45226,12.43316 -2.09632,19.07369 l -1.17101,12.07368 4.04359,8.6288 c 4.01099,8.55924 9.03598,16.23904 9.99676,15.27827 0.275,-0.275 -0.72697,-2.10864 -2.22659,-4.07474 -1.49962,-1.96611 -4.51365,-7.38823 -6.69784,-12.04917 -3.82374,-8.15967 -3.94551,-8.73568 -3.27818,-15.50801 l 0.69307,-7.03358 4.11532,7.54528 c 2.26343,4.1499 6.93313,11.48739 10.37712,16.30553 8.51731,11.9157 9.14106,12.69072 9.73542,12.09636 0.28484,-0.28484 -1.70929,-3.45993 -4.43141,-7.05576 -6.3153,-8.34233 -13.07649,-18.83061 -16.43649,-25.49711 -1.89654,-3.76287 -2.62932,-6.76338 -2.62932,-10.76628 v -5.54953 l 7.60323,11.26628 c 9.57746,14.19164 27.32575,35.74641 27.3762,33.24757 0.0113,-0.5603 -2.96469,-4.3853 -6.61333,-8.5 -7.32471,-8.26032 -14.32208,-17.46344 -22.20833,-29.20893 -4.8211,-7.18037 -5.14067,-8.02712 -4.51237,-11.95624 0.68402,-4.27763 4.09959,-8.81611 6.63483,-8.81611 0.75413,0 2.39206,1.08672 3.63985,2.41492 2.69187,2.86538 2.15156,5.83681 -1.49592,8.22673 -2.39059,1.56637 -3.3302,4.35835 -1.46675,4.35835 0.52657,0 3.5489,3.2625 6.71628,7.25 10.18204,12.81843 27.98242,28.75 32.12245,28.75 2.29485,0 7.80566,-3.62358 16.64549,-10.94507 20.35279,-16.85698 34.93817,-43.35152 39.11383,-71.05077 1.81502,-12.03996 1.81502,-21.96836 0,-34.00832 -5.53589,-36.72237 -28.19393,-68.72761 -60.44951,-85.38696 -34.71816,-17.931226 -73.49374,-17.931226 -108.2119,0 -26.26417,13.56491 -46.13365,37.09888 -55.8778,66.18323 -12.7996,38.20424 -4.18207,81.4315 22.33549,112.03935 9.38866,10.83684 24.75666,23.16854 28.87309,23.16854 4.12081,0 21.94376,-15.96219 32.10148,-28.75 3.16738,-3.9875 6.18971,-7.25 6.71628,-7.25 1.86345,0 0.92384,-2.79198 -1.46675,-4.35835 -3.64748,-2.38992 -4.18779,-5.36135 -1.49592,-8.22673 1.24779,-1.3282 2.88572,-2.41492 3.63985,-2.41492 2.53524,0 5.95081,4.53848 6.63483,8.81611 0.6283,3.92912 0.30873,4.77587 -4.51237,11.95624 -7.88625,11.74549 -14.88362,20.94861 -22.20833,29.20893 -3.64864,4.1147 -6.62464,7.9397 -6.61333,8.5 0.0505,2.49884 17.79874,-19.05593 27.3762,-33.24757 l 7.60323,-11.26628 v 5.54953 c 0,4.0029 -0.73278,7.00341 -2.62932,10.76628 -3.36,6.6665 -10.12119,17.15478 -16.43649,25.49711 -2.72212,3.59583 -4.71625,6.77092 -4.43141,7.05576 0.59436,0.59436 1.21811,-0.18066 9.73542,-12.09636 3.44399,-4.81814 8.11369,-12.15563 10.37712,-16.30553 l 4.11532,-7.54528 0.69307,7.03358 c 0.66733,6.77233 0.54556,7.34834 -3.27818,15.50801 -2.18419,4.66094 -5.19822,10.08306 -6.69784,12.04917 -1.49962,1.9661 -2.50159,3.79974 -2.22659,4.07474 0.96078,0.96077 5.98577,-6.71903 9.99676,-15.27827 l 4.04359,-8.6288 -1.17101,-12.07368 c -0.64406,-6.64053 -1.5874,-15.22369 -2.09632,-19.07369 -0.50892,-3.85 -1.1725,-10.66678 -1.47464,-15.14839 -1.02732,-15.2385 -6.29232,-30.52786 -13.97921,-40.59508 -1.95434,-2.55951 -4.61384,-5.23931 -5.91001,-5.9551 -1.29618,-0.71578 -5.23074,-2.82552 -8.74347,-4.68829 -15.69452,-8.32267 -22.52321,-14.66517 -28.36802,-26.34825 -8.958,-17.90599 -8.08296,-37.29873 2.41594,-53.54257 5.96189,-9.22422 14.73427,-13.77945 25.11168,-13.03977 6.28915,0.44829 5.79733,2.49106 -2.04639,8.49974 -7.98295,6.11534 -14.31681,14.75671 -16.98511,23.17305 -6.03325,19.02998 2.52078,36.73846 24.48511,50.68886 3.3,2.09596 6.45,4.33455 7,4.97464 0.55,0.6401 3.05088,2.32842 5.55752,3.75184 9.2458,5.25031 17.18076,16.80776 20.57576,29.96905 1.32597,5.14037 1.70039,14.17618 2.09301,50.51027 0.26299,24.3375 0.83616,44.25 1.27371,44.25 0.43755,0 1.01072,-19.9125 1.27371,-44.25 z m -31.38097,-9.5 c -1.728,-1.5125 -4.12389,-3.65516 -5.3242,-4.76147 -1.20031,-1.1063 -4.63177,-2.61709 -7.62546,-3.3573 -6.94366,-1.71686 -18.94948,-7.37583 -21.40522,-10.0894 -2.7129,-2.99771 -0.84907,-4.62661 3.62008,-3.1638 1.83813,0.60165 8.46021,1.98087 14.71572,3.06493 6.25551,1.08406 11.45421,2.10288 11.55266,2.26403 2.80505,4.5916 4.0208,5.86713 6.08633,6.38554 1.60758,0.40348 2.48735,1.32828 2.48735,2.61467 0,1.09471 1.36948,3.26967 3.04329,4.83324 2.91811,2.72593 2.96195,2.88639 1.06574,3.90121 -3.07024,1.64314 -4.8173,1.28344 -8.21629,-1.69165 z m 51.82439,1.65151 c -1.63475,-0.95147 -1.53089,-1.27306 1.25,-3.8708 1.66808,-1.55822 3.03287,-3.7288 3.03287,-4.82351 0,-1.28639 0.87977,-2.21119 2.48735,-2.61467 2.06553,-0.51841 3.28128,-1.79394 6.08633,-6.38554 0.0984,-0.16115 5.29715,-1.17997 11.55266,-2.26403 6.25551,-1.08406 12.87759,-2.46328 14.71572,-3.06493 4.46915,-1.46281 6.33298,0.16609 3.62008,3.1638 -2.45574,2.71357 -14.46156,8.37254 -21.40522,10.0894 -2.99369,0.74021 -6.42515,2.251 -7.62546,3.3573 -8.60775,7.93363 -9.99062,8.58027 -13.71433,6.41298 z M 316.48411,266.3 c -2.88685,-1.6819 -3.91172,-4.50463 -2.64496,-7.28486 1.45594,-3.19544 4.8827,-4.25015 4.8827,-1.50283 0,1.07351 1.07765,3.02949 2.39478,4.34662 2.25378,2.25378 2.2933,2.48662 0.67126,3.95454 -1.99146,1.80225 -2.90207,1.88579 -5.30378,0.48653 z m 53.0819,-0.51118 c -1.44589,-1.44588 -1.3772,-1.79164 0.78571,-3.95454 1.30357,-1.30357 2.37013,-3.24846 2.37013,-4.32197 0,-2.74732 3.42676,-1.69261 4.8827,1.50283 1.30006,2.85333 0.19337,5.71184 -2.83988,7.33518 -2.57617,1.37873 -3.34105,1.29611 -5.19866,-0.5615 z m -38.15984,-0.13841 c -0.42282,-0.67255 -2.55097,-1.70272 -4.72922,-2.28926 -4.18455,-1.12678 -7.57539,-4.92907 -6.6188,-7.42192 0.30592,-0.7972 1.68428,-2.18859 3.06302,-3.09198 2.3379,-1.53185 2.70999,-1.52251 5.522,0.13858 2.34092,1.38282 3.15554,2.71712 3.64286,5.96685 0.7446,4.96534 0.27558,8.53563 -0.87986,6.69773 z m 27.31568,-2.12912 c 0,-5.85208 1.15849,-8.81046 4.13978,-10.57155 2.75129,-1.62523 3.12617,-1.63226 5.4609,-0.10249 1.37874,0.90339 2.7571,2.29478 3.06302,3.09198 0.84239,2.19524 -2.33909,6.3211 -5.42635,7.0371 -1.50554,0.34916 -3.74985,1.26668 -4.98735,2.03893 -2.13874,1.33466 -2.25,1.26078 -2.25,-1.49397 z m -58.78092,-5.22825 c -20.38753,-3.67562 -29.21908,-7.57642 -29.21908,-12.90573 0,-3.15514 2.50727,-3.47233 8.17486,-1.03419 7.66546,3.29759 13.85888,4.99719 18.25414,5.0093 3.20577,0.009 4.5191,0.65507 7.13487,3.51082 2.36402,2.58091 4.03314,3.5 6.35618,3.5 2.84044,0 3.04503,0.19673 2.07995,2 -0.5887,1.1 -1.39203,1.949 -1.78518,1.88666 -0.39315,-0.0623 -5.34123,-0.94742 -10.99574,-1.96686 z m 78.78574,0.0892 c -0.97104,-1.81439 -0.77002,-2.009 2.07513,-2.009 2.32304,0 3.99216,-0.91909 6.35618,-3.5 2.61577,-2.85575 3.9291,-3.50199 7.13487,-3.51082 4.39526,-0.0121 10.58868,-1.71171 18.25414,-5.0093 5.66759,-2.43814 8.17486,-2.12095 8.17486,1.03419 0,5.23611 -9.10688,9.35634 -27.59199,12.48348 -4.89941,0.82883 -9.90251,1.73501 -11.118,2.01372 -1.53165,0.35121 -2.54002,-0.1099 -3.28519,-1.50226 z m -72.55027,-5.46356 c -2.92327,-2.92326 -3.00101,-3.64903 -0.69579,-6.49585 2.48408,-3.06772 5.57964,-1.8864 4.02098,1.53446 -0.80713,1.77147 -0.79691,3.08284 0.0383,4.91594 1.48625,3.26198 -0.1252,3.28376 -3.3635,0.0454 z m 4.74583,-0.005 c -0.85323,-1.87263 -0.90687,-3.22035 -0.18206,-4.57466 1.28644,-2.40374 4.98168,-4.55647 4.98168,-2.90216 0,0.62368 1.34397,2.38942 2.98659,3.92386 2.48415,2.32055 2.75151,2.985 1.58923,3.9496 -0.76855,0.63784 -2.92027,1.40685 -4.78161,1.7089 -2.9458,0.47804 -3.54097,0.20524 -4.59383,-2.10554 z m 62.15195,1.46626 c -3.2943,-1.32917 -3.56898,-2.63471 -0.91959,-4.37066 1.32857,-0.87051 2.70492,-2.4944 3.05857,-3.60864 0.52051,-1.63998 1.0068,-1.83118 2.55292,-1.00372 3.06537,1.64054 4.13788,4.48253 2.79985,7.41918 -1.2165,2.66993 -3.54546,3.15608 -7.49175,1.56384 z m 8.69752,-1.09983 c 1.63506,-3.05514 0.33137,-6.70442 -3.15187,-8.82271 -1.67658,-1.01959 -3.71502,-2.80563 -4.52986,-3.96898 -1.32969,-1.8984 -1.31186,-2.11518 0.17397,-2.11518 0.91052,0 2.94793,-1.38356 4.52758,-3.07458 l 2.87208,-3.07458 2.52913,2.52913 c 3.27642,3.27642 3.19202,4.19683 -0.72088,7.86112 -2.66675,2.49731 -2.8562,2.91931 -1.05564,2.35148 1.67697,-0.52886 2.57792,-0.10666 3.82108,1.79064 1.84539,2.81643 0.87279,5.80346 -2.47262,7.59387 -2.80721,1.50238 -3.2442,1.26772 -1.99297,-1.07022 z m -52.55142,-1.54703 c -1.09914,-0.81216 -3.02688,-1.28472 -4.28387,-1.05014 -2.37493,0.44321 -8.21456,-4.00436 -8.21456,-6.25636 0,-1.96158 4.99699,-6.27045 6.54447,-5.64326 4.33317,1.75622 4.98989,1.78137 2.95553,0.11314 -1.15752,-0.94919 -3.04553,-1.44455 -4.48204,-1.17594 -3.0087,0.56257 -7.56887,-1.63963 -9.0235,-4.35763 -2.11638,-3.9545 2.24313,-8.24037 7.38261,-7.2579 2.31526,0.44259 3.32616,1.60796 5.34096,6.15708 2.26925,5.12366 6.63255,20.09392 6.03176,20.69471 -0.13911,0.13912 -1.15223,-0.41155 -2.25136,-1.22371 z m 31.05913,-1.0673 c 1.49203,-6.75277 3.7287,-13.88278 5.88335,-18.75482 1.86249,-4.21143 2.89555,-5.36887 5.18202,-5.80596 5.13948,-0.98247 9.49899,3.3034 7.38261,7.2579 -1.45463,2.718 -6.0148,4.9202 -9.0235,4.35763 -1.43651,-0.26861 -3.32452,0.22675 -4.48204,1.17594 -2.03436,1.66823 -1.37764,1.64308 2.95553,-0.11314 1.54748,-0.62719 6.54447,3.68168 6.54447,5.64326 0,2.17805 -5.90973,6.78303 -8.00256,6.23574 -1.09664,-0.28678 -3.13308,0.225 -4.5254,1.13728 -2.5244,1.65406 -2.52977,1.65088 -1.91448,-1.13383 z m -15.57234,-3.54254 c -0.0188,-6.69005 -2.31345,-16.44967 -5.29455,-22.51916 -2.13069,-4.33805 -2.31286,-5.93473 -2.19409,-19.23084 0.11605,-12.99293 0.41259,-15.31902 2.85306,-22.38007 1.49796,-4.33404 2.4837,-8.11992 2.19055,-8.41308 -0.29316,-0.29315 0.78666,-1.33554 2.39958,-2.31642 1.61292,-0.98087 3.42714,-2.70749 4.03159,-3.83692 1.49174,-2.78733 0.24431,-2.59741 -2.04355,0.31113 -1.02301,1.30055 -3.24117,2.93673 -4.92923,3.63595 -2.63753,1.0925 -3.66201,1.00919 -7.2839,-0.59234 -2.31807,-1.025 -5.40772,-3.11118 -6.86589,-4.63595 -2.01052,-2.10235 -3.59338,-2.7723 -6.55,-2.7723 -2.14433,0 -4.39958,0.50079 -5.01166,1.11287 -1.59264,1.59264 -3.28713,0.18971 -3.28713,-2.72155 0,-5.09199 4.26293,-10.39132 8.35907,-10.39132 0.8198,0 3.31953,1.9125 5.55496,4.25 l 4.06441,4.25 0.0108,-2.75 c 0.0129,-3.29807 1.73794,-3.69169 2.19123,-0.5 0.33305,2.34507 3.51416,3.4649 6.54207,2.30298 1.34491,-0.51609 1.23494,-0.96936 -0.74704,-3.07908 -2.86301,-3.04754 -8.97266,-3.54005 -8.98011,-0.7239 -0.004,1.33547 -0.73512,0.97057 -3.0885,-1.54046 -2.951,-3.14869 -3.01502,-3.39553 -1.48595,-5.72919 2.78221,-4.24619 7.11174,-5.83546 12.32263,-4.52334 19.86671,5.0025 36.21307,27.66009 37.47562,51.94473 l 0.28083,5.40175 -5,2.93318 c -13.97718,8.19953 -23.43684,25.32356 -23.48524,42.51333 -0.008,2.8875 -0.46478,5.25 -1.01478,5.25 -0.55,0 -1.00665,-2.3625 -1.01478,-5.25 z m -58.20464,-1.19572 c -11.80728,-4.09142 -20.78058,-10.37006 -20.78058,-14.54021 0,-3.49378 2.6368,-3.3608 8.80083,0.44386 5.72975,3.5366 18.67022,8.54207 22.08352,8.54207 0.93102,0 3.28813,0.81336 5.23802,1.80747 3.34369,1.70471 3.46249,1.93213 2.08947,4 -1.95663,2.94684 -8.46942,2.85224 -17.43126,-0.25319 z m 101.00758,0.25319 c -1.37302,-2.06787 -1.25422,-2.29529 2.08947,-4 1.94989,-0.99411 4.307,-1.80747 5.23802,-1.80747 3.4133,0 16.35377,-5.00547 22.08352,-8.54207 6.16403,-3.80466 8.80083,-3.93764 8.80083,-0.44386 0,4.24571 -9.07774,10.51926 -21.11316,14.59113 -9.1858,3.10778 -15.12286,3.17801 -17.09868,0.20227 z m -79.7325,-3.75548 c -3.71077,-3.46637 -3.77637,-4.42219 -0.52654,-7.67202 l 2.52913,-2.52913 2.87208,3.07458 c 1.57965,1.69102 3.60192,3.07458 4.49393,3.07458 1.4717,0 1.47955,0.21717 0.0848,2.34587 -0.84539,1.29024 -2.63072,2.84418 -3.9674,3.45321 -2.10493,0.95907 -2.83942,0.72516 -5.48597,-1.74709 z m -6.60111,-2.50654 c -2.92327,-2.92326 -3.00101,-3.64903 -0.69579,-6.49585 2.08339,-2.57288 5.86715,-1.89105 4.60289,0.82944 -0.41431,0.89153 -0.74391,3.08346 -0.73244,4.87096 0.0115,1.7875 -0.14587,3.25 -0.34964,3.25 -0.20376,0 -1.47502,-1.10455 -2.82502,-2.45455 z m 86.09827,0.10011 c 0.33948,-1.3526 0.0825,-3.45842 -0.57103,-4.67959 -0.94592,-1.76745 -0.91227,-2.39522 0.16496,-3.07783 2.06324,-1.30741 2.67256,-1.09355 4.40127,1.5448 1.83081,2.79417 0.81135,5.76918 -2.60315,7.59656 -1.80977,0.96856 -1.948,0.83114 -1.39205,-1.38394 z m -99.87493,-4.12587 c -16.04933,-5.55901 -27.51277,-16.09213 -22.25889,-20.45247 1.13357,-0.94077 2.39078,-0.4309 6.25,2.53473 5.52346,4.24452 14.53972,8.51554 21.831,10.3414 8.19007,2.05093 7.80665,1.78075 6.06202,4.27157 -0.85911,1.22655 -1.56202,3.02996 -1.56202,4.00759 0,2.32554 -1.96534,2.19172 -10.32211,-0.70282 z m 106.32211,0.70282 c 0,-0.97763 -0.70291,-2.78104 -1.56202,-4.00759 -1.74463,-2.49082 -2.12805,-2.22064 6.06202,-4.27157 7.29128,-1.82586 16.30754,-6.09688 21.831,-10.3414 3.85922,-2.96563 5.11643,-3.4755 6.25,-2.53473 5.32542,4.41971 -6.33693,15.00394 -22.59187,20.50337 -8.56955,2.89929 -9.98913,2.99193 -9.98913,0.65192 z m -89.54545,-6.67706 c -2.8348,-2.83479 -2.95156,-3.48349 -1.08619,-6.03454 1.32313,-1.80948 1.40662,-1.79989 2.52515,0.2901 0.63622,1.18881 2.31494,2.76828 3.73047,3.50996 2.40434,1.25976 2.46379,1.45841 0.90343,3.01876 -2.23488,2.23488 -3.17513,2.11346 -6.07286,-0.78428 z m 77.01804,0.78428 c -1.56036,-1.56035 -1.50091,-1.759 0.90343,-3.01876 1.41553,-0.74168 3.09425,-2.32115 3.73047,-3.50996 1.11853,-2.08999 1.20202,-2.09958 2.52515,-0.2901 1.86537,2.55105 1.74861,3.19975 -1.08619,6.03454 -2.89773,2.89774 -3.83798,3.01916 -6.07286,0.78428 z m -91.7947,-4.81004 c -10.17584,-3.52461 -17.03365,-8.11501 -25.53411,-17.09174 -5.27209,-5.56748 -8.8077,-10.44068 -11.39502,-15.70597 -6.5594,-13.34864 -8.1058,-22.81037 -5.27748,-32.29048 1.33439,-4.4727 6.68426,-12.43472 8.35152,-12.4293 0.37246,0.001 0.71801,5.28872 0.7679,11.75 0.0774,10.03027 0.49024,12.9174 2.82356,19.7478 3.68924,10.79959 7.69995,17.52352 15.18581,25.45893 6.66318,7.06332 13.38977,11.32614 22.14862,14.03618 2.94725,0.91189 5.32368,1.95888 5.28094,2.32663 -0.88185,7.58823 -1.73076,7.87675 -12.35174,4.19795 z m 100.97115,-0.5245 c -0.33053,-1.65264 -0.63593,-3.30569 -0.67867,-3.67345 -0.0427,-0.36775 2.33369,-1.41474 5.28094,-2.32663 8.75885,-2.71004 15.48544,-6.97286 22.14862,-14.03618 7.48586,-7.93541 11.49657,-14.65934 15.18581,-25.45893 2.33332,-6.8304 2.74613,-9.71753 2.82356,-19.7478 0.0499,-6.46128 0.39544,-11.74878 0.7679,-11.75 1.66726,-0.005 7.01713,7.9566 8.35152,12.4293 2.82832,9.48011 1.28192,18.94184 -5.27748,32.29048 -4.48534,9.12784 -16.23466,22.09157 -24.5601,27.09861 -5.56367,3.34608 -18.36402,8.17941 -21.66193,8.17941 -1.17753,0 -1.98244,-1.01614 -2.38017,-3.00481 z m -82.19449,-0.44974 c -1.35,-1.35 -2.45455,-2.96945 -2.45455,-3.59879 0,-1.2769 5.74497,-6.94666 7.03881,-6.94666 0.78423,0 6.80974,7.03109 8.3899,9.79008 0.55629,0.97131 0.0986,1.12939 -1.85221,0.63977 -1.6561,-0.41566 -3.47785,-0.0693 -5.0486,0.95991 -3.14994,2.06392 -3.16758,2.06147 -6.07335,-0.84431 z m 69.04545,0.86065 c -1.23305,-0.94346 -3.07362,-1.32051 -4.79971,-0.98325 -3.23447,0.63198 -3.09206,0.19717 2.02174,-6.17285 1.87653,-2.3375 3.78415,-4.25 4.23916,-4.25 1.29384,0 7.03881,5.66976 7.03881,6.94666 0,1.31105 -4.50784,6.06938 -5.70455,6.02154 -0.4375,-0.0175 -1.69545,-0.72044 -2.79545,-1.5621 z m -78.45532,-7.07408 c -21.94265,-5.61553 -38.43545,-27.78502 -40.61023,-54.58792 -1.2268,-15.11969 3.74587,-28.47811 12.08048,-32.45261 1.90298,-0.90747 3.65047,-1.45679 3.88332,-1.22071 0.23286,0.23607 -0.68636,3.73363 -2.04269,7.77236 -6.29125,18.73331 -3.0636,39.03345 8.67907,54.5865 5.15546,6.82836 11.15598,11.34057 21.11899,15.88087 4.1713,1.90091 7.80478,3.8462 8.07441,4.32285 0.26964,0.47665 -0.93931,2.26018 -2.68654,3.9634 l -3.17678,3.09675 z m 85.25658,-1.92981 c -3.77479,-3.82631 -3.66439,-3.97692 6.13915,-8.37548 9.20834,-4.1315 15.44865,-8.87356 20.52496,-15.59709 11.74267,-15.55305 14.97032,-35.85319 8.67907,-54.5865 -1.35633,-4.03873 -2.27555,-7.53629 -2.04269,-7.77236 1.09636,-1.11153 7.65218,3.29708 10.26354,6.90195 6.65585,9.18813 7.72097,26.73714 2.6056,42.93002 -6.15603,19.48712 -22.0294,35.33139 -38.97089,38.89942 -3.69927,0.7791 -4.24049,0.59866 -7.19874,-2.39996 z m -52.13961,-3.45436 c -2.3861,-2.72915 -6.8861,-6.4635 -10,-8.29856 -5.06621,-2.98558 -5.64641,-3.66601 -5.51671,-6.46979 0.19433,-4.20116 5.54412,-15.42368 10.44998,-21.92144 l 3.97957,-5.2709 2.91309,1.50642 c 1.60221,0.82853 4.10859,1.50642 5.56975,1.50642 2.1423,0 2.51494,0.33881 1.92472,1.75 -4.07801,9.75035 -4.83379,14.07054 -4.89835,28 -0.0363,7.8375 -0.07,14.22974 -0.0749,14.20497 -0.005,-0.0248 -1.96108,-2.27797 -4.34717,-5.00712 z"
       id="path2749"
       inkscape:connector-curvature="0" />
  </g>
</svg>
