<?xml version="1.0" encoding="UTF-8" standalone="no"?>
<!DOCTYPE svg PUBLIC "-//W3C//DTD SVG 1.1//EN" "http://www.w3.org/Graphics/SVG/1.1/DTD/svg11.dtd">
<svg xmlns="http://www.w3.org/2000/svg" xmlns:xlink="http://www.w3.org/1999/xlink" version="1.1" width="275.035pt" height="183.357pt" viewBox="0 0 275.035 183.357">
<g enable-background="new">
<path transform="matrix(1,0,0,-1,0,183.357)" d="M 0 0 L 275.035 0 L 275.035 183.357 L 0 183.357 Z " fill="#00b5cc"/>
<clipPath id="cp0">
<path transform="matrix(1,0,0,-1,0,183.357)" d="M 0 183.357 L 275.035 183.357 L 275.035 0 L 0 0 Z "/>
</clipPath>
<g clip-path="url(#cp0)">
<path transform="matrix(1,0,0,-1,140.085,58.674295)" d="M 0 0 C -2.567 6.723 2.934 17.113 -2.567 22.003 C -.733 14.668 -6.846 6.723 -5.135 0 C -3.423 -6.723 2.566 -6.723 0 0 " fill="#ffffff"/>
<path transform="matrix(1,0,0,-1,145.2159,59.48239)" d="M 0 0 C -1.483 7.042 5.575 16.444 .907 22.134 C 1.57 14.603 -5.709 7.711 -5.07 .803 C -4.432 -6.104 1.484 -7.042 0 0 " fill="#ffffff"/>
<path transform="matrix(1,0,0,-1,150.1583,61.082994)" d="M 0 0 C -.364 7.187 8.078 15.369 4.357 21.719 C 3.835 14.177 -4.433 8.509 -4.883 1.586 C -5.333 -5.336 .363 -7.187 0 0 " fill="#ffffff"/>
<path transform="matrix(1,0,0,-1,154.7881,63.436998)" d="M 0 0 C .766 7.156 10.384 13.917 7.702 20.77 C 6.006 13.403 -3.047 9.098 -4.574 2.331 C -6.102 -4.437 -.765 -7.156 0 0 " fill="#ffffff"/>
<path transform="matrix(1,0,0,-1,158.9942,66.4863)" d="M 0 0 C 1.875 6.948 12.432 12.121 10.855 19.31 C 8.028 12.298 -1.587 9.462 -4.154 3.018 C -6.721 -3.427 -1.875 -6.948 0 0 " fill="#ffffff"/>
<path transform="matrix(1,0,0,-1,162.67,70.1562)" d="M 0 0 C 2.939 6.569 14.176 10.026 13.743 17.374 C 9.854 10.891 -.086 9.594 -3.63 3.63 C -7.174 -2.333 -2.938 -6.569 0 0 " fill="#ffffff"/>
<path transform="matrix(1,0,0,-1,165.7276,74.355899)" d="M 0 0 C 3.931 6.028 15.569 7.686 16.292 15.01 C 11.436 9.215 1.415 9.49 -3.018 4.153 C -7.451 -1.183 -3.931 -6.028 0 0 " fill="#ffffff"/>
<path transform="matrix(1,0,0,-1,168.0899,78.981899)" d="M 0 0 C 4.825 5.339 16.58 5.155 18.439 12.276 C 12.737 7.312 2.883 9.151 -2.331 4.574 C -7.544 -.003 -4.825 -5.34 0 0 " fill="#ffffff"/>
<path transform="matrix(1,0,0,-1,169.7003,83.9209)" d="M 0 0 C 5.601 4.519 17.182 2.498 20.132 9.24 C 13.724 5.23 4.278 8.588 -1.587 4.883 C -7.452 1.177 -5.602 -4.519 0 0 " fill="#ffffff"/>
<path transform="matrix(1,0,0,-1,170.5176,89.0507)" d="M 0 0 C 6.238 3.587 17.361 -.221 21.33 5.977 C 14.373 3.019 5.569 7.812 -.804 5.071 C -7.176 2.329 -6.239 -3.587 0 0 " fill="#ffffff"/>
<path transform="matrix(1,0,0,-1,170.5215,94.2456)" d="M 0 0 C 6.724 2.567 17.113 -2.934 22.003 2.567 C 14.669 .733 6.724 6.845 0 5.134 C -6.723 3.423 -6.723 -2.567 0 0 " fill="#ffffff"/>
<path transform="matrix(1,0,0,-1,169.7139,99.37689)" d="M 0 0 C 7.042 1.484 16.443 -5.574 22.134 -.907 C 14.603 -1.57 7.711 5.709 .804 5.071 C -6.104 4.432 -7.042 -1.484 0 0 " fill="#ffffff"/>
<path transform="matrix(1,0,0,-1,168.1133,104.318798)" d="M 0 0 C 7.187 .364 15.369 -8.079 21.719 -4.358 C 14.178 -3.835 8.51 4.433 1.587 4.883 C -5.336 5.333 -7.187 -.364 0 0 " fill="#ffffff"/>
<path transform="matrix(1,0,0,-1,165.7589,108.949199)" d="M 0 0 C 7.156 -.766 13.917 -10.384 20.771 -7.702 C 13.403 -6.006 9.099 3.047 2.331 4.574 C -4.436 6.102 -7.155 .765 0 0 " fill="#ffffff"/>
<path transform="matrix(1,0,0,-1,162.71,113.1543)" d="M 0 0 C 6.948 -1.875 12.12 -12.433 19.31 -10.856 C 12.298 -8.029 9.463 1.586 3.018 4.153 C -3.428 6.721 -6.948 1.875 0 0 " fill="#ffffff"/>
<path transform="matrix(1,0,0,-1,159.0401,116.83099)" d="M 0 0 C 6.569 -2.939 10.026 -14.176 17.373 -13.743 C 10.891 -9.854 9.595 .086 3.63 3.63 C -2.334 7.174 -6.569 2.938 0 0 " fill="#ffffff"/>
<path transform="matrix(1,0,0,-1,154.8399,119.888599)" d="M 0 0 C 6.029 -3.93 7.686 -15.569 15.01 -16.292 C 9.216 -11.436 9.49 -1.415 4.154 3.018 C -1.183 7.451 -6.028 3.931 0 0 " fill="#ffffff"/>
<path transform="matrix(1,0,0,-1,150.2139,122.2509)" d="M 0 0 C 5.34 -4.825 5.155 -16.58 12.276 -18.439 C 7.313 -12.736 9.151 -2.883 4.574 2.331 C -.002 7.544 -5.339 4.825 0 0 " fill="#ffffff"/>
<path transform="matrix(1,0,0,-1,145.2755,123.86029)" d="M 0 0 C 4.519 -5.602 2.498 -17.183 9.24 -20.133 C 5.23 -13.725 8.588 -4.279 4.883 1.586 C 1.178 7.451 -4.52 5.601 0 0 " fill="#ffffff"/>
<path transform="matrix(1,0,0,-1,140.1456,124.6777)" d="M 0 0 C 3.587 -6.239 -.221 -17.362 5.978 -21.331 C 3.019 -14.373 7.812 -5.569 5.07 .803 C 2.328 7.176 -3.587 6.238 0 0 " fill="#ffffff"/>
<path transform="matrix(1,0,0,-1,134.9503,124.682598)" d="M 0 0 C 2.567 -6.724 -2.934 -17.113 2.567 -22.003 C .734 -14.669 6.846 -6.724 5.135 0 C 3.423 6.723 -2.566 6.723 0 0 " fill="#ffffff"/>
<path transform="matrix(1,0,0,-1,129.8194,123.875)" d="M 0 0 C 1.483 -7.042 -5.575 -16.443 -.906 -22.134 C -1.57 -14.603 5.709 -7.711 5.07 -.803 C 4.433 6.105 -1.483 7.042 0 0 " fill="#ffffff"/>
<path transform="matrix(1,0,0,-1,124.877,122.2744)" d="M 0 0 C .364 -7.187 -8.078 -15.369 -4.357 -21.719 C -3.835 -14.177 4.434 -8.509 4.883 -1.586 C 5.333 5.337 -.363 7.187 0 0 " fill="#ffffff"/>
<path transform="matrix(1,0,0,-1,120.2471,119.91989)" d="M 0 0 C -.765 -7.156 -10.383 -13.916 -7.702 -20.771 C -6.006 -13.403 3.047 -9.099 4.574 -2.331 C 6.102 4.437 .765 7.155 0 0 " fill="#ffffff"/>
<path transform="matrix(1,0,0,-1,116.0416,116.87109)" d="M 0 0 C -1.875 -6.947 -12.433 -12.12 -10.856 -19.31 C -8.029 -12.298 1.586 -9.462 4.153 -3.018 C 6.721 3.428 1.875 6.948 0 0 " fill="#ffffff"/>
<path transform="matrix(1,0,0,-1,112.3648,113.201099)" d="M 0 0 C -2.938 -6.569 -14.175 -10.026 -13.743 -17.373 C -9.854 -10.891 .087 -9.594 3.63 -3.63 C 7.174 2.334 2.939 6.569 0 0 " fill="#ffffff"/>
<path transform="matrix(1,0,0,-1,109.3077,109.00089)" d="M 0 0 C -3.93 -6.028 -15.569 -7.686 -16.292 -15.01 C -11.436 -9.216 -1.416 -9.49 3.018 -4.153 C 7.451 1.183 3.931 6.028 0 0 " fill="#ffffff"/>
<path transform="matrix(1,0,0,-1,106.9454,104.37499)" d="M 0 0 C -4.825 -5.34 -16.58 -5.155 -18.439 -12.276 C -12.737 -7.312 -2.883 -9.151 2.331 -4.574 C 7.544 .002 4.825 5.339 0 0 " fill="#ffffff"/>
<path transform="matrix(1,0,0,-1,105.3355,99.436)" d="M 0 0 C -5.601 -4.519 -17.182 -2.498 -20.133 -9.241 C -13.724 -5.23 -4.279 -8.587 1.586 -4.883 C 7.452 -1.178 5.601 4.519 0 0 " fill="#ffffff"/>
<path transform="matrix(1,0,0,-1,104.5181,94.30609)" d="M 0 0 C -6.239 -3.587 -17.361 .221 -21.33 -5.978 C -14.373 -3.019 -5.569 -7.813 .803 -5.071 C 7.176 -2.329 6.239 3.587 0 0 " fill="#ffffff"/>
<path transform="matrix(1,0,0,-1,104.5133,89.1113)" d="M 0 0 C -6.723 -2.567 -17.113 2.934 -22.002 -2.567 C -14.668 -.734 -6.723 -6.846 0 -5.134 C 6.723 -3.423 6.723 2.567 0 0 " fill="#ffffff"/>
<path transform="matrix(1,0,0,-1,105.3214,83.9799)" d="M 0 0 C -7.042 -1.484 -16.444 5.575 -22.133 .906 C -14.603 1.57 -7.711 -5.709 -.803 -5.071 C 6.105 -4.433 7.042 1.483 0 0 " fill="#ffffff"/>
<path transform="matrix(1,0,0,-1,106.922,79.037998)" d="M 0 0 C -7.187 -.364 -15.369 8.078 -21.719 4.357 C -14.177 3.835 -8.509 -4.433 -1.586 -4.883 C 5.336 -5.333 7.187 .364 0 0 " fill="#ffffff"/>
<path transform="matrix(1,0,0,-1,109.276,74.40769)" d="M 0 0 C -7.156 .765 -13.916 10.383 -20.77 7.702 C -13.402 6.006 -9.098 -3.047 -2.331 -4.574 C 4.437 -6.102 7.156 -.765 0 0 " fill="#ffffff"/>
<path transform="matrix(1,0,0,-1,112.3258,70.202098)" d="M 0 0 C -6.948 1.875 -12.121 12.432 -19.31 10.856 C -12.298 8.028 -9.463 -1.586 -3.018 -4.154 C 3.427 -6.721 6.948 -1.875 0 0 " fill="#ffffff"/>
<path transform="matrix(1,0,0,-1,115.9952,66.525798)" d="M 0 0 C -6.569 2.939 -10.026 14.175 -17.374 13.743 C -10.891 9.854 -9.594 -.086 -3.63 -3.63 C 2.334 -7.174 6.569 -2.939 0 0 " fill="#ffffff"/>
<path transform="matrix(1,0,0,-1,120.1949,63.468698)" d="M 0 0 C -6.028 3.93 -7.686 15.569 -15.01 16.292 C -9.215 11.436 -9.49 1.416 -4.153 -3.018 C 1.183 -7.451 6.029 -3.93 0 0 " fill="#ffffff"/>
<path transform="matrix(1,0,0,-1,124.8214,61.105897)" d="M 0 0 C -5.339 4.825 -5.155 16.58 -12.276 18.439 C -7.313 12.737 -9.151 2.882 -4.574 -2.331 C .003 -7.544 5.34 -4.825 0 0 " fill="#ffffff"/>
<path transform="matrix(1,0,0,-1,129.7598,59.4965)" d="M 0 0 C -4.519 5.601 -2.498 17.183 -9.24 20.133 C -5.23 13.724 -8.587 4.279 -4.883 -1.586 C -1.177 -7.452 4.52 -5.601 0 0 " fill="#ffffff"/>
<path transform="matrix(1,0,0,-1,134.8897,58.67919)" d="M 0 0 C -3.587 6.239 .221 17.362 -5.977 21.331 C -3.019 14.374 -7.812 5.57 -5.07 -.803 C -2.328 -7.176 3.588 -6.239 0 0 " fill="#ffffff"/>
<path transform="matrix(1,0,0,-1,137.5176,58.674295)" d="M 0 0 C 18.228 0 33.004 -14.776 33.004 -33.004 C 33.004 -51.232 18.228 -66.008 0 -66.008 C -18.228 -66.008 -33.004 -51.232 -33.004 -33.004 C -33.004 -14.776 -18.228 0 0 0 " fill="#ffffff"/>
<path transform="matrix(1,0,0,-1,137.5528,58.728494)" d="M 0 0 C 17.925 0 32.455 -14.53 32.455 -32.455 C 32.455 -50.379 17.925 -64.909 0 -64.909 C -17.924 -64.909 -32.455 -50.379 -32.455 -32.455 C -32.455 -14.53 -17.924 0 0 0 " fill="#ffffff"/>
<path transform="matrix(1,0,0,-1,137.5528,62.072198)" d="M 0 0 C -16.052 0 -29.111 -13.059 -29.111 -29.111 C -29.111 -45.163 -16.052 -58.222 0 -58.222 C 16.052 -58.222 29.111 -45.163 29.111 -29.111 C 29.111 -13.059 16.052 0 0 0 M 0 -64.909 C -19.739 -64.909 -35.798 -48.851 -35.798 -29.111 C -35.798 -9.372 -19.739 6.687 0 6.687 C 19.739 6.687 35.799 -9.372 35.799 -29.111 C 35.799 -48.851 19.739 -64.909 0 -64.909 " fill="#ffffff"/>
<path transform="matrix(1,0,0,-1,137.502,56.936998)" d="M 0 0 C 18.85 0 34.13 -15.281 34.13 -34.13 C 34.13 -52.98 18.85 -68.26 0 -68.26 C -18.85 -68.26 -34.13 -52.98 -34.13 -34.13 C -34.13 -15.281 -18.85 0 0 0 " fill="#00b5cc"/>
<path transform="matrix(1,0,0,-1,144.8682,61.988695)" d="M 0 0 C 16.06 0 29.079 -13.019 29.079 -29.079 C 29.079 -45.138 16.06 -58.157 0 -58.157 C -16.06 -58.157 -29.078 -45.138 -29.078 -29.079 C -29.078 -13.019 -16.06 0 0 0 " fill="#ffffff"/>
<path transform="matrix(1,0,0,-1,157.9503,102.06639)" d="M 0 0 L -8.03 3.811 L -11.003 -4.566 L -13.987 3.807 L -22.013 -.015 L -18.202 8.016 L -26.58 10.988 L -18.206 13.972 L -22.028 21.998 L -13.997 18.187 L -11.024 26.565 L -8.041 18.191 L -.015 22.013 L -3.825 13.982 L 4.552 11.01 L -3.821 8.026 Z " fill="#00b5cc"/>
</g>
</g>
</svg>
